<svg xmlns="http://www.w3.org/2000/svg" xmlns:xlink="http://www.w3.org/1999/xlink" version="1.1" x="0px" y="0px" width="100px" height="100px" viewBox="5.0 -10.0 100.0 135.0" enable-background="new 0 0 100 100" xml:space="preserve">
<g id="Captions">

	<text transform="matrix(1 0 0 1 66 -19.5)" fill="#000000" font-family="'Helvetica'" font-size="2.4">http://thenounproject.com</text>
	<text transform="matrix(1 0 0 1 7.166 -24.5)"><tspan x="0" y="0" fill="#000000" font-family="'Helvetica-Bold'" font-size="6.1578">The Noun Project</tspan><tspan x="1.12" y="4.8" fill="#000000" font-family="'Helvetica-Bold'" font-size="4">Icon Template</tspan></text>
	<text transform="matrix(1 0 0 1 -178.5 10.5)" fill="#000000" font-family="'Helvetica-Bold'" font-size="6.1578">Reminders</text>
	<line fill="#000000" stroke="#FFFFFF" stroke-miterlimit="10" x1="8" y1="-14.5" x2="18" y2="-14.5"/>
	<line fill="#000000" stroke="#FFFFFF" stroke-miterlimit="10" x1="-179" y1="16.5" x2="-162" y2="16.5"/>
	<g>
		<g>
			<g>
				<rect x="-170.802" y="31.318" fill="#000000" width="8.721" height="8.642"/>
				<path fill="#000000" d="M-164.455,42.312h4.747v-4.703h-4.747V42.312z M-159.266,42.749h-5.63V37.17h5.63V42.749      L-159.266,42.749z M-166.221,44.062h8.279v-8.203h-8.279V44.062L-166.221,44.062z M-157.5,44.5h-9.163v-9.079h9.163V44.5      L-157.5,44.5z"/>
				<polygon fill="#000000" points="-166.149,44.133 -166.292,43.991 -158.013,35.787 -157.871,35.929     "/>
			</g>
		</g>
	</g>
	<rect x="-179" y="58" fill="none" width="35" height="32.5"/>
	<text transform="matrix(1 0 0 1 -179 60.1299)"><tspan x="0" y="0" fill="#000000" font-family="'Helvetica-Bold'" font-size="3">Strokes</tspan><tspan x="0" y="5" fill="#000000" font-family="'Helvetica'" font-size="2.4">Try to keep strokes at 4px</tspan><tspan x="0" y="10" fill="#000000" font-family="'Helvetica'" font-size="2.4">Minimum stroke weight is 2px</tspan><tspan x="0" y="14.5" fill="#000000" font-family="'Helvetica'" font-size="2.4">For thicker strokes use even </tspan><tspan x="0" y="17.5" fill="#000000" font-family="'Helvetica'" font-size="2.4">numbers: 6px, 8px etc.</tspan><tspan x="0" y="22" fill="#000000" font-family="'Helvetica-Bold'" font-size="2.4">Remember to expand strokes </tspan><tspan x="0" y="25" fill="#000000" font-family="'Helvetica-Bold'" font-size="2.4">before saving as an SVG </tspan></text>
	<rect x="-136.5" y="58" fill="none" width="35" height="32.5"/>
	<text transform="matrix(1 0 0 1 -136.5 60.1299)"><tspan x="0" y="0" fill="#000000" font-family="'Helvetica-Bold'" font-size="3">Size</tspan><tspan x="0" y="5" fill="#000000" font-family="'Helvetica'" font-size="2.4">Cannot be wider or taller than </tspan><tspan x="0" y="8.5" fill="#000000" font-family="'Helvetica'" font-size="2.4">100px (artboard size)</tspan><tspan x="0" y="13.5" fill="#000000" font-family="'Helvetica'" font-size="2.4">Scale your icon to fill as much of </tspan><tspan x="0" y="16.5" fill="#000000" font-family="'Helvetica'" font-size="2.4">the artboard as possible</tspan></text>
	<rect x="-94" y="58" fill="none" width="35" height="32.5"/>
	<text transform="matrix(1 0 0 1 -94 60.1299)"><tspan x="0" y="0" fill="#000000" font-family="'Helvetica-Bold'" font-size="3">Ungroup</tspan><tspan x="0" y="5" fill="#000000" font-family="'Helvetica'" font-size="2.4">If your design has more than one </tspan><tspan x="0" y="8" fill="#000000" font-family="'Helvetica'" font-size="2.4">shape, make sure to ungroup</tspan></text>
	<rect x="-50" y="58" fill="none" width="35" height="32.5"/>
	<text transform="matrix(1 0 0 1 -50 60.1299)"><tspan x="0" y="0" fill="#000000" font-family="'Helvetica-Bold'" font-size="3">Save as</tspan><tspan x="0" y="5" fill="#000000" font-family="'Helvetica'" font-size="2.4">Save as .SVG and make sure &#8220;Use </tspan><tspan x="0" y="8" fill="#000000" font-family="'Helvetica'" font-size="2.4">Artboards&#8221; is checked</tspan></text>
	<text transform="matrix(1.0074 0 0 1 -125.542 30.5933)" fill="#000000" font-family="'Helvetica'" font-size="2.5731">100px</text>
	<text transform="matrix(1.0074 0 0 1 -41 39)" fill="#000000" font-family="'Helvetica-Bold'" font-size="5.1462">.SVG</text>
	<rect x="-126.514" y="34.815" fill="#000000" width="10.261" height="10.185"/>
	<rect x="-126.477" y="31.766" fill="#000000" width="0.522" height="2.337"/>
	<rect x="-116.813" y="31.766" fill="#000000" width="0.523" height="2.337"/>
	<rect x="-127" y="32.337" fill="#000000" width="11.233" height="0.572"/>
	<g>
		<rect x="-83.805" y="33.844" fill="#000000" width="10.305" height="10.156"/>
		<rect x="-76.809" y="28.707" fill="#000000" width="3.308" height="3.261"/>
	</g>
	<rect x="-178.5" y="22.5" fill="#000000" stroke="#FFFFFF" stroke-miterlimit="10" width="30" height="30"/>
	<rect x="-136.5" y="22.5" fill="#000000" stroke="#FFFFFF" stroke-miterlimit="10" width="30" height="30"/>
	<rect x="-93.5" y="22.5" fill="#000000" stroke="#FFFFFF" stroke-miterlimit="10" width="30" height="30"/>
	<rect x="-49.5" y="22.5" fill="#000000" stroke="#FFFFFF" stroke-miterlimit="10" width="30" height="30"/>
</g>
<g id="Your_Icon">
	<path d="M56.365,56.863c3.514-3.514,3.514-9.212-0.002-12.727c-2.484-2.485-6.06-3.205-9.185-2.174   c0.39,0.634,0.626,1.374,0.626,2.173c0,2.304-1.865,4.17-4.168,4.17c-0.8,0-1.54-0.237-2.174-0.627   c-1.03,3.125-0.312,6.701,2.174,9.186C47.151,60.379,52.85,60.379,56.365,56.863z"/>
	<path d="M95.707,49.792C95.524,49.609,77.101,31.5,50,31.5c-27.101,0-45.524,18.11-45.707,18.293L3.585,50.5l0.707,0.708   C4.475,51.39,22.899,69.5,50,69.5c27.101,0,45.525-18.11,45.708-18.293l0.707-0.708L95.707,49.792z M6.467,50.499   c3.121-2.808,15.624-13.133,33.587-16.157C34.632,37.691,31,43.672,31,50.5c0,6.827,3.631,12.805,9.05,16.157   C22.104,63.627,9.589,53.305,6.467,50.499z M50,33.5c9.375,0,17,7.626,17,17c0,9.374-7.626,17-17,17c-9.374,0-17-7.627-17-17   C33,41.125,40.625,33.5,50,33.5z M59.949,66.654C65.369,63.305,69,57.326,69,50.5c0-6.826-3.631-12.806-9.051-16.156   c17.944,3.027,30.46,13.35,33.583,16.156C90.409,53.305,77.894,63.629,59.949,66.654z"/>
</g>
</svg>