<?xml version="1.0" encoding="utf-8"?>
<!-- Generator: Adobe Illustrator 18.1.0, SVG Export Plug-In . SVG Version: 6.00 Build 0)  -->
<svg version="1.1" id="Ebene_1" xmlns="http://www.w3.org/2000/svg" xmlns:xlink="http://www.w3.org/1999/xlink" x="0px" y="0px"
	 viewBox="0 201 500 94" enable-background="new 0 201 500 94" xml:space="preserve">
<g>
	<g>
		<path fill="#010101" d="M35.5,229.7c-6.5,0-11.6,4.2-11.6,10.9c0,6.7,5,10.7,11.6,10.7c6.5,0,11.6-4,11.6-10.7
			C47.2,233.9,42.1,229.7,35.5,229.7 M50.1,269.9c-1.9-2-5.2-3.1-10.1-3.1H28.9c-3.5,0.8-6.9,3.7-6.9,8.6c0,2.2,0.9,4,2.3,5.3
			c3,2.8,8.2,3.3,12.4,3.3c4.2,0,10.1-0.5,13.3-3.7c1.3-1.3,2.2-3.1,2.2-5.3C52.1,272.8,51.4,271.3,50.1,269.9 M53.1,282.9
			c-3.6,3.7-9.9,4.9-16.6,4.9c-6.4,0-12.1-1.3-15.6-4.9c-1.8-1.9-2.9-4.4-2.9-7.5c0-4,2.3-8,6.3-9.8c-2.9-0.8-5.3-3.9-5.3-6.9
			c0-3.6,1.8-6.1,5-8c-2.6-2.5-4.2-5.9-4.2-10.3c0-9,6.9-14.7,15.7-14.7c3.7,0,7,1,9.8,2.8c1.1-3.6,4.7-5.7,8.5-5.7
			c0.5,0,1.1,0.2,1.6,0.2v3.6c-0.5,0-1.1-0.2-1.6-0.2c-3,0-5.2,1.7-5.8,4.5c2.1,2.4,3.3,5.6,3.3,9.4c0,9-7,14.5-15.8,14.5
			c-3.1,0-5.9-0.7-8.4-1.9c-2.2,0.8-4.2,2.6-4.2,5.2c0,2,1.3,3.3,2.9,3.9c1.5,0.6,4,0.7,5.6,0.7h9.1c5.4,0,9.6,1.3,12.3,4.1
			c2,2,3.3,4.4,3.3,8.1C56.3,278.4,55,281,53.1,282.9"/>
	</g>
	<rect x="64.9" y="227" fill="#010101" width="4.4" height="41.9"/>
	<g>
		<path fill="#010101" d="M110.6,247.3l-15,0.9c-6.2,0.4-10.2,3.7-10.2,8.8c0,6,4.5,9,10.5,9c10.5,0,14.7-8.5,14.7-16.6V247.3z
			 M117.2,269.1c-5.2,0-6.6-3.8-6.6-8.2c-2.3,5.9-8.6,9-15.1,9c-8.1,0-14.4-4.9-14.4-12.9c0-7.5,5.8-11.9,14.1-12.5l15.4-1.1v-4.1
			c0-6.9-4.7-9.5-11.1-9.5c-6.6,0-11.6,3-12.1,9.2h-4.2c0.6-8.5,7.2-13.1,16.2-13.1c5.7,0,11.9,1.9,14.1,7.7c1,2.6,1.1,5.3,1.1,8
			v19.1c0,2.8,0.4,4.5,3.3,4.5c0.5,0,0.8,0,1.2-0.1v3.7C118.2,269,118.2,269.1,117.2,269.1"/>
		<path fill="#010101" d="M158.7,268.9v-27.4c0-7.3-3.2-11.5-10.8-11.5c-10.3,0-13.9,8.9-13.9,17.9v20.9h-4.2V227h3.7l0.5,7.6
			c2.3-5.3,8.3-8.7,14.1-8.7c9.6,0,14.7,5.9,14.7,15.3v27.6H158.7z"/>
		<path fill="#010101" d="M189.9,269.4c-7.8,0-10.8-4.9-10.8-12.2v-26.4h-8.4V227h8.4v-11.6l4.2-1V227h13v3.9h-13v26.2
			c0,4.9,1.3,8.5,6.9,8.5c2.3,0,4.4-0.3,6.6-0.8v3.7C194.5,268.9,192.2,269.4,189.9,269.4"/>
		<path fill="#010101" d="M278.1,264.9c-3,3.3-8,5-13.6,5c-5.7,0-10.5-1.8-13.7-5.4c-2.3-2.7-3.3-5-3.5-8.5h4.3
			c0.3,2.5,1.3,4.7,3.1,6.4c2.4,2.3,5.9,3.3,9.9,3.3c4.4,0,7.8-1,9.9-3.1c1.5-1.5,2.3-2.9,2.3-5.4c0-3.8-2.7-6.9-7.7-7.6l-8.1-1.1
			c-3.4-0.4-7.1-1.5-9.5-4.2c-1.5-1.8-2.3-3.9-2.3-6.6c0-3.3,1.4-6.1,3.6-8.1c3-2.8,7.1-3.9,11.5-3.9c5,0,9.8,1.6,12.6,4.9
			c1.9,2.3,3.1,5,3.2,7.7h-4.2c-0.2-1.3-0.8-3.4-2.1-5c-1.9-2.3-5.2-3.7-9.5-3.7c-3.3,0-5.7,0.6-7.5,1.9c-2.1,1.5-3.3,3.5-3.3,5.8
			c0,3.5,1.8,6.2,8.1,7l8,1.1c7.9,1.1,11.6,6.4,11.6,11.6C281,260.3,280,262.8,278.1,264.9"/>
		<path fill="#010101" d="M304.8,269.4c-7.8,0-10.8-4.9-10.8-12.2v-26.4h-8.4V227h8.4v-11.6l4.2-1V227h13v3.9h-13v26.2
			c0,4.9,1.3,8.5,6.9,8.5c2.3,0,4.4-0.3,6.6-0.8v3.7C309.4,268.9,307.1,269.4,304.8,269.4"/>
		<path fill="#010101" d="M335.1,229.8c-8.6,0-14.1,6.9-14.1,15.2h27.7C348.5,237.1,343.6,229.8,335.1,229.8 M352.9,248.9h-32
			c0.1,4.9,1.7,9.4,4.4,12.6c2.3,2.8,5.6,4.4,10.1,4.4c3.7,0,6.9-1.3,9.1-3.7c1.5-1.6,2.7-3.4,3.2-5.9h4.4c-0.6,3.6-2.3,6.5-4.7,8.8
			c-3,3-7.2,4.9-12,4.9c-6,0-10.3-2.5-13.3-5.9c-3.4-4-5.4-9.5-5.4-15.9c0-5.3,0.8-10.5,4.1-14.9c3.5-4.8,8.4-7.3,14.2-7.3
			c11.3,0,17.9,9.7,17.9,20.3C353,247.2,352.9,247.9,352.9,248.9"/>
		<path fill="#010101" d="M390.1,232.9c-2.1-1.8-4.8-2.9-8.3-2.9c-3.7,0-6.4,1.3-8.5,3.3c-3.8,3.7-5.4,8.8-5.4,14.6
			c0,6.2,1.4,11,5.3,14.7c2.1,2,4.9,3.3,8.8,3.3c3.9,0,6.8-1.4,9-3.7c3.3-3.5,4.7-8.9,4.7-14.2C395.6,242,393.9,236.4,390.1,232.9
			 M393.3,265.6c-2.8,2.7-6.5,4.4-11.4,4.4c-5.9,0-11.7-3.3-14-8.1v23.8h-4.2V227h3.7l0.5,7.4c2.3-5.2,8.3-8.5,13.9-8.5
			c4.8,0,8.4,1.5,11.1,3.9c4.7,4.1,6.9,10.8,6.9,18C399.8,254.7,397.8,261.4,393.3,265.6"/>
		<path fill="#010101" d="M438,264.9c-3,3.3-8,5-13.6,5c-5.7,0-10.5-1.8-13.7-5.4c-2.3-2.7-3.3-5-3.5-8.5h4.3
			c0.3,2.5,1.3,4.7,3.1,6.4c2.4,2.3,5.9,3.3,9.9,3.3c4.4,0,7.8-1,9.9-3.1c1.5-1.5,2.3-2.9,2.3-5.4c0-3.8-2.7-6.9-7.7-7.6l-8.1-1.1
			c-3.4-0.4-7.1-1.5-9.5-4.2c-1.5-1.8-2.3-3.9-2.3-6.6c0-3.3,1.4-6.1,3.6-8.1c3-2.8,7.1-3.9,11.5-3.9c5,0,9.8,1.6,12.6,4.9
			c1.9,2.3,3.1,5,3.2,7.7h-4.2c-0.2-1.3-0.8-3.4-2.1-5c-1.9-2.3-5.2-3.7-9.5-3.7c-3.3,0-5.7,0.6-7.5,1.9c-2.1,1.5-3.3,3.5-3.3,5.8
			c0,3.5,1.8,6.2,8.1,7l8,1.1c7.9,1.1,11.6,6.4,11.6,11.6C440.9,260.3,439.9,262.8,438,264.9"/>
		<path fill="#010101" d="M71.3,212.4c0,2.2-1.8,4.1-4.1,4.1s-4.1-1.8-4.1-4.1c0-2.2,1.8-4.1,4.1-4.1S71.3,210.2,71.3,212.4"/>
		<path fill="#010101" d="M207.7,281.5c0,2.2-1.8,4.1-4.1,4.1s-4.1-1.8-4.1-4.1c0-2.2,1.8-4.1,4.1-4.1S207.7,279.3,207.7,281.5"/>
		<path fill="#010101" d="M221.2,281.5c0,2.2-1.8,4.1-4.1,4.1c-2.2,0-4.1-1.8-4.1-4.1c0-2.2,1.8-4.1,4.1-4.1
			C219.4,277.5,221.2,279.3,221.2,281.5"/>
		<path fill="#010101" d="M234.8,281.5c0,2.2-1.8,4.1-4.1,4.1c-2.2,0-4.1-1.8-4.1-4.1c0-2.2,1.8-4.1,4.1-4.1
			S234.8,279.3,234.8,281.5"/>
		<path fill="#010101" d="M248.4,281.5c0,2.2-1.8,4.1-4.1,4.1c-2.2,0-4.1-1.8-4.1-4.1c0-2.2,1.8-4.1,4.1-4.1
			C246.6,277.5,248.4,279.3,248.4,281.5"/>
		<path fill="#010101" d="M449,212.4c0,2.2-1.8,4.1-4.1,4.1s-4.1-1.8-4.1-4.1c0-2.2,1.8-4.1,4.1-4.1S449,210.2,449,212.4"/>
		<path fill="#010101" d="M462.6,212.4c0,2.2-1.8,4.1-4.1,4.1c-2.2,0-4.1-1.8-4.1-4.1c0-2.2,1.8-4.1,4.1-4.1
			C460.8,208.3,462.6,210.2,462.6,212.4"/>
		<path fill="#010101" d="M476.2,212.4c0,2.2-1.8,4.1-4.1,4.1c-2.2,0-4.1-1.8-4.1-4.1c0-2.2,1.8-4.1,4.1-4.1
			C474.3,208.3,476.2,210.2,476.2,212.4"/>
		<path fill="#010101" d="M489.8,212.4c0,2.2-1.8,4.1-4.1,4.1s-4.1-1.8-4.1-4.1c0-2.2,1.8-4.1,4.1-4.1S489.8,210.2,489.8,212.4"/>
	</g>
</g>
</svg>
