<?xml version="1.0" encoding="utf-8"?>
<!-- Generator: Adobe Illustrator 18.1.0, SVG Export Plug-In . SVG Version: 6.00 Build 0)  -->
<svg version="1.1" id="Ebene_1" xmlns="http://www.w3.org/2000/svg" xmlns:xlink="http://www.w3.org/1999/xlink" x="0px" y="0px"
	 viewBox="283 40 64 21" enable-background="new 283 40 64 21" xml:space="preserve">
<g>
	<g>
		<path fill="#FFFFFF" d="M297.7,50c0,2.3-1.9,4.4-4.4,4.4S289,52.4,289,50c0-2.3,1.9-4.4,4.4-4.4S297.7,47.7,297.7,50"/>
		<path fill="#FFFFFF" d="M312.1,50c0,2.3-1.9,4.4-4.4,4.4c-2.3,0-4.4-1.9-4.4-4.4c0-2.3,1.9-4.4,4.4-4.4
			C310.2,45.7,312.1,47.7,312.1,50"/>
		<path fill="#FFFFFF" d="M326.5,50c0,2.3-1.9,4.4-4.4,4.4c-2.3,0-4.4-1.9-4.4-4.4c0-2.3,1.9-4.4,4.4-4.4
			C324.6,45.6,326.5,47.7,326.5,50"/>
		<path fill="#FFFFFF" d="M341,50c0,2.3-1.9,4.4-4.4,4.4c-2.3,0-4.4-1.9-4.4-4.4c0-2.3,1.9-4.4,4.4-4.4C339.1,45.7,341,47.7,341,50"
			/>
	</g>
</g>
</svg>
