<?xml version="1.0" encoding="UTF-8"?>
<svg xmlns="http://www.w3.org/2000/svg" xmlns:xlink="http://www.w3.org/1999/xlink" version="1.2" >
<font id="Akkurat">
<font-face  font-family="Akkurat" units-per-em="1000" ascent="723" descent="-199" font-style="normal" font-weight="400" font-stretch="normal" cap-height="709" x-height="520" underline-position="-93" underline-thickness="45" />
<missing-glyph  horiz-adv-x="588" d="M88 698 L500 698 L500 0 L88 0 L88 698 Z M425 74 L425 623 L163 623 L163 74 L425 74 Z " />
<glyph glyph-name="space" unicode="&#x20;" horiz-adv-x="230" d="" />
<glyph glyph-name="Scaron" unicode="&#x160;" horiz-adv-x="635" d="M585 195 Q585 150 568 117 Q551 84 525 58 Q488 22 434.5 4.5 Q381 -13 324 -13 Q195 -13 121 55 Q87 87 66 130.5 Q45 174 45 225 L138 225 Q138 193 152 163.5 Q166 134 188 113 Q212 90 249 79.5 Q286 69 324 69 Q365 69 398.5 78 Q432 87 456 110 Q473 125 482.5 144.5 Q492 164 492 193 Q492 235 464 266 Q436 297 373 307 Q344 312 317 315.5 Q290 319 261 324 Q221 330 186.5 344 Q152 358 126.5 381.5 Q101 405 86.5 437.5 Q72 470 72 512 Q72 552 88.5 588.5 Q105 625 134 652 Q209 722 320 722 Q372 722 420.5 705 Q469 688 504 654 Q569 592 572 502 L479 502 Q477 528 468 551 Q459 574 444 591 Q424 614 392.5 627 Q361 640 319 640 Q281 640 248.5 628.5 Q216 617 193 591 Q179 575 171.5 556.5 Q164 538 164 514 Q164 490 173 472.5 Q182 455 197 443 Q212 431 231 424 Q250 417 270 414 Q300 410 329.5 405.5 Q359 401 388 396 Q477 383 531 331.5 Q585 280 585 195 Z M213 935 L321 820 L428 935 L473 890 L348 759 L293 759 L168 890 L213 935 Z " />
<glyph glyph-name="scaron" unicode="&#x161;" horiz-adv-x="521" d="M468 147 Q468 114 457 88.5 Q446 63 428 44 Q399 14 356 0.5 Q313 -13 263 -13 Q215 -13 173 -0.5 Q131 12 99 44 Q76 67 63 97.5 Q50 128 50 160 L135 160 Q136 134 147 114.5 Q158 95 176 81 Q193 68 218 63 Q243 58 267 58 Q293 58 316.5 63.5 Q340 69 360 86 Q371 94 378 109 Q385 124 385 141 Q385 170 365 189 Q345 208 306 213 Q298 214 284 216 Q270 218 254 220 Q238 222 221.5 224 Q205 226 192 228 Q135 237 101.5 271.5 Q68 306 68 364 Q68 393 80.5 419.5 Q93 446 110 463 Q135 489 173 504 Q211 519 259 519 Q310 519 352 503 Q394 487 420 455 Q437 435 446.5 412 Q456 389 456 358 L371 358 Q370 378 361.5 394.5 Q353 411 342 421 Q312 448 259 448 Q244 448 231 447 Q218 446 200 438 Q176 428 162.5 409.5 Q149 391 149 370 Q149 338 167 323.5 Q185 309 217 304 Q238 301 268 297.5 Q298 294 339 287 Q393 278 430.5 241 Q468 204 468 147 Z M167 711 L265 608 L361 711 L401 671 L289 553 L239 553 L127 671 L167 711 Z " />
<glyph glyph-name="Yacute" unicode="&#xdd;" horiz-adv-x="566" d="M328 288 L328 0 L238 0 L238 288 L0 709 L100 709 L286 372 L471 709 L566 709 L328 288 Z M212 749 L182 796 L352 919 L397 848 L212 749 Z " />
<glyph glyph-name="yacute" unicode="&#xfd;" horiz-adv-x="498" d="M260 -104 Q242 -153 211 -182.5 Q180 -212 123 -212 Q91 -212 71 -208 Q51 -204 46 -202 L46 -128 Q54 -130 64 -132 Q72 -134 82.5 -135 Q93 -136 106 -136 Q133 -136 152 -125 Q171 -114 182 -85 L214 0 L12 506 L108 506 L257 107 L399 506 L488 506 L260 -104 Z M192 550 L162 597 L332 720 L377 649 L192 550 Z " />
<glyph glyph-name="Thorn" unicode="&#xde;" horiz-adv-x="607" d="M577 363 Q577 261 518 202 Q489 173 446.5 158 Q404 143 345 143 L190 143 L190 0 L100 0 L100 710 L190 710 L190 577 L344 577 Q407 577 450.5 560.5 Q494 544 523 513 Q549 485 563 447.5 Q577 410 577 363 Z M485 363 Q485 426 451 461 Q417 496 342 496 L190 496 L190 224 L343 224 Q421 224 453 259 Q485 294 485 363 Z " />
<glyph glyph-name="thorn" unicode="&#xfe;" horiz-adv-x="590" d="M536 252 Q536 186 516.5 130 Q497 74 459 37 Q434 14 401 0 Q368 -14 323 -14 Q302 -14 280.5 -9 Q259 -4 239.5 5 Q220 14 204 27.5 Q188 41 178 58 L178 -201 L93 -201 L93 722 L178 722 L178 447 Q188 464 204 477.5 Q220 491 239.5 500 Q259 509 280.5 514 Q302 519 323 519 Q368 519 401 505 Q434 491 459 468 Q497 431 516.5 374.5 Q536 318 536 252 Z M450 252 Q450 287 444 322 Q438 357 422 384.5 Q406 412 378.5 429.5 Q351 447 309 447 Q281 447 262.5 437.5 Q244 428 229 414 Q197 386 185 343 Q173 300 173 252 Q173 204 185 161.5 Q197 119 229 91 Q244 77 262.5 67.5 Q281 58 309 58 Q351 58 378.5 75 Q406 92 422 120 Q438 148 444 182.5 Q450 217 450 252 Z " />
<glyph glyph-name="&amp;#x8e;" unicode="&#x8e;" horiz-adv-x="612" d="M43 0 L43 89 L456 626 L47 626 L47 709 L562 709 L562 619 L148 83 L566 83 L566 0 L43 0 Z M196 930 L304 815 L411 930 L456 885 L331 754 L276 754 L151 885 L196 930 Z " />
<glyph glyph-name="&amp;#x17d;" unicode="&#x17d;" horiz-adv-x="612" d="M43 0 L43 89 L456 626 L47 626 L47 709 L562 709 L562 619 L148 83 L566 83 L566 0 L43 0 Z M196 930 L304 815 L411 930 L456 885 L331 754 L276 754 L151 885 L196 930 Z " />
<glyph glyph-name="&amp;#x9e;" unicode="&#x9e;" horiz-adv-x="501" d="M53 0 L53 75 L347 432 L53 432 L53 506 L450 506 L450 431 L157 74 L453 74 L453 0 L53 0 Z M156 710 L254 607 L350 710 L390 670 L278 552 L228 552 L116 670 L156 710 Z " />
<glyph glyph-name="&amp;#x17e;" unicode="&#x17e;" horiz-adv-x="501" d="M53 0 L53 75 L347 432 L53 432 L53 506 L450 506 L450 431 L157 74 L453 74 L453 0 L53 0 Z M156 710 L254 607 L350 710 L390 670 L278 552 L228 552 L116 670 L156 710 Z " />
<glyph glyph-name="onehalf" unicode="&#xbd;" horiz-adv-x="909" d="M530 -1 L530 62 L685 192 Q702 206 713 221 Q724 236 724 259 Q724 267 721.5 273 Q719 279 716 284 Q708 297 693.5 303 Q679 309 661 309 Q628 309 611 290 Q594 271 593 239 L522 239 Q524 302 563 337 Q602 372 663 372 Q690 372 714 364.5 Q738 357 755.5 342 Q773 327 783.5 305 Q794 283 794 255 Q794 233 788 216.5 Q782 200 771.5 186 Q761 172 747 159 Q733 146 717 133 L636 65 L804 65 L804 -1 L530 -1 Z M189 -21 L135 20 L650 724 L705 685 L189 -21 Z M171 345 L171 626 L79 563 L79 642 L176 709 L242 709 L242 345 L171 345 Z " />
<glyph glyph-name="onequarter" unicode="&#xbc;" horiz-adv-x="860" d="M736 75 L736 0 L667 0 L667 75 L489 75 L489 144 L632 369 L713 369 L565 134 L667 134 L667 212 L736 212 L736 134 L795 134 L795 75 L736 75 Z M194 -21 L140 20 L655 724 L710 685 L194 -21 Z M176 345 L176 626 L84 563 L84 642 L181 709 L247 709 L247 345 L176 345 Z " />
<glyph glyph-name="onesuperior" unicode="&#xb9;" horiz-adv-x="310" d="M147 345 L147 626 L55 563 L55 642 L152 709 L218 709 L218 345 L147 345 Z " />
<glyph glyph-name="threequarters" unicode="&#xbe;" horiz-adv-x="902" d="M778 75 L778 0 L709 0 L709 75 L531 75 L531 144 L674 369 L755 369 L607 134 L709 134 L709 212 L778 212 L778 134 L837 134 L837 75 L778 75 Z M236 -21 L182 20 L697 724 L752 685 L236 -21 Z M349 447 Q349 424 342 407.5 Q335 391 324 378 Q303 355 272.5 345.5 Q242 336 207 336 Q174 336 144.5 347 Q115 358 95 381 Q82 396 73.5 416 Q65 436 65 461 L134 461 Q135 428 155 410.5 Q175 393 207 393 Q236 393 257 405 Q278 417 278 446 Q278 471 262.5 486.5 Q247 502 212 502 L184 502 L184 559 L206 559 Q214 559 221 559.5 Q228 560 238 563 Q270 572 270 612 Q270 634 251.5 647.5 Q233 661 207 661 Q195 661 183 657.5 Q171 654 161 646.5 Q151 639 144 627 Q137 615 137 598 L68 598 Q68 626 77.5 646 Q87 666 103 681 Q123 699 149.5 708 Q176 717 208 717 Q243 717 271.5 706.5 Q300 696 318 674 Q329 661 335.5 645 Q342 629 342 608 Q342 584 327 560 Q312 536 286 530 Q315 522 332 497.5 Q349 473 349 447 Z " />
<glyph glyph-name="threesuperior" unicode="&#xb3;" horiz-adv-x="414" d="M349 447 Q349 424 342 407.5 Q335 391 324 378 Q303 355 272.5 345.5 Q242 336 207 336 Q174 336 144.5 347 Q115 358 95 381 Q82 396 73.5 416 Q65 436 65 461 L134 461 Q135 428 155 410.5 Q175 393 207 393 Q236 393 257 405 Q278 417 278 446 Q278 471 262.5 486.5 Q247 502 212 502 L184 502 L184 559 L206 559 Q214 559 221 559.5 Q228 560 238 563 Q270 572 270 612 Q270 634 251.5 647.5 Q233 661 207 661 Q195 661 183 657.5 Q171 654 161 646.5 Q151 639 144 627 Q137 615 137 598 L68 598 Q68 626 77.5 646 Q87 666 103 681 Q123 699 149.5 708 Q176 717 208 717 Q243 717 271.5 706.5 Q300 696 318 674 Q329 661 335.5 645 Q342 629 342 608 Q342 584 327 560 Q312 536 286 530 Q315 522 332 497.5 Q349 473 349 447 Z " />
<glyph glyph-name="twosuperior" unicode="&#xb2;" horiz-adv-x="412" d="M73 343 L73 406 L228 536 Q245 550 256 565 Q267 580 267 603 Q267 618 259 628 Q251 642 236.5 647.5 Q222 653 204 653 Q171 653 154.5 634 Q138 615 136 583 L65 583 Q66 614 76.5 638.5 Q87 663 106 680.5 Q125 698 150.5 707 Q176 716 206 716 Q233 716 257 708.5 Q281 701 298.5 686 Q316 671 326.5 649 Q337 627 337 599 Q337 577 331 560.5 Q325 544 314.5 530 Q304 516 290 503 Q276 490 260 477 L179 409 L347 409 L347 343 L73 343 Z " />
<glyph glyph-name="brokenbar" unicode="&#xa6;" horiz-adv-x="276" d="M100 450 L100 759 L176 759 L176 450 L100 450 Z M100 -50 L100 258 L176 258 L176 -50 L100 -50 Z " />
<glyph glyph-name="minus" unicode="&#x2212;" horiz-adv-x="645" d="M70 262 L70 341 L585 341 L585 262 L70 262 Z " />
<glyph glyph-name="multiply" unicode="&#xd7;" horiz-adv-x="682" d="M563 22 L341 244 L119 22 L65 76 L287 298 L65 520 L119 574 L340 352 L563 574 L617 520 L394 298 L617 76 L563 22 Z " />
<glyph glyph-name="lslash" unicode="&#x142;" horiz-adv-x="333" d="M195 396 L195 123 Q195 97 205 84 Q215 71 241 71 L269 71 Q273 71 276 72 L276 0 Q270 -2 261 -3 Q246 -6 216 -6 Q160 -6 135 26 Q110 58 110 118 L110 343 L53 308 L20 360 L110 416 L110 722 L195 722 L195 469 L275 519 L308 466 L195 396 Z " />
<glyph glyph-name="exclam" unicode="&#x21;" horiz-adv-x="331" d="M211 215 L153 215 L130 485 L130 709 L232 709 L232 485 L211 215 Z M130 0 L130 109 L236 109 L236 0 L130 0 Z " />
<glyph glyph-name="quotedbl" unicode="&#x22;" horiz-adv-x="444" d="M333 433 L280 433 L259 586 L259 709 L354 709 L354 586 L333 433 Z M164 433 L111 433 L90 586 L90 709 L185 709 L185 586 L164 433 Z " />
<glyph glyph-name="numbersign" unicode="&#x23;" horiz-adv-x="752" d="M546 428 L524 267 L649 267 L649 190 L513 190 L487 1 L409 1 L435 190 L282 190 L255 1 L177 1 L203 190 L75 190 L75 267 L214 267 L236 428 L108 428 L108 506 L247 506 L273 695 L351 695 L325 506 L478 506 L505 695 L583 695 L557 506 L682 506 L682 428 L546 428 Z M314 428 L292 267 L445 267 L468 428 L314 428 Z " />
<glyph glyph-name="dollar" unicode="&#x24;" horiz-adv-x="560" d="M536 204 Q536 161 519.5 127.5 Q503 94 478 69 Q447 39 406 22.5 Q365 6 318 1 L318 -90 L260 -90 L260 1 Q164 9 101 66 Q68 96 49 137.5 Q30 179 30 228 L118 228 Q118 197 130.5 169 Q143 141 165 121 Q185 103 208.5 93 Q232 83 260 79 L260 322 Q251 324 241.5 325 Q232 326 223 327 Q186 331 154 345.5 Q122 360 98.5 382.5 Q75 405 61.5 436.5 Q48 468 48 507 Q48 545 64 580 Q80 615 107 641 Q140 673 178 688.5 Q216 704 260 708 L260 800 L318 800 L318 707 Q360 702 396 686.5 Q432 671 461 643 Q492 613 508.5 577.5 Q525 542 527 498 L438 498 Q435 554 402 588 Q386 605 365.5 615.5 Q345 626 318 630 L318 402 L348 398 Q388 393 422.5 378 Q457 363 482.5 339 Q508 315 522 281 Q536 247 536 204 Z M260 631 Q232 628 208 618 Q184 608 164 587 Q136 556 136 509 Q136 464 163 440.5 Q190 417 231 412 L260 408 L260 631 Z M448 202 Q448 251 416.5 279 Q385 307 334 313 L318 315 L318 79 Q347 82 370 91.5 Q393 101 412 119 Q428 134 438 154 Q448 174 448 202 Z " />
<glyph glyph-name="percent" unicode="&#x25;" horiz-adv-x="919" d="M854 178 Q854 143 847 113 Q840 83 823 57 Q803 28 771 7.5 Q739 -13 691 -13 Q643 -13 611 7.5 Q579 28 559 57 Q542 83 535 113 Q528 143 528 178 Q528 213 535 243.5 Q542 274 559 300 Q579 329 611 349.5 Q643 370 691 370 Q739 370 771 349.5 Q803 329 823 300 Q840 274 847 243.5 Q854 213 854 178 Z M230 -21 L176 20 L691 724 L746 685 L230 -21 Z M386 531 Q386 496 379 466 Q372 436 355 410 Q335 381 303 360.5 Q271 340 223 340 Q175 340 143 360.5 Q111 381 91 410 Q74 436 67 466 Q60 496 60 531 Q60 566 67 596.5 Q74 627 91 653 Q111 682 143 702.5 Q175 723 223 723 Q271 723 303 702.5 Q335 682 355 653 Q372 627 379 596.5 Q386 566 386 531 Z M777 178 Q777 209 771 235.5 Q765 262 748 279 Q738 290 725 296.5 Q712 303 691 303 Q670 303 656.5 296.5 Q643 290 633 279 Q616 262 610 235.5 Q604 209 604 178 Q604 147 610 121 Q616 95 633 78 Q643 67 656.5 60.5 Q670 54 691 54 Q712 54 725 60.5 Q738 67 748 78 Q765 95 771 121 Q777 147 777 178 Z M309 531 Q309 562 303 588.5 Q297 615 280 632 Q270 643 257 649.5 Q244 656 223 656 Q202 656 188.5 649.5 Q175 643 165 632 Q148 615 142 588.5 Q136 562 136 531 Q136 500 142 474 Q148 448 165 431 Q175 420 188.5 413.5 Q202 407 223 407 Q244 407 257 413.5 Q270 420 280 431 Q297 448 303 474 Q309 500 309 531 Z " />
<glyph glyph-name="ampersand" unicode="&#x26;" horiz-adv-x="737" d="M602 332 Q602 308 599 280.5 Q596 253 590 226.5 Q584 200 574.5 176.5 Q565 153 553 135 L674 0 L566 0 L505 69 Q467 26 413.5 6.5 Q360 -13 303 -13 Q257 -13 216.5 1 Q176 15 146 41.5 Q116 68 98.5 106 Q81 144 81 192 Q81 248 107.5 294 Q134 340 181 369 Q200 382 216 391 Q199 410 183.5 428 Q168 446 156.5 465.5 Q145 485 138.5 507 Q132 529 132 557 Q132 594 145.5 624 Q159 654 183 676 Q207 698 239.5 710 Q272 722 311 722 Q350 722 383.5 710.5 Q417 699 441 677 Q465 655 478.5 624 Q492 593 492 554 Q492 503 468.5 463 Q445 423 401 397 L350 365 L497 199 Q506 215 511 235.5 Q516 256 518.5 279 Q521 302 521.5 326 Q522 350 522 371 L522 405 L675 405 L675 332 L602 332 Z M409 553 Q409 598 383 624 Q357 650 309 650 Q267 650 241 624.5 Q215 599 215 558 Q215 537 222.5 518.5 Q230 500 242 483.5 Q254 467 268.5 452.5 Q283 438 296 423 Q319 435 339.5 447 Q360 459 375.5 474 Q391 489 400 508 Q409 527 409 553 Z M268 334 L227 308 Q198 288 182 258.5 Q166 229 166 194 Q166 166 176 142.5 Q186 119 204 102 Q222 85 246 75.5 Q270 66 298 66 Q345 66 383.5 79 Q422 92 451 130 L268 334 Z " />
<glyph glyph-name="quotesingle" unicode="&#x27;" horiz-adv-x="265" d="M159 433 L106 433 L85 586 L85 709 L180 709 L180 586 L159 433 Z " />
<glyph glyph-name="parenleft" unicode="&#x28;" horiz-adv-x="303" d="M235 -142 Q194 -96 162.5 -40.5 Q131 15 110 75.5 Q89 136 78 198.5 Q67 261 67 322 Q67 383 78 445.5 Q89 508 110 568.5 Q131 629 162.5 684.5 Q194 740 235 786 L288 749 Q216 654 178.5 550 Q141 446 141 322 Q141 198 178.5 94 Q216 -10 288 -105 L235 -142 Z " />
<glyph glyph-name="parenright" unicode="&#x29;" horiz-adv-x="303" d="M236 322 Q236 261 225 198.5 Q214 136 193 75.5 Q172 15 140.5 -40.5 Q109 -96 68 -142 L15 -105 Q87 -10 124.5 94 Q162 198 162 322 Q162 446 124.5 550 Q87 654 15 749 L68 786 Q109 740 140.5 684.5 Q172 629 193 568.5 Q214 508 225 445.5 Q236 383 236 322 Z " />
<glyph glyph-name="asterisk" unicode="&#x2a;" horiz-adv-x="533" d="M319 471 L423 342 L356 294 L266 433 L177 294 L110 344 L214 471 L55 512 L81 591 L234 531 L226 696 L309 696 L299 531 L453 591 L478 512 L319 471 Z " />
<glyph glyph-name="plus" unicode="&#x2b;" horiz-adv-x="681" d="M375 268 L375 5 L305 5 L305 268 L65 268 L65 337 L305 337 L305 584 L375 584 L375 337 L616 337 L616 268 L375 268 Z " />
<glyph glyph-name="comma" unicode="&#x2c;" horiz-adv-x="294" d="M209 -1 Q209 -57 187.5 -96 Q166 -135 111 -158 L85 -111 Q124 -94 136.5 -69 Q149 -44 149 -1 L87 -1 L87 116 L209 116 L209 -1 Z " />
<glyph glyph-name="hyphen" unicode="&#x2d;" horiz-adv-x="437" d="M70 262 L70 341 L367 341 L367 262 L70 262 Z " />
<glyph glyph-name="period" unicode="&#x2e;" horiz-adv-x="294" d="M88 0 L88 119 L206 119 L206 0 L88 0 Z " />
<glyph glyph-name="slash" unicode="&#x2f;" horiz-adv-x="399" d="M85 -13 L17 -13 L325 722 L393 722 L85 -13 Z " />
<glyph glyph-name="zero" unicode="0" horiz-adv-x="560" d="M512 348 Q512 298 509 254.5 Q506 211 497 173.5 Q488 136 472 104.5 Q456 73 430 46 Q404 20 368 3.5 Q332 -13 280 -13 Q228 -13 192 3.5 Q156 20 130 46 Q104 73 88 104.5 Q72 136 63 173.5 Q54 211 51 254.5 Q48 298 48 348 Q48 398 51 442 Q54 486 63 523.5 Q72 561 88 592.5 Q104 624 130 651 Q156 677 192 693 Q228 709 280 709 Q332 709 368 693 Q404 677 430 651 Q456 624 472 592.5 Q488 561 497 523.5 Q506 486 509 442 Q512 398 512 348 Z M423 366 Q423 399 422 432.5 Q421 466 415.5 496.5 Q410 527 398.5 553 Q387 579 366 599 Q351 613 329.5 622 Q308 631 280 631 Q252 631 230.5 622 Q209 613 194 599 Q173 579 161.5 553 Q150 527 144.5 496.5 Q139 466 138 432.5 Q137 399 137 366 L137 330 Q137 297 138 263.5 Q139 230 144.5 199.5 Q150 169 161.5 142.5 Q173 116 194 97 Q209 83 230.5 74 Q252 65 280 65 Q308 65 329.5 74 Q351 83 366 97 Q387 116 398.5 142.5 Q410 169 415.5 199.5 Q421 230 422 263.5 Q423 297 423 330 L423 366 Z " />
<glyph glyph-name="one" unicode="1" horiz-adv-x="560" d="M281 0 L281 598 L116 477 L116 572 L286 695 L368 695 L368 0 L281 0 Z " />
<glyph glyph-name="two" unicode="2" horiz-adv-x="560" d="M72 0 L72 73 L353 420 Q391 468 391 520 Q391 574 361.5 603 Q332 632 277 632 Q254 632 232.5 625 Q211 618 194.5 603 Q178 588 168.5 564 Q159 540 159 506 L71 506 Q71 551 85.5 588.5 Q100 626 127 653 Q154 680 192 694.5 Q230 709 276 709 Q333 709 376.5 687.5 Q420 666 446 629 Q462 606 470 580 Q478 554 478 521 Q478 479 463 443.5 Q448 408 419 373 L183 80 L489 80 L489 0 L72 0 Z " />
<glyph glyph-name="three" unicode="3" horiz-adv-x="560" d="M494 190 Q494 149 480.5 113 Q467 77 441 50 Q413 21 372.5 4 Q332 -13 273 -13 Q222 -13 182.5 4 Q143 21 114 50 Q87 77 71.5 114 Q56 151 55 199 L142 199 Q144 170 152.5 145.5 Q161 121 178 103 Q194 86 217 75 Q240 64 273 64 Q338 64 374 104 Q388 120 397.5 141.5 Q407 163 407 192 Q407 256 367.5 288.5 Q328 321 264 321 L222 321 L222 400 L264 400 Q324 400 358 431 Q392 462 392 517 Q392 566 359 598 Q345 612 324 622 Q303 632 274 632 Q245 632 225 624.5 Q205 617 189 604 Q149 571 147 506 L60 506 Q61 558 78.5 595.5 Q96 633 127 659 Q156 683 193.5 696 Q231 709 276 709 Q320 709 358 694 Q396 679 424 653 Q450 629 465 595.5 Q480 562 480 517 Q480 493 472 468.5 Q464 444 450.5 423 Q437 402 418 385.5 Q399 369 378 360 Q406 351 427.5 333 Q449 315 464 292.5 Q479 270 486.5 243.5 Q494 217 494 190 Z " />
<glyph glyph-name="four" unicode="4" horiz-adv-x="560" d="M435 148 L435 0 L349 0 L349 148 L30 148 L30 237 L294 695 L384 695 L112 225 L349 225 L349 432 L435 432 L435 225 L529 225 L529 148 L435 148 Z " />
<glyph glyph-name="five" unicode="5" horiz-adv-x="560" d="M510 229 Q510 174 495.5 129 Q481 84 452 52 Q425 22 385 4 Q345 -14 290 -14 Q239 -14 198.5 2 Q158 18 129 46 Q70 104 65 200 L150 200 Q152 167 162 142.5 Q172 118 189 101 Q206 84 231 74 Q256 64 289 64 Q325 64 349.5 76.5 Q374 89 390 109 Q424 152 424 225 Q424 261 414.5 291.5 Q405 322 385 344 Q368 362 345 372.5 Q322 383 289 383 Q254 383 223 367.5 Q192 352 174 322 L79 322 L98 695 L482 695 L482 618 L171 618 L160 396 Q183 430 222 444.5 Q261 459 306 459 Q352 459 387 443.5 Q422 428 448 402 Q479 370 494.5 325.5 Q510 281 510 229 Z " />
<glyph glyph-name="six" unicode="6" horiz-adv-x="560" d="M515 224 Q515 171 498 128.5 Q481 86 452 54 Q424 24 383 5.5 Q342 -13 288 -13 Q229 -13 186.5 12.5 Q144 38 118 73 Q99 99 87.5 129.5 Q76 160 69.5 194 Q63 228 61 264.5 Q59 301 59 338 Q59 413 67.5 485.5 Q76 558 111 615 Q136 654 181 681.5 Q226 709 292 709 Q337 709 373.5 693.5 Q410 678 436 652 Q459 629 474.5 597 Q490 565 492 527 L406 527 Q404 553 393.5 572 Q383 591 367 605 Q352 618 333 625 Q314 632 289 632 Q256 632 233 620 Q210 608 194 590 Q177 571 167.5 546 Q158 521 153 492.5 Q148 464 146.5 434 Q145 404 145 377 Q162 413 205.5 435.5 Q249 458 299 458 Q347 458 383.5 443 Q420 428 445 404 Q479 372 497 325.5 Q515 279 515 224 Z M429 223 Q429 260 418.5 290 Q408 320 388 342 Q372 360 347.5 371 Q323 382 290 382 Q257 382 233 370 Q209 358 193 340 Q154 296 154 223 Q154 150 195 106 Q212 88 235.5 76 Q259 64 292 64 Q325 64 348 75 Q371 86 388 104 Q429 148 429 223 Z " />
<glyph glyph-name="seven" unicode="7" horiz-adv-x="560" d="M209 0 L117 0 L406 618 L50 618 L50 695 L496 695 L496 618 L209 0 Z " />
<glyph glyph-name="eight" unicode="8" horiz-adv-x="560" d="M505 191 Q505 151 492.5 119.5 Q480 88 459 63 Q428 26 381.5 6.5 Q335 -13 280 -13 Q225 -13 178.5 6.5 Q132 26 101 63 Q80 88 67.5 119.5 Q55 151 55 191 Q55 248 85.5 294 Q116 340 164 362 Q121 385 95 426.5 Q69 468 69 519 Q69 562 84.5 595.5 Q100 629 126 653 Q155 680 194.5 694.5 Q234 709 280 709 Q326 709 365.5 694.5 Q405 680 434 653 Q460 629 475.5 595.5 Q491 562 491 519 Q491 468 465 426.5 Q439 385 396 362 Q444 340 474.5 294 Q505 248 505 191 Z M405 519 Q405 573 368.5 603.5 Q332 634 280 634 Q228 634 191.5 603.5 Q155 573 155 519 Q155 495 163.5 473 Q172 451 187.5 434.5 Q203 418 226.5 408.5 Q250 399 280 399 Q310 399 333.5 408.5 Q357 418 372.5 434.5 Q388 451 396.5 473 Q405 495 405 519 Z M419 195 Q419 251 382.5 288 Q346 325 280 325 Q214 325 177.5 288 Q141 251 141 195 Q141 133 180 97.5 Q219 62 280 62 Q341 62 380 97.5 Q419 133 419 195 Z " />
<glyph glyph-name="nine" unicode="9" horiz-adv-x="560" d="M505 358 Q505 283 496.5 210.5 Q488 138 453 81 Q428 42 383 14.5 Q338 -13 272 -13 Q227 -13 190.5 2 Q154 17 128 44 Q105 67 89.5 99 Q74 131 72 169 L158 169 Q160 143 170.5 124 Q181 105 197 91 Q227 64 275 64 Q308 64 331 76 Q354 88 370 106 Q386 125 396 150 Q406 175 411 203.5 Q416 232 417.5 262 Q419 292 419 319 Q402 283 358.5 260.5 Q315 238 265 238 Q217 238 180.5 253 Q144 268 119 292 Q85 324 67 370 Q49 416 49 472 Q49 525 66 567.5 Q83 610 112 642 Q140 672 181 690.5 Q222 709 276 709 Q335 709 377.5 683.5 Q420 658 446 623 Q465 597 476.5 566 Q488 535 494.5 501 Q501 467 503 431 Q505 395 505 358 Z M410 473 Q410 546 369 590 Q352 608 328.5 620 Q305 632 272 632 Q239 632 216 621 Q193 610 176 592 Q135 548 135 473 Q135 436 145.5 406 Q156 376 176 354 Q192 336 216.5 325 Q241 314 274 314 Q307 314 331 326 Q355 338 371 356 Q410 399 410 473 Z " />
<glyph glyph-name="colon" unicode="&#x3a;" horiz-adv-x="304" d="M106 395 L106 506 L216 506 L216 395 L106 395 Z M106 -1 L106 109 L216 109 L216 -1 L106 -1 Z " />
<glyph glyph-name="semicolon" unicode="&#x3b;" horiz-adv-x="304" d="M106 394 L106 506 L216 506 L216 394 L106 394 Z M216 0 Q216 -55 197 -90.5 Q178 -126 126 -148 L103 -104 Q140 -88 151.5 -63.5 Q163 -39 163 0 L106 0 L106 110 L216 110 L216 0 Z " />
<glyph glyph-name="less" unicode="&#x3c;" horiz-adv-x="472" d="M364 -13 L45 305 L363 622 L412 574 L143 305 L412 36 L364 -13 Z " />
<glyph glyph-name="equal" unicode="&#x3d;" horiz-adv-x="692" d="M105 344 L105 421 L587 421 L587 344 L105 344 Z M105 134 L105 211 L587 211 L587 134 L105 134 Z " />
<glyph glyph-name="greater" unicode="&#x3e;" horiz-adv-x="472" d="M108 -13 L60 36 L329 305 L60 574 L109 622 L427 305 L108 -13 Z " />
<glyph glyph-name="question" unicode="&#x3f;" horiz-adv-x="504" d="M474 535 Q474 475 445.5 432 Q417 389 366 351 Q342 333 328 318 Q314 303 306.5 287.5 Q299 272 297 254.5 Q295 237 295 214 L295 189 L213 189 L213 217 Q213 257 219.5 285 Q226 313 239.5 335.5 Q253 358 274 377.5 Q295 397 325 420 Q355 443 370.5 469 Q386 495 386 536 Q386 580 356 612 Q339 629 315 638.5 Q291 648 264 648 Q231 648 206 636.5 Q181 625 164 605.5 Q147 586 138.5 560 Q130 534 130 505 L40 505 Q40 547 54.5 587 Q69 627 97 657.5 Q125 688 167 706.5 Q209 725 264 725 Q306 725 344.5 712 Q383 699 411.5 674.5 Q440 650 457 615 Q474 580 474 535 Z M200 0 L200 110 L306 110 L306 0 L200 0 Z " />
<glyph glyph-name="at" unicode="&#x40;" horiz-adv-x="943" d="M875 380 Q875 335 864 287 Q853 239 829 200 Q805 161 766.5 136 Q728 111 673 111 Q635 111 607.5 129.5 Q580 148 575 187 Q560 153 526 133 Q492 113 455 113 Q416 113 387 127.5 Q358 142 338 167.5 Q318 193 308 228 Q298 263 298 304 Q298 346 310 383.5 Q322 421 345.5 448.5 Q369 476 403 492.5 Q437 509 482 509 Q510 509 537 495 Q564 481 578 456 L589 498 L656 498 L638 245 L638 234 Q638 214 645.5 198 Q653 182 679 182 Q712 182 734 203.5 Q756 225 769.5 255.5 Q783 286 788.5 320 Q794 354 794 379 Q794 441 775 487.5 Q756 534 722 568 Q683 607 627 627.5 Q571 648 502 648 Q432 648 375 626.5 Q318 605 276 567 Q225 522 197.5 456.5 Q170 391 170 308 Q170 238 193.5 178.5 Q217 119 259 75 Q299 34 353.5 11.5 Q408 -11 476 -11 Q544 -11 604 -0.5 Q664 10 727 37 L727 -36 Q667 -65 604 -75.5 Q541 -86 475 -86 Q393 -86 325.5 -61 Q258 -36 208 10 Q149 64 117 142.5 Q85 221 85 317 Q85 410 115.5 482.5 Q146 555 201 608 Q257 662 332.5 692 Q408 722 501 722 Q587 722 659 695.5 Q731 669 782 618 Q826 575 850.5 516 Q875 457 875 380 Z M568 325 Q568 347 563.5 368 Q559 389 548.5 405 Q538 421 521 430.5 Q504 440 478 440 Q451 440 433 427 Q415 414 403.5 394.5 Q392 375 387.5 350.5 Q383 326 383 304 Q383 283 387 262 Q391 241 400.5 224 Q410 207 426.5 196.5 Q443 186 468 186 Q498 186 517 198.5 Q536 211 547.5 231 Q559 251 563.5 275.5 Q568 300 568 325 Z " />
<glyph glyph-name="A" unicode="A" horiz-adv-x="621" d="M521 0 L463 168 L155 168 L98 0 L8 0 L258 709 L362 709 L613 0 L521 0 Z M308 620 L183 252 L434 252 L308 620 Z " />
<glyph glyph-name="B" unicode="B" horiz-adv-x="668" d="M618 198 Q618 155 602.5 122.5 Q587 90 564 65 Q534 33 486.5 16.5 Q439 0 386 0 L100 0 L100 709 L383 709 Q433 709 480 692.5 Q527 676 556 644 Q577 621 589.5 592.5 Q602 564 602 526 Q602 475 576 431 Q550 387 500 369 Q527 360 549 342.5 Q571 325 586.5 302.5 Q602 280 610 253 Q618 226 618 198 Z M511 519 Q511 547 500.5 567.5 Q490 588 472.5 602 Q455 616 431.5 623 Q408 630 383 630 L187 630 L187 407 L386 407 Q442 407 476.5 433 Q511 459 511 519 Z M527 204 Q527 234 516 257 Q505 280 486 296 Q467 312 441.5 320.5 Q416 329 388 329 L187 329 L187 82 L386 82 Q415 82 441 89 Q467 96 486 111 Q505 126 516 149 Q527 172 527 204 Z " />
<glyph glyph-name="C" unicode="C" horiz-adv-x="634" d="M594 226 Q592 176 573.5 135 Q555 94 524 62 Q492 30 442 8 Q392 -14 334 -14 Q280 -14 230 5 Q180 24 142 62 Q113 90 95.5 123.5 Q78 157 68.5 194 Q59 231 56 271.5 Q53 312 53 354 Q53 396 56 436.5 Q59 477 68.5 514 Q78 551 95.5 584.5 Q113 618 142 646 Q180 684 230 703 Q280 722 334 722 Q392 722 441.5 701.5 Q491 681 523 649 Q554 617 572.5 577 Q591 537 593 487 L501 487 Q500 516 489.5 541 Q479 566 462 586 Q441 609 408 623.5 Q375 638 334 638 Q298 638 264.5 624 Q231 610 205 584 Q183 561 171 533 Q159 505 153 474.5 Q147 444 146 413 Q145 382 145 354 Q145 326 146 295 Q147 264 153 233.5 Q159 203 171 174.5 Q183 146 205 124 Q231 98 264.5 84 Q298 70 334 70 Q375 70 408.5 85.5 Q442 101 463 124 Q480 144 490.5 170.5 Q501 197 502 226 L594 226 Z " />
<glyph glyph-name="D" unicode="D" horiz-adv-x="677" d="M624 355 Q624 317 620.5 278 Q617 239 607.5 202.5 Q598 166 580 132.5 Q562 99 533 71 Q495 35 447 17.5 Q399 0 347 0 L100 0 L100 709 L347 709 Q399 709 447 691 Q495 673 533 637 Q562 609 580 576 Q598 543 607.5 506.5 Q617 470 620.5 431.5 Q624 393 624 355 Z M534 355 Q534 383 532.5 413.5 Q531 444 524.5 473 Q518 502 506 529 Q494 556 473 578 Q448 603 415 615 Q382 627 347 627 L189 627 L189 82 L347 82 Q382 82 415 94 Q448 106 473 131 Q494 152 506 179 Q518 206 524.5 235.5 Q531 265 532.5 295.5 Q534 326 534 355 Z " />
<glyph glyph-name="E" unicode="E" horiz-adv-x="625" d="M100 0 L100 709 L574 709 L574 627 L189 627 L189 411 L527 411 L527 327 L189 327 L189 82 L574 82 L574 0 L100 0 Z " />
<glyph glyph-name="F" unicode="F" horiz-adv-x="587" d="M189 627 L189 396 L519 396 L519 312 L189 312 L189 0 L100 0 L100 709 L559 709 L559 627 L189 627 Z " />
<glyph glyph-name="G" unicode="G" horiz-adv-x="680" d="M544 0 L529 85 Q516 63 495.5 45 Q475 27 449.5 14 Q424 1 395 -6.5 Q366 -14 336 -14 Q282 -14 232.5 3.5 Q183 21 145 59 Q91 112 72 185 Q53 258 53 354 Q53 396 56.5 436.5 Q60 477 70 514 Q80 551 98 584.5 Q116 618 145 646 Q183 684 232.5 703 Q282 722 336 722 Q396 722 449 701.5 Q502 681 539 642 Q565 615 581.5 581 Q598 547 600 504 L507 504 Q505 529 497 547 Q489 565 475 582 Q451 611 415.5 624.5 Q380 638 336 638 Q300 638 266.5 624 Q233 610 207 584 Q185 561 172.5 533 Q160 505 154 474.5 Q148 444 146.5 413 Q145 382 145 354 Q145 327 146.5 296 Q148 265 154.5 233.5 Q161 202 174 172.5 Q187 143 209 121 Q235 95 267.5 82.5 Q300 70 336 70 Q374 70 407.5 82.5 Q441 95 465 119 Q500 154 513 202 Q526 250 526 299 L336 299 L336 382 L606 382 L606 0 L544 0 Z " />
<glyph glyph-name="H" unicode="H" horiz-adv-x="718" d="M529 0 L529 327 L189 327 L189 0 L100 0 L100 709 L189 709 L189 413 L529 413 L529 709 L618 709 L618 0 L529 0 Z " />
<glyph glyph-name="I" unicode="I" horiz-adv-x="291" d="M100 0 L100 709 L191 709 L191 0 L100 0 Z " />
<glyph glyph-name="J" unicode="J" horiz-adv-x="493" d="M413 198 Q413 150 399.5 111.5 Q386 73 360.5 45 Q335 17 298 2 Q261 -13 213 -13 Q164 -13 127.5 3.5 Q91 20 65 47 Q34 79 21 120 Q8 161 8 215 L98 215 Q98 178 105 149 Q112 120 135 99 Q149 85 168 77.5 Q187 70 213 70 Q274 70 299 104.5 Q324 139 324 198 L324 709 L413 709 L413 198 Z " />
<glyph glyph-name="K" unicode="K" horiz-adv-x="662" d="M545 0 L333 368 L189 200 L189 0 L100 0 L100 709 L189 709 L189 331 L514 709 L625 709 L394 439 L649 0 L545 0 Z " />
<glyph glyph-name="L" unicode="L" horiz-adv-x="544" d="M100 0 L100 709 L189 709 L189 83 L530 83 L530 0 L100 0 Z " />
<glyph glyph-name="M" unicode="M" horiz-adv-x="880" d="M695 0 L695 598 L475 10 L405 10 L185 603 L185 0 L100 0 L100 709 L228 709 L442 132 L655 709 L780 709 L780 0 L695 0 Z " />
<glyph glyph-name="N" unicode="N" horiz-adv-x="734" d="M534 0 L186 570 L186 0 L100 0 L100 709 L200 709 L548 137 L548 709 L634 709 L634 0 L534 0 Z " />
<glyph glyph-name="O" unicode="O" horiz-adv-x="670" d="M617 354 Q617 312 613.5 271.5 Q610 231 600.5 194 Q591 157 573 123.5 Q555 90 526 62 Q488 24 438.5 5 Q389 -14 335 -14 Q281 -14 231.5 5 Q182 24 144 62 Q115 90 97 123.5 Q79 157 69.5 194 Q60 231 56.5 271.5 Q53 312 53 354 Q53 396 56.5 436.5 Q60 477 69.5 514 Q79 551 97 584.5 Q115 618 144 646 Q182 684 231.5 703 Q281 722 335 722 Q389 722 438.5 703 Q488 684 526 646 Q555 618 573 584.5 Q591 551 600.5 514 Q610 477 613.5 436.5 Q617 396 617 354 Z M525 354 Q525 382 523.5 413 Q522 444 516 474.5 Q510 505 498 533 Q486 561 464 584 Q438 610 404.5 623.5 Q371 637 335 637 Q299 637 265.5 623.5 Q232 610 206 584 Q184 561 172 533 Q160 505 154 474.5 Q148 444 146.5 413 Q145 382 145 354 Q145 326 146.5 295 Q148 264 154 233.5 Q160 203 172 174.5 Q184 146 206 124 Q232 98 265.5 84.5 Q299 71 335 71 Q371 71 404.5 84.5 Q438 98 464 124 Q486 146 498 174.5 Q510 203 516 233.5 Q522 264 523.5 295 Q525 326 525 354 Z " />
<glyph glyph-name="P" unicode="P" horiz-adv-x="627" d="M597 495 Q597 393 538 334 Q509 305 466 290 Q423 275 364 275 L189 275 L189 0 L100 0 L100 709 L363 709 Q426 709 470 692.5 Q514 676 543 645 Q569 617 583 579.5 Q597 542 597 495 Z M505 495 Q505 563 466 595.5 Q427 628 361 628 L189 628 L189 356 L362 356 Q434 356 469.5 389.5 Q505 423 505 495 Z " />
<glyph glyph-name="Q" unicode="Q" horiz-adv-x="670" d="M617 354 Q617 312 613.5 271.5 Q610 231 600.5 194 Q591 157 573 124 Q555 91 527 63 L591 -20 L532 -66 L467 18 Q405 -14 335 -14 Q281 -14 231.5 5 Q182 24 144 62 Q115 90 97 123.5 Q79 157 69.5 194 Q60 231 56.5 271.5 Q53 312 53 354 Q53 396 56.5 436.5 Q60 477 69.5 514 Q79 551 97 584.5 Q115 618 144 646 Q182 684 231.5 703 Q281 722 335 722 Q389 722 438.5 703 Q488 684 526 646 Q555 618 573 584.5 Q591 551 600.5 514 Q610 477 613.5 436.5 Q617 396 617 354 Z M525 354 Q525 382 523.5 413 Q522 444 516 474.5 Q510 505 498 533 Q486 561 464 584 Q438 610 404.5 623.5 Q371 637 335 637 Q299 637 265.5 623.5 Q232 610 206 584 Q184 561 172 533 Q160 505 154 474.5 Q148 444 146.5 413 Q145 382 145 354 Q145 326 146.5 295 Q148 264 154 233.5 Q160 203 172 174.5 Q184 146 206 124 Q232 98 265.5 84.5 Q299 71 335 71 Q374 71 413 88 L329 196 L387 241 L472 133 Q491 155 501.5 182.5 Q512 210 517 239.5 Q522 269 523.5 298 Q525 327 525 354 Z " />
<glyph glyph-name="R" unicode="R" horiz-adv-x="662" d="M519 0 L385 295 L189 295 L189 0 L100 0 L100 709 L378 709 Q441 709 485 692.5 Q529 676 558 646 Q584 619 599 584 Q614 549 614 502 Q614 455 600 422 Q586 389 560 362 Q544 345 522.5 332.5 Q501 320 475 312 L617 0 L519 0 Z M522 502 Q522 569 481.5 598 Q441 627 378 627 L189 627 L189 378 L378 378 Q409 378 435.5 384.5 Q462 391 481.5 406 Q501 421 511.5 444.5 Q522 468 522 502 Z " />
<glyph glyph-name="S" unicode="S" horiz-adv-x="635" d="M585 195 Q585 150 568 117 Q551 84 525 58 Q488 22 434.5 4.5 Q381 -13 324 -13 Q195 -13 121 55 Q87 87 66 130.5 Q45 174 45 225 L138 225 Q138 193 152 163.5 Q166 134 188 113 Q212 90 249 79.5 Q286 69 324 69 Q365 69 398.5 78 Q432 87 456 110 Q473 125 482.5 144.5 Q492 164 492 193 Q492 235 464 266 Q436 297 373 307 Q344 312 317 315.5 Q290 319 261 324 Q221 330 186.5 344 Q152 358 126.5 381.5 Q101 405 86.5 437.5 Q72 470 72 512 Q72 552 88.5 588.5 Q105 625 134 652 Q209 722 320 722 Q372 722 420.5 705 Q469 688 504 654 Q569 592 572 502 L479 502 Q477 528 468 551 Q459 574 444 591 Q424 614 392.5 627 Q361 640 319 640 Q281 640 248.5 628.5 Q216 617 193 591 Q179 575 171.5 556.5 Q164 538 164 514 Q164 490 173 472.5 Q182 455 197 443 Q212 431 231 424 Q250 417 270 414 Q300 410 329.5 405.5 Q359 401 388 396 Q477 383 531 331.5 Q585 280 585 195 Z " />
<glyph glyph-name="T" unicode="T" horiz-adv-x="538" d="M314 626 L314 0 L224 0 L224 626 L13 626 L13 709 L525 709 L525 626 L314 626 Z " />
<glyph glyph-name="U" unicode="U" horiz-adv-x="678" d="M598 260 Q598 194 580 143 Q562 92 528 57.5 Q494 23 446.5 5 Q399 -13 339 -13 Q279 -13 231.5 5 Q184 23 150 57.5 Q116 92 98 143 Q80 194 80 260 L80 709 L169 709 L169 258 Q169 216 178.5 181 Q188 146 208 121.5 Q228 97 260.5 83.5 Q293 70 339 70 Q385 70 417.5 83.5 Q450 97 470 121.5 Q490 146 499.5 181 Q509 216 509 258 L509 709 L598 709 L598 260 Z " />
<glyph glyph-name="V" unicode="V" horiz-adv-x="579" d="M336 0 L243 0 L4 709 L96 709 L292 110 L484 709 L575 709 L336 0 Z " />
<glyph glyph-name="W" unicode="W" horiz-adv-x="862" d="M689 0 L594 0 L432 571 L268 0 L174 0 L32 709 L115 709 L228 131 L392 699 L472 699 L636 132 L749 709 L830 709 L689 0 Z " />
<glyph glyph-name="X" unicode="X" horiz-adv-x="584" d="M470 0 L290 291 L112 0 L15 0 L239 358 L19 709 L118 709 L296 422 L471 709 L566 709 L345 358 L569 0 L470 0 Z " />
<glyph glyph-name="Y" unicode="Y" horiz-adv-x="566" d="M328 288 L328 0 L238 0 L238 288 L0 709 L100 709 L286 372 L471 709 L566 709 L328 288 Z " />
<glyph glyph-name="Z" unicode="Z" horiz-adv-x="612" d="M43 0 L43 89 L456 626 L47 626 L47 709 L562 709 L562 619 L148 83 L566 83 L566 0 L43 0 Z " />
<glyph glyph-name="bracketleft" unicode="&#x5b;" horiz-adv-x="311" d="M98 -114 L98 757 L286 757 L286 695 L167 695 L167 -52 L286 -52 L286 -114 L98 -114 Z " />
<glyph glyph-name="backslash" unicode="&#x5c;" horiz-adv-x="400" d="M313 -13 L5 722 L75 722 L383 -13 L313 -13 Z " />
<glyph glyph-name="bracketright" unicode="&#x5d;" horiz-adv-x="311" d="M25 -114 L25 -52 L143 -52 L143 695 L25 695 L25 757 L213 757 L213 -114 L25 -114 Z " />
<glyph glyph-name="asciicircum" unicode="&#x5e;" horiz-adv-x="542" d="M388 405 L271 630 L153 405 L65 405 L233 722 L309 722 L477 405 L388 405 Z " />
<glyph glyph-name="underscore" unicode="&#x5f;" horiz-adv-x="545" d="M25 -60 L25 0 L520 0 L520 -60 L25 -60 Z " />
<glyph glyph-name="grave" unicode="&#x60;" horiz-adv-x="240" d="M195 551 L10 650 L55 721 L226 598 L195 551 Z " />
<glyph glyph-name="a" unicode="a" horiz-adv-x="559" d="M517 5 Q503 -2 490 -4.5 Q477 -7 461 -7 Q427 -7 407.5 15.5 Q388 38 388 70 L386 70 Q364 32 320.5 9.5 Q277 -13 223 -13 Q179 -13 146.5 0.5 Q114 14 92.5 36 Q71 58 60 86 Q49 114 49 143 Q49 167 57.5 194 Q66 221 87 243.5 Q108 266 142.5 282 Q177 298 229 301 L383 310 L383 347 Q383 366 378.5 387 Q374 408 357 424 Q344 436 324.5 443 Q305 450 274 450 Q239 450 217 441.5 Q195 433 182 420 Q157 395 157 359 L74 359 Q75 394 86.5 419.5 Q98 445 118 465 Q144 492 185.5 505.5 Q227 519 274 519 Q348 519 391 491.5 Q434 464 452 422 Q467 387 467 344 L467 99 Q467 79 474.5 72 Q482 65 495 65 Q498 65 502 65 Q506 65 509 66 L517 68 L517 5 Z M383 244 L247 236 Q228 235 208 229.5 Q188 224 172 213.5 Q156 203 146 186 Q136 169 136 145 Q136 111 159 84.5 Q182 58 236 58 Q265 58 292.5 68 Q320 78 340 99 Q363 122 373 152 Q383 182 383 214 L383 244 Z " />
<glyph glyph-name="b" unicode="b" horiz-adv-x="595" d="M541 252 Q541 189 522.5 134 Q504 79 468 42 Q443 16 407.5 1.5 Q372 -13 325 -13 Q282 -13 239 7.5 Q196 28 174 66 L168 0 L93 0 L93 722 L178 722 L178 447 Q188 464 204.5 477.5 Q221 491 241 500 Q261 509 282.5 514 Q304 519 325 519 Q370 519 404.5 505 Q439 491 464 468 Q502 431 521.5 374.5 Q541 318 541 252 Z M454 253 Q454 288 447.5 322.5 Q441 357 425 385 Q409 413 381 430 Q353 447 311 447 Q283 447 263.5 437.5 Q244 428 229 414 Q197 386 185 343.5 Q173 301 173 253 Q173 205 185 162.5 Q197 120 229 92 Q244 78 263.5 68.5 Q283 59 311 59 Q353 59 381 76 Q409 93 425 121 Q441 149 447.5 183.5 Q454 218 454 253 Z " />
<glyph glyph-name="c" unicode="c" horiz-adv-x="532" d="M486 170 Q483 129 468 98 Q453 67 427 42 Q400 16 364 1.5 Q328 -13 281 -13 Q212 -13 167.5 14.5 Q123 42 96 82 Q76 112 65 154 Q54 196 54 253 Q54 310 65 352 Q76 394 96 424 Q123 464 167.5 491.5 Q212 519 280 519 Q325 519 361.5 505 Q398 491 424 465 Q450 440 465.5 408.5 Q481 377 484 335 L398 335 Q395 361 385.5 380.5 Q376 400 362 414 Q347 428 326 436.5 Q305 445 280 445 Q251 445 230 435.5 Q209 426 192 412 Q162 386 151.5 343 Q141 300 141 253 Q141 206 151.5 163 Q162 120 192 94 Q209 80 230 70.5 Q251 61 280 61 Q306 61 328.5 70 Q351 79 366 95 Q380 109 388.5 127 Q397 145 400 170 L486 170 Z " />
<glyph glyph-name="d" unicode="d" horiz-adv-x="595" d="M427 0 L421 66 Q399 28 356 7.5 Q313 -13 270 -13 Q223 -13 187.5 1.5 Q152 16 127 42 Q91 79 72.5 134 Q54 189 54 252 Q54 318 73.5 374.5 Q93 431 131 468 Q156 491 190.5 505 Q225 519 270 519 Q291 519 312.5 514 Q334 509 354 500 Q374 491 390.5 477.5 Q407 464 417 447 L417 722 L502 722 L502 0 L427 0 Z M422 253 Q422 301 410 343.5 Q398 386 366 414 Q351 428 331.5 437.5 Q312 447 284 447 Q242 447 214 430 Q186 413 170 385 Q154 357 147.5 322.5 Q141 288 141 253 Q141 218 147.5 183.5 Q154 149 170 121 Q186 93 214 76 Q242 59 284 59 Q312 59 331.5 68.5 Q351 78 366 92 Q398 120 410 162.5 Q422 205 422 253 Z " />
<glyph glyph-name="e" unicode="e" horiz-adv-x="551" d="M501 280 Q501 266 501 252.5 Q501 239 500 225 L142 225 Q142 190 155 155.5 Q168 121 191 98 Q227 62 284 62 Q346 62 378 95 Q389 106 396 118 Q403 130 408 150 L491 150 Q486 112 465 79 Q444 46 413 25 Q386 7 353 -3 Q320 -13 284 -13 Q230 -13 187.5 7.5 Q145 28 116 63 Q84 100 68.5 148.5 Q53 197 53 251 Q53 297 62 337.5 Q71 378 92 413 Q119 459 168 489 Q217 519 283 519 Q332 519 370.5 501.5 Q409 484 437 454 Q467 421 484 376 Q501 331 501 280 Z M414 298 Q414 327 406 354 Q398 381 383 401 Q367 422 342 434.5 Q317 447 283 447 Q248 447 222.5 434 Q197 421 179.5 400 Q162 379 153.5 352.5 Q145 326 144 298 L414 298 Z " />
<glyph glyph-name="f" unicode="f" horiz-adv-x="366" d="M361 652 Q341 654 322.5 657 Q304 660 277 660 Q243 660 224 641 Q205 622 205 591 L205 506 L351 506 L351 434 L205 434 L205 0 L120 0 L120 434 L28 434 L28 506 L120 506 L120 596 Q120 624 130.5 649 Q141 674 160.5 692.5 Q180 711 207 721.5 Q234 732 267 732 Q293 732 316.5 729.5 Q340 727 361 723 L361 652 Z " />
<glyph glyph-name="g" unicode="g" horiz-adv-x="540" d="M525 -75 Q525 -108 512.5 -133.5 Q500 -159 482 -177 Q464 -195 439.5 -206.5 Q415 -218 388 -224.5 Q361 -231 333 -233.5 Q305 -236 278 -236 Q253 -236 226.5 -233.5 Q200 -231 175 -224.5 Q150 -218 127 -206.5 Q104 -195 86 -177 Q70 -161 60 -139 Q50 -117 50 -87 Q50 -47 71 -18.5 Q92 10 122 25 Q96 35 79.5 58 Q63 81 63 110 Q63 144 82 169 Q101 194 130 208 Q102 233 87 268 Q72 303 72 339 Q72 381 85 410 Q98 439 120 462 Q146 489 182.5 504 Q219 519 270 519 Q306 519 334.5 511 Q363 503 386 489 Q399 523 426.5 541.5 Q454 560 490 560 Q496 560 502.5 559.5 Q509 559 515 558 L515 489 Q511 490 506 490 Q501 490 496 490 Q471 490 454.5 477.5 Q438 465 434 444 Q450 424 458.5 398.5 Q467 373 467 339 Q467 303 454.5 272 Q442 241 421 218 Q396 191 358.5 174.5 Q321 158 270 158 Q244 158 226.5 161 Q209 164 185 172 Q169 167 155.5 155 Q142 143 142 123 Q142 108 149.5 99 Q157 90 168.5 85 Q180 80 193 78.5 Q206 77 218 77 L318 77 Q363 77 409 66 Q455 55 485 24 Q503 6 514 -18.5 Q525 -43 525 -75 Z M384 339 Q384 387 353.5 418.5 Q323 450 269 450 Q217 450 185.5 418.5 Q154 387 154 339 Q154 291 184.5 258.5 Q215 226 269 226 Q321 226 352.5 258.5 Q384 291 384 339 Z M442 -75 Q442 -47 429.5 -31 Q417 -15 397.5 -7 Q378 1 354.5 3 Q331 5 308 5 L191 5 Q165 -3 146 -24.5 Q127 -46 127 -75 Q127 -107 148 -128 Q160 -140 176.5 -147 Q193 -154 211 -157.5 Q229 -161 247.5 -162 Q266 -163 283 -163 Q299 -163 318 -162 Q337 -161 356 -157 Q375 -153 392 -146 Q409 -139 421 -127 Q442 -106 442 -75 Z " />
<glyph glyph-name="h" unicode="h" horiz-adv-x="587" d="M417 0 L417 321 Q417 378 391.5 410 Q366 442 306 442 Q269 442 241 420.5 Q213 399 196 364 Q183 336 180.5 300 Q178 264 178 235 L178 0 L93 0 L93 722 L178 722 L178 439 Q201 478 242 498.5 Q283 519 326 519 Q413 519 457.5 470 Q502 421 502 333 L502 0 L417 0 Z " />
<glyph glyph-name="i" unicode="i" horiz-adv-x="273" d="M87 622 L87 722 L186 722 L186 622 L87 622 Z M93 0 L93 506 L180 506 L180 0 L93 0 Z " />
<glyph glyph-name="j" unicode="j" horiz-adv-x="283" d="M97 622 L97 722 L196 722 L196 622 L97 622 Z M190 -71 Q190 -137 156.5 -175.5 Q123 -214 51 -214 Q31 -214 17.5 -212 Q4 -210 -15 -204 L-15 -131 Q1 -134 16.5 -135 Q32 -136 48 -136 Q77 -136 91 -117 Q105 -98 105 -72 L105 506 L190 506 L190 -71 Z " />
<glyph glyph-name="k" unicode="k" horiz-adv-x="545" d="M433 0 L275 244 L178 136 L178 0 L93 0 L93 722 L178 722 L178 251 L407 506 L510 506 L330 306 L529 0 L433 0 Z " />
<glyph glyph-name="l" unicode="l" horiz-adv-x="291" d="M256 0 Q250 -2 241 -3 Q226 -6 196 -6 Q140 -6 115 26 Q90 58 90 118 L90 722 L175 722 L175 123 Q175 97 185 84 Q195 71 221 71 L249 71 Q253 71 256 72 L256 0 Z " />
<glyph glyph-name="m" unicode="m" horiz-adv-x="878" d="M708 0 L708 322 Q708 349 703 371 Q698 393 686.5 408.5 Q675 424 655 433 Q635 442 605 442 Q581 442 562 433 Q543 424 528 408 Q502 382 493.5 345.5 Q485 309 485 269 L485 0 L400 0 L400 322 Q400 349 395.5 371 Q391 393 379.5 408.5 Q368 424 348 433 Q328 442 298 442 Q271 442 249.5 429.5 Q228 417 212 397 Q193 373 185.5 337 Q178 301 178 269 L178 0 L93 0 L93 506 L167 506 L175 434 Q195 477 234.5 498 Q274 519 317 519 Q374 519 412.5 494.5 Q451 470 468 423 Q478 447 494.5 465 Q511 483 532 495 Q553 507 576.5 513 Q600 519 624 519 Q710 519 751.5 468 Q793 417 793 333 L793 0 L708 0 Z " />
<glyph glyph-name="n" unicode="n" horiz-adv-x="585" d="M417 0 L417 321 Q417 378 391.5 410 Q366 442 306 442 Q269 442 241 420.5 Q213 399 196 364 Q183 336 180.5 300 Q178 264 178 235 L178 0 L93 0 L93 506 L167 506 L174 430 Q184 452 201 468.5 Q218 485 239 496 Q260 507 283 513 Q306 519 327 519 Q414 519 458 470 Q502 421 502 333 L502 0 L417 0 Z " />
<glyph glyph-name="o" unicode="o" horiz-adv-x="558" d="M504 253 Q504 193 489 140 Q474 87 432 46 Q404 19 365.5 3 Q327 -13 279 -13 Q231 -13 192.5 3 Q154 19 126 46 Q84 87 69 140 Q54 193 54 253 Q54 313 69 366 Q84 419 126 460 Q154 487 192.5 503 Q231 519 279 519 Q327 519 365.5 503 Q404 487 432 460 Q474 419 489 366 Q504 313 504 253 Z M417 253 Q417 298 407 340 Q397 382 370 410 Q354 426 331.5 436 Q309 446 279 446 Q249 446 226.5 436 Q204 426 188 410 Q161 382 151 340 Q141 298 141 253 Q141 208 151 166 Q161 124 188 96 Q204 80 226.5 70 Q249 60 279 60 Q309 60 331.5 70 Q354 80 370 96 Q397 124 407 166 Q417 208 417 253 Z " />
<glyph glyph-name="p" unicode="p" horiz-adv-x="595" d="M541 253 Q541 187 521.5 130.5 Q502 74 464 37 Q439 14 404.5 0 Q370 -14 325 -14 Q304 -14 282.5 -9 Q261 -4 241 5 Q221 14 204.5 27.5 Q188 41 178 58 L178 -217 L93 -217 L93 505 L168 505 L174 439 Q196 477 239 497.5 Q282 518 325 518 Q372 518 407.5 503.5 Q443 489 468 463 Q504 426 522.5 371 Q541 316 541 253 Z M454 252 Q454 287 447.5 321.5 Q441 356 425 384 Q409 412 381 429 Q353 446 311 446 Q283 446 263.5 436.5 Q244 427 229 413 Q197 385 185 342.5 Q173 300 173 252 Q173 204 185 161.5 Q197 119 229 91 Q244 77 263.5 67.5 Q283 58 311 58 Q353 58 381 75 Q409 92 425 120 Q441 148 447.5 182.5 Q454 217 454 252 Z " />
<glyph glyph-name="q" unicode="q" horiz-adv-x="595" d="M417 -217 L417 58 Q407 41 390.5 27.5 Q374 14 354 5 Q334 -4 312.5 -9 Q291 -14 270 -14 Q225 -14 190.5 0 Q156 14 131 37 Q93 74 73.5 130.5 Q54 187 54 253 Q54 316 72.5 371 Q91 426 127 463 Q152 489 187.5 503.5 Q223 518 270 518 Q313 518 356 497.5 Q399 477 421 439 L427 505 L502 505 L502 -217 L417 -217 Z M422 252 Q422 300 410 342.5 Q398 385 366 413 Q351 427 331.5 436.5 Q312 446 284 446 Q242 446 214 429 Q186 412 170 384 Q154 356 147.5 321.5 Q141 287 141 252 Q141 217 147.5 182.5 Q154 148 170 120 Q186 92 214 75 Q242 58 284 58 Q312 58 331.5 67.5 Q351 77 366 91 Q398 119 410 161.5 Q422 204 422 252 Z " />
<glyph glyph-name="r" unicode="r" horiz-adv-x="384" d="M366 423 Q355 425 342.5 426 Q330 427 319 427 Q289 427 264.5 415.5 Q240 404 223 387 Q208 372 198.5 352.5 Q189 333 184.5 311 Q180 289 178.5 267 Q177 245 177 225 L177 0 L93 0 L93 506 L168 506 L175 417 Q195 464 236.5 486.5 Q278 509 326 509 Q346 509 366 506 L366 423 Z " />
<glyph glyph-name="s" unicode="s" horiz-adv-x="521" d="M468 147 Q468 114 457 88.5 Q446 63 428 44 Q399 14 356 0.5 Q313 -13 263 -13 Q215 -13 173 -0.5 Q131 12 99 44 Q76 67 63 97.5 Q50 128 50 160 L135 160 Q136 134 147 114.5 Q158 95 176 81 Q193 68 218 63 Q243 58 267 58 Q293 58 316.5 63.5 Q340 69 360 86 Q371 94 378 109 Q385 124 385 141 Q385 170 365 189 Q345 208 306 213 Q298 214 284 216 Q270 218 254 220 Q238 222 221.5 224 Q205 226 192 228 Q135 237 101.5 271.5 Q68 306 68 364 Q68 393 80.5 419.5 Q93 446 110 463 Q135 489 173 504 Q211 519 259 519 Q310 519 352 503 Q394 487 420 455 Q437 435 446.5 412 Q456 389 456 358 L371 358 Q370 378 361.5 394.5 Q353 411 342 421 Q312 448 259 448 Q244 448 231 447 Q218 446 200 438 Q176 428 162.5 409.5 Q149 391 149 370 Q149 338 167 323.5 Q185 309 217 304 Q238 301 268 297.5 Q298 294 339 287 Q393 278 430.5 241 Q468 204 468 147 Z " />
<glyph glyph-name="t" unicode="t" horiz-adv-x="385" d="M355 7 Q338 2 313.5 -2.5 Q289 -7 254 -7 Q213 -7 186 5 Q159 17 143.5 36 Q128 55 121.5 79.5 Q115 104 115 130 L115 433 L17 433 L17 506 L115 506 L115 635 L200 655 L200 506 L350 506 L350 433 L200 433 L200 140 Q200 103 216.5 87 Q233 71 268 71 Q282 71 297 72 Q312 73 325 75 Q340 77 355 80 L355 7 Z " />
<glyph glyph-name="u" unicode="u" horiz-adv-x="582" d="M415 0 L408 77 Q388 33 345.5 10.5 Q303 -12 258 -12 Q171 -12 128 37 Q85 86 85 174 L85 506 L170 506 L170 186 Q170 129 194 97 Q218 65 278 65 Q304 65 324.5 75.5 Q345 86 362 103 Q386 128 395 166 Q404 204 404 243 L404 506 L489 506 L489 0 L415 0 Z " />
<glyph glyph-name="v" unicode="v" horiz-adv-x="486" d="M291 0 L199 0 L12 506 L101 506 L247 100 L388 506 L474 506 L291 0 Z " />
<glyph glyph-name="w" unicode="w" horiz-adv-x="767" d="M598 0 L516 0 L384 387 L249 0 L168 0 L38 506 L122 506 L219 124 L348 500 L421 500 L548 124 L646 506 L729 506 L598 0 Z " />
<glyph glyph-name="x" unicode="x" horiz-adv-x="498" d="M379 0 L246 199 L114 0 L17 0 L189 258 L19 506 L119 506 L251 315 L378 506 L476 506 L305 258 L481 0 L379 0 Z " />
<glyph glyph-name="y" unicode="y" horiz-adv-x="498" d="M260 -104 Q242 -153 211 -182.5 Q180 -212 123 -212 Q91 -212 71 -208 Q51 -204 46 -202 L46 -128 Q54 -130 64 -132 Q72 -134 82.5 -135 Q93 -136 106 -136 Q133 -136 152 -125 Q171 -114 182 -85 L214 0 L12 506 L108 506 L257 107 L399 506 L488 506 L260 -104 Z " />
<glyph glyph-name="z" unicode="z" horiz-adv-x="501" d="M53 0 L53 75 L347 432 L53 432 L53 506 L450 506 L450 431 L157 74 L453 74 L453 0 L53 0 Z " />
<glyph glyph-name="braceleft" unicode="&#x7b;" horiz-adv-x="349" d="M312 -119 Q268 -119 238 -108 Q208 -97 190 -75 Q172 -53 164 -21.5 Q156 10 156 51 L156 207 Q156 228 146.5 241.5 Q137 255 122.5 264 Q108 273 90 277 Q72 281 55 283 L55 355 Q70 357 88 362.5 Q106 368 121 377.5 Q136 387 146 400.5 Q156 414 156 433 L156 587 Q156 630 163 662 Q170 694 187.5 715.5 Q205 737 235 747.5 Q265 758 312 758 L338 758 L338 695 L312 695 Q258 695 241.5 669.5 Q225 644 225 593 L225 432 Q225 385 200.5 358.5 Q176 332 131 324 L131 322 Q171 312 198 285.5 Q225 259 225 216 L225 55 Q225 32 229 12 Q233 -8 243 -23 Q253 -38 270 -47 Q287 -56 313 -56 L339 -56 L339 -119 L312 -119 Z " />
<glyph glyph-name="bar" unicode="&#x7c;" horiz-adv-x="269" d="M100 -119 L100 758 L169 758 L169 -119 L100 -119 Z " />
<glyph glyph-name="braceright" unicode="&#x7d;" horiz-adv-x="349" d="M294 283 Q277 281 259 277 Q241 273 226.5 264.5 Q212 256 202.5 242 Q193 228 193 207 L193 51 Q193 10 185 -21.5 Q177 -53 159 -75 Q141 -97 111 -108 Q81 -119 37 -119 L10 -119 L10 -56 L36 -56 Q62 -56 79 -47 Q96 -38 106 -23 Q116 -8 120 12 Q124 32 124 55 L124 216 Q124 259 151 285.5 Q178 312 218 322 L218 324 Q173 332 148.5 358.5 Q124 385 124 432 L124 593 Q124 644 107.5 669.5 Q91 695 37 695 L11 695 L11 758 L37 758 Q83 758 113.5 747.5 Q144 737 161.5 715.5 Q179 694 186 662 Q193 630 193 587 L193 433 Q193 414 203 400.5 Q213 387 228 377.5 Q243 368 261 362.5 Q279 357 294 355 L294 283 Z " />
<glyph glyph-name="asciitilde" unicode="&#x7e;" horiz-adv-x="639" d="M564 311 Q540 287 521 271.5 Q502 256 485 247.5 Q468 239 451.5 236 Q435 233 417 233 Q389 233 359 242.5 Q329 252 300 267 Q280 278 260 285.5 Q240 293 221 293 Q211 293 200.5 291.5 Q190 290 178.5 285 Q167 280 153.5 270.5 Q140 261 124 244 L75 300 Q98 324 117 339.5 Q136 355 153.5 363.5 Q171 372 187.5 375 Q204 378 222 378 Q243 378 262.5 373.5 Q282 369 302 361 Q322 353 340.5 344 Q359 335 378 328 Q399 320 417 320 Q427 320 437.5 321 Q448 322 459.5 327 Q471 332 484 341.5 Q497 351 514 368 L564 311 Z " />
<glyph glyph-name="Adieresis" unicode="&#xc4;" horiz-adv-x="621" d="M521 0 L463 168 L155 168 L98 0 L8 0 L258 709 L362 709 L613 0 L521 0 Z M308 620 L183 252 L434 252 L308 620 Z M174 789 L174 881 L266 881 L266 789 L174 789 Z M350 789 L350 881 L442 881 L442 789 L350 789 Z " />
<glyph glyph-name="Aring" unicode="&#xc5;" horiz-adv-x="621" d="M521 0 L463 168 L155 168 L98 0 L8 0 L244 669 Q217 685 202.5 712.5 Q188 740 188 770 Q188 793 196 814 Q204 835 220 851.5 Q236 868 258 878 Q280 888 309 888 Q337 888 360 878 Q383 868 398.5 851.5 Q414 835 422.5 814 Q431 793 431 770 Q431 740 416.5 713.5 Q402 687 376 670 L613 0 L521 0 Z M369 770 Q369 795 353 813.5 Q337 832 309 832 Q281 832 265 813.5 Q249 795 249 770 Q249 745 265 727 Q281 709 309 709 Q337 709 353 727 Q369 745 369 770 Z M308 620 L183 252 L434 252 L308 620 Z " />
<glyph glyph-name="Ccedilla" unicode="&#xc7;" horiz-adv-x="634" d="M594 226 Q592 176 573.5 135 Q555 94 524 62 Q492 30 442 8 Q392 -14 334 -14 Q280 -14 230 5 Q180 24 142 62 Q113 90 95.5 123.5 Q78 157 68.5 194 Q59 231 56 271.5 Q53 312 53 354 Q53 396 56 436.5 Q59 477 68.5 514 Q78 551 95.5 584.5 Q113 618 142 646 Q180 684 230 703 Q280 722 334 722 Q392 722 441.5 701.5 Q491 681 523 649 Q554 617 572.5 577 Q591 537 593 487 L501 487 Q500 516 489.5 541 Q479 566 462 586 Q441 609 408 623.5 Q375 638 334 638 Q298 638 264.5 624 Q231 610 205 584 Q183 561 171 533 Q159 505 153 474.5 Q147 444 146 413 Q145 382 145 354 Q145 326 146 295 Q147 264 153 233.5 Q159 203 171 174.5 Q183 146 205 124 Q231 98 264.5 84 Q298 70 334 70 Q375 70 408.5 85.5 Q442 101 463 124 Q480 144 490.5 170.5 Q501 197 502 226 L594 226 Z M322 -224 L234 -183 L313 -48 L391 -48 L322 -224 Z " />
<glyph glyph-name="Eacute" unicode="&#xc9;" horiz-adv-x="625" d="M100 0 L100 709 L574 709 L574 627 L189 627 L189 411 L527 411 L527 327 L189 327 L189 82 L574 82 L574 0 L100 0 Z M261 754 L231 801 L401 924 L446 853 L261 754 Z " />
<glyph glyph-name="Ntilde" unicode="&#xd1;" horiz-adv-x="734" d="M534 0 L186 570 L186 0 L100 0 L100 709 L200 709 L548 137 L548 709 L634 709 L634 0 L534 0 Z M526 827 Q509 806 484.5 789.5 Q460 773 425 773 Q402 773 385 779.5 Q368 786 353 794 Q339 802 324.5 808.5 Q310 815 294 815 Q274 815 260 808 Q246 801 232 787 L193 829 Q213 851 236.5 867 Q260 883 295 883 Q316 883 332.5 876 Q349 869 364 861 Q379 853 394 846 Q409 839 426 839 Q446 839 462 847.5 Q478 856 489 869 L526 827 Z " />
<glyph glyph-name="Odieresis" unicode="&#xd6;" horiz-adv-x="670" d="M617 354 Q617 312 613.5 271.5 Q610 231 600.5 194 Q591 157 573 123.5 Q555 90 526 62 Q488 24 438.5 5 Q389 -14 335 -14 Q281 -14 231.5 5 Q182 24 144 62 Q115 90 97 123.5 Q79 157 69.5 194 Q60 231 56.5 271.5 Q53 312 53 354 Q53 396 56.5 436.5 Q60 477 69.5 514 Q79 551 97 584.5 Q115 618 144 646 Q182 684 231.5 703 Q281 722 335 722 Q389 722 438.5 703 Q488 684 526 646 Q555 618 573 584.5 Q591 551 600.5 514 Q610 477 613.5 436.5 Q617 396 617 354 Z M525 354 Q525 382 523.5 413 Q522 444 516 474.5 Q510 505 498 533 Q486 561 464 584 Q438 610 404.5 623.5 Q371 637 335 637 Q299 637 265.5 623.5 Q232 610 206 584 Q184 561 172 533 Q160 505 154 474.5 Q148 444 146.5 413 Q145 382 145 354 Q145 326 146.5 295 Q148 264 154 233.5 Q160 203 172 174.5 Q184 146 206 124 Q232 98 265.5 84.5 Q299 71 335 71 Q371 71 404.5 84.5 Q438 98 464 124 Q486 146 498 174.5 Q510 203 516 233.5 Q522 264 523.5 295 Q525 326 525 354 Z M204 791 L204 883 L296 883 L296 791 L204 791 Z M380 791 L380 883 L472 883 L472 791 L380 791 Z " />
<glyph glyph-name="Udieresis" unicode="&#xdc;" horiz-adv-x="678" d="M598 260 Q598 194 580 143 Q562 92 528 57.5 Q494 23 446.5 5 Q399 -13 339 -13 Q279 -13 231.5 5 Q184 23 150 57.5 Q116 92 98 143 Q80 194 80 260 L80 709 L169 709 L169 258 Q169 216 178.5 181 Q188 146 208 121.5 Q228 97 260.5 83.5 Q293 70 339 70 Q385 70 417.5 83.5 Q450 97 470 121.5 Q490 146 499.5 181 Q509 216 509 258 L509 709 L598 709 L598 260 Z M216 790 L216 882 L308 882 L308 790 L216 790 Z M392 790 L392 882 L484 882 L484 790 L392 790 Z " />
<glyph glyph-name="aacute" unicode="&#xe1;" horiz-adv-x="559" d="M517 5 Q503 -2 490 -4.5 Q477 -7 461 -7 Q427 -7 407.5 15.5 Q388 38 388 70 L386 70 Q364 32 320.5 9.5 Q277 -13 223 -13 Q179 -13 146.5 0.5 Q114 14 92.5 36 Q71 58 60 86 Q49 114 49 143 Q49 167 57.5 194 Q66 221 87 243.5 Q108 266 142.5 282 Q177 298 229 301 L383 310 L383 347 Q383 366 378.5 387 Q374 408 357 424 Q344 436 324.5 443 Q305 450 274 450 Q239 450 217 441.5 Q195 433 182 420 Q157 395 157 359 L74 359 Q75 394 86.5 419.5 Q98 445 118 465 Q144 492 185.5 505.5 Q227 519 274 519 Q348 519 391 491.5 Q434 464 452 422 Q467 387 467 344 L467 99 Q467 79 474.5 72 Q482 65 495 65 Q498 65 502 65 Q506 65 509 66 L517 68 L517 5 Z M383 244 L247 236 Q228 235 208 229.5 Q188 224 172 213.5 Q156 203 146 186 Q136 169 136 145 Q136 111 159 84.5 Q182 58 236 58 Q265 58 292.5 68 Q320 78 340 99 Q363 122 373 152 Q383 182 383 214 L383 244 Z M194 555 L164 602 L334 725 L379 654 L194 555 Z " />
<glyph glyph-name="agrave" unicode="&#xe0;" horiz-adv-x="559" d="M517 5 Q503 -2 490 -4.5 Q477 -7 461 -7 Q427 -7 407.5 15.5 Q388 38 388 70 L386 70 Q364 32 320.5 9.5 Q277 -13 223 -13 Q179 -13 146.5 0.5 Q114 14 92.5 36 Q71 58 60 86 Q49 114 49 143 Q49 167 57.5 194 Q66 221 87 243.5 Q108 266 142.5 282 Q177 298 229 301 L383 310 L383 347 Q383 366 378.5 387 Q374 408 357 424 Q344 436 324.5 443 Q305 450 274 450 Q239 450 217 441.5 Q195 433 182 420 Q157 395 157 359 L74 359 Q75 394 86.5 419.5 Q98 445 118 465 Q144 492 185.5 505.5 Q227 519 274 519 Q348 519 391 491.5 Q434 464 452 422 Q467 387 467 344 L467 99 Q467 79 474.5 72 Q482 65 495 65 Q498 65 502 65 Q506 65 509 66 L517 68 L517 5 Z M383 244 L247 236 Q228 235 208 229.5 Q188 224 172 213.5 Q156 203 146 186 Q136 169 136 145 Q136 111 159 84.5 Q182 58 236 58 Q265 58 292.5 68 Q320 78 340 99 Q363 122 373 152 Q383 182 383 214 L383 244 Z M170 653 L215 724 L385 601 L355 554 L170 653 Z " />
<glyph glyph-name="acircumflex" unicode="&#xe2;" horiz-adv-x="559" d="M517 5 Q503 -2 490 -4.5 Q477 -7 461 -7 Q427 -7 407.5 15.5 Q388 38 388 70 L386 70 Q364 32 320.5 9.5 Q277 -13 223 -13 Q179 -13 146.5 0.5 Q114 14 92.5 36 Q71 58 60 86 Q49 114 49 143 Q49 167 57.5 194 Q66 221 87 243.5 Q108 266 142.5 282 Q177 298 229 301 L383 310 L383 347 Q383 366 378.5 387 Q374 408 357 424 Q344 436 324.5 443 Q305 450 274 450 Q239 450 217 441.5 Q195 433 182 420 Q157 395 157 359 L74 359 Q75 394 86.5 419.5 Q98 445 118 465 Q144 492 185.5 505.5 Q227 519 274 519 Q348 519 391 491.5 Q434 464 452 422 Q467 387 467 344 L467 99 Q467 79 474.5 72 Q482 65 495 65 Q498 65 502 65 Q506 65 509 66 L517 68 L517 5 Z M383 244 L247 236 Q228 235 208 229.5 Q188 224 172 213.5 Q156 203 146 186 Q136 169 136 145 Q136 111 159 84.5 Q182 58 236 58 Q265 58 292.5 68 Q320 78 340 99 Q363 122 373 152 Q383 182 383 214 L383 244 Z M381 557 L273 672 L166 557 L121 602 L246 733 L301 733 L426 602 L381 557 Z " />
<glyph glyph-name="adieresis" unicode="&#xe4;" horiz-adv-x="559" d="M517 5 Q503 -2 490 -4.5 Q477 -7 461 -7 Q427 -7 407.5 15.5 Q388 38 388 70 L386 70 Q364 32 320.5 9.5 Q277 -13 223 -13 Q179 -13 146.5 0.5 Q114 14 92.5 36 Q71 58 60 86 Q49 114 49 143 Q49 167 57.5 194 Q66 221 87 243.5 Q108 266 142.5 282 Q177 298 229 301 L383 310 L383 347 Q383 366 378.5 387 Q374 408 357 424 Q344 436 324.5 443 Q305 450 274 450 Q239 450 217 441.5 Q195 433 182 420 Q157 395 157 359 L74 359 Q75 394 86.5 419.5 Q98 445 118 465 Q144 492 185.5 505.5 Q227 519 274 519 Q348 519 391 491.5 Q434 464 452 422 Q467 387 467 344 L467 99 Q467 79 474.5 72 Q482 65 495 65 Q498 65 502 65 Q506 65 509 66 L517 68 L517 5 Z M383 244 L247 236 Q228 235 208 229.5 Q188 224 172 213.5 Q156 203 146 186 Q136 169 136 145 Q136 111 159 84.5 Q182 58 236 58 Q265 58 292.5 68 Q320 78 340 99 Q363 122 373 152 Q383 182 383 214 L383 244 Z M145 602 L145 694 L237 694 L237 602 L145 602 Z M321 602 L321 694 L413 694 L413 602 L321 602 Z " />
<glyph glyph-name="atilde" unicode="&#xe3;" horiz-adv-x="559" d="M517 5 Q503 -2 490 -4.5 Q477 -7 461 -7 Q427 -7 407.5 15.5 Q388 38 388 70 L386 70 Q364 32 320.5 9.5 Q277 -13 223 -13 Q179 -13 146.5 0.5 Q114 14 92.5 36 Q71 58 60 86 Q49 114 49 143 Q49 167 57.5 194 Q66 221 87 243.5 Q108 266 142.5 282 Q177 298 229 301 L383 310 L383 347 Q383 366 378.5 387 Q374 408 357 424 Q344 436 324.5 443 Q305 450 274 450 Q239 450 217 441.5 Q195 433 182 420 Q157 395 157 359 L74 359 Q75 394 86.5 419.5 Q98 445 118 465 Q144 492 185.5 505.5 Q227 519 274 519 Q348 519 391 491.5 Q434 464 452 422 Q467 387 467 344 L467 99 Q467 79 474.5 72 Q482 65 495 65 Q498 65 502 65 Q506 65 509 66 L517 68 L517 5 Z M383 244 L247 236 Q228 235 208 229.5 Q188 224 172 213.5 Q156 203 146 186 Q136 169 136 145 Q136 111 159 84.5 Q182 58 236 58 Q265 58 292.5 68 Q320 78 340 99 Q363 122 373 152 Q383 182 383 214 L383 244 Z M443 647 Q426 626 401.5 609.5 Q377 593 342 593 Q319 593 302 599.5 Q285 606 270 614 Q256 622 241.5 628.5 Q227 635 211 635 Q191 635 177 628 Q163 621 149 607 L110 649 Q130 671 153.5 687 Q177 703 212 703 Q233 703 249.5 696 Q266 689 281 681 Q296 673 311 666 Q326 659 343 659 Q363 659 379 667.5 Q395 676 406 689 L443 647 Z " />
<glyph glyph-name="aring" unicode="&#xe5;" horiz-adv-x="559" d="M517 5 Q503 -2 490 -4.5 Q477 -7 461 -7 Q427 -7 407.5 15.5 Q388 38 388 70 L386 70 Q364 32 320.5 9.5 Q277 -13 223 -13 Q179 -13 146.5 0.5 Q114 14 92.5 36 Q71 58 60 86 Q49 114 49 143 Q49 167 57.5 194 Q66 221 87 243.5 Q108 266 142.5 282 Q177 298 229 301 L383 310 L383 347 Q383 366 378.5 387 Q374 408 357 424 Q344 436 324.5 443 Q305 450 274 450 Q239 450 217 441.5 Q195 433 182 420 Q157 395 157 359 L74 359 Q75 394 86.5 419.5 Q98 445 118 465 Q144 492 185.5 505.5 Q227 519 274 519 Q348 519 391 491.5 Q434 464 452 422 Q467 387 467 344 L467 99 Q467 79 474.5 72 Q482 65 495 65 Q498 65 502 65 Q506 65 509 66 L517 68 L517 5 Z M383 244 L247 236 Q228 235 208 229.5 Q188 224 172 213.5 Q156 203 146 186 Q136 169 136 145 Q136 111 159 84.5 Q182 58 236 58 Q265 58 292.5 68 Q320 78 340 99 Q363 122 373 152 Q383 182 383 214 L383 244 Z M390 671 Q390 650 382.5 631 Q375 612 361 597 Q347 582 326.5 573 Q306 564 280 564 Q254 564 233.5 573 Q213 582 199 597 Q185 612 177.5 631 Q170 650 170 671 Q170 692 177.5 711 Q185 730 199 745 Q213 760 233.5 769 Q254 778 280 778 Q306 778 326.5 769 Q347 760 361 745 Q375 730 382.5 711 Q390 692 390 671 Z M334 671 Q334 694 319.5 710.5 Q305 727 280 727 Q255 727 240 710.5 Q225 694 225 671 Q225 648 240 632 Q255 616 280 616 Q305 616 319.5 632 Q334 648 334 671 Z " />
<glyph glyph-name="ccedilla" unicode="&#xe7;" horiz-adv-x="532" d="M486 170 Q483 129 468 98 Q453 67 427 42 Q400 16 364 1.5 Q328 -13 281 -13 Q212 -13 167.5 14.5 Q123 42 96 82 Q76 112 65 154 Q54 196 54 253 Q54 310 65 352 Q76 394 96 424 Q123 464 167.5 491.5 Q212 519 280 519 Q325 519 361.5 505 Q398 491 424 465 Q450 440 465.5 408.5 Q481 377 484 335 L398 335 Q395 361 385.5 380.5 Q376 400 362 414 Q347 428 326 436.5 Q305 445 280 445 Q251 445 230 435.5 Q209 426 192 412 Q162 386 151.5 343 Q141 300 141 253 Q141 206 151.5 163 Q162 120 192 94 Q209 80 230 70.5 Q251 61 280 61 Q306 61 328.5 70 Q351 79 366 95 Q380 109 388.5 127 Q397 145 400 170 L486 170 Z M271 -233 L185 -193 L262 -62 L337 -62 L271 -233 Z " />
<glyph glyph-name="eacute" unicode="&#xe9;" horiz-adv-x="551" d="M501 280 Q501 266 501 252.5 Q501 239 500 225 L142 225 Q142 190 155 155.5 Q168 121 191 98 Q227 62 284 62 Q346 62 378 95 Q389 106 396 118 Q403 130 408 150 L491 150 Q486 112 465 79 Q444 46 413 25 Q386 7 353 -3 Q320 -13 284 -13 Q230 -13 187.5 7.5 Q145 28 116 63 Q84 100 68.5 148.5 Q53 197 53 251 Q53 297 62 337.5 Q71 378 92 413 Q119 459 168 489 Q217 519 283 519 Q332 519 370.5 501.5 Q409 484 437 454 Q467 421 484 376 Q501 331 501 280 Z M414 298 Q414 327 406 354 Q398 381 383 401 Q367 422 342 434.5 Q317 447 283 447 Q248 447 222.5 434 Q197 421 179.5 400 Q162 379 153.5 352.5 Q145 326 144 298 L414 298 Z M209 553 L179 600 L349 723 L394 652 L209 553 Z " />
<glyph glyph-name="egrave" unicode="&#xe8;" horiz-adv-x="551" d="M501 280 Q501 266 501 252.5 Q501 239 500 225 L142 225 Q142 190 155 155.5 Q168 121 191 98 Q227 62 284 62 Q346 62 378 95 Q389 106 396 118 Q403 130 408 150 L491 150 Q486 112 465 79 Q444 46 413 25 Q386 7 353 -3 Q320 -13 284 -13 Q230 -13 187.5 7.5 Q145 28 116 63 Q84 100 68.5 148.5 Q53 197 53 251 Q53 297 62 337.5 Q71 378 92 413 Q119 459 168 489 Q217 519 283 519 Q332 519 370.5 501.5 Q409 484 437 454 Q467 421 484 376 Q501 331 501 280 Z M414 298 Q414 327 406 354 Q398 381 383 401 Q367 422 342 434.5 Q317 447 283 447 Q248 447 222.5 434 Q197 421 179.5 400 Q162 379 153.5 352.5 Q145 326 144 298 L414 298 Z M178 655 L223 726 L393 603 L363 556 L178 655 Z " />
<glyph glyph-name="ecircumflex" unicode="&#xea;" horiz-adv-x="551" d="M501 280 Q501 266 501 252.5 Q501 239 500 225 L142 225 Q142 190 155 155.5 Q168 121 191 98 Q227 62 284 62 Q346 62 378 95 Q389 106 396 118 Q403 130 408 150 L491 150 Q486 112 465 79 Q444 46 413 25 Q386 7 353 -3 Q320 -13 284 -13 Q230 -13 187.5 7.5 Q145 28 116 63 Q84 100 68.5 148.5 Q53 197 53 251 Q53 297 62 337.5 Q71 378 92 413 Q119 459 168 489 Q217 519 283 519 Q332 519 370.5 501.5 Q409 484 437 454 Q467 421 484 376 Q501 331 501 280 Z M414 298 Q414 327 406 354 Q398 381 383 401 Q367 422 342 434.5 Q317 447 283 447 Q248 447 222.5 434 Q197 421 179.5 400 Q162 379 153.5 352.5 Q145 326 144 298 L414 298 Z M391 552 L283 667 L176 552 L131 597 L256 728 L311 728 L436 597 L391 552 Z " />
<glyph glyph-name="edieresis" unicode="&#xeb;" horiz-adv-x="551" d="M501 280 Q501 266 501 252.5 Q501 239 500 225 L142 225 Q142 190 155 155.5 Q168 121 191 98 Q227 62 284 62 Q346 62 378 95 Q389 106 396 118 Q403 130 408 150 L491 150 Q486 112 465 79 Q444 46 413 25 Q386 7 353 -3 Q320 -13 284 -13 Q230 -13 187.5 7.5 Q145 28 116 63 Q84 100 68.5 148.5 Q53 197 53 251 Q53 297 62 337.5 Q71 378 92 413 Q119 459 168 489 Q217 519 283 519 Q332 519 370.5 501.5 Q409 484 437 454 Q467 421 484 376 Q501 331 501 280 Z M414 298 Q414 327 406 354 Q398 381 383 401 Q367 422 342 434.5 Q317 447 283 447 Q248 447 222.5 434 Q197 421 179.5 400 Q162 379 153.5 352.5 Q145 326 144 298 L414 298 Z M151 599 L151 691 L243 691 L243 599 L151 599 Z M327 599 L327 691 L419 691 L419 599 L327 599 Z " />
<glyph glyph-name="iacute" unicode="&#xed;" horiz-adv-x="273" d="M80 0 L80 506 L166 506 L166 0 L80 0 Z M66 551 L36 598 L206 721 L251 650 L66 551 Z " />
<glyph glyph-name="igrave" unicode="&#xec;" horiz-adv-x="273" d="M94 0 L94 506 L180 506 L180 0 L94 0 Z M8 649 L53 720 L223 597 L193 550 L8 649 Z " />
<glyph glyph-name="icircumflex" unicode="&#xee;" horiz-adv-x="273" d="M96 0 L96 506 L182 506 L182 0 L96 0 Z M245 552 L137 667 L30 552 L-15 597 L110 728 L165 728 L290 597 L245 552 Z " />
<glyph glyph-name="idieresis" unicode="&#xef;" horiz-adv-x="273" d="M93 0 L93 506 L179 506 L179 0 L93 0 Z M3 599 L3 691 L95 691 L95 599 L3 599 Z M179 599 L179 691 L271 691 L271 599 L179 599 Z " />
<glyph glyph-name="ntilde" unicode="&#xf1;" horiz-adv-x="585" d="M417 0 L417 321 Q417 378 391.5 410 Q366 442 306 442 Q269 442 241 420.5 Q213 399 196 364 Q183 336 180.5 300 Q178 264 178 235 L178 0 L93 0 L93 506 L167 506 L174 430 Q184 452 201 468.5 Q218 485 239 496 Q260 507 283 513 Q306 519 327 519 Q414 519 458 470 Q502 421 502 333 L502 0 L417 0 Z M465 647 Q448 626 423.5 609.5 Q399 593 364 593 Q341 593 324 599.5 Q307 606 292 614 Q278 622 263.5 628.5 Q249 635 233 635 Q213 635 199 628 Q185 621 171 607 L132 649 Q152 671 175.5 687 Q199 703 234 703 Q255 703 271.5 696 Q288 689 303 681 Q318 673 333 666 Q348 659 365 659 Q385 659 401 667.5 Q417 676 428 689 L465 647 Z " />
<glyph glyph-name="oacute" unicode="&#xf3;" horiz-adv-x="558" d="M504 253 Q504 193 489 140 Q474 87 432 46 Q404 19 365.5 3 Q327 -13 279 -13 Q231 -13 192.5 3 Q154 19 126 46 Q84 87 69 140 Q54 193 54 253 Q54 313 69 366 Q84 419 126 460 Q154 487 192.5 503 Q231 519 279 519 Q327 519 365.5 503 Q404 487 432 460 Q474 419 489 366 Q504 313 504 253 Z M417 253 Q417 298 407 340 Q397 382 370 410 Q354 426 331.5 436 Q309 446 279 446 Q249 446 226.5 436 Q204 426 188 410 Q161 382 151 340 Q141 298 141 253 Q141 208 151 166 Q161 124 188 96 Q204 80 226.5 70 Q249 60 279 60 Q309 60 331.5 70 Q354 80 370 96 Q397 124 407 166 Q417 208 417 253 Z M204 554 L174 601 L344 724 L389 653 L204 554 Z " />
<glyph glyph-name="ograve" unicode="&#xf2;" horiz-adv-x="558" d="M504 253 Q504 193 489 140 Q474 87 432 46 Q404 19 365.5 3 Q327 -13 279 -13 Q231 -13 192.5 3 Q154 19 126 46 Q84 87 69 140 Q54 193 54 253 Q54 313 69 366 Q84 419 126 460 Q154 487 192.5 503 Q231 519 279 519 Q327 519 365.5 503 Q404 487 432 460 Q474 419 489 366 Q504 313 504 253 Z M417 253 Q417 298 407 340 Q397 382 370 410 Q354 426 331.5 436 Q309 446 279 446 Q249 446 226.5 436 Q204 426 188 410 Q161 382 151 340 Q141 298 141 253 Q141 208 151 166 Q161 124 188 96 Q204 80 226.5 70 Q249 60 279 60 Q309 60 331.5 70 Q354 80 370 96 Q397 124 407 166 Q417 208 417 253 Z M175 653 L220 724 L390 601 L360 554 L175 653 Z " />
<glyph glyph-name="ocircumflex" unicode="&#xf4;" horiz-adv-x="558" d="M504 253 Q504 193 489 140 Q474 87 432 46 Q404 19 365.5 3 Q327 -13 279 -13 Q231 -13 192.5 3 Q154 19 126 46 Q84 87 69 140 Q54 193 54 253 Q54 313 69 366 Q84 419 126 460 Q154 487 192.5 503 Q231 519 279 519 Q327 519 365.5 503 Q404 487 432 460 Q474 419 489 366 Q504 313 504 253 Z M417 253 Q417 298 407 340 Q397 382 370 410 Q354 426 331.5 436 Q309 446 279 446 Q249 446 226.5 436 Q204 426 188 410 Q161 382 151 340 Q141 298 141 253 Q141 208 151 166 Q161 124 188 96 Q204 80 226.5 70 Q249 60 279 60 Q309 60 331.5 70 Q354 80 370 96 Q397 124 407 166 Q417 208 417 253 Z M388 555 L280 670 L173 555 L128 600 L253 731 L308 731 L433 600 L388 555 Z " />
<glyph glyph-name="odieresis" unicode="&#xf6;" horiz-adv-x="558" d="M504 253 Q504 193 489 140 Q474 87 432 46 Q404 19 365.5 3 Q327 -13 279 -13 Q231 -13 192.5 3 Q154 19 126 46 Q84 87 69 140 Q54 193 54 253 Q54 313 69 366 Q84 419 126 460 Q154 487 192.5 503 Q231 519 279 519 Q327 519 365.5 503 Q404 487 432 460 Q474 419 489 366 Q504 313 504 253 Z M417 253 Q417 298 407 340 Q397 382 370 410 Q354 426 331.5 436 Q309 446 279 446 Q249 446 226.5 436 Q204 426 188 410 Q161 382 151 340 Q141 298 141 253 Q141 208 151 166 Q161 124 188 96 Q204 80 226.5 70 Q249 60 279 60 Q309 60 331.5 70 Q354 80 370 96 Q397 124 407 166 Q417 208 417 253 Z M154 599 L154 691 L246 691 L246 599 L154 599 Z M330 599 L330 691 L422 691 L422 599 L330 599 Z " />
<glyph glyph-name="otilde" unicode="&#xf5;" horiz-adv-x="558" d="M504 253 Q504 193 489 140 Q474 87 432 46 Q404 19 365.5 3 Q327 -13 279 -13 Q231 -13 192.5 3 Q154 19 126 46 Q84 87 69 140 Q54 193 54 253 Q54 313 69 366 Q84 419 126 460 Q154 487 192.5 503 Q231 519 279 519 Q327 519 365.5 503 Q404 487 432 460 Q474 419 489 366 Q504 313 504 253 Z M417 253 Q417 298 407 340 Q397 382 370 410 Q354 426 331.5 436 Q309 446 279 446 Q249 446 226.5 436 Q204 426 188 410 Q161 382 151 340 Q141 298 141 253 Q141 208 151 166 Q161 124 188 96 Q204 80 226.5 70 Q249 60 279 60 Q309 60 331.5 70 Q354 80 370 96 Q397 124 407 166 Q417 208 417 253 Z M447 653 Q430 632 405.5 615.5 Q381 599 346 599 Q323 599 306 605.5 Q289 612 274 620 Q260 628 245.5 634.5 Q231 641 215 641 Q195 641 181 634 Q167 627 153 613 L114 655 Q134 677 157.5 693 Q181 709 216 709 Q237 709 253.5 702 Q270 695 285 687 Q300 679 315 672 Q330 665 347 665 Q367 665 383 673.5 Q399 682 410 695 L447 653 Z " />
<glyph glyph-name="uacute" unicode="&#xfa;" horiz-adv-x="582" d="M415 0 L408 77 Q388 33 345.5 10.5 Q303 -12 258 -12 Q171 -12 128 37 Q85 86 85 174 L85 506 L170 506 L170 186 Q170 129 194 97 Q218 65 278 65 Q304 65 324.5 75.5 Q345 86 362 103 Q386 128 395 166 Q404 204 404 243 L404 506 L489 506 L489 0 L415 0 Z M217 553 L187 600 L357 723 L402 652 L217 553 Z " />
<glyph glyph-name="ugrave" unicode="&#xf9;" horiz-adv-x="582" d="M415 0 L408 77 Q388 33 345.5 10.5 Q303 -12 258 -12 Q171 -12 128 37 Q85 86 85 174 L85 506 L170 506 L170 186 Q170 129 194 97 Q218 65 278 65 Q304 65 324.5 75.5 Q345 86 362 103 Q386 128 395 166 Q404 204 404 243 L404 506 L489 506 L489 0 L415 0 Z M167 652 L212 723 L382 600 L352 553 L167 652 Z " />
<glyph glyph-name="ucircumflex" unicode="&#xfb;" horiz-adv-x="582" d="M415 0 L408 77 Q388 33 345.5 10.5 Q303 -12 258 -12 Q171 -12 128 37 Q85 86 85 174 L85 506 L170 506 L170 186 Q170 129 194 97 Q218 65 278 65 Q304 65 324.5 75.5 Q345 86 362 103 Q386 128 395 166 Q404 204 404 243 L404 506 L489 506 L489 0 L415 0 Z M396 560 L288 675 L181 560 L136 605 L261 736 L316 736 L441 605 L396 560 Z " />
<glyph glyph-name="udieresis" unicode="&#xfc;" horiz-adv-x="582" d="M415 0 L408 77 Q388 33 345.5 10.5 Q303 -12 258 -12 Q171 -12 128 37 Q85 86 85 174 L85 506 L170 506 L170 186 Q170 129 194 97 Q218 65 278 65 Q304 65 324.5 75.5 Q345 86 362 103 Q386 128 395 166 Q404 204 404 243 L404 506 L489 506 L489 0 L415 0 Z M155 599 L155 691 L247 691 L247 599 L155 599 Z M331 599 L331 691 L423 691 L423 599 L331 599 Z " />
<glyph glyph-name="dagger" unicode="&#x2020;" horiz-adv-x="566" d="M325 433 L325 -125 L242 -125 L242 433 L55 433 L55 506 L242 506 L242 709 L325 709 L325 506 L511 506 L511 433 L325 433 Z " />
<glyph glyph-name="degree" unicode="&#xb0;" horiz-adv-x="461" d="M396 558 Q396 522 383.5 492 Q371 462 348.5 440 Q326 418 295.5 406 Q265 394 230 394 Q195 394 164.5 406 Q134 418 112 440 Q90 462 77.5 492 Q65 522 65 558 Q65 594 77.5 624 Q90 654 112 676 Q134 698 164.5 710 Q195 722 230 722 Q265 722 295.5 710 Q326 698 348.5 676 Q371 654 383.5 624 Q396 594 396 558 Z M321 558 Q321 600 295 625.5 Q269 651 230 651 Q191 651 165.5 625.5 Q140 600 140 558 Q140 516 165.5 490.5 Q191 465 230 465 Q269 465 295 490.5 Q321 516 321 558 Z " />
<glyph glyph-name="cent" unicode="&#xa2;" horiz-adv-x="560" d="M496 271 Q493 230 478 197.5 Q463 165 437 140 Q414 117 384 103.5 Q354 90 317 86 L317 0 L256 0 L256 87 Q203 93 167.5 117.5 Q132 142 106 179 Q83 214 73.5 257.5 Q64 301 64 351 Q64 401 73 444 Q82 487 105 522 Q131 560 166.5 584.5 Q202 609 256 615 L256 709 L317 709 L317 616 Q353 612 382 598 Q411 584 434 563 Q460 538 475.5 505 Q491 472 494 430 L408 430 Q402 482 372 512 Q350 534 317 540 L317 162 Q354 170 376 193 Q404 223 410 271 L496 271 Z M256 540 Q225 533 204.5 514.5 Q184 496 172 470.5 Q160 445 155.5 414 Q151 383 151 351 Q151 319 155.5 288 Q160 257 172 231 Q184 205 204 187 Q224 169 256 162 L256 540 Z " />
<glyph glyph-name="sterling" unicode="&#xa3;" horiz-adv-x="560" d="M543 157 Q543 76 500 38 Q457 0 379 0 L52 0 L52 79 Q131 81 131 159 L131 331 L51 331 L51 404 L131 404 L131 513 Q131 551 143.5 586.5 Q156 622 180.5 649.5 Q205 677 241.5 693.5 Q278 710 325 710 Q368 710 402.5 696 Q437 682 461.5 658 Q486 634 499.5 601 Q513 568 513 530 L428 530 Q428 577 400 606 Q372 635 323 635 Q266 635 241.5 599.5 Q217 564 217 513 L217 404 L378 404 L378 331 L217 331 L217 155 Q217 132 208 108.5 Q199 85 174 78 L174 76 L382 76 Q420 76 439 98 Q458 120 459 157 L543 157 Z " />
<glyph glyph-name="section" unicode="&#xa7;" horiz-adv-x="562" d="M502 163 Q502 140 494.5 120 Q487 100 475 82.5 Q463 65 447.5 51.5 Q432 38 416 28 Q436 5 446.5 -21.5 Q457 -48 457 -81 Q457 -116 444 -145.5 Q431 -175 410 -195 Q360 -243 279 -243 Q195 -243 144 -189 Q98 -140 98 -64 L181 -64 Q181 -85 186.5 -105 Q192 -125 207 -142 Q219 -156 238.5 -163.5 Q258 -171 279 -171 Q319 -171 346.5 -147.5 Q374 -124 374 -83 Q374 -57 363 -37.5 Q352 -18 332 -1 L130 170 Q95 199 80 231.5 Q65 264 65 305 Q65 327 72.5 347.5 Q80 368 92 385 Q104 402 119.5 416 Q135 430 151 440 Q131 463 120.5 489.5 Q110 516 110 549 Q110 584 123 612.5 Q136 641 157 661 Q181 684 214.5 697.5 Q248 711 288 711 Q372 711 423 657 Q469 608 469 532 L386 532 Q386 553 380.5 573 Q375 593 360 610 Q348 624 328.5 631.5 Q309 639 288 639 Q248 639 220.5 615.5 Q193 592 193 551 Q193 525 204 505.5 Q215 486 235 469 L437 298 Q472 269 487 236.5 Q502 204 502 163 Z M200 394 Q174 380 160.5 357 Q147 334 147 308 Q147 287 156 267 Q165 247 183 232 L367 74 Q393 88 406.5 111 Q420 134 420 160 Q420 181 411 201 Q402 221 384 236 L200 394 Z " />
<glyph glyph-name="bullet" unicode="&#x2022;" horiz-adv-x="435" d="M345 292 Q345 265 335 241 Q325 217 308 199.5 Q291 182 268 171.5 Q245 161 218 161 Q191 161 168 171.5 Q145 182 127.5 199.5 Q110 217 100 241 Q90 265 90 292 Q90 319 100 343 Q110 367 127.5 384.5 Q145 402 168 412.5 Q191 423 218 423 Q245 423 268 412.5 Q291 402 308 384.5 Q325 367 335 343 Q345 319 345 292 Z " />
<glyph glyph-name="paragraph" unicode="&#xb6;" horiz-adv-x="657" d="M513 640 L513 -125 L440 -125 L440 640 L328 640 L328 -125 L253 -125 L253 332 Q214 332 179.5 347 Q145 362 119.5 387.5 Q94 413 79.5 447.5 Q65 482 65 521 Q65 560 79.5 594 Q94 628 119.5 653.5 Q145 679 179.5 694 Q214 709 253 709 L582 709 L582 640 L513 640 Z " />
<glyph glyph-name="germandbls" unicode="&#xdf;" horiz-adv-x="608" d="M563 208 Q563 157 546.5 117.5 Q530 78 500 50.5 Q470 23 429.5 8.5 Q389 -6 341 -6 Q320 -6 298.5 -4.5 Q277 -3 257 2 L257 73 Q274 70 290.5 69 Q307 68 324 68 Q356 68 383.5 76 Q411 84 431.5 101.5 Q452 119 463.5 145.5 Q475 172 475 208 Q475 248 462.5 276 Q450 304 428.5 321.5 Q407 339 377.5 346.5 Q348 354 315 354 L287 354 L287 428 L315 428 Q338 428 358.5 437 Q379 446 394.5 462.5 Q410 479 419 500.5 Q428 522 428 548 Q428 598 399.5 629 Q371 660 315 660 Q282 660 259.5 648 Q237 636 223 615 Q209 594 202.5 565 Q196 536 196 503 L196 0 L110 0 L110 430 L25 430 L25 506 L111 506 Q111 613 164.5 672.5 Q218 732 315 732 Q361 732 398 718.5 Q435 705 461 681 Q487 657 501 623 Q515 589 515 548 Q515 493 485 450.5 Q455 408 406 395 Q442 390 471 373.5 Q500 357 520.5 332 Q541 307 552 275 Q563 243 563 208 Z " />
<glyph glyph-name="registered" unicode="&#xae;" horiz-adv-x="858" d="M790 355 Q790 278 762.5 211 Q735 144 687 94 Q639 44 573 15.5 Q507 -13 429 -13 Q351 -13 285 15.5 Q219 44 171 93.5 Q123 143 95.5 210 Q68 277 68 354 Q68 431 95.5 498 Q123 565 171 615 Q219 665 285 693.5 Q351 722 429 722 Q507 722 573 693.5 Q639 665 687 615.5 Q735 566 762.5 499 Q790 432 790 355 Z M723 355 Q723 421 702 476.5 Q681 532 642.5 572.5 Q604 613 549.5 635.5 Q495 658 429 658 Q363 658 308.5 635 Q254 612 215.5 571.5 Q177 531 156 475.5 Q135 420 135 354 Q135 288 156 232.5 Q177 177 215.5 136.5 Q254 96 308.5 73.5 Q363 51 429 51 Q495 51 549.5 74 Q604 97 642.5 137.5 Q681 178 702 233.5 Q723 289 723 355 Z M510 169 L446 310 L371 310 L371 169 L304 169 L304 552 L445 552 Q472 552 497 544 Q522 536 540.5 521 Q559 506 570 483.5 Q581 461 581 432 Q581 394 564 365.5 Q547 337 512 321 L583 169 L510 169 Z M511 432 Q511 461 491.5 475.5 Q472 490 445 490 L370 490 L370 372 L445 372 Q475 372 493 386 Q511 400 511 432 Z " />
<glyph glyph-name="copyright" unicode="&#xa9;" horiz-adv-x="858" d="M790 355 Q790 278 762.5 211 Q735 144 687 94 Q639 44 573 15.5 Q507 -13 429 -13 Q351 -13 285 15.5 Q219 44 171 93.5 Q123 143 95.5 210 Q68 277 68 354 Q68 431 95.5 498 Q123 565 171 615 Q219 665 285 693.5 Q351 722 429 722 Q507 722 573 693.5 Q639 665 687 615.5 Q735 566 762.5 499 Q790 432 790 355 Z M723 355 Q723 421 702 476.5 Q681 532 642.5 572.5 Q604 613 549.5 635.5 Q495 658 429 658 Q363 658 308.5 635 Q254 612 215.5 571.5 Q177 531 156 475.5 Q135 420 135 354 Q135 288 156 232.5 Q177 177 215.5 136.5 Q254 96 308.5 73.5 Q363 51 429 51 Q495 51 549.5 74 Q604 97 642.5 137.5 Q681 178 702 233.5 Q723 289 723 355 Z M601 300 Q598 268 584 241.5 Q570 215 548 196 Q526 177 497 166.5 Q468 156 435 156 Q388 156 352.5 176 Q317 196 294 228 Q273 258 264.5 287 Q256 316 256 354 Q256 394 268 430 Q280 466 303 493 Q326 520 359 536 Q392 552 435 552 Q469 552 498.5 541.5 Q528 531 550 511.5 Q572 492 585 465.5 Q598 439 601 408 L525 408 Q520 449 494.5 468 Q469 487 435 487 Q412 487 393 477.5 Q374 468 361 452 Q345 432 338 406.5 Q331 381 331 354 Q331 327 337.5 301.5 Q344 276 360 256 Q373 240 392.5 230.5 Q412 221 435 221 Q469 221 494.5 240 Q520 259 525 300 L601 300 Z " />
<glyph glyph-name="trademark" unicode="&#x2122;" horiz-adv-x="837" d="M694 318 L694 638 L588 328 L539 328 L433 637 L433 318 L365 318 L365 709 L472 709 L565 427 L658 709 L762 709 L762 318 L694 318 Z M199 647 L199 318 L131 318 L131 647 L20 647 L20 709 L310 709 L310 647 L199 647 Z " />
<glyph glyph-name="acute" unicode="&#xb4;" horiz-adv-x="244" d="M45 551 L15 598 L185 721 L230 650 L45 551 Z " />
<glyph glyph-name="dieresis" unicode="&#xa8;" horiz-adv-x="290" d="M187 599 L187 691 L279 691 L279 599 L187 599 Z M11 599 L11 691 L103 691 L103 599 L11 599 Z " />
<glyph glyph-name="notequal" unicode="&#x2260;" horiz-adv-x="692" d="M268 134 L185 16 L135 51 L193 134 L105 134 L105 211 L247 211 L340 344 L105 344 L105 421 L394 421 L473 534 L523 499 L468 421 L587 421 L587 344 L415 344 L321 211 L587 211 L587 134 L268 134 Z " />
<glyph glyph-name="AE" unicode="&#xc6;" horiz-adv-x="914" d="M435 0 L435 189 L181 189 L98 0 L0 0 L320 709 L863 709 L863 626 L525 626 L525 421 L814 421 L814 337 L525 337 L525 84 L863 84 L863 0 L435 0 Z M435 629 L375 629 L218 273 L435 273 L435 629 Z " />
<glyph glyph-name="Oslash" unicode="&#xd8;" horiz-adv-x="670" d="M617 354 Q617 312 613.5 271.5 Q610 231 600.5 194 Q591 157 573 123.5 Q555 90 526 62 Q488 24 438.5 5 Q389 -14 335 -14 Q266 -14 208 16 L169 -69 L113 -43 L156 51 Q153 54 150 56.5 Q147 59 144 62 Q115 90 97 123.5 Q79 157 69.5 194 Q60 231 56.5 271.5 Q53 312 53 354 Q53 396 56.5 436.5 Q60 477 69.5 514 Q79 551 97 584.5 Q115 618 144 646 Q182 684 231.5 703 Q281 722 335 722 Q365 722 394.5 716 Q424 710 451 697 L483 768 L538 743 L503 666 Q515 657 526 646 Q555 618 573 584.5 Q591 551 600.5 514 Q610 477 613.5 436.5 Q617 396 617 354 Z M525 354 Q525 381 523.5 412 Q522 443 516 473.5 Q510 504 498 532 Q486 560 465 583 L244 95 Q264 83 287.5 77 Q311 71 335 71 Q371 71 404.5 84.5 Q438 98 464 124 Q486 146 498 174.5 Q510 203 516 233.5 Q522 264 523.5 295 Q525 326 525 354 Z M415 619 Q377 637 335 637 Q299 637 265.5 623.5 Q232 610 206 584 Q184 561 172 533 Q160 505 154 474.5 Q148 444 146.5 413 Q145 382 145 354 Q145 328 146 299.5 Q147 271 152 242.5 Q157 214 167 186.5 Q177 159 195 137 L415 619 Z " />
<glyph glyph-name="plusminus" unicode="&#xb1;" horiz-adv-x="569" d="M320 332 L320 145 L250 145 L250 332 L65 332 L65 402 L250 402 L250 587 L320 587 L320 402 L504 402 L504 332 L320 332 Z M65 0 L65 69 L504 69 L504 0 L65 0 Z " />
<glyph glyph-name="lessequal" unicode="&#x2264;" horiz-adv-x="857" d="M188 269 L423 37 L375 -13 L55 305 L375 623 L423 573 L188 341 L792 341 L792 269 L188 269 Z " />
<glyph glyph-name="greaterequal" unicode="&#x2265;" horiz-adv-x="857" d="M483 -13 L435 37 L669 269 L65 269 L65 341 L669 341 L435 573 L483 623 L802 305 L483 -13 Z " />
<glyph glyph-name="yen" unicode="&#xa5;" horiz-adv-x="560" d="M366 382 L498 382 L498 321 L324 321 L324 230 L498 230 L498 169 L324 169 L324 0 L235 0 L235 169 L72 169 L72 230 L235 230 L235 321 L72 321 L72 382 L193 382 L15 695 L109 695 L283 386 L453 695 L545 695 L366 382 Z " />
<glyph glyph-name="mu" unicode="&#xb5;" horiz-adv-x="590" d="M423 0 L416 77 Q396 33 353.5 10.5 Q311 -12 266 -12 Q240 -12 216 -4.5 Q192 3 178 14 L178 -200 L93 -200 L93 506 L178 506 L178 186 Q178 129 202 97 Q226 65 286 65 Q312 65 332.5 75.5 Q353 86 370 103 Q394 128 403 166 Q412 204 412 243 L412 506 L497 506 L497 0 L423 0 Z " />
<glyph glyph-name="partialdiff" unicode="&#x2202;" horiz-adv-x="560" d="M119 0 L119 78 L267 78 L267 598 L102 477 L102 572 L272 695 L353 695 L353 78 L501 78 L501 0 L119 0 Z " />
<glyph glyph-name="summation" unicode="&#x2211;" horiz-adv-x="928" d="M76 -73 L76 148 L123 148 L123 -27 L806 -27 L806 148 L852 148 L852 -73 L76 -73 Z " />
<glyph glyph-name="product" unicode="&#x220f;" horiz-adv-x="812" d="M747 867 Q747 859 741 852.5 Q735 846 727 846 Q719 846 712.5 852.5 Q706 859 706 867 Q706 875 712.5 881 Q719 887 727 887 Q735 887 741 881 Q747 875 747 867 Z M746 615 Q746 606 739 600 Q732 594 724 594 Q715 594 710 600.5 Q705 607 705 615 Q705 623 711.5 629.5 Q718 636 726 636 Q734 636 740 629.5 Q746 623 746 615 Z M492 867 Q492 859 485.5 852.5 Q479 846 471 846 Q463 846 456.5 852.5 Q450 859 450 867 Q450 875 456.5 881 Q463 887 471 887 Q479 887 485.5 881 Q492 875 492 867 Z M620 737 Q620 729 614 723 Q608 717 600 717 Q592 717 585.5 723 Q579 729 579 737 Q579 745 585.5 751.5 Q592 758 600 758 Q608 758 614 751.5 Q620 745 620 737 Z M744 365 Q744 357 737.5 350.5 Q731 344 723 344 Q715 344 708.5 350.5 Q702 357 702 365 Q702 373 708.5 379 Q715 385 723 385 Q731 385 737.5 379 Q744 373 744 365 Z M491 615 Q491 607 484.5 600.5 Q478 594 470 594 Q462 594 455.5 600.5 Q449 607 449 615 Q449 623 455.5 629.5 Q462 636 470 636 Q478 636 484.5 629.5 Q491 623 491 615 Z M619 486 Q619 478 612.5 471.5 Q606 465 598 465 Q590 465 584 471.5 Q578 478 578 486 Q578 494 584 500.5 Q590 507 598 507 Q606 507 612.5 500.5 Q619 494 619 486 Z M237 867 Q237 859 230.5 852.5 Q224 846 216 846 Q208 846 202 852.5 Q196 859 196 867 Q196 875 202 881 Q208 887 216 887 Q224 887 230.5 881 Q237 875 237 867 Z M365 737 Q365 729 358.5 723 Q352 717 344 717 Q336 717 329.5 723 Q323 729 323 737 Q323 745 329.5 751.5 Q336 758 344 758 Q352 758 358.5 751.5 Q365 745 365 737 Z M745 113 Q745 105 738.5 98.5 Q732 92 724 92 Q716 92 709.5 98.5 Q703 105 703 113 Q703 121 709.5 127.5 Q716 134 724 134 Q732 134 738.5 127.5 Q745 121 745 113 Z M488 365 Q488 357 481.5 350.5 Q475 344 467 344 Q459 344 452.5 350.5 Q446 357 446 365 Q446 373 452.5 379 Q459 385 467 385 Q475 385 481.5 379 Q488 373 488 365 Z M616 236 Q616 228 610 221.5 Q604 215 596 215 Q588 215 581.5 221.5 Q575 228 575 236 Q575 244 581.5 250 Q588 256 596 256 Q604 256 610 250 Q616 244 616 236 Z M236 615 Q236 607 229.5 600.5 Q223 594 215 594 Q207 594 200.5 600.5 Q194 607 194 615 Q194 623 200.5 629.5 Q207 636 215 636 Q223 636 229.5 629.5 Q236 623 236 615 Z M363 486 Q363 478 357 471.5 Q351 465 343 465 Q335 465 328.5 471.5 Q322 478 322 486 Q322 494 328.5 500.5 Q335 507 343 507 Q351 507 357 500.5 Q363 494 363 486 Z M110 737 Q110 729 103.5 723 Q97 717 89 717 Q81 717 74.5 723 Q68 729 68 737 Q68 745 74.5 751.5 Q81 758 89 758 Q97 758 103.5 751.5 Q110 745 110 737 Z M745 -139 Q745 -147 738.5 -153.5 Q732 -160 724 -160 Q716 -160 709.5 -153.5 Q703 -147 703 -139 Q703 -131 709.5 -124.5 Q716 -118 724 -118 Q732 -118 738.5 -124.5 Q745 -131 745 -139 Z M489 113 Q489 105 482.5 98.5 Q476 92 468 92 Q460 92 453.5 98.5 Q447 105 447 113 Q447 121 453.5 127.5 Q460 134 468 134 Q476 134 482.5 127.5 Q489 121 489 113 Z M617 -16 Q617 -24 611 -30.5 Q605 -37 597 -37 Q589 -37 582.5 -30.5 Q576 -24 576 -16 Q576 -8 582.5 -1.5 Q589 5 597 5 Q605 5 611 -1.5 Q617 -8 617 -16 Z M233 365 Q233 357 226.5 350.5 Q220 344 212 344 Q204 344 198 350.5 Q192 357 192 365 Q192 373 198 379 Q204 385 212 385 Q220 385 226.5 379 Q233 373 233 365 Z M361 236 Q361 228 354.5 221.5 Q348 215 340 215 Q332 215 325.5 221.5 Q319 228 319 236 Q319 244 325.5 250 Q332 256 340 256 Q348 256 354.5 250 Q361 244 361 236 Z M109 486 Q109 478 102.5 471.5 Q96 465 88 465 Q80 465 73.5 471.5 Q67 478 67 486 Q67 494 73.5 500.5 Q80 507 88 507 Q96 507 102.5 500.5 Q109 494 109 486 Z M489 -139 Q489 -147 482.5 -153.5 Q476 -160 468 -160 Q460 -160 453.5 -153.5 Q447 -147 447 -139 Q447 -131 453.5 -124.5 Q460 -118 468 -118 Q476 -118 482.5 -124.5 Q489 -131 489 -139 Z M617 -268 Q617 -276 611 -282.5 Q605 -289 597 -289 Q589 -289 582.5 -282.5 Q576 -276 576 -268 Q576 -260 582.5 -254 Q589 -248 597 -248 Q605 -248 611 -254 Q617 -260 617 -268 Z M234 113 Q234 105 228 98.5 Q222 92 214 92 Q206 92 199.5 98.5 Q193 105 193 113 Q193 121 199.5 127.5 Q206 134 214 134 Q222 134 228 127.5 Q234 121 234 113 Z M362 -16 Q362 -24 355.5 -30.5 Q349 -37 341 -37 Q333 -37 326.5 -30.5 Q320 -24 320 -16 Q320 -8 326.5 -1.5 Q333 5 341 5 Q349 5 355.5 -1.5 Q362 -8 362 -16 Z M106 236 Q106 228 99.5 221.5 Q93 215 85 215 Q77 215 71 221.5 Q65 228 65 236 Q65 244 71 250 Q77 256 85 256 Q93 256 99.5 250 Q106 244 106 236 Z M234 -139 Q234 -147 227.5 -153.5 Q221 -160 213 -160 Q205 -160 199 -153.5 Q193 -147 193 -139 Q193 -131 199 -124.5 Q205 -118 213 -118 Q221 -118 227.5 -124.5 Q234 -131 234 -139 Z M362 -268 Q362 -276 355.5 -282.5 Q349 -289 341 -289 Q333 -289 326.5 -282.5 Q320 -276 320 -268 Q320 -260 326.5 -254 Q333 -248 341 -248 Q349 -248 355.5 -254 Q362 -260 362 -268 Z M107 -16 Q107 -24 100.5 -30.5 Q94 -37 86 -37 Q78 -37 72 -30.5 Q66 -24 66 -16 Q66 -8 72 -1.5 Q78 5 86 5 Q94 5 100.5 -1.5 Q107 -8 107 -16 Z M107 -268 Q107 -276 100.5 -282.5 Q94 -289 86 -289 Q78 -289 71.5 -282.5 Q65 -276 65 -268 Q65 -260 71.5 -254 Q78 -248 86 -248 Q94 -248 100.5 -254 Q107 -260 107 -268 Z " />
<glyph glyph-name="pi" unicode="&#x3c0;" horiz-adv-x="640" d="M570 4 Q566 2 549.5 -2.5 Q533 -7 503 -7 Q473 -7 452 3.5 Q431 14 418 31.5 Q405 49 399.5 71.5 Q394 94 394 118 L394 438 L227 438 L227 -1 L143 -1 L143 438 L65 438 L65 506 L556 506 L556 438 L479 438 L479 128 Q479 101 488 83.5 Q497 66 525 66 Q546 66 556 67.5 Q566 69 570 71 L570 4 Z " />
<glyph glyph-name="integral" unicode="&#x222b;" horiz-adv-x="663" d="M562 164 L135 591 L135 260 L65 260 L65 709 L516 709 L516 642 L186 642 L613 215 L562 164 Z " />
<glyph glyph-name="ordfeminine" unicode="&#xaa;" horiz-adv-x="484" d="M420 315 Q409 309 398.5 307 Q388 305 376 305 Q350 305 335 321.5 Q320 338 318 361 Q301 333 269 317 Q237 301 197 301 Q164 301 138.5 311 Q113 321 96.5 338 Q80 355 71.5 376.5 Q63 398 63 421 Q63 440 70 460.5 Q77 481 93 498.5 Q109 516 135.5 528.5 Q162 541 202 543 L315 550 L315 576 Q315 590 312.5 606.5 Q310 623 297 634 Q288 642 273 647.5 Q258 653 235 653 Q209 653 193 647 Q177 641 167 631 Q149 613 149 583 L82 583 Q83 616 95.5 640 Q108 664 129 679 Q150 694 177.5 701.5 Q205 709 235 709 Q292 709 325 687.5 Q358 666 372 634 Q378 620 380 605.5 Q382 591 382 574 L382 388 Q382 373 387.5 368.5 Q393 364 402 364 Q409 364 413 365 Q417 365 420 366 L420 315 Z M315 496 L215 490 Q200 489 185.5 485 Q171 481 159.5 473 Q148 465 140.5 453 Q133 441 133 423 Q133 398 149.5 378.5 Q166 359 207 359 Q229 359 248.5 366 Q268 373 283 389 Q300 406 307.5 429 Q315 452 315 475 L315 496 Z " />
<glyph glyph-name="ordmasculine" unicode="&#xba;" horiz-adv-x="484" d="M413 505 Q413 459 402 418.5 Q391 378 359 346 Q338 325 308.5 312.5 Q279 300 242 300 Q205 300 176 312.5 Q147 325 126 346 Q94 378 82.5 418.5 Q71 459 71 505 Q71 551 82.5 591 Q94 631 126 663 Q147 684 176 696.5 Q205 709 242 709 Q279 709 308.5 696.5 Q338 684 359 663 Q391 631 402 591 Q413 551 413 505 Z M343 505 Q343 539 336 570.5 Q329 602 309 623 Q285 649 242 649 Q219 649 203 642 Q187 635 176 623 Q156 602 149 570.5 Q142 539 142 505 Q142 471 149 439 Q156 407 176 386 Q187 374 203 367 Q219 360 242 360 Q285 360 309 386 Q329 407 336 439 Q343 471 343 505 Z " />
<glyph glyph-name="Omega" unicode="&#x2126;" horiz-adv-x="858" d="M790 355 Q790 278 762.5 211 Q735 144 687 94 Q639 44 573 15.5 Q507 -13 429 -13 Q351 -13 285 15.5 Q219 44 171 93.5 Q123 143 95.5 210 Q68 277 68 354 Q68 431 95.5 498 Q123 565 171 615 Q219 665 285 693.5 Q351 722 429 722 Q507 722 573 693.5 Q639 665 687 615.5 Q735 566 762.5 499 Q790 432 790 355 Z M723 355 Q723 421 702 476.5 Q681 532 642.5 572.5 Q604 613 549.5 635.5 Q495 658 429 658 Q363 658 308.5 635 Q254 612 215.5 571.5 Q177 531 156 475.5 Q135 420 135 354 Q135 288 156 232.5 Q177 177 215.5 136.5 Q254 96 308.5 73.5 Q363 51 429 51 Q495 51 549.5 74 Q604 97 642.5 137.5 Q681 178 702 233.5 Q723 289 723 355 Z M593 421 Q593 392 582 368.5 Q571 345 552.5 329 Q534 313 509 304.5 Q484 296 457 296 L383 296 L383 161 L316 161 L316 544 L457 544 Q484 544 509 535.5 Q534 527 552.5 511.5 Q571 496 582 473 Q593 450 593 421 Z M523 421 Q523 450 503.5 466 Q484 482 457 482 L382 482 L382 358 L457 358 Q487 358 505 373.5 Q523 389 523 421 Z " />
<glyph glyph-name="ae" unicode="&#xe6;" horiz-adv-x="847" d="M455 229 L455 225 Q455 193 462 162.5 Q469 132 485 108.5 Q501 85 527 70.5 Q553 56 591 56 Q628 56 661 78 Q694 100 705 148 L789 148 Q784 110 768.5 81 Q753 52 724 28 Q696 5 666.5 -5 Q637 -15 592 -15 Q532 -15 484 9.5 Q436 34 413 82 Q388 38 343 12 Q298 -14 231 -14 Q187 -14 152 -0.5 Q117 13 92 38 Q72 58 60.5 84.5 Q49 111 49 145 Q49 179 62 207 Q75 235 97.5 254.5 Q120 274 149.5 285 Q179 296 211 296 Q252 297 292 297.5 Q332 298 373 298 L373 352 Q373 403 343.5 426.5 Q314 450 266 450 Q218 450 186.5 428.5 Q155 407 152 359 L69 359 Q71 402 88.5 433 Q106 464 133.5 483.5 Q161 503 196 512 Q231 521 267 521 Q289 521 312 516.5 Q335 512 357 503 Q379 494 397.5 479.5 Q416 465 429 446 Q454 481 492 500 Q530 519 587 519 Q652 519 691.5 495.5 Q731 472 758 430 Q781 395 789 353.5 Q797 312 797 256 L797 230 L455 229 Z M711 296 Q710 331 702.5 359.5 Q695 388 678 409 Q664 427 642 438.5 Q620 450 586 450 Q557 450 536 440 Q515 430 499 413 Q478 391 467.5 361 Q457 331 457 296 L711 296 Z M231 233 Q192 233 163.5 210.5 Q135 188 135 146 Q135 104 162.5 81.5 Q190 59 230 59 Q259 59 287 67.5 Q315 76 335 96 Q364 125 370 155 Q376 185 376 220 L376 234 L231 233 Z " />
<glyph glyph-name="oslash" unicode="&#xf8;" horiz-adv-x="558" d="M504 253 Q504 193 489 140 Q474 87 432 46 Q404 19 365.5 3 Q327 -13 279 -13 Q232 -13 195 2 L159 -77 L105 -52 L143 31 Q138 35 134 38.5 Q130 42 126 46 Q84 87 69 140 Q54 193 54 253 Q54 313 69 366 Q84 419 126 460 Q154 487 192.5 503 Q231 519 279 519 Q301 519 320.5 515.5 Q340 512 358 506 L394 585 L448 561 L411 478 Q421 470 432 460 Q474 419 489 366 Q504 313 504 253 Z M417 253 Q417 295 408.5 334.5 Q400 374 376 403 L226 70 Q251 60 279 60 Q309 60 331.5 70 Q354 80 370 96 Q397 124 407 166 Q417 208 417 253 Z M327 438 Q305 446 279 446 Q249 446 226.5 436 Q204 426 188 410 Q161 382 151 340 Q141 298 141 253 Q141 213 149 175 Q157 137 178 108 L327 438 Z " />
<glyph glyph-name="questiondown" unicode="&#xbf;" horiz-adv-x="504" d="M198 397 L198 507 L304 507 L304 397 L198 397 Z M464 2 Q464 -40 449.5 -80 Q435 -120 407 -150.5 Q379 -181 337 -199.5 Q295 -218 240 -218 Q198 -218 159.5 -205 Q121 -192 92.5 -167.5 Q64 -143 47 -108 Q30 -73 30 -28 Q30 32 58.5 75 Q87 118 138 156 Q162 173 176 188 Q190 203 197.5 219 Q205 235 207 252.5 Q209 270 209 293 L209 318 L291 318 L291 290 Q291 250 284.5 222 Q278 194 264.5 171.5 Q251 149 230 129.5 Q209 110 179 87 Q149 64 133.5 37.5 Q118 11 118 -29 Q118 -73 148 -105 Q165 -122 189 -131.5 Q213 -141 240 -141 Q273 -141 298 -129.5 Q323 -118 340 -98.5 Q357 -79 365.5 -53 Q374 -27 374 2 L464 2 Z " />
<glyph glyph-name="exclamdown" unicode="&#xa1;" horiz-adv-x="331" d="M95 396 L95 505 L201 505 L201 396 L95 396 Z M95 -204 L95 20 L118 290 L176 290 L197 20 L197 -204 L95 -204 Z " />
<glyph glyph-name="logicalnot" unicode="&#xac;" horiz-adv-x="625" d="M462 99 L462 264 L55 264 L55 341 L540 341 L540 99 L462 99 Z " />
<glyph glyph-name="radical" unicode="&#x221a;" horiz-adv-x="690" d="M580 766 L321 -8 L244 -8 L65 504 L156 504 L283 119 L513 832 L690 832 L690 766 L580 766 Z " />
<glyph glyph-name="florin" unicode="&#x192;" horiz-adv-x="527" d="M479 635 Q474 636 460 638.5 Q446 641 421 641 Q409 641 396 637 Q383 633 371.5 623 Q360 613 350.5 596 Q341 579 336 552 L313 437 L454 437 L454 362 L298 362 L231 23 Q218 -42 176.5 -78.5 Q135 -115 83 -115 Q54 -115 38 -112.5 Q22 -110 8 -107 L8 -32 Q13 -33 27 -35.5 Q41 -38 66 -38 Q78 -38 91 -34 Q104 -30 115.5 -20 Q127 -10 136.5 7 Q146 24 151 51 L213 362 L111 362 L111 437 L228 437 L256 580 Q269 645 310.5 681.5 Q352 718 404 718 Q433 718 449 715.5 Q465 713 479 710 L479 635 Z " />
<glyph glyph-name="approxequal" unicode="&#x2248;" horiz-adv-x="655" d="M580 374 Q556 350 536 335 Q516 320 498 311 Q480 302 463 299 Q446 296 427 296 Q398 296 370 306 Q342 316 312 330 Q293 338 271 346 Q249 354 227 354 Q217 354 206.5 353 Q196 352 184.5 347 Q173 342 159 332.5 Q145 323 128 306 L75 361 Q99 385 119 400 Q139 415 157 424 Q175 433 192 436 Q209 439 228 439 Q250 439 270 434 Q290 429 310 421 Q330 413 349 405 Q368 397 388 390 Q406 383 427 383 Q437 383 447.5 384 Q458 385 469.5 389.5 Q481 394 495 403.5 Q509 413 526 430 L580 374 Z M580 184 Q556 160 536 145 Q516 130 498 121 Q480 112 463 109 Q446 106 427 106 Q398 106 370 115.5 Q342 125 312 139 Q293 147 271 155.5 Q249 164 227 164 Q217 164 206.5 163 Q196 162 184.5 157 Q173 152 159 142.5 Q145 133 128 116 L75 170 Q99 194 119 209 Q139 224 157 233 Q175 242 192 245 Q209 248 228 248 Q250 248 270 243.5 Q290 239 310 231 Q330 223 349 215 Q368 207 388 200 Q409 192 427 192 Q437 192 447.5 193 Q458 194 469.5 198.5 Q481 203 495 212.5 Q509 222 526 239 L580 184 Z " />
<glyph glyph-name="Delta" unicode="&#x2206;" horiz-adv-x="663" d="M528 260 L528 591 L101 164 L50 215 L477 642 L146 642 L146 709 L598 709 L598 260 L528 260 Z " />
<glyph glyph-name="guillemotleft" unicode="&#xab;" horiz-adv-x="550" d="M441 68 L277 298 L441 528 L494 490 L383 299 L495 108 L441 68 Z M209 68 L45 298 L209 528 L262 490 L151 299 L263 108 L209 68 Z " />
<glyph glyph-name="guillemotright" unicode="&#xbb;" horiz-adv-x="550" d="M341 68 L287 108 L399 299 L288 490 L341 528 L505 298 L341 68 Z M109 68 L55 108 L167 299 L56 490 L109 528 L273 298 L109 68 Z " />
<glyph glyph-name="ellipsis" unicode="&#x2026;" horiz-adv-x="805" d="M613 0 L613 115 L728 115 L728 0 L613 0 Z M345 0 L345 115 L459 115 L459 0 L345 0 Z M77 0 L77 115 L191 115 L191 0 L77 0 Z " />
<glyph glyph-name="Agrave" unicode="&#xc0;" horiz-adv-x="621" d="M521 0 L463 168 L155 168 L98 0 L8 0 L258 709 L362 709 L613 0 L521 0 Z M308 620 L183 252 L434 252 L308 620 Z M376 755 L191 854 L236 925 L407 802 L376 755 Z " />
<glyph glyph-name="Atilde" unicode="&#xc3;" horiz-adv-x="621" d="M521 0 L463 168 L155 168 L98 0 L8 0 L258 709 L362 709 L613 0 L521 0 Z M308 620 L183 252 L434 252 L308 620 Z M466 835 Q449 814 424.5 797.5 Q400 781 365 781 Q342 781 325 787.5 Q308 794 293 802 Q279 810 264.5 816.5 Q250 823 234 823 Q214 823 200 816 Q186 809 172 795 L133 837 Q153 859 176.5 875 Q200 891 235 891 Q256 891 272.5 884 Q289 877 304 869 Q319 861 334 854 Q349 847 366 847 Q386 847 402 855.5 Q418 864 429 877 L466 835 Z " />
<glyph glyph-name="Otilde" unicode="&#xd5;" horiz-adv-x="670" d="M617 354 Q617 312 613.5 271.5 Q610 231 600.5 194 Q591 157 573 123.5 Q555 90 526 62 Q488 24 438.5 5 Q389 -14 335 -14 Q281 -14 231.5 5 Q182 24 144 62 Q115 90 97 123.5 Q79 157 69.5 194 Q60 231 56.5 271.5 Q53 312 53 354 Q53 396 56.5 436.5 Q60 477 69.5 514 Q79 551 97 584.5 Q115 618 144 646 Q182 684 231.5 703 Q281 722 335 722 Q389 722 438.5 703 Q488 684 526 646 Q555 618 573 584.5 Q591 551 600.5 514 Q610 477 613.5 436.5 Q617 396 617 354 Z M525 354 Q525 382 523.5 413 Q522 444 516 474.5 Q510 505 498 533 Q486 561 464 584 Q438 610 404.5 623.5 Q371 637 335 637 Q299 637 265.5 623.5 Q232 610 206 584 Q184 561 172 533 Q160 505 154 474.5 Q148 444 146.5 413 Q145 382 145 354 Q145 326 146.5 295 Q148 264 154 233.5 Q160 203 172 174.5 Q184 146 206 124 Q232 98 265.5 84.5 Q299 71 335 71 Q371 71 404.5 84.5 Q438 98 464 124 Q486 146 498 174.5 Q510 203 516 233.5 Q522 264 523.5 295 Q525 326 525 354 Z M502 834 Q485 813 460.5 796.5 Q436 780 401 780 Q378 780 361 786.5 Q344 793 329 801 Q315 809 300.5 815.5 Q286 822 270 822 Q250 822 236 815 Q222 808 208 794 L169 836 Q189 858 212.5 874 Q236 890 271 890 Q292 890 308.5 883 Q325 876 340 868 Q355 860 370 853 Q385 846 402 846 Q422 846 438 854.5 Q454 863 465 876 L502 834 Z " />
<glyph glyph-name="OE" unicode="&#x152;" horiz-adv-x="983" d="M512 0 L512 65 Q483 28 436 7.5 Q389 -13 325 -13 Q260 -13 216.5 6.5 Q173 26 136 64 Q109 92 92.5 125 Q76 158 67.5 195 Q59 232 56 272.5 Q53 313 53 355 Q53 397 56 437.5 Q59 478 67.5 514.5 Q76 551 92.5 584 Q109 617 136 645 Q173 682 216.5 702.5 Q260 723 325 723 Q389 723 436.5 700 Q484 677 512 642 L512 709 L932 709 L932 626 L594 626 L594 420 L883 420 L883 336 L594 336 L594 83 L932 83 L932 0 L512 0 Z M507 355 Q507 387 505.5 420 Q504 453 498 483.5 Q492 514 481.5 541 Q471 568 453 589 Q433 612 402 627 Q371 642 325 642 Q285 642 256.5 629.5 Q228 617 208 598 Q187 577 174 549.5 Q161 522 154 490 Q147 458 145 423.5 Q143 389 143 355 Q143 322 145 289 Q147 256 153 225.5 Q159 195 170 167.5 Q181 140 199 119 Q219 96 249.5 81.5 Q280 67 325 67 Q367 67 396.5 79.5 Q426 92 446 112 Q467 133 479 160.5 Q491 188 497 220 Q503 252 505 286.5 Q507 321 507 355 Z " />
<glyph glyph-name="oe" unicode="&#x153;" horiz-adv-x="889" d="M490 229 Q490 203 493.5 176.5 Q497 150 510 125 Q525 96 553.5 76.5 Q582 57 627 57 Q645 57 664 62.5 Q683 68 699.5 79 Q716 90 728.5 107 Q741 124 746 148 L831 148 Q826 110 810 82 Q794 54 765 30 Q737 7 705 -4 Q673 -15 628 -15 Q569 -15 522.5 9 Q476 33 449 79 Q442 68 436 59.5 Q430 51 423 44 Q396 16 358 0 Q320 -16 272 -16 Q224 -16 186.5 0.5 Q149 17 122 45 Q81 87 67.5 139 Q54 191 54 251 Q54 311 67 363.5 Q80 416 121 458 Q148 486 186 502.5 Q224 519 272 519 Q320 519 358 502 Q396 485 423 457 Q430 450 435.5 442.5 Q441 435 447 425 L452 433 Q476 472 520.5 495.5 Q565 519 624 519 Q689 519 730.5 494 Q772 469 799 427 Q822 392 830.5 351.5 Q839 311 839 256 L839 229 L490 229 Z M752 296 Q751 331 742.5 359 Q734 387 716 408 Q701 425 678 437 Q655 449 623 449 Q591 449 566.5 437 Q542 425 525.5 404 Q509 383 500 355 Q491 327 491 296 L752 296 Z M407 251 Q407 298 397.5 341 Q388 384 360 413 Q345 428 324 438 Q303 448 272 448 Q244 448 224.5 439.5 Q205 431 190 417 Q159 389 149 344 Q139 299 139 251 Q139 206 148.5 163.5 Q158 121 184 92 Q199 75 220 65 Q241 55 272 55 Q308 55 331 67.5 Q354 80 369 100 Q391 129 399 168.5 Q407 208 407 251 Z " />
<glyph glyph-name="endash" unicode="&#x2013;" horiz-adv-x="655" d="M70 262 L70 341 L585 341 L585 262 L70 262 Z " />
<glyph glyph-name="emdash" unicode="&#x2014;" horiz-adv-x="1125" d="M70 262 L70 341 L1055 341 L1055 262 L70 262 Z " />
<glyph glyph-name="quotedblleft" unicode="&#x201c;" horiz-adv-x="472" d="M402 672 Q363 655 350.5 630 Q338 605 338 562 L400 562 L400 445 L278 445 L278 562 Q278 618 299.5 657 Q321 696 376 719 L402 672 Z M204 672 Q165 655 152.5 630 Q140 605 140 562 L202 562 L202 445 L80 445 L80 562 Q80 618 101.5 657 Q123 696 178 719 L204 672 Z " />
<glyph glyph-name="quotedblright" unicode="&#x201d;" horiz-adv-x="462" d="M397 586 Q397 530 375.5 491 Q354 452 299 429 L273 476 Q312 493 324.5 518 Q337 543 337 586 L275 586 L275 703 L397 703 L397 586 Z M199 586 Q199 530 177.5 491 Q156 452 101 429 L75 476 Q114 493 126.5 518 Q139 543 139 586 L77 586 L77 703 L199 703 L199 586 Z " />
<glyph glyph-name="quoteleft" unicode="&#x2018;" horiz-adv-x="274" d="M199 672 Q160 655 147.5 630 Q135 605 135 562 L197 562 L197 445 L75 445 L75 562 Q75 618 96.5 657 Q118 696 173 719 L199 672 Z " />
<glyph glyph-name="quoteright" unicode="&#x2019;" horiz-adv-x="264" d="M194 588 Q194 532 172.5 493 Q151 454 96 431 L70 478 Q109 495 121.5 520 Q134 545 134 588 L72 588 L72 705 L194 705 L194 588 Z " />
<glyph glyph-name="divide" unicode="&#xf7;" horiz-adv-x="652" d="M267 442 L267 560 L381 560 L381 442 L267 442 Z M75 261 L75 339 L577 339 L577 261 L75 261 Z M267 48 L267 166 L381 166 L381 48 L267 48 Z " />
<glyph glyph-name="lozenge" unicode="&#x25ca;" horiz-adv-x="560" d="M512 348 Q512 298 509 254.5 Q506 211 497 173.5 Q488 136 472 104.5 Q456 73 430 46 Q404 20 368 3.5 Q332 -13 280 -13 Q228 -13 192 3.5 Q156 20 130 46 Q104 73 88 104.5 Q72 136 63 173.5 Q54 211 51 254.5 Q48 298 48 348 Q48 398 51 442 Q54 486 63 523.5 Q72 561 88 592.5 Q104 624 130 651 Q156 677 192 693 Q228 709 280 709 Q332 709 368 693 Q404 677 430 651 Q456 624 472 592.5 Q488 561 497 523.5 Q506 486 509 442 Q512 398 512 348 Z M400 550 Q388 578 366 599 Q351 613 329.5 622 Q308 631 280 631 Q252 631 230.5 622 Q209 613 194 599 Q173 579 161.5 553 Q150 527 144.5 496.5 Q139 466 138 432.5 Q137 399 137 366 L137 309 Q137 289 137.5 269 Q138 249 140 230 L400 550 Z M423 348 Q423 376 422.5 404 Q422 432 420 459 L163 140 Q169 128 176.5 117 Q184 106 194 97 Q209 83 230.5 74 Q252 65 280 65 Q308 65 329.5 74 Q351 83 366 97 Q387 116 398.5 142.5 Q410 169 415.5 199.5 Q421 230 422 263.5 Q423 297 423 330 L423 348 Z " />
<glyph glyph-name="ydieresis" unicode="&#xff;" horiz-adv-x="498" d="M260 -104 Q242 -153 211 -182.5 Q180 -212 123 -212 Q91 -212 71 -208 Q51 -204 46 -202 L46 -128 Q54 -130 64 -132 Q72 -134 82.5 -135 Q93 -136 106 -136 Q133 -136 152 -125 Q171 -114 182 -85 L214 0 L12 506 L108 506 L257 107 L399 506 L488 506 L260 -104 Z M117 599 L117 691 L209 691 L209 599 L117 599 Z M293 599 L293 691 L385 691 L385 599 L293 599 Z " />
<glyph glyph-name="Ydieresis" unicode="&#x178;" horiz-adv-x="566" d="M328 288 L328 0 L238 0 L238 288 L0 709 L100 709 L286 372 L471 709 L566 709 L328 288 Z M151 778 L151 870 L243 870 L243 778 L151 778 Z M327 778 L327 870 L419 870 L419 778 L327 778 Z " />
<glyph glyph-name="fraction" unicode="&#x2044;" horiz-adv-x="588" d="M63 -21 L9 20 L524 724 L579 685 L63 -21 Z " />
<glyph glyph-name="Euro" unicode="&#x20ac;" horiz-adv-x="586" d="M571 45 Q539 20 495.5 3.5 Q452 -13 389 -13 Q328 -13 279.5 8 Q231 29 193 68 Q155 107 135.5 152.5 Q116 198 109 247 L30 247 L30 308 L104 308 Q103 318 103 328 Q103 338 103 348 Q103 358 103 367.5 Q103 377 104 387 L30 387 L30 448 L109 448 Q116 498 135.5 543.5 Q155 589 193 628 Q231 667 279.5 688 Q328 709 389 709 Q452 709 495.5 692.5 Q539 676 571 651 L538 579 Q510 601 474 615 Q438 629 389 629 Q348 629 313 614 Q278 599 250 568 Q227 542 215 511.5 Q203 481 198 448 L478 448 L451 387 L193 387 Q192 377 192 367 Q192 357 192 347 Q192 337 192 327.5 Q192 318 193 308 L423 308 L396 247 L198 247 Q203 215 215 184.5 Q227 154 250 128 Q278 97 313 82 Q348 67 389 67 Q438 67 474 81 Q510 95 538 117 L571 45 Z " />
<glyph glyph-name="guilsinglleft" unicode="&#x2039;" horiz-adv-x="318" d="M209 68 L45 298 L209 528 L262 490 L151 299 L263 108 L209 68 Z " />
<glyph glyph-name="guilsinglright" unicode="&#x203a;" horiz-adv-x="318" d="M109 68 L55 108 L167 299 L56 490 L109 528 L273 298 L109 68 Z " />
<glyph glyph-name="fi" unicode="&#xfb01;" horiz-adv-x="638" d="M361 652 Q341 654 322.5 657 Q304 660 277 660 Q243 660 224 641 Q205 622 205 591 L205 506 L351 506 L351 434 L205 434 L205 0 L120 0 L120 434 L28 434 L28 506 L120 506 L120 596 Q120 624 130.5 649 Q141 674 160.5 692.5 Q180 711 207 721.5 Q234 732 267 732 Q293 732 316.5 729.5 Q340 727 361 723 L361 652 Z M452 622 L452 722 L551 722 L551 622 L452 622 Z M458 0 L458 506 L545 506 L545 0 L458 0 Z " />
<glyph glyph-name="fl" unicode="&#xfb02;" horiz-adv-x="662" d="M361 652 Q341 654 322.5 657 Q304 660 277 660 Q243 660 224 641 Q205 622 205 591 L205 506 L351 506 L351 434 L205 434 L205 0 L120 0 L120 434 L28 434 L28 506 L120 506 L120 596 Q120 624 130.5 649 Q141 674 160.5 692.5 Q180 711 207 721.5 Q234 732 267 732 Q293 732 316.5 729.5 Q340 727 361 723 L361 652 Z M627 0 Q621 -2 612 -3 Q597 -6 567 -6 Q511 -6 486 26 Q461 58 461 118 L461 722 L546 722 L546 123 Q546 97 556 84 Q566 71 592 71 L620 71 Q624 71 627 72 L627 0 Z " />
<glyph glyph-name="daggerdbl" unicode="&#x2021;" horiz-adv-x="566" d="M324 78 L324 -125 L242 -125 L242 78 L55 78 L55 151 L242 151 L242 433 L55 433 L55 506 L242 506 L242 709 L324 709 L324 506 L511 506 L511 433 L324 433 L324 151 L511 151 L511 78 L324 78 Z " />
<glyph glyph-name="periodcentered" unicode="&#xb7;" horiz-adv-x="298" d="M90 247 L90 366 L208 366 L208 247 L90 247 Z " />
<glyph glyph-name="quotesinglbase" unicode="&#x201a;" horiz-adv-x="279" d="M204 -2 Q204 -58 182.5 -97 Q161 -136 106 -159 L80 -112 Q119 -95 131.5 -70 Q144 -45 144 -2 L82 -2 L82 115 L204 115 L204 -2 Z " />
<glyph glyph-name="quotedblbase" unicode="&#x201e;" horiz-adv-x="492" d="M407 -1 Q407 -57 385.5 -96 Q364 -135 309 -158 L283 -111 Q322 -94 334.5 -69 Q347 -44 347 -1 L285 -1 L285 116 L407 116 L407 -1 Z M209 -1 Q209 -57 187.5 -96 Q166 -135 111 -158 L85 -111 Q124 -94 136.5 -69 Q149 -44 149 -1 L87 -1 L87 116 L209 116 L209 -1 Z " />
<glyph glyph-name="perthousand" unicode="&#x2030;" horiz-adv-x="1175" d="M1125 168 Q1125 136 1119 106.5 Q1113 77 1096 53 Q1077 25 1046 6 Q1015 -13 970 -13 Q925 -13 894.5 6 Q864 25 845 53 Q828 77 822 106.5 Q816 136 816 168 Q816 200 822 230 Q828 260 845 284 Q864 312 894.5 331.5 Q925 351 970 351 Q1015 351 1046 331.5 Q1077 312 1096 284 Q1113 260 1119 230 Q1125 200 1125 168 Z M765 168 Q765 136 759 106.5 Q753 77 736 53 Q717 25 686.5 6 Q656 -13 611 -13 Q566 -13 535 6 Q504 25 485 53 Q468 77 462 106.5 Q456 136 456 168 Q456 200 462 230 Q468 260 485 284 Q504 312 535 331.5 Q566 351 611 351 Q656 351 686.5 331.5 Q717 312 736 284 Q753 260 759 230 Q765 200 765 168 Z M189 -21 L135 20 L650 724 L705 685 L189 -21 Z M370 540 Q370 508 363.5 478.5 Q357 449 340 425 Q321 397 290.5 378 Q260 359 215 359 Q170 359 139 378 Q108 397 89 425 Q72 449 66 478.5 Q60 508 60 540 Q60 572 66 602 Q72 632 89 656 Q108 684 139 703 Q170 722 215 722 Q260 722 290.5 703 Q321 684 340 656 Q357 632 363.5 602 Q370 572 370 540 Z M1052 168 Q1052 197 1046.5 222 Q1041 247 1025 264 Q1016 274 1003 280.5 Q990 287 970 287 Q950 287 937 280.5 Q924 274 915 264 Q899 247 893.5 222 Q888 197 888 168 Q888 139 893.5 114.5 Q899 90 915 73 Q924 63 937 56.5 Q950 50 970 50 Q990 50 1003 56.5 Q1016 63 1025 73 Q1041 90 1046.5 114.5 Q1052 139 1052 168 Z M692 168 Q692 197 686.5 222 Q681 247 665 264 Q656 274 643.5 280.5 Q631 287 611 287 Q591 287 578 280.5 Q565 274 556 264 Q540 247 534 222 Q528 197 528 168 Q528 139 534 114.5 Q540 90 556 73 Q565 63 578 56.5 Q591 50 611 50 Q631 50 643.5 56.5 Q656 63 665 73 Q681 90 686.5 114.5 Q692 139 692 168 Z M297 540 Q297 569 291 594 Q285 619 269 636 Q260 646 247.5 652.5 Q235 659 215 659 Q195 659 182 652.5 Q169 646 160 636 Q144 619 138 594 Q132 569 132 540 Q132 511 138 486.5 Q144 462 160 445 Q169 435 182 428.5 Q195 422 215 422 Q235 422 247.5 428.5 Q260 435 269 445 Q285 462 291 486.5 Q297 511 297 540 Z " />
<glyph glyph-name="Acircumflex" unicode="&#xc2;" horiz-adv-x="621" d="M521 0 L463 168 L155 168 L98 0 L8 0 L258 709 L362 709 L613 0 L521 0 Z M308 620 L183 252 L434 252 L308 620 Z M412 753 L304 868 L197 753 L152 798 L277 929 L332 929 L457 798 L412 753 Z " />
<glyph glyph-name="Ecircumflex" unicode="&#xca;" horiz-adv-x="625" d="M100 0 L100 709 L574 709 L574 627 L189 627 L189 411 L527 411 L527 327 L189 327 L189 82 L574 82 L574 0 L100 0 Z M444 758 L336 873 L229 758 L184 803 L309 934 L364 934 L489 803 L444 758 Z " />
<glyph glyph-name="Aacute" unicode="&#xc1;" horiz-adv-x="621" d="M521 0 L463 168 L155 168 L98 0 L8 0 L258 709 L362 709 L613 0 L521 0 Z M308 620 L183 252 L434 252 L308 620 Z M222 754 L192 801 L362 924 L407 853 L222 754 Z " />
<glyph glyph-name="Edieresis" unicode="&#xcb;" horiz-adv-x="625" d="M100 0 L100 709 L574 709 L574 627 L189 627 L189 411 L527 411 L527 327 L189 327 L189 82 L574 82 L574 0 L100 0 Z M209 789 L209 881 L301 881 L301 789 L209 789 Z M385 789 L385 881 L477 881 L477 789 L385 789 Z " />
<glyph glyph-name="Egrave" unicode="&#xc8;" horiz-adv-x="625" d="M100 0 L100 709 L574 709 L574 627 L189 627 L189 411 L527 411 L527 327 L189 327 L189 82 L574 82 L574 0 L100 0 Z M410 760 L225 859 L270 930 L441 807 L410 760 Z " />
<glyph glyph-name="Iacute" unicode="&#xcd;" horiz-adv-x="291" d="M100 0 L100 709 L191 709 L191 0 L100 0 Z M71 754 L41 801 L211 924 L256 853 L71 754 Z " />
<glyph glyph-name="Icircumflex" unicode="&#xce;" horiz-adv-x="291" d="M100 0 L100 709 L191 709 L191 0 L100 0 Z M253 753 L145 868 L38 753 L-7 798 L118 929 L173 929 L298 798 L253 753 Z " />
<glyph glyph-name="Idieresis" unicode="&#xcf;" horiz-adv-x="291" d="M100 0 L100 709 L191 709 L191 0 L100 0 Z M12 789 L12 881 L104 881 L104 789 L12 789 Z M188 789 L188 881 L280 881 L280 789 L188 789 Z " />
<glyph glyph-name="Igrave" unicode="&#xcc;" horiz-adv-x="291" d="M100 0 L100 709 L191 709 L191 0 L100 0 Z M221 755 L36 854 L81 925 L252 802 L221 755 Z " />
<glyph glyph-name="Oacute" unicode="&#xd3;" horiz-adv-x="670" d="M617 354 Q617 312 613.5 271.5 Q610 231 600.5 194 Q591 157 573 123.5 Q555 90 526 62 Q488 24 438.5 5 Q389 -14 335 -14 Q281 -14 231.5 5 Q182 24 144 62 Q115 90 97 123.5 Q79 157 69.5 194 Q60 231 56.5 271.5 Q53 312 53 354 Q53 396 56.5 436.5 Q60 477 69.5 514 Q79 551 97 584.5 Q115 618 144 646 Q182 684 231.5 703 Q281 722 335 722 Q389 722 438.5 703 Q488 684 526 646 Q555 618 573 584.5 Q591 551 600.5 514 Q610 477 613.5 436.5 Q617 396 617 354 Z M525 354 Q525 382 523.5 413 Q522 444 516 474.5 Q510 505 498 533 Q486 561 464 584 Q438 610 404.5 623.5 Q371 637 335 637 Q299 637 265.5 623.5 Q232 610 206 584 Q184 561 172 533 Q160 505 154 474.5 Q148 444 146.5 413 Q145 382 145 354 Q145 326 146.5 295 Q148 264 154 233.5 Q160 203 172 174.5 Q184 146 206 124 Q232 98 265.5 84.5 Q299 71 335 71 Q371 71 404.5 84.5 Q438 98 464 124 Q486 146 498 174.5 Q510 203 516 233.5 Q522 264 523.5 295 Q525 326 525 354 Z M257 759 L227 806 L397 929 L442 858 L257 759 Z " />
<glyph glyph-name="Ocircumflex" unicode="&#xd4;" horiz-adv-x="670" d="M617 354 Q617 312 613.5 271.5 Q610 231 600.5 194 Q591 157 573 123.5 Q555 90 526 62 Q488 24 438.5 5 Q389 -14 335 -14 Q281 -14 231.5 5 Q182 24 144 62 Q115 90 97 123.5 Q79 157 69.5 194 Q60 231 56.5 271.5 Q53 312 53 354 Q53 396 56.5 436.5 Q60 477 69.5 514 Q79 551 97 584.5 Q115 618 144 646 Q182 684 231.5 703 Q281 722 335 722 Q389 722 438.5 703 Q488 684 526 646 Q555 618 573 584.5 Q591 551 600.5 514 Q610 477 613.5 436.5 Q617 396 617 354 Z M525 354 Q525 382 523.5 413 Q522 444 516 474.5 Q510 505 498 533 Q486 561 464 584 Q438 610 404.5 623.5 Q371 637 335 637 Q299 637 265.5 623.5 Q232 610 206 584 Q184 561 172 533 Q160 505 154 474.5 Q148 444 146.5 413 Q145 382 145 354 Q145 326 146.5 295 Q148 264 154 233.5 Q160 203 172 174.5 Q184 146 206 124 Q232 98 265.5 84.5 Q299 71 335 71 Q371 71 404.5 84.5 Q438 98 464 124 Q486 146 498 174.5 Q510 203 516 233.5 Q522 264 523.5 295 Q525 326 525 354 Z M447 753 L339 868 L232 753 L187 798 L312 929 L367 929 L492 798 L447 753 Z " />
<glyph glyph-name="Ograve" unicode="&#xd2;" horiz-adv-x="670" d="M617 354 Q617 312 613.5 271.5 Q610 231 600.5 194 Q591 157 573 123.5 Q555 90 526 62 Q488 24 438.5 5 Q389 -14 335 -14 Q281 -14 231.5 5 Q182 24 144 62 Q115 90 97 123.5 Q79 157 69.5 194 Q60 231 56.5 271.5 Q53 312 53 354 Q53 396 56.5 436.5 Q60 477 69.5 514 Q79 551 97 584.5 Q115 618 144 646 Q182 684 231.5 703 Q281 722 335 722 Q389 722 438.5 703 Q488 684 526 646 Q555 618 573 584.5 Q591 551 600.5 514 Q610 477 613.5 436.5 Q617 396 617 354 Z M525 354 Q525 382 523.5 413 Q522 444 516 474.5 Q510 505 498 533 Q486 561 464 584 Q438 610 404.5 623.5 Q371 637 335 637 Q299 637 265.5 623.5 Q232 610 206 584 Q184 561 172 533 Q160 505 154 474.5 Q148 444 146.5 413 Q145 382 145 354 Q145 326 146.5 295 Q148 264 154 233.5 Q160 203 172 174.5 Q184 146 206 124 Q232 98 265.5 84.5 Q299 71 335 71 Q371 71 404.5 84.5 Q438 98 464 124 Q486 146 498 174.5 Q510 203 516 233.5 Q522 264 523.5 295 Q525 326 525 354 Z M410 760 L225 859 L270 930 L441 807 L410 760 Z " />
<glyph glyph-name="Uacute" unicode="&#xda;" horiz-adv-x="678" d="M598 260 Q598 194 580 143 Q562 92 528 57.5 Q494 23 446.5 5 Q399 -13 339 -13 Q279 -13 231.5 5 Q184 23 150 57.5 Q116 92 98 143 Q80 194 80 260 L80 709 L169 709 L169 258 Q169 216 178.5 181 Q188 146 208 121.5 Q228 97 260.5 83.5 Q293 70 339 70 Q385 70 417.5 83.5 Q450 97 470 121.5 Q490 146 499.5 181 Q509 216 509 258 L509 709 L598 709 L598 260 Z M269 754 L239 801 L409 924 L454 853 L269 754 Z " />
<glyph glyph-name="Ucircumflex" unicode="&#xdb;" horiz-adv-x="678" d="M598 260 Q598 194 580 143 Q562 92 528 57.5 Q494 23 446.5 5 Q399 -13 339 -13 Q279 -13 231.5 5 Q184 23 150 57.5 Q116 92 98 143 Q80 194 80 260 L80 709 L169 709 L169 258 Q169 216 178.5 181 Q188 146 208 121.5 Q228 97 260.5 83.5 Q293 70 339 70 Q385 70 417.5 83.5 Q450 97 470 121.5 Q490 146 499.5 181 Q509 216 509 258 L509 709 L598 709 L598 260 Z M457 753 L349 868 L242 753 L197 798 L322 929 L377 929 L502 798 L457 753 Z " />
<glyph glyph-name="Ugrave" unicode="&#xd9;" horiz-adv-x="678" d="M598 260 Q598 194 580 143 Q562 92 528 57.5 Q494 23 446.5 5 Q399 -13 339 -13 Q279 -13 231.5 5 Q184 23 150 57.5 Q116 92 98 143 Q80 194 80 260 L80 709 L169 709 L169 258 Q169 216 178.5 181 Q188 146 208 121.5 Q228 97 260.5 83.5 Q293 70 339 70 Q385 70 417.5 83.5 Q450 97 470 121.5 Q490 146 499.5 181 Q509 216 509 258 L509 709 L598 709 L598 260 Z M402 755 L217 854 L262 925 L433 802 L402 755 Z " />
<glyph glyph-name="dotlessi" unicode="&#x131;" horiz-adv-x="273" d="M94 0 L94 506 L180 506 L180 0 L94 0 Z " />
<glyph glyph-name="circumflex" unicode="&#x2c6;" horiz-adv-x="355" d="M285 552 L177 667 L70 552 L25 597 L150 728 L205 728 L330 597 L285 552 Z " />
<glyph glyph-name="tilde" unicode="&#x2dc;" horiz-adv-x="360" d="M346 647 Q329 626 304.5 609.5 Q280 593 245 593 Q222 593 205 599.5 Q188 606 173 614 Q159 622 144.5 628.5 Q130 635 114 635 Q94 635 80 628 Q66 621 52 607 L13 649 Q33 671 56.5 687 Q80 703 115 703 Q136 703 152.5 696 Q169 689 184 681 Q199 673 214 666 Q229 659 246 659 Q266 659 282 667.5 Q298 676 309 689 L346 647 Z " />
<glyph glyph-name="macron" unicode="&#xaf;" horiz-adv-x="296" d="M9 608 L9 676 L287 676 L287 608 L9 608 Z " />
<glyph glyph-name="breve" unicode="&#x2d8;" horiz-adv-x="352" d="M338 720 Q335 687 324 658.5 Q313 630 292.5 609 Q272 588 242.5 576 Q213 564 174 564 Q135 564 105 576 Q75 588 54.5 609 Q34 630 23 658.5 Q12 687 9 720 L77 720 Q82 678 105.5 653 Q129 628 174 628 Q219 628 242 653 Q265 678 270 720 L338 720 Z " />
<glyph glyph-name="dotaccent" unicode="&#x2d9;" horiz-adv-x="275" d="M88 622 L88 722 L187 722 L187 622 L88 622 Z " />
<glyph glyph-name="ring" unicode="&#x2da;" horiz-adv-x="220" d="M220 670 Q220 649 212.5 630 Q205 611 191 596 Q177 581 156.5 572 Q136 563 110 563 Q84 563 63.5 572 Q43 581 29 596 Q15 611 7.5 630 Q0 649 0 670 Q0 691 7.5 710 Q15 729 29 744 Q43 759 63.5 768 Q84 777 110 777 Q136 777 156.5 768 Q177 759 191 744 Q205 729 212.5 710 Q220 691 220 670 Z M164 670 Q164 693 149.5 709.5 Q135 726 110 726 Q85 726 70 709.5 Q55 693 55 670 Q55 647 70 631 Q85 615 110 615 Q135 615 149.5 631 Q164 647 164 670 Z " />
<glyph glyph-name="cedilla" unicode="&#xb8;" horiz-adv-x="174" d="M96 -235 L8 -194 L87 -59 L165 -59 L96 -235 Z " />
<glyph glyph-name="hungarumlaut" unicode="&#x2dd;" horiz-adv-x="459" d="M263 553 L231 600 L403 729 L450 657 L263 553 Z M50 553 L18 600 L190 729 L237 657 L50 553 Z " />
<glyph glyph-name="ogonek" unicode="&#x2db;" horiz-adv-x="174" d="M78 -234 L9 -58 L87 -58 L165 -193 L78 -234 Z " />
<glyph glyph-name="caron" unicode="&#x2c7;" horiz-adv-x="368" d="M77 930 L185 815 L292 930 L337 885 L212 754 L157 754 L32 885 L77 930 Z " />
<glyph glyph-name="currency" unicode="&#xa4;" horiz-adv-x="560" d="M479 -12 L409 66 Q381 46 349 35.5 Q317 25 280 25 Q243 25 211.5 35.5 Q180 46 151 66 L82 -12 L17 52 L96 120 Q76 148 65 183 Q54 218 54 254 Q54 290 65 325 Q76 360 96 388 L17 453 L83 519 L150 442 Q208 482 280 482 Q352 482 409 442 L478 520 L543 453 L465 388 Q485 360 496 325 Q507 290 507 254 Q507 218 496 183 Q485 148 465 120 L543 52 L479 -12 Z M425 254 Q425 285 415 312.5 Q405 340 386 360 Q367 380 340.5 392 Q314 404 280 404 Q243 404 216 392.5 Q189 381 171 361 Q153 341 144 313.5 Q135 286 135 254 Q135 225 144.5 197.5 Q154 170 172.5 149 Q191 128 218 115.5 Q245 103 280 103 Q315 103 342 115 Q369 127 387.5 147 Q406 167 415.5 194.5 Q425 222 425 254 Z " />
<glyph glyph-name="infinity" unicode="&#x221e;" horiz-adv-x="721" d="M542 328 L542 76 L652 76 L652 0 L321 0 Q264 0 222.5 15.5 Q181 31 152 59 Q95 114 95 200 Q95 227 104 252 Q113 277 128.5 298.5 Q144 320 165.5 336.5 Q187 353 212 364 Q167 384 137 424.5 Q107 465 107 518 Q107 565 121 597.5 Q135 630 164 656 Q191 681 229 695.5 Q267 710 318 710 Q341 710 363.5 708 Q386 706 404 701 L404 624 Q372 631 324 631 Q293 631 271 622.5 Q249 614 233 600 Q199 568 199 520 Q199 465 232.5 434 Q266 403 325 403 L457 403 L457 518 L542 518 L542 403 L653 403 L653 328 L542 328 Z M457 279 L457 328 L331 328 Q299 328 272.5 318 Q246 308 226 291 Q206 274 195 249.5 Q184 225 184 197 Q184 173 191.5 153 Q199 133 212 119 Q232 97 261.5 86.5 Q291 76 323 76 L457 76 L457 279 Z " />
<glyph glyph-name="Eth" unicode="&#xd0;" horiz-adv-x="690" d="M637 355 Q637 317 633.5 278 Q630 239 620.5 202.5 Q611 166 593 132.5 Q575 99 546 71 Q508 35 460 17.5 Q412 0 360 0 L113 0 L113 335 L40 335 L40 401 L113 401 L113 709 L360 709 Q412 709 460 691 Q508 673 546 637 Q575 609 593 576 Q611 543 620.5 506.5 Q630 470 633.5 431.5 Q637 393 637 355 Z M547 355 Q547 383 545.5 413.5 Q544 444 537.5 473 Q531 502 519 529 Q507 556 486 578 Q461 603 428 615 Q395 627 360 627 L202 627 L202 401 L348 401 L348 335 L202 335 L202 82 L360 82 Q395 82 428 94 Q461 106 486 131 Q507 152 519 179 Q531 206 537.5 235.5 Q544 265 545.5 295.5 Q547 326 547 355 Z " />
<glyph glyph-name="Lslash" unicode="&#x141;" horiz-adv-x="565" d="M121 0 L121 296 L56 256 L23 308 L121 369 L121 709 L210 709 L210 424 L337 503 L370 450 L210 351 L210 83 L551 83 L551 0 L121 0 Z " />
<glyph glyph-name="uni00A0" unicode="&#xa0;" horiz-adv-x="230" d="" />
<glyph glyph-name="uni00AD" unicode="&#xad;" horiz-adv-x="437" d="M70 262 L70 341 L367 341 L367 262 L70 262 Z " />
<glyph glyph-name="eth" unicode="&#xf0;" horiz-adv-x="551" d="M497 253 Q497 193 483.5 139.5 Q470 86 429 46 Q401 19 362 3 Q323 -13 275 -13 Q227 -13 188.5 3 Q150 19 122 46 Q81 86 67.5 139.5 Q54 193 54 253 Q54 313 67.5 366 Q81 419 122 460 Q150 487 188.5 503 Q227 519 275 519 Q280 519 287.5 518.5 Q295 518 302 517 Q310 516 318 515 L275 588 L155 588 L155 647 L240 647 L195 722 L284 722 L328 647 L426 647 L426 588 L363 588 L446 446 Q473 400 485 354.5 Q497 309 497 253 Z M412 253 Q412 298 402.5 340 Q393 382 366 410 Q350 426 327.5 436 Q305 446 275 446 Q245 446 223 436 Q201 426 185 410 Q158 382 148.5 340 Q139 298 139 253 Q139 208 148.5 166 Q158 124 185 96 Q201 80 223 70 Q245 60 275 60 Q305 60 327.5 70 Q350 80 366 96 Q393 124 402.5 166 Q412 208 412 253 Z " />
<glyph glyph-name="uni03A9" unicode="&#x3a9;" horiz-adv-x="858" d="M790 355 Q790 278 762.5 211 Q735 144 687 94 Q639 44 573 15.5 Q507 -13 429 -13 Q351 -13 285 15.5 Q219 44 171 93.5 Q123 143 95.5 210 Q68 277 68 354 Q68 431 95.5 498 Q123 565 171 615 Q219 665 285 693.5 Q351 722 429 722 Q507 722 573 693.5 Q639 665 687 615.5 Q735 566 762.5 499 Q790 432 790 355 Z M723 355 Q723 421 702 476.5 Q681 532 642.5 572.5 Q604 613 549.5 635.5 Q495 658 429 658 Q363 658 308.5 635 Q254 612 215.5 571.5 Q177 531 156 475.5 Q135 420 135 354 Q135 288 156 232.5 Q177 177 215.5 136.5 Q254 96 308.5 73.5 Q363 51 429 51 Q495 51 549.5 74 Q604 97 642.5 137.5 Q681 178 702 233.5 Q723 289 723 355 Z M593 421 Q593 392 582 368.5 Q571 345 552.5 329 Q534 313 509 304.5 Q484 296 457 296 L383 296 L383 161 L316 161 L316 544 L457 544 Q484 544 509 535.5 Q534 527 552.5 511.5 Q571 496 582 473 Q593 450 593 421 Z M523 421 Q523 450 503.5 466 Q484 482 457 482 L382 482 L382 358 L457 358 Q487 358 505 373.5 Q523 389 523 421 Z " />
</font>
</svg>
