<?xml version="1.0" encoding="UTF-8"?>
<svg xmlns="http://www.w3.org/2000/svg" xmlns:xlink="http://www.w3.org/1999/xlink" version="1.2" >
<font id="Akkurat Italic 2">
<font-face  font-family="Akkurat" units-per-em="1000" ascent="723" descent="-199" font-style="italic" font-weight="400" font-stretch="normal" cap-height="709" x-height="520" underline-position="-93" underline-thickness="45" />
<missing-glyph  horiz-adv-x="588" d="M88 698 L500 698 L500 0 L88 0 L88 698 Z M425 74 L425 623 L163 623 L163 74 L425 74 Z " />
<glyph glyph-name="space" unicode="&#x20;" horiz-adv-x="222" d="" />
<glyph glyph-name="Scaron" unicode="&#x160;" horiz-adv-x="629" d="M502 496 Q502 539 481 573 Q440 639 345 639 Q313 639 283 629.5 Q253 620 230 599 Q211 582 200.5 561 Q190 540 190 514 Q190 472 215.5 449 Q241 426 279 417 L392 389 Q467 370 511.5 323 Q556 276 556 207 Q556 161 540.5 124.5 Q525 88 498 62 Q460 24 405 5.5 Q350 -13 290 -13 Q227 -13 170 8 Q113 29 74 77 Q46 112 33.5 150.5 Q21 189 21 236 L114 236 Q114 206 122 178.5 Q130 151 150 127 Q165 110 183 98.5 Q201 87 220.5 80.5 Q240 74 260.5 71.5 Q281 69 301 69 Q336 69 369.5 80 Q403 91 427 114 Q443 129 452.5 149.5 Q462 170 462 196 Q462 231 438.5 260 Q415 289 362 303 L254 330 Q221 338 192 352.5 Q163 367 142 389 Q121 411 109 440 Q97 469 97 506 Q97 557 119.5 598.5 Q142 640 184 670 Q217 694 257 707.5 Q297 721 354 721 Q409 721 462.5 700.5 Q516 680 552 632 Q573 604 584 568 Q595 532 595 496 L502 496 Z M394 758 L339 758 L237 889 L290 934 L378 819 L505 934 L542 889 L394 758 Z " />
<glyph glyph-name="scaron" unicode="&#x161;" horiz-adv-x="511" d="M324 552 L269 552 L167 683 L217 728 L305 613 L432 728 L472 683 L324 552 Z M372 354 Q372 369 367.5 383 Q363 397 352 411 Q335 432 310.5 440.5 Q286 449 260 449 Q235 449 213 442 Q191 435 174 416 Q154 394 154 366 Q154 339 172 325.5 Q190 312 208 307 Q228 302 257.5 295.5 Q287 289 326 278 Q372 266 401.5 234 Q431 202 431 154 Q431 118 416 87 Q401 56 373 33 Q344 10 306 -1.5 Q268 -13 227 -13 Q172 -13 125.5 4 Q79 21 48 60 Q33 79 24.5 102.5 Q16 126 16 152 L16 170 L101 170 L101 156 Q101 136 110.5 118.5 Q120 101 134 89 Q155 70 178.5 64 Q202 58 232 58 Q256 58 279 65.5 Q302 73 319 88 Q330 98 337.5 111 Q345 124 345 143 Q345 193 281 208 Q267 211 238.5 218 Q210 225 185 231 Q163 236 143 245.5 Q123 255 107 270 Q91 285 80.5 307 Q70 329 70 352 Q70 393 85.5 422.5 Q101 452 129 475 Q155 495 190.5 507 Q226 519 268 519 Q291 519 315.5 514.5 Q340 510 362 500 Q384 490 403 474.5 Q422 459 434 438 Q446 417 452 397.5 Q458 378 458 354 L372 354 Z " />
<glyph glyph-name="Yacute" unicode="&#xdd;" horiz-adv-x="555" d="M305 287 L255 0 L164 0 L216 287 L55 709 L146 709 L273 372 L517 709 L618 709 L305 287 Z M267 747 L242 797 L434 919 L469 846 L267 747 Z " />
<glyph glyph-name="yacute" unicode="&#xfd;" horiz-adv-x="497" d="M164 -127 Q142 -167 110.5 -190.5 Q79 -214 34 -214 Q4 -214 -21 -204.5 Q-46 -195 -64 -183 L-52 -117 Q-38 -125 -19.5 -133 Q-1 -141 22 -141 Q46 -141 61.5 -130 Q77 -119 87 -101 L146 6 L35 506 L124 506 L206 110 L417 506 L511 506 L164 -127 Z M223 553 L198 603 L390 725 L425 652 L223 553 Z " />
<glyph glyph-name="Thorn" unicode="&#xde;" horiz-adv-x="603" d="M579 394 Q579 334 559 287.5 Q539 241 503 209 Q467 177 418.5 160 Q370 143 313 143 L150 143 L125 0 L35 0 L160 710 L250 710 L227 577 L372 577 Q414 577 451.5 565.5 Q489 554 517.5 531 Q546 508 562.5 473.5 Q579 439 579 394 Z M486 387 Q486 416 475.5 437 Q465 458 447 471 Q429 484 405 490 Q381 496 355 496 L212 496 L164 224 L316 224 Q392 224 439 266.5 Q486 309 486 387 Z " />
<glyph glyph-name="thorn" unicode="&#xfe;" horiz-adv-x="582" d="M517 303 Q517 248 502 192 Q487 136 457 90.5 Q427 45 381.5 16 Q336 -13 274 -13 Q231 -13 188.5 7 Q146 27 124 71 L74 -217 L-10 -217 L155 722 L240 722 L194 456 Q220 488 258 503.5 Q296 519 335 519 Q375 519 412 501 Q449 483 472 452 Q497 419 507 381 Q517 343 517 303 Z M430 303 Q430 330 424 356 Q418 382 404.5 403 Q391 424 369.5 436.5 Q348 449 317 449 Q294 449 275 441.5 Q256 434 240 422 Q220 407 205.5 386.5 Q191 366 181 342.5 Q171 319 165 294.5 Q159 270 156 246 Q153 226 153 206 Q153 178 159.5 152 Q166 126 180 105.5 Q194 85 216.5 73 Q239 61 272 61 Q298 61 320 71.5 Q342 82 360 99 Q379 117 392.5 141.5 Q406 166 414.5 193 Q423 220 426.5 248.5 Q430 277 430 303 Z " />
<glyph glyph-name="&amp;#x8e;" unicode="&#x8e;" horiz-adv-x="612" d="M597 619 L102 82 L512 82 L497 0 L-19 0 L-3 89 L490 626 L95 626 L110 709 L613 709 L597 619 Z M389 758 L334 758 L232 889 L285 934 L373 819 L500 934 L537 889 L389 758 Z " />
<glyph glyph-name="&amp;#x17d;" unicode="&#x17d;" horiz-adv-x="612" d="M597 619 L102 82 L512 82 L497 0 L-19 0 L-3 89 L490 626 L95 626 L110 709 L613 709 L597 619 Z M389 758 L334 758 L232 889 L285 934 L373 819 L500 934 L537 889 L389 758 Z " />
<glyph glyph-name="&amp;#x9e;" unicode="&#x9e;" horiz-adv-x="492" d="M456 431 L106 74 L400 74 L386 0 L-14 0 L0 75 L350 432 L63 432 L76 506 L470 506 L456 431 Z M304 553 L254 553 L162 671 L210 711 L289 608 L403 711 L437 671 L304 553 Z " />
<glyph glyph-name="&amp;#x17e;" unicode="&#x17e;" horiz-adv-x="492" d="M456 431 L106 74 L400 74 L386 0 L-14 0 L0 75 L350 432 L63 432 L76 506 L470 506 L456 431 Z M304 553 L254 553 L162 671 L210 711 L289 608 L403 711 L437 671 L304 553 Z " />
<glyph glyph-name="onehalf" unicode="&#xbd;" horiz-adv-x="893" d="M782 272 Q782 247 773.5 227 Q765 207 750.5 190 Q736 173 718 159 Q700 145 682 132 L591 66 L757 66 L746 0 L472 0 L483 63 L659 193 Q677 207 693.5 223.5 Q710 240 710 265 Q710 288 694 299 Q678 310 658 310 Q625 310 604 291 Q583 272 577 240 L506 240 Q518 301 561 337 Q604 373 667 373 Q691 373 711.5 366 Q732 359 748 345.5 Q764 332 773 313.5 Q782 295 782 272 Z M126 -21 L79 21 L718 725 L767 685 L126 -21 Z M242 345 L172 345 L222 627 L119 564 L133 642 L242 709 L307 709 L242 345 Z " />
<glyph glyph-name="onequarter" unicode="&#xbc;" horiz-adv-x="861" d="M744 75 L685 75 L672 0 L604 0 L617 75 L438 75 L450 144 L634 369 L715 369 L525 134 L628 134 L641 212 L709 212 L696 134 L755 134 L744 75 Z M126 -21 L79 21 L718 725 L767 685 L126 -21 Z M242 345 L172 345 L222 627 L119 564 L133 642 L242 709 L307 709 L242 345 Z " />
<glyph glyph-name="onesuperior" unicode="&#xb9;" horiz-adv-x="336" d="M214 345 L144 345 L194 627 L91 564 L105 642 L214 709 L279 709 L214 345 Z " />
<glyph glyph-name="threequarters" unicode="&#xbe;" horiz-adv-x="912" d="M795 75 L736 75 L723 0 L655 0 L668 75 L489 75 L501 144 L685 369 L766 369 L576 134 L679 134 L692 212 L760 212 L747 134 L806 134 L795 75 Z M177 -21 L130 21 L769 725 L818 685 L177 -21 Z M398 620 Q398 588 378 563 Q358 538 326 530 Q348 524 362 502 Q376 480 376 461 Q376 428 362.5 404.5 Q349 381 327.5 366 Q306 351 278 343.5 Q250 336 221 336 Q197 336 174 343.5 Q151 351 133 365 Q115 379 104.5 399.5 Q94 420 94 446 Q94 456 95 461 L162 461 Q161 458 161 454.5 Q161 451 161 448 Q161 422 181 407 Q191 399 203 396 Q215 393 227 393 Q241 393 255 396.5 Q269 400 280 407.5 Q291 415 298 426 Q305 437 305 453 Q305 470 296.5 480 Q288 490 275 495 Q262 500 247.5 501 Q233 502 220 502 L230 559 Q245 559 262 560 Q279 561 293 566 Q307 571 316.5 582 Q326 593 326 614 Q326 636 309.5 648.5 Q293 661 269 661 Q237 661 217 645 Q197 629 191 598 L120 598 Q131 656 169 685 Q190 702 215 709.5 Q240 717 275 717 Q304 717 332 707 Q360 697 377 676 Q386 665 392 651 Q398 637 398 620 Z " />
<glyph glyph-name="threesuperior" unicode="&#xb3;" horiz-adv-x="426" d="M398 620 Q398 588 378 563 Q358 538 326 530 Q348 524 362 502 Q376 480 376 461 Q376 428 362.5 404.5 Q349 381 327.5 366 Q306 351 278 343.5 Q250 336 221 336 Q197 336 174 343.5 Q151 351 133 365 Q115 379 104.5 399.5 Q94 420 94 446 Q94 456 95 461 L162 461 Q161 458 161 454.5 Q161 451 161 448 Q161 422 181 407 Q191 399 203 396 Q215 393 227 393 Q241 393 255 396.5 Q269 400 280 407.5 Q291 415 298 426 Q305 437 305 453 Q305 470 296.5 480 Q288 490 275 495 Q262 500 247.5 501 Q233 502 220 502 L230 559 Q245 559 262 560 Q279 561 293 566 Q307 571 316.5 582 Q326 593 326 614 Q326 636 309.5 648.5 Q293 661 269 661 Q237 661 217 645 Q197 629 191 598 L120 598 Q131 656 169 685 Q190 702 215 709.5 Q240 717 275 717 Q304 717 332 707 Q360 697 377 676 Q386 665 392 651 Q398 637 398 620 Z " />
<glyph glyph-name="twosuperior" unicode="&#xb2;" horiz-adv-x="457" d="M396 615 Q396 590 387.5 570 Q379 550 364.5 533 Q350 516 332 502 Q314 488 296 475 L205 409 L371 409 L360 343 L86 343 L97 406 L273 536 Q291 550 307.5 566.5 Q324 583 324 608 Q324 631 308 642 Q292 653 272 653 Q239 653 218 634 Q197 615 191 583 L120 583 Q132 644 175 680 Q218 716 281 716 Q305 716 325.5 709 Q346 702 362 688.5 Q378 675 387 656.5 Q396 638 396 615 Z " />
<glyph glyph-name="brokenbar" unicode="&#xa6;" horiz-adv-x="272" d="M106 450 L106 759 L182 759 L182 450 L106 450 Z M106 -50 L106 258 L182 258 L182 -50 L106 -50 Z " />
<glyph glyph-name="minus" unicode="&#x2212;" horiz-adv-x="641" d="M44 262 L44 341 L559 341 L559 262 L44 262 Z " />
<glyph glyph-name="multiply" unicode="&#xd7;" horiz-adv-x="678" d="M561 22 L339 244 L117 22 L63 76 L285 298 L63 520 L117 574 L338 352 L561 574 L615 520 L392 298 L615 76 L561 22 Z " />
<glyph glyph-name="lslash" unicode="&#x142;" horiz-adv-x="337" d="M206 396 L157 115 Q156 111 156 104 Q156 88 165 78.5 Q174 69 193 69 Q200 69 211.5 70.5 Q223 72 233 75 L221 5 Q194 -6 161 -6 Q113 -6 91 21 Q69 48 69 86 Q69 92 69 98.5 Q69 105 71 112 L112 343 L49 308 L25 360 L124 416 L178 722 L263 722 L219 469 L308 519 L332 466 L206 396 Z " />
<glyph glyph-name="exclam" unicode="&#x21;" horiz-adv-x="327" d="M255 485 L184 215 L126 215 L149 485 L189 709 L295 709 L255 485 Z M172 0 L65 0 L85 109 L192 109 L172 0 Z " />
<glyph glyph-name="quotedbl" unicode="&#x22;" horiz-adv-x="440" d="M394 586 L345 433 L292 433 L297 586 L319 709 L416 709 L394 586 Z M225 586 L176 433 L123 433 L128 586 L150 709 L247 709 L225 586 Z " />
<glyph glyph-name="numbersign" unicode="&#x23;" horiz-adv-x="734" d="M684 431 L548 431 L496 264 L622 264 L608 191 L473 191 L413 0 L338 0 L398 191 L240 191 L180 0 L105 0 L164 191 L36 191 L50 264 L188 264 L240 431 L111 431 L125 505 L263 505 L323 695 L398 695 L339 505 L497 505 L556 695 L631 695 L572 505 L697 505 L684 431 Z M315 431 L263 264 L421 264 L473 431 L315 431 Z " />
<glyph glyph-name="dollar" unicode="&#x24;" horiz-adv-x="556" d="M460 503 Q460 551 435.5 583 Q411 615 364 626 L324 396 L353 389 Q384 381 412 365.5 Q440 350 461.5 327.5 Q483 305 495.5 277 Q508 249 508 216 Q508 165 488 124.5 Q468 84 433 56 Q397 27 350 13.5 Q303 0 254 -1 L238 -93 L179 -93 L197 4 Q155 11 120.5 29.5 Q86 48 60.5 75.5 Q35 103 21 139.5 Q7 176 7 219 Q7 225 7 230.5 Q7 236 8 242 L95 242 Q94 236 94 230 Q94 224 94 218 Q94 161 125.5 127.5 Q157 94 210 82 L253 325 Q248 326 241.5 328 Q235 330 230 332 Q223 334 217 336 Q153 356 114 397 Q75 438 75 501 Q75 549 96.5 587.5 Q118 626 152.5 653 Q187 680 231 694.5 Q275 709 321 709 L336 800 L394 800 L377 703 Q414 695 445.5 677.5 Q477 660 500 634.5 Q523 609 536 575.5 Q549 542 549 503 L460 503 Z M306 632 Q277 631 251.5 622.5 Q226 614 206 598 Q186 582 174.5 559 Q163 536 163 506 Q163 475 183 453.5 Q203 432 240 420 L268 411 L306 632 Z M419 204 Q419 245 392 269.5 Q365 294 328 305 L309 311 L268 77 Q295 77 322 85.5 Q349 94 370.5 110.5 Q392 127 405.5 150.5 Q419 174 419 204 Z " />
<glyph glyph-name="percent" unicode="&#x25;" horiz-adv-x="922" d="M833 217 Q833 195 829.5 171.5 Q826 148 819 125.5 Q812 103 801.5 82.5 Q791 62 776 46 Q753 21 722 4 Q691 -13 650 -13 Q615 -13 587.5 -1.5 Q560 10 541 30.5 Q522 51 511.5 79 Q501 107 501 140 Q501 161 504.5 184.5 Q508 208 515 231 Q522 254 532.5 275 Q543 296 558 312 Q581 337 612 353.5 Q643 370 684 370 Q718 370 746 358.5 Q774 347 793 326.5 Q812 306 822.5 278 Q833 250 833 217 Z M167 -24 L122 20 L760 728 L805 685 L167 -24 Z M424 570 Q424 548 420.5 524.5 Q417 501 410 478.5 Q403 456 392.5 435.5 Q382 415 367 399 Q344 374 312.5 357 Q281 340 240 340 Q205 340 177.5 351.5 Q150 363 131 383.5 Q112 404 101.5 432 Q91 460 91 493 Q91 514 94.5 537.5 Q98 561 105 584 Q112 607 122.5 628 Q133 649 148 665 Q171 690 202.5 706.5 Q234 723 275 723 Q309 723 337 711.5 Q365 700 384 679.5 Q403 659 413.5 631 Q424 603 424 570 Z M756 215 Q756 253 738.5 278 Q721 303 680 303 Q663 303 650.5 297.5 Q638 292 627 284 Q613 273 603.5 256 Q594 239 588 219.5 Q582 200 579.5 179.5 Q577 159 577 142 Q577 104 594.5 79 Q612 54 654 54 Q671 54 683 59.5 Q695 65 706 73 Q719 84 728.5 101 Q738 118 744 137.5 Q750 157 753 177.5 Q756 198 756 215 Z M347 568 Q347 606 329 631 Q311 656 270 656 Q253 656 241 650.5 Q229 645 218 637 Q204 626 194.5 609 Q185 592 179 572.5 Q173 553 170 532.5 Q167 512 167 495 Q167 457 185 432 Q203 407 245 407 Q262 407 273.5 412.5 Q285 418 296 426 Q309 437 319 454 Q329 471 335 490.5 Q341 510 344 530.5 Q347 551 347 568 Z " />
<glyph glyph-name="ampersand" unicode="&#x26;" horiz-adv-x="733" d="M669 322 L596 322 Q588 274 565 223 Q542 172 510 135 L607 0 L504 0 L455 69 Q440 54 418 39.5 Q396 25 369 13.5 Q342 2 310.5 -5.5 Q279 -13 245 -13 Q208 -13 173 -1 Q138 11 110.5 34.5 Q83 58 66 91.5 Q49 125 49 168 Q49 210 63.5 243.5 Q78 277 102 303.5 Q126 330 157.5 351.5 Q189 373 223 391 Q219 396 215 402 Q211 408 207 414 Q203 421 197 428 Q182 451 172 477.5 Q162 504 162 533 Q162 574 176.5 608.5 Q191 643 217.5 668.5 Q244 694 280.5 708 Q317 722 362 722 Q401 722 431.5 709 Q462 696 482.5 675.5 Q503 655 514 629 Q525 603 525 576 Q525 544 515.5 516.5 Q506 489 489.5 466.5 Q473 444 451 426.5 Q429 409 404 396 Q392 390 381 385 Q371 380 361.5 374.5 Q352 369 344 365 L465 198 Q478 217 489 241.5 Q500 266 507.5 292.5 Q515 319 520.5 345.5 Q526 372 529 395 L680 395 L669 322 Z M441 571 Q441 584 435.5 598 Q430 612 419.5 623.5 Q409 635 393 642.5 Q377 650 355 650 Q307 650 278 618.5 Q249 587 249 539 Q249 516 256.5 497 Q264 478 276 461 Q281 454 286 447 Q291 441 295 434.5 Q299 428 303 423 L349 446 Q387 465 414 496 Q441 527 441 571 Z M265 333 Q254 326 242 320.5 Q230 315 219 308 Q183 286 158.5 253 Q134 220 134 176 Q134 125 168 95.5 Q202 66 251 66 Q307 66 343.5 82 Q380 98 411 130 L265 333 Z " />
<glyph glyph-name="quotesingle" unicode="&#x27;" horiz-adv-x="261" d="M219 586 L171 433 L117 433 L123 586 L145 709 L241 709 L219 586 Z " />
<glyph glyph-name="parenleft" unicode="&#x28;" horiz-adv-x="299" d="M351 723 Q263 642 208 546.5 Q153 451 132 328 Q126 296 123.5 265 Q121 234 121 204 Q121 119 141.5 39.5 Q162 -40 203 -118 L144 -145 Q96 -67 72.5 26.5 Q49 120 49 215 Q49 277 60 341 Q70 401 92 461 Q114 521 145.5 576.5 Q177 632 217.5 681.5 Q258 731 306 769 L351 723 Z " />
<glyph glyph-name="parenright" unicode="&#x29;" horiz-adv-x="298" d="M241 415 Q241 384 238.5 353.5 Q236 323 231 293 Q220 233 198.5 171 Q177 109 145.5 51 Q114 -7 73 -60 Q32 -113 -16 -155 L-63 -110 Q25 -22 80.5 77 Q136 176 158 299 Q164 332 166.5 363.5 Q169 395 169 426 Q169 510 148.5 586 Q128 662 88 737 L144 770 Q193 695 217 603 Q241 511 241 415 Z " />
<glyph glyph-name="asterisk" unicode="&#x2a;" horiz-adv-x="529" d="M344 471 L426 342 L353 296 L288 433 L174 296 L113 346 L239 473 L91 515 L127 591 L269 531 L283 696 L371 696 L335 531 L492 591 L509 511 L344 471 Z " />
<glyph glyph-name="plus" unicode="&#x2b;" horiz-adv-x="677" d="M363 268 L363 5 L293 5 L293 268 L53 268 L53 337 L293 337 L293 584 L363 584 L363 337 L604 337 L604 268 L363 268 Z " />
<glyph glyph-name="comma" unicode="&#x2c;" horiz-adv-x="290" d="M145 0 Q135 -56 106.5 -95 Q78 -134 19 -157 L1 -110 Q22 -101 36.5 -91 Q51 -81 60.5 -68 Q70 -55 75.5 -38 Q81 -21 85 0 L21 0 L42 117 L166 117 L145 0 Z " />
<glyph glyph-name="hyphen" unicode="&#x2d;" horiz-adv-x="433" d="M349 262 L52 262 L66 341 L363 341 L349 262 Z " />
<glyph glyph-name="period" unicode="&#x2e;" horiz-adv-x="290" d="M142 0 L23 0 L44 119 L163 119 L142 0 Z " />
<glyph glyph-name="slash" unicode="&#x2f;" horiz-adv-x="395" d="M21 -13 L-50 -13 L385 722 L456 722 L21 -13 Z " />
<glyph glyph-name="zero" unicode="0" horiz-adv-x="556" d="M524 480 Q524 442 519.5 404 Q515 366 508 328 Q501 288 492 247 Q483 206 468 167 Q453 128 430.5 94 Q408 60 374 33 Q315 -13 239 -13 Q194 -13 160 1 Q126 15 100 38 Q65 69 48.5 114 Q32 159 32 216 Q32 254 37 292 Q42 330 49 368 Q56 408 65 449 Q74 490 89 529 Q104 568 126 602 Q148 636 182 663 Q240 709 317 709 Q366 709 403 693 Q440 677 466 650 Q495 619 509.5 576 Q524 533 524 480 Z M438 482 Q438 512 431.5 539 Q425 566 410.5 586.5 Q396 607 372.5 619 Q349 631 315 631 Q268 631 238 607.5 Q208 584 189 548 Q170 512 160 469.5 Q150 427 143 389 Q135 347 127 302.5 Q119 258 119 214 Q119 184 125.5 157 Q132 130 146.5 109.5 Q161 89 184.5 77 Q208 65 242 65 Q288 65 318.5 88.5 Q349 112 368 148 Q387 184 397 226.5 Q407 269 414 307 Q422 349 430 393.5 Q438 438 438 482 Z " />
<glyph glyph-name="one" unicode="1" horiz-adv-x="556" d="M297 0 L211 0 L315 595 L129 479 L146 577 L338 695 L420 695 L297 0 Z " />
<glyph glyph-name="two" unicode="2" horiz-adv-x="556" d="M507 542 Q507 486 482 442.5 Q457 399 417 361 L123 80 L424 80 L411 0 L-9 0 L4 76 L360 413 Q387 439 403.5 469 Q420 499 420 537 Q420 556 413 572 Q406 588 395 600 Q378 617 354.5 624.5 Q331 632 308 632 Q266 632 229.5 603 Q193 574 182 516 L94 516 Q100 558 119 593.5 Q138 629 167 654.5 Q196 680 234 694.5 Q272 709 315 709 Q359 709 396 696.5 Q433 684 461 656 Q507 608 507 542 Z " />
<glyph glyph-name="three" unicode="3" horiz-adv-x="556" d="M505 537 Q505 507 495.5 478 Q486 449 468.5 424.5 Q451 400 426.5 381.5 Q402 363 373 354 Q417 334 439 293 Q461 252 461 205 Q461 157 442.5 117 Q424 77 392.5 48 Q361 19 319 3 Q277 -13 231 -13 Q187 -13 149 -0.5 Q111 12 82.5 36.5 Q54 61 38 96.5 Q22 132 22 179 Q22 187 22.5 195 Q23 203 24 211 L112 211 Q111 205 110.5 198.5 Q110 192 110 185 Q110 128 143.5 96 Q177 64 234 64 Q265 64 291 75.5 Q317 87 335.5 106.5 Q354 126 364.5 152.5 Q375 179 375 210 Q375 265 340.5 293 Q306 321 254 321 L212 321 L226 400 L267 400 Q297 400 324.5 407.5 Q352 415 372 430.5 Q392 446 404 470.5 Q416 495 416 528 Q416 552 407 571.5 Q398 591 382 604.5 Q366 618 345.5 625 Q325 632 302 632 Q248 632 214 600 Q180 568 170 517 L84 517 Q84 532 89 549.5 Q94 567 102.5 584 Q111 601 121 616 Q131 631 142 642 Q175 676 218.5 692.5 Q262 709 309 709 Q347 709 382.5 697.5 Q418 686 445 664 Q472 642 488.5 610 Q505 578 505 537 Z " />
<glyph glyph-name="four" unicode="4" horiz-adv-x="556" d="M491 148 L397 148 L371 0 L285 0 L311 148 L-8 148 L7 237 L353 695 L448 695 L92 225 L324 225 L360 432 L447 432 L411 225 L504 225 L491 148 Z " />
<glyph glyph-name="five" unicode="5" horiz-adv-x="556" d="M522 618 L218 618 L167 407 Q192 434 229 446 Q266 458 304 458 Q348 458 382.5 443.5 Q417 429 440.5 403.5 Q464 378 476.5 342.5 Q489 307 489 265 Q489 209 472 159 Q455 109 422.5 70.5 Q390 32 343.5 9.5 Q297 -13 238 -13 Q196 -13 159.5 1 Q123 15 95.5 40.5 Q68 66 52.5 102.5 Q37 139 37 184 Q37 192 37 199 Q37 206 38 214 L123 214 Q122 207 122 200 Q122 193 122 187 Q122 130 156.5 97.5 Q191 65 246 65 Q284 65 313 82 Q342 99 362 126 Q382 153 392 187 Q402 221 402 255 Q402 313 370.5 348 Q339 383 279 383 Q247 383 218 370.5 Q189 358 168 332 L76 351 L157 695 L537 695 L522 618 Z " />
<glyph glyph-name="six" unicode="6" horiz-adv-x="556" d="M433 530 Q433 551 426 567.5 Q419 584 408 597 Q391 616 369 623.5 Q347 631 323 631 Q295 631 273.5 621.5 Q252 612 235 597 Q215 580 201.5 555.5 Q188 531 178 503 Q168 475 161 445 Q154 415 149 388 Q169 420 211 438.5 Q253 457 298 457 Q343 457 379.5 442 Q416 427 441.5 400.5 Q467 374 480.5 337.5 Q494 301 494 257 Q494 195 470 138.5 Q446 82 398 41 Q369 16 331 1.5 Q293 -13 247 -13 Q206 -13 170.5 0.5 Q135 14 107 41 Q70 76 57 122.5 Q44 169 44 219 Q44 252 48 287.5 Q52 323 58 358 Q71 433 92 503.5 Q113 574 158 628 Q187 662 230 685 Q273 708 330 708 Q375 708 416 691.5 Q457 675 485 638 Q501 617 510.5 589 Q520 561 520 530 L433 530 Z M407 249 Q407 308 375 345 Q343 382 281 382 Q253 382 230.5 372.5 Q208 363 191 348 Q159 320 144 279.5 Q129 239 129 197 Q129 140 162 102 Q195 64 255 64 Q282 64 303.5 73 Q325 82 342 96 Q374 123 390.5 165 Q407 207 407 249 Z " />
<glyph glyph-name="seven" unicode="7" horiz-adv-x="556" d="M540 618 L139 0 L43 0 L446 618 L89 618 L103 695 L554 695 L540 618 Z " />
<glyph glyph-name="eight" unicode="8" horiz-adv-x="556" d="M518 535 Q518 505 509 477 Q500 449 483.5 425 Q467 401 444 382 Q421 363 393 352 Q428 334 451 293 Q474 252 474 205 Q474 160 455 119 Q436 78 403 48 Q371 18 328 2.5 Q285 -13 237 -13 Q192 -13 149 2 Q106 17 77 47 Q52 73 37.5 103.5 Q23 134 23 176 Q23 209 33 239.5 Q43 270 61.5 296 Q80 322 106.5 341.5 Q133 361 165 372 Q133 394 114 429 Q95 464 95 506 Q95 546 111 582.5 Q127 619 156 647 Q221 709 318 709 Q360 709 399.5 695 Q439 681 469 651 Q492 628 505 598 Q518 568 518 535 Z M432 529 Q432 554 422 574 Q412 594 395.5 607 Q379 620 357.5 627 Q336 634 313 634 Q285 634 261 624.5 Q237 615 219 598 Q201 581 191 557.5 Q181 534 181 506 Q181 480 190.5 459.5 Q200 439 216 425.5 Q232 412 254 405 Q276 398 300 398 Q328 398 352 408 Q376 418 394 435.5 Q412 453 422 477 Q432 501 432 529 Z M388 208 Q388 236 377.5 258 Q367 280 349.5 295 Q332 310 308.5 318 Q285 326 259 326 Q227 326 199.5 315 Q172 304 152 284.5 Q132 265 121 238 Q110 211 110 180 Q110 152 120.5 130 Q131 108 149 93 Q167 78 190.5 70 Q214 62 240 62 Q272 62 299.5 73 Q327 84 346.5 103.5 Q366 123 377 149.5 Q388 176 388 208 Z " />
<glyph glyph-name="nine" unicode="9" horiz-adv-x="556" d="M511 477 Q511 443 507 408 Q503 373 497 338 Q491 301 483 264.5 Q475 228 463.5 193 Q452 158 436 126.5 Q420 95 398 68 Q369 34 325.5 11 Q282 -12 225 -12 Q180 -12 138 5 Q96 22 68 60 Q52 81 43 106.5 Q34 132 34 163 L34 174 Q34 177 35 180 L120 180 L120 167 Q120 146 128.5 127 Q137 108 151 94 Q168 78 188 71.5 Q208 65 231 65 Q259 65 280 75 Q301 85 318 100 Q337 117 351.5 141.5 Q366 166 376 193.5 Q386 221 393 250.5 Q400 280 405 307 Q385 275 343 257 Q301 239 256 239 Q213 239 172.5 256.5 Q132 274 105 309 Q84 335 72.5 367.5 Q61 400 61 439 Q61 501 85.5 557.5 Q110 614 158 655 Q187 680 225.5 694.5 Q264 709 310 709 Q367 709 413 684 Q459 659 485 607 Q499 578 505 545.5 Q511 513 511 477 Z M425 499 Q425 547 402 582 Q385 608 358.5 620 Q332 632 302 632 Q275 632 252 622 Q229 612 212 598 Q180 571 164 530 Q148 489 148 447 Q148 398 171 363 Q188 337 215.5 325.5 Q243 314 273 314 Q300 314 322.5 323.5 Q345 333 362 347 Q394 374 409.5 415.5 Q425 457 425 499 Z " />
<glyph glyph-name="colon" unicode="&#x3a;" horiz-adv-x="300" d="M218 395 L107 395 L127 506 L238 506 L218 395 Z M148 -1 L37 -1 L57 109 L168 109 L148 -1 Z " />
<glyph glyph-name="semicolon" unicode="&#x3b;" horiz-adv-x="300" d="M217 393 L106 393 L125 505 L236 505 L217 393 Z M147 0 Q137 -55 111.5 -90.5 Q86 -126 30 -148 L15 -104 Q35 -96 48.5 -86 Q62 -76 71 -63.5 Q80 -51 85 -35.5 Q90 -20 93 0 L36 0 L55 110 L166 110 L147 0 Z " />
<glyph glyph-name="less" unicode="&#x3c;" horiz-adv-x="468" d="M354 -13 L35 305 L353 622 L402 574 L133 305 L402 36 L354 -13 Z " />
<glyph glyph-name="equal" unicode="&#x3d;" horiz-adv-x="688" d="M87 344 L87 421 L569 421 L569 344 L87 344 Z M87 134 L87 211 L569 211 L569 134 L87 134 Z " />
<glyph glyph-name="greater" unicode="&#x3e;" horiz-adv-x="468" d="M122 -13 L74 36 L343 305 L74 574 L123 622 L441 305 L122 -13 Z " />
<glyph glyph-name="question" unicode="&#x3f;" horiz-adv-x="495" d="M485 552 Q485 505 467.5 469 Q450 433 422 404 Q405 386 387 373 Q369 360 351.5 349 Q334 338 317.5 326.5 Q301 315 287 300 Q255 266 246 214 L242 189 L164 189 L168 224 Q173 266 185 294.5 Q197 323 217 344 Q231 359 247.5 371 Q264 383 280.5 394.5 Q297 406 313.5 417.5 Q330 429 345 443 Q365 462 381 484 Q397 506 397 548 Q397 567 391 582 Q385 597 375 609 Q360 627 336.5 636 Q313 645 285 645 Q253 645 227.5 635 Q202 625 183.5 607 Q165 589 153.5 565 Q142 541 137 513 L46 513 Q54 555 69.5 590 Q85 625 115 655 Q146 686 191.5 704 Q237 722 290 722 Q339 722 375 707.5 Q411 693 437 668 Q485 621 485 552 Z M226 0 L119 0 L138 110 L245 110 L226 0 Z " />
<glyph glyph-name="at" unicode="&#x40;" horiz-adv-x="903" d="M846 403 Q846 340 825.5 277.5 Q805 215 760 172 Q732 145 701.5 128.5 Q671 112 624 112 Q588 112 565 129.5 Q542 147 536 168 Q510 139 478.5 125.5 Q447 112 409 112 Q380 112 355 123.5 Q330 135 313 152 Q290 174 278.5 204 Q267 234 267 269 Q267 314 280 357 Q293 400 318.5 433.5 Q344 467 381 488 Q418 509 467 509 Q496 509 524.5 496 Q553 483 568 456 L593 498 L660 498 L598 250 Q596 243 595 236 Q594 229 594 222 Q594 202 605 192.5 Q616 183 633 183 Q656 183 672.5 192.5 Q689 202 704 217 Q721 234 733 256.5 Q745 279 752 304 Q759 329 762 354.5 Q765 380 765 403 Q765 461 744 506.5 Q723 552 686 583 Q649 614 600 630.5 Q551 647 496 647 Q416 647 351.5 617.5 Q287 588 241 537.5 Q195 487 170 421 Q145 355 145 283 Q145 215 167.5 160.5 Q190 106 230.5 67.5 Q271 29 327.5 8.5 Q384 -12 451 -12 Q503 -12 560 1 Q617 14 660 35 L646 -43 Q603 -64 548 -75 Q493 -86 445 -86 Q367 -86 297.5 -61 Q228 -36 175.5 11.5 Q123 59 92 127.5 Q61 196 61 283 Q61 376 93.5 456.5 Q126 537 184.5 596 Q243 655 324 688.5 Q405 722 501 722 Q572 722 634.5 700 Q697 678 744 636.5 Q791 595 818.5 536 Q846 477 846 403 Z M542 354 Q542 393 522.5 416.5 Q503 440 462 440 Q442 440 425.5 430 Q409 420 396 406 Q373 380 362 344 Q351 308 351 276 Q351 238 369.5 211 Q388 184 430 184 Q461 184 482.5 201 Q504 218 517 243.5 Q530 269 536 298.5 Q542 328 542 354 Z " />
<glyph glyph-name="A" unicode="A" horiz-adv-x="615" d="M461 0 L433 168 L124 168 L38 0 L-56 0 L319 709 L423 709 L550 0 L461 0 Z M356 620 L167 252 L418 252 L356 620 Z " />
<glyph glyph-name="B" unicode="B" horiz-adv-x="668" d="M631 536 Q631 508 621 480 Q611 452 593 428 Q575 404 551.5 386.5 Q528 369 501 363 Q520 355 537 340 Q554 325 566.5 305 Q579 285 586 262 Q593 239 593 217 Q593 161 571.5 120 Q550 79 514.5 52.5 Q479 26 433 13 Q387 0 338 0 L37 0 L162 709 L442 709 Q484 709 518.5 696.5 Q553 684 578 661.5 Q603 639 617 607 Q631 575 631 536 Z M537 531 Q537 577 505.5 603.5 Q474 630 428 630 L236 630 L197 407 L395 407 Q423 407 449 415 Q475 423 494.5 438.5 Q514 454 525.5 477 Q537 500 537 531 Z M502 221 Q502 271 468 300 Q434 329 383 329 L183 329 L139 82 L347 82 Q378 82 406.5 91 Q435 100 456 117 Q477 134 489.5 160 Q502 186 502 221 Z " />
<glyph glyph-name="C" unicode="C" horiz-adv-x="618" d="M519 485 Q519 520 507 548.5 Q495 577 474 597 Q452 618 425.5 627.5 Q399 637 364 637 Q325 637 292.5 621 Q260 605 236 581 Q209 554 189 514 Q169 474 156.5 429.5 Q144 385 137.5 340 Q131 295 131 258 Q131 219 141 185.5 Q151 152 171 126.5 Q191 101 221.5 86.5 Q252 72 294 72 Q329 72 361 84.5 Q393 97 414 118 Q435 138 448.5 159.5 Q462 181 469 208 L562 208 Q552 162 526 119 Q500 76 462 46 Q428 19 384 3 Q340 -13 289 -13 Q230 -13 184 7.5 Q138 28 106 64 Q74 100 57 148.5 Q40 197 40 253 Q40 301 47.5 355 Q55 409 71 461.5 Q87 514 112.5 561 Q138 608 174 643 Q212 679 260.5 700.5 Q309 722 369 722 Q425 722 468.5 703.5 Q512 685 546 650 Q578 617 594.5 573.5 Q611 530 611 485 L519 485 Z " />
<glyph glyph-name="D" unicode="D" horiz-adv-x="673" d="M631 453 Q631 406 624 354 Q617 302 601 251 Q585 200 560.5 154.5 Q536 109 501 75 Q463 39 414 19.5 Q365 0 295 0 L37 0 L162 709 L389 709 Q446 709 490.5 689.5 Q535 670 566.5 635.5 Q598 601 614.5 554.5 Q631 508 631 453 Z M542 448 Q542 485 531.5 518 Q521 551 500.5 575 Q480 599 449.5 613 Q419 627 379 627 L237 627 L141 82 L306 82 Q344 82 380.5 96.5 Q417 111 440 134 Q466 160 485.5 199 Q505 238 517.5 281.5 Q530 325 536 368.5 Q542 412 542 448 Z " />
<glyph glyph-name="E" unicode="E" horiz-adv-x="618" d="M615 627 L237 627 L198 411 L533 411 L518 328 L185 328 L141 82 L523 82 L510 0 L37 0 L161 709 L629 709 L615 627 Z " />
<glyph glyph-name="F" unicode="F" horiz-adv-x="582" d="M603 627 L238 627 L197 395 L525 395 L510 313 L182 313 L127 0 L37 0 L162 709 L617 709 L603 627 Z " />
<glyph glyph-name="G" unicode="G" horiz-adv-x="661" d="M527 491 Q527 529 509 562 Q491 595 459 615 Q439 627 416.5 632 Q394 637 364 637 Q325 637 292 620.5 Q259 604 235 580 Q208 553 188 513 Q168 473 155.5 428.5 Q143 384 137 339.5 Q131 295 131 258 Q131 214 142.5 177 Q154 140 181 114 Q201 94 230 83 Q259 72 295 72 Q344 72 381 90.5 Q418 109 444 140 Q470 171 485.5 211 Q501 251 509 294 L321 294 L336 376 L605 376 L538 0 L473 0 L473 69 Q440 27 390 7 Q340 -13 289 -13 Q233 -13 190.5 4.5 Q148 22 117 51 Q79 87 59.5 139.5 Q40 192 40 253 Q40 302 47 356 Q54 410 69.5 461.5 Q85 513 110.5 560 Q136 607 173 642 Q211 678 261 700 Q311 722 371 722 Q434 722 478.5 700 Q523 678 548 654 Q583 621 600 576.5 Q617 532 617 491 L527 491 Z " />
<glyph glyph-name="H" unicode="H" horiz-adv-x="716" d="M554 0 L464 0 L522 327 L185 327 L127 0 L37 0 L162 709 L252 709 L200 414 L537 414 L589 709 L679 709 L554 0 Z " />
<glyph glyph-name="I" unicode="I" horiz-adv-x="291" d="M129 0 L37 0 L162 709 L254 709 L129 0 Z " />
<glyph glyph-name="J" unicode="J" horiz-adv-x="507" d="M383 181 Q375 138 357 102.5 Q339 67 310.5 41.5 Q282 16 244.5 1.5 Q207 -13 162 -13 Q126 -13 90.5 -0.5 Q55 12 29 38 Q6 61 -7 92.5 Q-20 124 -20 166 Q-20 177 -18.5 190.5 Q-17 204 -15 215 L73 215 Q71 205 70 195 Q69 185 69 175 Q69 127 93.5 99.5 Q118 72 169 72 Q194 72 215.5 81.5 Q237 91 253 107 Q269 123 279.5 144 Q290 165 294 189 L386 709 L476 709 L383 181 Z " />
<glyph glyph-name="K" unicode="K" horiz-adv-x="662" d="M408 439 L586 0 L488 0 L339 372 L163 201 L127 0 L37 0 L162 709 L252 709 L186 335 L571 709 L687 709 L408 439 Z " />
<glyph glyph-name="L" unicode="L" horiz-adv-x="536" d="M468 0 L37 0 L162 709 L252 709 L142 83 L483 83 L468 0 Z " />
<glyph glyph-name="M" unicode="M" horiz-adv-x="879" d="M717 0 L630 0 L738 598 L414 10 L344 10 L227 603 L124 0 L37 0 L162 709 L287 709 L397 132 L710 709 L842 709 L717 0 Z " />
<glyph glyph-name="N" unicode="N" horiz-adv-x="734" d="M572 0 L470 0 L227 580 L127 0 L37 0 L162 709 L264 709 L507 127 L607 709 L697 709 L572 0 Z " />
<glyph glyph-name="O" unicode="O" horiz-adv-x="655" d="M613 456 Q613 408 606 354 Q599 300 583 247.5 Q567 195 542 148 Q517 101 481 66 Q443 30 396 8.5 Q349 -13 289 -13 Q230 -13 184 7.5 Q138 28 106 64 Q74 100 57 148.5 Q40 197 40 253 Q40 301 47.5 355 Q55 409 71.5 461.5 Q88 514 113.5 561 Q139 608 175 643 Q213 679 259.5 700.5 Q306 722 366 722 Q426 722 472 701 Q518 680 549.5 644 Q581 608 597 559.5 Q613 511 613 456 Z M521 451 Q521 490 511.5 523.5 Q502 557 482.5 582.5 Q463 608 433 622.5 Q403 637 361 637 Q322 637 291.5 621 Q261 605 237 581 Q210 554 190 514 Q170 474 157 429.5 Q144 385 137.5 340 Q131 295 131 258 Q131 219 141 185.5 Q151 152 171 126.5 Q191 101 221.5 86.5 Q252 72 294 72 Q333 72 364 87.5 Q395 103 419 127 Q446 154 465.5 194 Q485 234 497 279 Q509 324 515 369 Q521 414 521 451 Z " />
<glyph glyph-name="P" unicode="P" horiz-adv-x="623" d="M626 526 Q626 466 606 419.5 Q586 373 550 341 Q514 309 465.5 292.5 Q417 276 360 276 L175 276 L127 0 L37 0 L162 709 L419 709 Q461 709 498.5 697.5 Q536 686 564.5 663 Q593 640 609.5 605.5 Q626 571 626 526 Z M533 519 Q533 548 522.5 569 Q512 590 494 603 Q476 616 452 622 Q428 628 402 628 L238 628 L190 356 L363 356 Q439 356 486 398.5 Q533 441 533 519 Z " />
<glyph glyph-name="Q" unicode="Q" horiz-adv-x="655" d="M613 456 Q613 408 605.5 354.5 Q598 301 582 248.5 Q566 196 541 148.5 Q516 101 481 66 L477 62 L532 -21 L467 -66 L413 17 Q386 3 355 -5 Q324 -13 289 -13 Q230 -13 184 7.5 Q138 28 106 64 Q74 100 57 148.5 Q40 197 40 253 Q40 301 47.5 355 Q55 409 71.5 461.5 Q88 514 113.5 561 Q139 608 175 643 Q213 679 259.5 700.5 Q306 722 366 722 Q426 722 472 701 Q518 680 549.5 644 Q581 608 597 559.5 Q613 511 613 456 Z M521 451 Q521 490 511.5 523.5 Q502 557 482.5 582.5 Q463 608 433 622.5 Q403 637 361 637 Q322 637 291.5 621 Q261 605 237 581 Q210 554 190 514 Q170 474 157 429.5 Q144 385 137.5 340 Q131 295 131 258 Q131 219 141 185.5 Q151 152 171 126.5 Q191 101 221.5 86.5 Q252 72 294 72 Q335 72 367 89 L298 195 L361 240 L428 137 Q453 165 470.5 204.5 Q488 244 499 287 Q510 330 515.5 373 Q521 416 521 451 Z " />
<glyph glyph-name="R" unicode="R" horiz-adv-x="662" d="M635 521 Q635 470 616 429.5 Q597 389 570 364 Q529 326 466 309 L563 0 L469 0 L377 297 L179 297 L127 0 L37 0 L162 709 L429 709 Q475 709 513 695 Q551 681 578 655.5 Q605 630 620 595.5 Q635 561 635 521 Z M541 521 Q541 570 508.5 599 Q476 628 416 628 L238 628 L194 377 L378 377 Q455 377 498 414 Q541 451 541 521 Z " />
<glyph glyph-name="S" unicode="S" horiz-adv-x="629" d="M502 496 Q502 539 481 573 Q440 639 345 639 Q313 639 283 629.5 Q253 620 230 599 Q211 582 200.5 561 Q190 540 190 514 Q190 472 215.5 449 Q241 426 279 417 L392 389 Q467 370 511.5 323 Q556 276 556 207 Q556 161 540.5 124.5 Q525 88 498 62 Q460 24 405 5.5 Q350 -13 290 -13 Q227 -13 170 8 Q113 29 74 77 Q46 112 33.5 150.5 Q21 189 21 236 L114 236 Q114 206 122 178.5 Q130 151 150 127 Q165 110 183 98.5 Q201 87 220.5 80.5 Q240 74 260.5 71.5 Q281 69 301 69 Q336 69 369.5 80 Q403 91 427 114 Q443 129 452.5 149.5 Q462 170 462 196 Q462 231 438.5 260 Q415 289 362 303 L254 330 Q221 338 192 352.5 Q163 367 142 389 Q121 411 109 440 Q97 469 97 506 Q97 557 119.5 598.5 Q142 640 184 670 Q217 694 257 707.5 Q297 721 354 721 Q409 721 462.5 700.5 Q516 680 552 632 Q573 604 584 568 Q595 532 595 496 L502 496 Z " />
<glyph glyph-name="T" unicode="T" horiz-adv-x="536" d="M571 626 L360 626 L251 0 L160 0 L270 626 L59 626 L74 709 L586 709 L571 626 Z " />
<glyph glyph-name="U" unicode="U" horiz-adv-x="692" d="M587 238 Q577 183 554.5 137 Q532 91 496.5 57.5 Q461 24 414 5.5 Q367 -13 309 -13 Q255 -13 210.5 3 Q166 19 134.5 48 Q103 77 85.5 118.5 Q68 160 68 211 Q68 245 74 278 L150 709 L240 709 L162 268 Q160 254 158.5 241 Q157 228 157 214 Q157 142 199.5 107 Q242 72 314 72 Q352 72 383 84.5 Q414 97 437.5 119.5 Q461 142 476 173 Q491 204 497 240 L580 709 L670 709 L587 238 Z " />
<glyph glyph-name="V" unicode="V" horiz-adv-x="568" d="M262 0 L171 0 L57 709 L145 709 L234 112 L531 709 L628 709 L262 0 Z " />
<glyph glyph-name="W" unicode="W" horiz-adv-x="854" d="M620 0 L529 0 L463 572 L204 0 L105 0 L87 709 L171 709 L182 134 L443 699 L523 699 L591 137 L801 709 L886 709 L620 0 Z " />
<glyph glyph-name="X" unicode="X" horiz-adv-x="580" d="M342 358 L503 0 L408 0 L279 291 L50 0 L-53 0 L234 358 L76 709 L171 709 L298 422 L524 709 L625 709 L342 358 Z " />
<glyph glyph-name="Y" unicode="Y" horiz-adv-x="555" d="M305 287 L255 0 L164 0 L216 287 L55 709 L146 709 L273 372 L517 709 L618 709 L305 287 Z " />
<glyph glyph-name="Z" unicode="Z" horiz-adv-x="612" d="M597 619 L102 82 L512 82 L497 0 L-19 0 L-3 89 L490 626 L95 626 L110 709 L613 709 L597 619 Z " />
<glyph glyph-name="bracketleft" unicode="&#x5b;" horiz-adv-x="307" d="M352 695 L233 695 L101 -52 L220 -52 L209 -114 L21 -114 L175 757 L363 757 L352 695 Z " />
<glyph glyph-name="backslash" unicode="&#x5c;" horiz-adv-x="396" d="M245 -13 L70 722 L136 722 L311 -13 L245 -13 Z " />
<glyph glyph-name="bracketright" unicode="&#x5d;" horiz-adv-x="307" d="M120 -114 L-68 -114 L-57 -52 L61 -52 L193 695 L75 695 L86 757 L274 757 L120 -114 Z " />
<glyph glyph-name="asciicircum" unicode="&#x5e;" horiz-adv-x="538" d="M394 405 L277 630 L159 405 L71 405 L239 722 L315 722 L483 405 L394 405 Z " />
<glyph glyph-name="underscore" unicode="&#x5f;" horiz-adv-x="541" d="M-39 -60 L-39 0 L456 0 L456 -60 L-39 -60 Z " />
<glyph glyph-name="grave" unicode="&#x60;" horiz-adv-x="236" d="M231 553 L63 652 L117 721 L266 598 L231 553 Z " />
<glyph glyph-name="b" unicode="b" horiz-adv-x="583" d="M520 303 Q520 268 513.5 231 Q507 194 494 159.5 Q481 125 461.5 94.5 Q442 64 417 41 Q389 15 353.5 1 Q318 -13 274 -13 Q231 -13 188.5 8 Q146 29 124 71 L99 0 L28 0 L155 722 L240 722 L194 457 Q248 519 337 519 Q378 519 415 502 Q452 485 475 454 Q500 421 510 382 Q520 343 520 303 Z M433 303 Q433 330 426.5 355.5 Q420 381 406 401.5 Q392 422 370 434 Q348 446 317 446 Q294 446 276.5 439.5 Q259 433 243 421 Q214 399 193.5 365.5 Q173 332 164 294 Q159 272 155.5 250.5 Q152 229 152 206 Q152 178 158.5 151.5 Q165 125 179.5 105 Q194 85 216.5 72.5 Q239 60 272 60 Q298 60 320.5 70 Q343 80 361 97 Q380 115 394 140 Q408 165 416.5 192.5 Q425 220 429 248.5 Q433 277 433 303 Z " />
<glyph glyph-name="c" unicode="c" horiz-adv-x="521" d="M473 339 Q473 335 472.5 331 Q472 327 472 323 L385 323 Q385 326 385.5 328.5 Q386 331 386 334 Q386 385 356.5 415.5 Q327 446 276 446 Q245 446 221.5 434 Q198 422 180 403 Q162 384 149 359 Q136 334 128 306.5 Q120 279 116.5 251 Q113 223 113 198 Q113 165 122 137.5 Q131 110 151 91 Q166 77 186 68.5 Q206 60 233 60 Q281 60 313.5 88 Q346 116 360 159 L445 159 Q439 121 419.5 89.5 Q400 58 370.5 35 Q341 12 304.5 -0.5 Q268 -13 229 -13 Q184 -13 146.5 2 Q109 17 82.5 44.5 Q56 72 41 110 Q26 148 26 195 Q26 252 41 310 Q56 368 87.5 414.5 Q119 461 166.5 490 Q214 519 280 519 Q320 519 355.5 507 Q391 495 417 471.5 Q443 448 458 414.5 Q473 381 473 339 Z " />
<glyph glyph-name="d" unicode="d" horiz-adv-x="583" d="M435 0 L364 0 L364 64 Q338 24 296 5.5 Q254 -13 212 -13 Q174 -13 138 4.5 Q102 22 78 52 Q52 84 41 123.5 Q30 163 30 203 Q30 269 53 335 Q76 401 121 449 Q151 481 191.5 500 Q232 519 283 519 Q304 519 325.5 514 Q347 509 366.5 498.5 Q386 488 401.5 472.5 Q417 457 426 436 L476 722 L562 722 L435 0 Z M397 300 Q397 328 391.5 354.5 Q386 381 372.5 401 Q359 421 337 433.5 Q315 446 282 446 Q256 446 234 435.5 Q212 425 194 408 Q174 390 160 365.5 Q146 341 136.5 313.5 Q127 286 122.5 257.5 Q118 229 118 203 Q118 176 124 150.5 Q130 125 143.5 104.5 Q157 84 179 72 Q201 60 232 60 Q255 60 273.5 67.5 Q292 75 308 87 Q337 109 356.5 141.5 Q376 174 385 212 Q390 234 393.5 255.5 Q397 277 397 300 Z " />
<glyph glyph-name="e" unicode="e" horiz-adv-x="539" d="M483 308 Q483 286 480.5 265 Q478 244 473 226 L114 226 Q113 219 113 212.5 Q113 206 113 199 Q113 136 146.5 98 Q180 60 241 60 Q281 60 312 82 Q343 104 360 142 L448 142 Q436 106 415 77 Q394 48 366 28 Q338 8 303.5 -2.5 Q269 -13 232 -13 Q178 -13 134 9 Q90 31 61 77 Q26 135 26 211 Q26 278 50 342.5 Q74 407 120 452 Q152 484 193 501.5 Q234 519 285 519 Q327 519 363.5 505 Q400 491 428 461 Q457 430 470 390 Q483 350 483 308 Z M397 318 Q397 344 389.5 367.5 Q382 391 367.5 408.5 Q353 426 331 436.5 Q309 447 280 447 Q249 447 223 433.5 Q197 420 178 400 Q158 380 145.5 354 Q133 328 125 299 L396 299 Q397 304 397 308.5 Q397 313 397 318 Z " />
<glyph glyph-name="f" unicode="f" horiz-adv-x="362" d="M407 634 Q384 642 366 647 Q348 652 321 652 Q291 652 269 635 Q247 618 242 589 L227 506 L374 506 L361 434 L214 434 L138 0 L53 0 L130 434 L38 434 L51 506 L142 506 L159 602 Q163 627 176 649.5 Q189 672 209.5 688.5 Q230 705 257 715 Q284 725 317 725 Q349 725 372.5 719.5 Q396 714 420 706 L407 634 Z " />
<glyph glyph-name="g" unicode="g" horiz-adv-x="526" d="M515 483 Q510 485 502 485.5 Q494 486 489 486 Q470 486 454.5 477.5 Q439 469 431 454 Q448 433 456.5 407 Q465 381 465 354 Q465 311 446.5 272 Q428 233 396 205 Q370 183 333 170.5 Q296 158 254 158 Q204 158 167 175 Q155 172 141.5 165 Q128 158 119 148 Q107 136 107 119 Q107 104 119 93.5 Q131 83 151 81 L296 66 Q359 59 400.5 25.5 Q442 -8 442 -63 Q442 -98 429.5 -124.5 Q417 -151 397 -171 Q361 -206 306.5 -220.5 Q252 -235 188 -235 Q165 -235 141.5 -232 Q118 -229 95 -222 Q72 -215 51.5 -203.5 Q31 -192 15 -175 Q0 -159 -10 -136 Q-20 -113 -20 -86 Q-20 -46 5.5 -12 Q31 22 70 37 Q53 48 42 65 Q31 82 31 103 Q31 129 39.5 147 Q48 165 67 183 Q78 193 90 200 Q102 207 115 213 Q93 236 81 264.5 Q69 293 69 326 Q69 370 88 408.5 Q107 447 141 474 Q167 495 202.5 507 Q238 519 279 519 Q308 519 335 512.5 Q362 506 386 492 Q403 524 431 540 Q459 556 491 556 Q511 556 527 552 L515 483 Z M380 352 Q380 400 349 425 Q318 450 273 450 Q246 450 223.5 440 Q201 430 185.5 412.5 Q170 395 161.5 372.5 Q153 350 153 326 Q153 278 183 252 Q213 226 259 226 Q286 226 308 236 Q330 246 346 263 Q362 280 371 303 Q380 326 380 352 Z M357 -69 Q357 -40 334.5 -24.5 Q312 -9 270 -4 L142 10 Q106 4 81.5 -17.5 Q57 -39 57 -77 Q57 -104 78 -127 Q88 -138 102 -144.5 Q116 -151 131.5 -155.5 Q147 -160 163 -161.5 Q179 -163 193 -163 Q238 -163 274.5 -154.5 Q311 -146 334 -123 Q345 -112 351 -100 Q357 -88 357 -69 Z " />
<glyph glyph-name="h" unicode="h" horiz-adv-x="575" d="M496 382 Q496 367 493 345.5 Q490 324 488 310 L433 0 L348 0 L402 304 Q403 308 404 316 Q405 324 406 332 Q407 340 408 348 Q409 356 409 360 Q409 380 405 395 Q401 410 390 421 Q379 432 363.5 438 Q348 444 324 444 Q287 444 254.5 420.5 Q222 397 202 368 Q184 341 173 310 Q162 279 157 247 L113 0 L28 0 L155 722 L240 722 L191 443 Q219 478 262 498.5 Q305 519 350 519 Q421 519 461 479 Q481 459 488.5 434 Q496 409 496 382 Z " />
<glyph glyph-name="i" unicode="i" horiz-adv-x="268" d="M231 622 L132 622 L150 722 L249 722 L231 622 Z M115 0 L28 0 L118 506 L205 506 L115 0 Z " />
<glyph glyph-name="j" unicode="j" horiz-adv-x="279" d="M238 622 L139 622 L157 722 L256 722 L238 622 Z M107 -94 Q97 -151 63.5 -182.5 Q30 -214 -24 -214 Q-50 -214 -72.5 -207.5 Q-95 -201 -118 -189 L-106 -123 Q-93 -131 -74 -136 Q-55 -141 -41 -141 Q-18 -141 -0.5 -128 Q17 -115 22 -87 L127 506 L213 506 L107 -94 Z " />
<glyph glyph-name="k" unicode="k" horiz-adv-x="538" d="M533 506 Q505 481 471 449 Q442 422 402.5 385 Q363 348 315 304 L463 0 L372 0 L252 246 L138 139 L113 0 L28 0 L156 722 L241 722 L159 257 L426 506 L533 506 Z " />
<glyph glyph-name="m" unicode="m" horiz-adv-x="862" d="M388 322 Q390 334 391 345 Q392 356 392 366 Q392 380 388.5 393.5 Q385 407 376 418 Q367 429 351 436 Q335 443 310 443 Q286 443 266 433 Q246 423 228 407 Q202 384 185.5 349 Q169 314 161 269 L113 0 L28 0 L117 506 L186 506 L186 440 Q214 483 254.5 501 Q295 519 338 519 Q392 519 427.5 493 Q463 467 472 425 Q497 464 541.5 491.5 Q586 519 643 519 Q679 519 709 505.5 Q739 492 758 467 Q783 435 783 385 Q783 374 782 362.5 Q781 351 779 339 L719 0 L634 0 L691 322 Q693 334 694 345 Q695 356 695 366 Q695 380 691.5 393.5 Q688 407 679 418 Q670 429 654 436 Q638 443 613 443 Q589 443 569 433 Q549 423 531 407 Q505 384 488.5 349 Q472 314 464 269 L416 0 L331 0 L388 322 Z " />
<glyph glyph-name="n" unicode="n" horiz-adv-x="575" d="M496 382 Q496 367 493 345.5 Q490 324 488 310 L433 0 L348 0 L402 304 Q403 308 404 316 Q405 324 406 332 Q407 340 408 348 Q409 356 409 360 Q409 380 405 395 Q401 410 390 421 Q379 432 363.5 438 Q348 444 324 444 Q287 444 254.5 420.5 Q222 397 202 368 Q184 341 173 310 Q162 279 157 247 L113 0 L28 0 L117 506 L186 506 L186 436 Q213 474 258.5 496.5 Q304 519 350 519 Q421 519 461 479 Q481 459 488.5 434 Q496 409 496 382 Z " />
<glyph glyph-name="o" unicode="o" horiz-adv-x="542" d="M480 308 Q480 251 465 193.5 Q450 136 418.5 90.5 Q387 45 339 16 Q291 -13 225 -13 Q180 -13 141 4.5 Q102 22 75 54 Q52 82 39 119 Q26 156 26 198 Q26 255 41 312.5 Q56 370 87.5 415.5 Q119 461 167 490 Q215 519 281 519 Q326 519 365 501.5 Q404 484 431 452 Q454 424 467 387 Q480 350 480 308 Z M393 306 Q393 334 386 359 Q379 384 364.5 403.5 Q350 423 327.5 434.5 Q305 446 274 446 Q229 446 198 421 Q167 396 148.5 359 Q130 322 121.5 279 Q113 236 113 200 Q113 172 120 147 Q127 122 141.5 102.5 Q156 83 178.5 71.5 Q201 60 232 60 Q277 60 308 85 Q339 110 357.5 147 Q376 184 384.5 227 Q393 270 393 306 Z " />
<glyph glyph-name="p" unicode="p" horiz-adv-x="580" d="M518 303 Q518 248 503 192 Q488 136 458 90.5 Q428 45 382.5 16 Q337 -13 275 -13 Q232 -13 189.5 7 Q147 27 125 71 L75 -217 L-9 -217 L118 506 L188 506 L188 446 Q213 483 253.5 501 Q294 519 336 519 Q376 519 413 501 Q450 483 473 452 Q498 419 508 381 Q518 343 518 303 Z M431 303 Q431 330 425 356 Q419 382 405.5 402 Q392 422 370.5 434.5 Q349 447 318 447 Q274 447 241 422 Q221 407 206.5 386.5 Q192 366 182 342.5 Q172 319 166 294.5 Q160 270 157 246 Q154 226 154 206 Q154 178 160.5 151.5 Q167 125 181 105 Q195 85 217.5 72.5 Q240 60 273 60 Q299 60 321 70.5 Q343 81 361 98 Q380 116 393.5 140.5 Q407 165 415.5 192.5 Q424 220 427.5 248.5 Q431 277 431 303 Z " />
<glyph glyph-name="q" unicode="q" horiz-adv-x="572" d="M387 -216 L301 -216 L348 49 Q323 17 284 2 Q245 -13 206 -13 Q168 -13 132 4.5 Q96 22 72 52 Q46 84 36 123.5 Q26 163 26 203 Q26 258 42 314 Q58 370 89.5 415.5 Q121 461 168 490 Q215 519 277 519 Q320 519 360.5 498 Q401 477 417 435 L442 506 L514 506 L387 -216 Z M390 300 Q390 328 384.5 354.5 Q379 381 365.5 401 Q352 421 330.5 433.5 Q309 446 276 446 Q250 446 228 435 Q206 424 188 407 Q168 389 154 364.5 Q140 340 131 313 Q122 286 117.5 257.5 Q113 229 113 203 Q113 176 119 150 Q125 124 138.5 104 Q152 84 173.5 71.5 Q195 59 226 59 Q249 59 268 66.5 Q287 74 303 86 Q332 108 350.5 141 Q369 174 378 212 Q383 234 386.5 255.5 Q390 277 390 300 Z " />
<glyph glyph-name="s" unicode="s" horiz-adv-x="511" d="M372 354 Q372 369 367.5 383 Q363 397 352 411 Q335 432 310.5 440.5 Q286 449 260 449 Q235 449 213 442 Q191 435 174 416 Q154 394 154 366 Q154 339 172 325.5 Q190 312 208 307 Q228 302 257.5 295.5 Q287 289 326 278 Q372 266 401.5 234 Q431 202 431 154 Q431 118 416 87 Q401 56 373 33 Q344 10 306 -1.5 Q268 -13 227 -13 Q172 -13 125.5 4 Q79 21 48 60 Q33 79 24.5 102.5 Q16 126 16 152 L16 170 L101 170 L101 156 Q101 136 110.5 118.5 Q120 101 134 89 Q155 70 178.5 64 Q202 58 232 58 Q256 58 279 65.5 Q302 73 319 88 Q330 98 337.5 111 Q345 124 345 143 Q345 193 281 208 Q267 211 238.5 218 Q210 225 185 231 Q163 236 143 245.5 Q123 255 107 270 Q91 285 80.5 307 Q70 329 70 352 Q70 393 85.5 422.5 Q101 452 129 475 Q155 495 190.5 507 Q226 519 268 519 Q291 519 315.5 514.5 Q340 510 362 500 Q384 490 403 474.5 Q422 459 434 438 Q446 417 452 397.5 Q458 378 458 354 L372 354 Z " />
<glyph glyph-name="v" unicode="v" horiz-adv-x="475" d="M217 0 L125 0 L26 506 L110 506 L185 100 L396 506 L489 506 L217 0 Z " />
<glyph glyph-name="w" unicode="w" horiz-adv-x="760" d="M528 0 L448 0 L383 385 L186 0 L103 0 L63 506 L146 506 L173 122 L366 500 L435 500 L499 120 L666 506 L754 506 L528 0 Z " />
<glyph glyph-name="x" unicode="x" horiz-adv-x="496" d="M280 253 L418 0 L326 0 L222 201 L57 0 L-45 0 L175 261 L48 506 L139 506 L237 315 L397 506 L502 506 L280 253 Z " />
<glyph glyph-name="y" unicode="y" horiz-adv-x="497" d="M164 -127 Q142 -167 110.5 -190.5 Q79 -214 34 -214 Q4 -214 -21 -204.5 Q-46 -195 -64 -183 L-52 -117 Q-38 -125 -19.5 -133 Q-1 -141 22 -141 Q46 -141 61.5 -130 Q77 -119 87 -101 L146 6 L35 506 L124 506 L206 110 L417 506 L511 506 L164 -127 Z " />
<glyph glyph-name="z" unicode="z" horiz-adv-x="492" d="M456 431 L106 74 L400 74 L386 0 L-14 0 L0 75 L350 432 L63 432 L76 506 L470 506 L456 431 Z " />
<glyph glyph-name="braceleft" unicode="&#x7b;" horiz-adv-x="345" d="M390 695 L364 695 Q337 695 318.5 688.5 Q300 682 288.5 669 Q277 656 270 637 Q263 618 259 593 L230 432 Q222 390 192.5 359.5 Q163 329 117 322 L117 320 Q152 312 172 287.5 Q192 263 192 228 Q192 223 191.5 218 Q191 213 190 208 L164 55 Q162 45 161 35.5 Q160 26 160 17 Q160 -9 167.5 -23.5 Q175 -38 188 -45.5 Q201 -53 219 -54.5 Q237 -56 258 -56 L247 -119 L220 -119 Q159 -119 124.5 -89 Q90 -59 90 4 Q90 16 91 28 Q92 40 94 51 L119 193 Q120 198 120.5 203.5 Q121 209 121 215 Q121 226 118 236.5 Q115 247 106 256 Q93 270 74 278 Q55 286 34 286 L47 358 Q64 358 83 363 Q102 368 118 377.5 Q134 387 146 401 Q158 415 161 433 L193 606 Q209 689 253 723.5 Q297 758 375 758 L401 758 L390 695 Z " />
<glyph glyph-name="bar" unicode="&#x7c;" horiz-adv-x="265" d="M98 -119 L98 758 L167 758 L167 -119 L98 -119 Z " />
<glyph glyph-name="braceright" unicode="&#x7d;" horiz-adv-x="345" d="M291 281 Q242 281 211.5 256.5 Q181 232 174 193 L148 46 Q140 2 127.5 -29 Q115 -60 94 -80 Q73 -100 41 -109.5 Q9 -119 -37 -119 L-63 -119 L-52 -56 L-26 -56 Q1 -56 19 -48.5 Q37 -41 49 -27.5 Q61 -14 68 5 Q75 24 79 46 L108 207 Q116 249 147.5 280.5 Q179 312 225 319 L225 321 Q186 331 166.5 355.5 Q147 380 147 418 Q147 431 150 446 L174 584 Q176 596 177.5 607 Q179 618 179 627 Q179 665 156.5 680 Q134 695 80 695 L91 758 L118 758 Q189 758 220 728.5 Q251 699 251 646 Q251 636 250 625 Q249 614 247 603 L219 446 Q218 440 217 434 Q216 428 216 420 Q216 409 219 398.5 Q222 388 230 380 Q243 366 263 359.5 Q283 353 304 353 L291 281 Z " />
<glyph glyph-name="asciitilde" unicode="&#x7e;" horiz-adv-x="635" d="M546 311 Q522 287 503 271.5 Q484 256 467 247.5 Q450 239 433.5 236 Q417 233 399 233 Q371 233 341 243 Q311 253 282 267 Q263 276 242.5 284.5 Q222 293 203 293 Q193 293 182.5 291.5 Q172 290 160.5 285 Q149 280 135.5 270.5 Q122 261 106 244 L57 300 Q80 324 99 339.5 Q118 355 135.5 363.5 Q153 372 169.5 375 Q186 378 204 378 Q225 378 244.5 373.5 Q264 369 284 361 Q304 353 322.5 344 Q341 335 360 328 Q381 320 399 320 Q409 320 419.5 321 Q430 322 441.5 327 Q453 332 466 341.5 Q479 351 496 368 L546 311 Z " />
<glyph glyph-name="Adieresis" unicode="&#xc4;" horiz-adv-x="615" d="M461 0 L433 168 L124 168 L38 0 L-56 0 L319 709 L423 709 L550 0 L461 0 Z M356 620 L167 252 L418 252 L356 620 Z M339 789 L247 789 L263 881 L355 881 L339 789 Z M515 789 L423 789 L439 881 L531 881 L515 789 Z " />
<glyph glyph-name="Aring" unicode="&#xc5;" horiz-adv-x="615" d="M461 0 L433 168 L124 168 L38 0 L-56 0 L302 676 Q280 693 268 717.5 Q256 742 256 770 Q256 793 264 814 Q272 835 288 851.5 Q304 868 326 878 Q348 888 377 888 Q405 888 428 878 Q451 868 466.5 851.5 Q482 835 490.5 814 Q499 793 499 770 Q499 736 481 707 Q463 678 431 663 L550 0 L461 0 Z M437 770 Q437 795 421 813.5 Q405 832 377 832 Q349 832 333 813.5 Q317 795 317 770 Q317 748 329.5 730.5 Q342 713 365 709 L389 709 Q412 713 424.5 730.5 Q437 748 437 770 Z M356 620 L167 252 L418 252 L356 620 Z " />
<glyph glyph-name="Ccedilla" unicode="&#xc7;" horiz-adv-x="618" d="M519 485 Q519 520 507 548.5 Q495 577 474 597 Q452 618 425.5 627.5 Q399 637 364 637 Q325 637 292.5 621 Q260 605 236 581 Q209 554 189 514 Q169 474 156.5 429.5 Q144 385 137.5 340 Q131 295 131 258 Q131 219 141 185.5 Q151 152 171 126.5 Q191 101 221.5 86.5 Q252 72 294 72 Q329 72 361 84.5 Q393 97 414 118 Q435 138 448.5 159.5 Q462 181 469 208 L562 208 Q552 162 526 119 Q500 76 462 46 Q428 19 384 3 Q340 -13 289 -13 Q230 -13 184 7.5 Q138 28 106 64 Q74 100 57 148.5 Q40 197 40 253 Q40 301 47.5 355 Q55 409 71 461.5 Q87 514 112.5 561 Q138 608 174 643 Q212 679 260.5 700.5 Q309 722 369 722 Q425 722 468.5 703.5 Q512 685 546 650 Q578 617 594.5 573.5 Q611 530 611 485 L519 485 Z M210 -224 L129 -183 L232 -48 L310 -48 L210 -224 Z " />
<glyph glyph-name="Eacute" unicode="&#xc9;" horiz-adv-x="618" d="M615 627 L237 627 L198 411 L533 411 L518 328 L185 328 L141 82 L523 82 L510 0 L37 0 L161 709 L629 709 L615 627 Z M336 754 L311 804 L503 926 L538 853 L336 754 Z " />
<glyph glyph-name="Ntilde" unicode="&#xd1;" horiz-adv-x="734" d="M569 0 L467 0 L224 580 L124 0 L34 0 L159 709 L261 709 L504 127 L604 709 L694 709 L569 0 Z M600 828 Q577 805 549.5 789.5 Q522 774 489 774 Q466 774 450 780.5 Q434 787 420.5 795 Q407 803 394 809.5 Q381 816 365 816 Q345 816 329.5 808.5 Q314 801 299 788 L267 830 Q291 853 317.5 868.5 Q344 884 378 884 Q399 884 414.5 877 Q430 870 443.5 862 Q457 854 471 847 Q485 840 502 840 Q522 840 539 848.5 Q556 857 570 870 L600 828 Z " />
<glyph glyph-name="Odieresis" unicode="&#xd6;" horiz-adv-x="655" d="M613 456 Q613 408 606 354 Q599 300 583 247.5 Q567 195 542 148 Q517 101 481 66 Q443 30 396 8.5 Q349 -13 289 -13 Q230 -13 184 7.5 Q138 28 106 64 Q74 100 57 148.5 Q40 197 40 253 Q40 301 47.5 355 Q55 409 71.5 461.5 Q88 514 113.5 561 Q139 608 175 643 Q213 679 259.5 700.5 Q306 722 366 722 Q426 722 472 701 Q518 680 549.5 644 Q581 608 597 559.5 Q613 511 613 456 Z M521 451 Q521 490 511.5 523.5 Q502 557 482.5 582.5 Q463 608 433 622.5 Q403 637 361 637 Q322 637 291.5 621 Q261 605 237 581 Q210 554 190 514 Q170 474 157 429.5 Q144 385 137.5 340 Q131 295 131 258 Q131 219 141 185.5 Q151 152 171 126.5 Q191 101 221.5 86.5 Q252 72 294 72 Q333 72 364 87.5 Q395 103 419 127 Q446 154 465.5 194 Q485 234 497 279 Q509 324 515 369 Q521 414 521 451 Z M358 791 L266 791 L282 883 L374 883 L358 791 Z M534 791 L442 791 L458 883 L550 883 L534 791 Z " />
<glyph glyph-name="Udieresis" unicode="&#xdc;" horiz-adv-x="692" d="M587 238 Q577 183 554.5 137 Q532 91 496.5 57.5 Q461 24 414 5.5 Q367 -13 309 -13 Q255 -13 210.5 3 Q166 19 134.5 48 Q103 77 85.5 118.5 Q68 160 68 211 Q68 245 74 278 L150 709 L240 709 L162 268 Q160 254 158.5 241 Q157 228 157 214 Q157 142 199.5 107 Q242 72 314 72 Q352 72 383 84.5 Q414 97 437.5 119.5 Q461 142 476 173 Q491 204 497 240 L580 709 L670 709 L587 238 Z M376 790 L284 790 L300 882 L392 882 L376 790 Z M552 790 L460 790 L476 882 L568 882 L552 790 Z " />
<glyph glyph-name="aacute" unicode="&#xe1;" horiz-adv-x="567" d="M420 0 L355 0 L355 75 Q344 56 327.5 40 Q311 24 291 12 Q271 0 248.5 -6.5 Q226 -13 205 -13 Q129 -13 82 37 Q52 69 39 110.5 Q26 152 26 203 Q26 272 49.5 339.5 Q73 407 122 455 Q151 484 190 501.5 Q229 519 276 519 Q296 519 316 514.5 Q336 510 355 500 Q374 490 389.5 475 Q405 460 414 441 L439 506 L509 506 L420 0 Z M386 314 Q386 338 382 358.5 Q378 379 367 397 Q355 417 334 431.5 Q313 446 281 446 Q253 446 228.5 434 Q204 422 185 403 Q166 384 152.5 359 Q139 334 130 307.5 Q121 281 117 254 Q113 227 113 203 Q113 174 119 145.5 Q125 117 145 94 Q158 79 176 69.5 Q194 60 218 60 Q257 60 288.5 84 Q320 108 341.5 145.5 Q363 183 374.5 227.5 Q386 272 386 314 Z M226 555 L201 605 L393 727 L428 654 L226 555 Z " />
<glyph glyph-name="agrave" unicode="&#xe0;" horiz-adv-x="567" d="M420 0 L355 0 L355 75 Q344 56 327.5 40 Q311 24 291 12 Q271 0 248.5 -6.5 Q226 -13 205 -13 Q129 -13 82 37 Q52 69 39 110.5 Q26 152 26 203 Q26 272 49.5 339.5 Q73 407 122 455 Q151 484 190 501.5 Q229 519 276 519 Q296 519 316 514.5 Q336 510 355 500 Q374 490 389.5 475 Q405 460 414 441 L439 506 L509 506 L420 0 Z M386 314 Q386 338 382 358.5 Q378 379 367 397 Q355 417 334 431.5 Q313 446 281 446 Q253 446 228.5 434 Q204 422 185 403 Q166 384 152.5 359 Q139 334 130 307.5 Q121 281 117 254 Q113 227 113 203 Q113 174 119 145.5 Q125 117 145 94 Q158 79 176 69.5 Q194 60 218 60 Q257 60 288.5 84 Q320 108 341.5 145.5 Q363 183 374.5 227.5 Q386 272 386 314 Z M381 553 L213 652 L267 721 L416 598 L381 553 Z " />
<glyph glyph-name="acircumflex" unicode="&#xe2;" horiz-adv-x="567" d="M420 0 L355 0 L355 75 Q344 56 327.5 40 Q311 24 291 12 Q271 0 248.5 -6.5 Q226 -13 205 -13 Q129 -13 82 37 Q52 69 39 110.5 Q26 152 26 203 Q26 272 49.5 339.5 Q73 407 122 455 Q151 484 190 501.5 Q229 519 276 519 Q296 519 316 514.5 Q336 510 355 500 Q374 490 389.5 475 Q405 460 414 441 L439 506 L509 506 L420 0 Z M386 314 Q386 338 382 358.5 Q378 379 367 397 Q355 417 334 431.5 Q313 446 281 446 Q253 446 228.5 434 Q204 422 185 403 Q166 384 152.5 359 Q139 334 130 307.5 Q121 281 117 254 Q113 227 113 203 Q113 174 119 145.5 Q125 117 145 94 Q158 79 176 69.5 Q194 60 218 60 Q257 60 288.5 84 Q320 108 341.5 145.5 Q363 183 374.5 227.5 Q386 272 386 314 Z M415 557 L327 672 L200 557 L160 602 L308 733 L363 733 L465 602 L415 557 Z " />
<glyph glyph-name="adieresis" unicode="&#xe4;" horiz-adv-x="567" d="M420 0 L355 0 L355 75 Q344 56 327.5 40 Q311 24 291 12 Q271 0 248.5 -6.5 Q226 -13 205 -13 Q129 -13 82 37 Q52 69 39 110.5 Q26 152 26 203 Q26 272 49.5 339.5 Q73 407 122 455 Q151 484 190 501.5 Q229 519 276 519 Q296 519 316 514.5 Q336 510 355 500 Q374 490 389.5 475 Q405 460 414 441 L439 506 L509 506 L420 0 Z M386 314 Q386 338 382 358.5 Q378 379 367 397 Q355 417 334 431.5 Q313 446 281 446 Q253 446 228.5 434 Q204 422 185 403 Q166 384 152.5 359 Q139 334 130 307.5 Q121 281 117 254 Q113 227 113 203 Q113 174 119 145.5 Q125 117 145 94 Q158 79 176 69.5 Q194 60 218 60 Q257 60 288.5 84 Q320 108 341.5 145.5 Q363 183 374.5 227.5 Q386 272 386 314 Z M278 602 L186 602 L202 694 L294 694 L278 602 Z M454 602 L362 602 L378 694 L470 694 L454 602 Z " />
<glyph glyph-name="atilde" unicode="&#xe3;" horiz-adv-x="567" d="M420 0 L355 0 L355 75 Q344 56 327.5 40 Q311 24 291 12 Q271 0 248.5 -6.5 Q226 -13 205 -13 Q129 -13 82 37 Q52 69 39 110.5 Q26 152 26 203 Q26 272 49.5 339.5 Q73 407 122 455 Q151 484 190 501.5 Q229 519 276 519 Q296 519 316 514.5 Q336 510 355 500 Q374 490 389.5 475 Q405 460 414 441 L439 506 L509 506 L420 0 Z M386 314 Q386 338 382 358.5 Q378 379 367 397 Q355 417 334 431.5 Q313 446 281 446 Q253 446 228.5 434 Q204 422 185 403 Q166 384 152.5 359 Q139 334 130 307.5 Q121 281 117 254 Q113 227 113 203 Q113 174 119 145.5 Q125 117 145 94 Q158 79 176 69.5 Q194 60 218 60 Q257 60 288.5 84 Q320 108 341.5 145.5 Q363 183 374.5 227.5 Q386 272 386 314 Z M493 647 Q470 624 442.5 608.5 Q415 593 382 593 Q359 593 343 599.5 Q327 606 313.5 614 Q300 622 287 628.5 Q274 635 258 635 Q238 635 222.5 627.5 Q207 620 192 607 L160 649 Q184 672 210.5 687.5 Q237 703 271 703 Q292 703 307.5 696 Q323 689 336.5 681 Q350 673 364 666 Q378 659 395 659 Q415 659 432 667.5 Q449 676 463 689 L493 647 Z " />
<glyph glyph-name="aring" unicode="&#xe5;" horiz-adv-x="567" d="M420 0 L355 0 L355 75 Q344 56 327.5 40 Q311 24 291 12 Q271 0 248.5 -6.5 Q226 -13 205 -13 Q129 -13 82 37 Q52 69 39 110.5 Q26 152 26 203 Q26 272 49.5 339.5 Q73 407 122 455 Q151 484 190 501.5 Q229 519 276 519 Q296 519 316 514.5 Q336 510 355 500 Q374 490 389.5 475 Q405 460 414 441 L439 506 L509 506 L420 0 Z M386 314 Q386 338 382 358.5 Q378 379 367 397 Q355 417 334 431.5 Q313 446 281 446 Q253 446 228.5 434 Q204 422 185 403 Q166 384 152.5 359 Q139 334 130 307.5 Q121 281 117 254 Q113 227 113 203 Q113 174 119 145.5 Q125 117 145 94 Q158 79 176 69.5 Q194 60 218 60 Q257 60 288.5 84 Q320 108 341.5 145.5 Q363 183 374.5 227.5 Q386 272 386 314 Z M441 671 Q441 650 433.5 631 Q426 612 412 597 Q398 582 377.5 573 Q357 564 331 564 Q305 564 284.5 573 Q264 582 250 597 Q236 612 228.5 631 Q221 650 221 671 Q221 692 228.5 711 Q236 730 250 745 Q264 760 284.5 769 Q305 778 331 778 Q357 778 377.5 769 Q398 760 412 745 Q426 730 433.5 711 Q441 692 441 671 Z M385 671 Q385 694 370.5 710.5 Q356 727 331 727 Q306 727 291 710.5 Q276 694 276 671 Q276 648 291 632 Q306 616 331 616 Q356 616 370.5 632 Q385 648 385 671 Z " />
<glyph glyph-name="ccedilla" unicode="&#xe7;" horiz-adv-x="521" d="M472 323 L385 323 L386 334 Q386 385 356.5 415.5 Q327 446 276 446 Q245 446 221.5 434 Q198 422 180 403 Q162 384 149 359 Q136 334 128 306.5 Q120 279 116.5 251 Q113 223 113 198 Q113 165 122 137.5 Q131 110 151 91 Q166 77 186 68.5 Q206 60 233 60 Q281 60 313.5 88 Q346 116 360 159 L445 159 Q439 121 419.5 89.5 Q400 58 370.5 35 Q341 12 304.5 -0.5 Q268 -13 229 -13 Q184 -13 146.5 2 Q109 17 82.5 44.5 Q56 72 41 110 Q26 148 26 195 Q26 252 41 310 Q56 368 87.5 414.5 Q119 461 166.5 490 Q214 519 280 519 Q320 519 355.5 507 Q391 495 417 471.5 Q443 448 458 414.5 Q473 381 473 339 L472 323 Z M153 -235 L72 -194 L175 -59 L253 -59 L153 -235 Z " />
<glyph glyph-name="eacute" unicode="&#xe9;" horiz-adv-x="539" d="M483 308 Q483 286 480.5 265 Q478 244 473 226 L114 226 Q113 219 113 212.5 Q113 206 113 199 Q113 136 146.5 98 Q180 60 241 60 Q281 60 312 82 Q343 104 360 142 L448 142 Q436 106 415 77 Q394 48 366 28 Q338 8 303.5 -2.5 Q269 -13 232 -13 Q178 -13 134 9 Q90 31 61 77 Q26 135 26 211 Q26 278 50 342.5 Q74 407 120 452 Q152 484 193 501.5 Q234 519 285 519 Q327 519 363.5 505 Q400 491 428 461 Q457 430 470 390 Q483 350 483 308 Z M397 318 Q397 344 389.5 367.5 Q382 391 367.5 408.5 Q353 426 331 436.5 Q309 447 280 447 Q249 447 223 433.5 Q197 420 178 400 Q158 380 145.5 354 Q133 328 125 299 L396 299 Q397 304 397 308.5 Q397 313 397 318 Z M241 553 L216 603 L408 725 L443 652 L241 553 Z " />
<glyph glyph-name="egrave" unicode="&#xe8;" horiz-adv-x="539" d="M483 308 Q483 286 480.5 265 Q478 244 473 226 L114 226 Q113 219 113 212.5 Q113 206 113 199 Q113 136 146.5 98 Q180 60 241 60 Q281 60 312 82 Q343 104 360 142 L448 142 Q436 106 415 77 Q394 48 366 28 Q338 8 303.5 -2.5 Q269 -13 232 -13 Q178 -13 134 9 Q90 31 61 77 Q26 135 26 211 Q26 278 50 342.5 Q74 407 120 452 Q152 484 193 501.5 Q234 519 285 519 Q327 519 363.5 505 Q400 491 428 461 Q457 430 470 390 Q483 350 483 308 Z M397 318 Q397 344 389.5 367.5 Q382 391 367.5 408.5 Q353 426 331 436.5 Q309 447 280 447 Q249 447 223 433.5 Q197 420 178 400 Q158 380 145.5 354 Q133 328 125 299 L396 299 Q397 304 397 308.5 Q397 313 397 318 Z M391 553 L223 652 L277 721 L426 598 L391 553 Z " />
<glyph glyph-name="ecircumflex" unicode="&#xea;" horiz-adv-x="539" d="M483 308 Q483 286 480.5 265 Q478 244 473 226 L114 226 Q113 219 113 212.5 Q113 206 113 199 Q113 136 146.5 98 Q180 60 241 60 Q281 60 312 82 Q343 104 360 142 L448 142 Q436 106 415 77 Q394 48 366 28 Q338 8 303.5 -2.5 Q269 -13 232 -13 Q178 -13 134 9 Q90 31 61 77 Q26 135 26 211 Q26 278 50 342.5 Q74 407 120 452 Q152 484 193 501.5 Q234 519 285 519 Q327 519 363.5 505 Q400 491 428 461 Q457 430 470 390 Q483 350 483 308 Z M397 318 Q397 344 389.5 367.5 Q382 391 367.5 408.5 Q353 426 331 436.5 Q309 447 280 447 Q249 447 223 433.5 Q197 420 178 400 Q158 380 145.5 354 Q133 328 125 299 L396 299 Q397 304 397 308.5 Q397 313 397 318 Z M419 552 L331 667 L204 552 L164 597 L312 728 L367 728 L469 597 L419 552 Z " />
<glyph glyph-name="edieresis" unicode="&#xeb;" horiz-adv-x="539" d="M483 308 Q483 286 480.5 265 Q478 244 473 226 L114 226 Q113 219 113 212.5 Q113 206 113 199 Q113 136 146.5 98 Q180 60 241 60 Q281 60 312 82 Q343 104 360 142 L448 142 Q436 106 415 77 Q394 48 366 28 Q338 8 303.5 -2.5 Q269 -13 232 -13 Q178 -13 134 9 Q90 31 61 77 Q26 135 26 211 Q26 278 50 342.5 Q74 407 120 452 Q152 484 193 501.5 Q234 519 285 519 Q327 519 363.5 505 Q400 491 428 461 Q457 430 470 390 Q483 350 483 308 Z M397 318 Q397 344 389.5 367.5 Q382 391 367.5 408.5 Q353 426 331 436.5 Q309 447 280 447 Q249 447 223 433.5 Q197 420 178 400 Q158 380 145.5 354 Q133 328 125 299 L396 299 Q397 304 397 308.5 Q397 313 397 318 Z M271 599 L179 599 L195 691 L287 691 L271 599 Z M447 599 L355 599 L371 691 L463 691 L447 599 Z " />
<glyph glyph-name="iacute" unicode="&#xed;" horiz-adv-x="268" d="M116 0 L28 0 L118 506 L206 506 L116 0 Z M99 551 L74 601 L266 723 L301 650 L99 551 Z " />
<glyph glyph-name="igrave" unicode="&#xec;" horiz-adv-x="268" d="M116 0 L28 0 L118 506 L206 506 L116 0 Z M239 553 L71 652 L125 721 L274 598 L239 553 Z " />
<glyph glyph-name="icircumflex" unicode="&#xee;" horiz-adv-x="268" d="M122 0 L34 0 L124 506 L212 506 L122 0 Z M283 552 L195 667 L68 552 L28 597 L176 728 L231 728 L333 597 L283 552 Z " />
<glyph glyph-name="idieresis" unicode="&#xef;" horiz-adv-x="268" d="M116 0 L28 0 L118 506 L206 506 L116 0 Z M134 599 L42 599 L58 691 L150 691 L134 599 Z M310 599 L218 599 L234 691 L326 691 L310 599 Z " />
<glyph glyph-name="ntilde" unicode="&#xf1;" horiz-adv-x="575" d="M496 382 Q496 367 493 345.5 Q490 324 488 310 L433 0 L348 0 L402 304 Q403 308 404 316 Q405 324 406 332 Q407 340 408 348 Q409 356 409 360 Q409 380 405 395 Q401 410 390 421 Q379 432 363.5 438 Q348 444 324 444 Q287 444 254.5 420.5 Q222 397 202 368 Q184 341 173 310 Q162 279 157 247 L113 0 L28 0 L117 506 L186 506 L186 436 Q213 474 258.5 496.5 Q304 519 350 519 Q421 519 461 479 Q481 459 488.5 434 Q496 409 496 382 Z M512 647 Q489 624 461.5 608.5 Q434 593 401 593 Q378 593 362 599.5 Q346 606 332.5 614 Q319 622 306 628.5 Q293 635 277 635 Q257 635 241.5 627.5 Q226 620 211 607 L179 649 Q203 672 229.5 687.5 Q256 703 290 703 Q311 703 326.5 696 Q342 689 355.5 681 Q369 673 383 666 Q397 659 414 659 Q434 659 451 667.5 Q468 676 482 689 L512 647 Z " />
<glyph glyph-name="oacute" unicode="&#xf3;" horiz-adv-x="542" d="M480 308 Q480 251 465 193.5 Q450 136 418.5 90.5 Q387 45 339 16 Q291 -13 225 -13 Q180 -13 141 4.5 Q102 22 75 54 Q52 82 39 119 Q26 156 26 198 Q26 255 41 312.5 Q56 370 87.5 415.5 Q119 461 167 490 Q215 519 281 519 Q326 519 365 501.5 Q404 484 431 452 Q454 424 467 387 Q480 350 480 308 Z M393 306 Q393 334 386 359 Q379 384 364.5 403.5 Q350 423 327.5 434.5 Q305 446 274 446 Q229 446 198 421 Q167 396 148.5 359 Q130 322 121.5 279 Q113 236 113 200 Q113 172 120 147 Q127 122 141.5 102.5 Q156 83 178.5 71.5 Q201 60 232 60 Q277 60 308 85 Q339 110 357.5 147 Q376 184 384.5 227 Q393 270 393 306 Z M236 554 L211 604 L403 726 L438 653 L236 554 Z " />
<glyph glyph-name="ograve" unicode="&#xf2;" horiz-adv-x="542" d="M480 308 Q480 251 465 193.5 Q450 136 418.5 90.5 Q387 45 339 16 Q291 -13 225 -13 Q180 -13 141 4.5 Q102 22 75 54 Q52 82 39 119 Q26 156 26 198 Q26 255 41 312.5 Q56 370 87.5 415.5 Q119 461 167 490 Q215 519 281 519 Q326 519 365 501.5 Q404 484 431 452 Q454 424 467 387 Q480 350 480 308 Z M393 306 Q393 334 386 359 Q379 384 364.5 403.5 Q350 423 327.5 434.5 Q305 446 274 446 Q229 446 198 421 Q167 396 148.5 359 Q130 322 121.5 279 Q113 236 113 200 Q113 172 120 147 Q127 122 141.5 102.5 Q156 83 178.5 71.5 Q201 60 232 60 Q277 60 308 85 Q339 110 357.5 147 Q376 184 384.5 227 Q393 270 393 306 Z M385 553 L217 652 L271 721 L420 598 L385 553 Z " />
<glyph glyph-name="ocircumflex" unicode="&#xf4;" horiz-adv-x="542" d="M480 308 Q480 251 465 193.5 Q450 136 418.5 90.5 Q387 45 339 16 Q291 -13 225 -13 Q180 -13 141 4.5 Q102 22 75 54 Q52 82 39 119 Q26 156 26 198 Q26 255 41 312.5 Q56 370 87.5 415.5 Q119 461 167 490 Q215 519 281 519 Q326 519 365 501.5 Q404 484 431 452 Q454 424 467 387 Q480 350 480 308 Z M393 306 Q393 334 386 359 Q379 384 364.5 403.5 Q350 423 327.5 434.5 Q305 446 274 446 Q229 446 198 421 Q167 396 148.5 359 Q130 322 121.5 279 Q113 236 113 200 Q113 172 120 147 Q127 122 141.5 102.5 Q156 83 178.5 71.5 Q201 60 232 60 Q277 60 308 85 Q339 110 357.5 147 Q376 184 384.5 227 Q393 270 393 306 Z M412 555 L324 670 L197 555 L157 600 L305 731 L360 731 L462 600 L412 555 Z " />
<glyph glyph-name="odieresis" unicode="&#xf6;" horiz-adv-x="542" d="M480 308 Q480 251 465 193.5 Q450 136 418.5 90.5 Q387 45 339 16 Q291 -13 225 -13 Q180 -13 141 4.5 Q102 22 75 54 Q52 82 39 119 Q26 156 26 198 Q26 255 41 312.5 Q56 370 87.5 415.5 Q119 461 167 490 Q215 519 281 519 Q326 519 365 501.5 Q404 484 431 452 Q454 424 467 387 Q480 350 480 308 Z M393 306 Q393 334 386 359 Q379 384 364.5 403.5 Q350 423 327.5 434.5 Q305 446 274 446 Q229 446 198 421 Q167 396 148.5 359 Q130 322 121.5 279 Q113 236 113 200 Q113 172 120 147 Q127 122 141.5 102.5 Q156 83 178.5 71.5 Q201 60 232 60 Q277 60 308 85 Q339 110 357.5 147 Q376 184 384.5 227 Q393 270 393 306 Z M267 599 L175 599 L191 691 L283 691 L267 599 Z M443 599 L351 599 L367 691 L459 691 L443 599 Z " />
<glyph glyph-name="otilde" unicode="&#xf5;" horiz-adv-x="542" d="M480 308 Q480 251 465 193.5 Q450 136 418.5 90.5 Q387 45 339 16 Q291 -13 225 -13 Q180 -13 141 4.5 Q102 22 75 54 Q52 82 39 119 Q26 156 26 198 Q26 255 41 312.5 Q56 370 87.5 415.5 Q119 461 167 490 Q215 519 281 519 Q326 519 365 501.5 Q404 484 431 452 Q454 424 467 387 Q480 350 480 308 Z M393 306 Q393 334 386 359 Q379 384 364.5 403.5 Q350 423 327.5 434.5 Q305 446 274 446 Q229 446 198 421 Q167 396 148.5 359 Q130 322 121.5 279 Q113 236 113 200 Q113 172 120 147 Q127 122 141.5 102.5 Q156 83 178.5 71.5 Q201 60 232 60 Q277 60 308 85 Q339 110 357.5 147 Q376 184 384.5 227 Q393 270 393 306 Z M497 653 Q474 630 446.5 614.5 Q419 599 386 599 Q363 599 347 605.5 Q331 612 317.5 620 Q304 628 291 634.5 Q278 641 262 641 Q242 641 226.5 633.5 Q211 626 196 613 L164 655 Q188 678 214.5 693.5 Q241 709 275 709 Q296 709 311.5 702 Q327 695 340.5 687 Q354 679 368 672 Q382 665 399 665 Q419 665 436 673.5 Q453 682 467 695 L497 653 Z " />
<glyph glyph-name="uacute" unicode="&#xfa;" horiz-adv-x="574" d="M509 506 L420 0 L350 0 L350 65 Q325 27 283.5 7 Q242 -13 201 -13 Q137 -13 96 23 Q73 43 61 72 Q49 101 49 140 Q49 152 50 164 Q51 176 53 190 L109 506 L194 506 L139 195 Q136 175 136 157 Q136 133 142.5 116 Q149 99 160 87 Q183 62 227 62 Q255 62 276.5 74.5 Q298 87 315 105 Q344 137 358 177 Q372 217 380 259 L424 506 L509 506 Z M249 553 L224 603 L416 725 L451 652 L249 553 Z " />
<glyph glyph-name="ugrave" unicode="&#xf9;" horiz-adv-x="574" d="M509 506 L420 0 L350 0 L350 65 Q325 27 283.5 7 Q242 -13 201 -13 Q137 -13 96 23 Q73 43 61 72 Q49 101 49 140 Q49 152 50 164 Q51 176 53 190 L109 506 L194 506 L139 195 Q136 175 136 157 Q136 133 142.5 116 Q149 99 160 87 Q183 62 227 62 Q255 62 276.5 74.5 Q298 87 315 105 Q344 137 358 177 Q372 217 380 259 L424 506 L509 506 Z M381 553 L213 652 L267 721 L416 598 L381 553 Z " />
<glyph glyph-name="ucircumflex" unicode="&#xfb;" horiz-adv-x="574" d="M509 506 L420 0 L350 0 L350 65 Q325 27 283.5 7 Q242 -13 201 -13 Q137 -13 96 23 Q73 43 61 72 Q49 101 49 140 Q49 152 50 164 Q51 176 53 190 L109 506 L194 506 L139 195 Q136 175 136 157 Q136 133 142.5 116 Q149 99 160 87 Q183 62 227 62 Q255 62 276.5 74.5 Q298 87 315 105 Q344 137 358 177 Q372 217 380 259 L424 506 L509 506 Z M430 560 L342 675 L215 560 L175 605 L323 736 L378 736 L480 605 L430 560 Z " />
<glyph glyph-name="udieresis" unicode="&#xfc;" horiz-adv-x="574" d="M509 506 L420 0 L350 0 L350 65 Q325 27 283.5 7 Q242 -13 201 -13 Q137 -13 96 23 Q73 43 61 72 Q49 101 49 140 Q49 152 50 164 Q51 176 53 190 L109 506 L194 506 L139 195 Q136 175 136 157 Q136 133 142.5 116 Q149 99 160 87 Q183 62 227 62 Q255 62 276.5 74.5 Q298 87 315 105 Q344 137 358 177 Q372 217 380 259 L424 506 L509 506 Z M288 599 L196 599 L212 691 L304 691 L288 599 Z M464 599 L372 599 L388 691 L480 691 L464 599 Z " />
<glyph glyph-name="dagger" unicode="&#x2020;" horiz-adv-x="562" d="M523 433 L337 433 L238 -125 L155 -125 L254 433 L67 433 L80 506 L267 506 L303 709 L386 709 L350 506 L536 506 L523 433 Z " />
<glyph glyph-name="degree" unicode="&#xb0;" horiz-adv-x="457" d="M430 558 Q430 522 417.5 492 Q405 462 382.5 440 Q360 418 329.5 406 Q299 394 264 394 Q229 394 198.5 406 Q168 418 146 440 Q124 462 111.5 492 Q99 522 99 558 Q99 594 111.5 624 Q124 654 146 676 Q168 698 198.5 710 Q229 722 264 722 Q299 722 329.5 710 Q360 698 382.5 676 Q405 654 417.5 624 Q430 594 430 558 Z M355 558 Q355 600 329 625.5 Q303 651 264 651 Q225 651 199.5 625.5 Q174 600 174 558 Q174 516 199.5 490.5 Q225 465 264 465 Q303 465 329 490.5 Q355 516 355 558 Z " />
<glyph glyph-name="cent" unicode="&#xa2;" horiz-adv-x="556" d="M509 437 Q509 433 508.5 429 Q508 425 508 421 L421 421 Q421 424 421.5 426.5 Q422 429 422 432 Q422 473 402.5 501 Q383 529 348 539 L280 158 Q323 162 352.5 189 Q382 216 396 257 L481 257 Q475 219 455.5 188 Q436 157 407 134 Q378 111 342 98 Q306 85 267 85 L252 0 L191 0 L207 92 Q141 109 101.5 162 Q62 215 62 293 Q62 349 76 405 Q90 461 119.5 507 Q149 553 194 583 Q239 613 301 617 L317 709 L378 709 L361 613 Q426 601 467.5 555.5 Q509 510 509 437 Z M287 542 Q265 537 247.5 526.5 Q230 516 216 501 Q198 482 185 457 Q172 432 164 404.5 Q156 377 152.5 349 Q149 321 149 296 Q149 263 158 235.5 Q167 208 187 189 Q195 182 203 176.5 Q211 171 221 167 L287 542 Z " />
<glyph glyph-name="sterling" unicode="&#xa3;" horiz-adv-x="556" d="M538 555 Q538 540 535 527 L450 527 Q451 532 452 538 Q453 544 453 549 Q453 591 429 613 Q405 635 362 635 Q337 635 318 625 Q299 615 285 599 Q271 583 262 563.5 Q253 544 250 525 L229 404 L390 404 L377 331 L217 331 L185 152 Q180 129 168 107 Q156 85 130 78 L130 76 L336 76 Q376 76 398 99.5 Q420 123 427 157 L511 157 Q502 80 451.5 40 Q401 0 320 0 L-5 0 L9 79 Q86 80 100 159 Q108 202 115 245 Q122 288 130 331 L50 331 L63 404 L143 404 L164 525 Q178 609 233 659.5 Q288 710 371 710 Q408 710 439 698.5 Q470 687 492 666.5 Q514 646 526 617.5 Q538 589 538 555 Z " />
<glyph glyph-name="section" unicode="&#xa7;" horiz-adv-x="558" d="M509 569 Q509 560 508 550 Q507 540 505 531 L422 531 Q425 544 425 559 Q425 596 399.5 617.5 Q374 639 337 639 Q292 639 261.5 613 Q231 587 231 539 Q231 498 260 469 L432 298 Q454 277 465.5 248 Q477 219 477 189 Q477 132 444.5 93 Q412 54 364 28 Q377 10 382.5 -12 Q388 -34 388 -56 Q388 -100 372.5 -134.5 Q357 -169 330 -193 Q303 -217 267 -230 Q231 -243 189 -243 Q156 -243 126.5 -232.5 Q97 -222 74.5 -203 Q52 -184 39 -158 Q26 -132 26 -101 Q26 -81 29 -63 L112 -63 Q110 -70 110 -77 Q110 -84 110 -91 Q110 -129 135.5 -150 Q161 -171 198 -171 Q219 -171 238.5 -164 Q258 -157 272.5 -143.5 Q287 -130 295.5 -112 Q304 -94 304 -71 Q304 -30 275 -1 L103 170 Q81 191 69.5 220 Q58 249 58 279 Q58 336 90.5 375 Q123 414 171 440 Q158 458 152.5 480 Q147 502 147 524 Q147 567 162.5 602 Q178 637 204.5 661 Q231 685 267 698 Q303 711 345 711 Q376 711 405.5 701 Q435 691 458 672.5 Q481 654 495 628 Q509 602 509 569 Z M392 173 Q392 190 386 207 Q380 224 368 236 L212 394 Q183 380 163 355 Q143 330 143 296 Q143 279 149 261.5 Q155 244 167 232 L323 74 Q352 88 372 113.5 Q392 139 392 173 Z " />
<glyph glyph-name="bullet" unicode="&#x2022;" horiz-adv-x="441" d="M336 292 Q336 265 326 241 Q316 217 299 199.5 Q282 182 259 171.5 Q236 161 209 161 Q182 161 159 171.5 Q136 182 118.5 199.5 Q101 217 91 241 Q81 265 81 292 Q81 319 91 343 Q101 367 118.5 384.5 Q136 402 159 412.5 Q182 423 209 423 Q236 423 259 412.5 Q282 402 299 384.5 Q316 367 326 343 Q336 319 336 292 Z " />
<glyph glyph-name="paragraph" unicode="&#xb6;" horiz-adv-x="653" d="M625 640 L556 640 L422 -125 L349 -125 L483 640 L371 640 L237 -125 L162 -125 L242 332 Q209 332 180.5 345 Q152 358 130.5 380 Q109 402 96.5 431.5 Q84 461 84 495 Q84 542 101 581.5 Q118 621 149 649.5 Q180 678 221.5 693.5 Q263 709 313 709 L637 709 L625 640 Z " />
<glyph glyph-name="germandbls" unicode="&#xdf;" horiz-adv-x="598" d="M544 564 Q544 533 535 503.5 Q526 474 508.5 450 Q491 426 466 409 Q441 392 409 387 Q439 381 462 365 Q485 349 501 326.5 Q517 304 525.5 277 Q534 250 534 220 Q534 170 516.5 128 Q499 86 468 55 Q437 24 394 6.5 Q351 -11 300 -11 Q246 -11 193 6 L205 76 Q225 70 247.5 67 Q270 64 291 64 Q365 64 406 107 Q447 150 447 223 Q447 254 436 278 Q425 302 406.5 318.5 Q388 335 363 343 Q338 351 311 351 L284 351 L297 425 L334 425 Q361 425 384 436.5 Q407 448 423 467 Q439 486 448 510.5 Q457 535 457 561 Q457 609 429 633 Q401 657 356 657 Q327 657 304.5 646 Q282 635 265.5 616 Q249 597 238 571.5 Q227 546 222 518 L132 0 L46 0 L120 427 L34 427 L47 503 L133 503 L136 520 Q144 566 163 604.5 Q182 643 210.5 670.5 Q239 698 277 713.5 Q315 729 361 729 Q402 729 435.5 716.5 Q469 704 493 682 Q517 660 530.5 629.5 Q544 599 544 564 Z " />
<glyph glyph-name="registered" unicode="&#xae;" horiz-adv-x="858" d="M790 355 Q790 278 762.5 211 Q735 144 687 94 Q639 44 573 15.5 Q507 -13 429 -13 Q351 -13 285 15.5 Q219 44 171 93.5 Q123 143 95.5 210 Q68 277 68 354 Q68 431 95.5 498 Q123 565 171 615 Q219 665 285 693.5 Q351 722 429 722 Q507 722 573 693.5 Q639 665 687 615.5 Q735 566 762.5 499 Q790 432 790 355 Z M723 355 Q723 421 702 476.5 Q681 532 642.5 572.5 Q604 613 549.5 635.5 Q495 658 429 658 Q363 658 308.5 635 Q254 612 215.5 571.5 Q177 531 156 475.5 Q135 420 135 354 Q135 288 156 232.5 Q177 177 215.5 136.5 Q254 96 308.5 73.5 Q363 51 429 51 Q495 51 549.5 74 Q604 97 642.5 137.5 Q681 178 702 233.5 Q723 289 723 355 Z M510 169 L446 310 L371 310 L371 169 L304 169 L304 552 L445 552 Q472 552 497 544 Q522 536 540.5 521 Q559 506 570 483.5 Q581 461 581 432 Q581 394 564 365.5 Q547 337 512 321 L583 169 L510 169 Z M511 432 Q511 461 491.5 475.5 Q472 490 445 490 L370 490 L370 372 L445 372 Q475 372 493 386 Q511 400 511 432 Z " />
<glyph glyph-name="copyright" unicode="&#xa9;" horiz-adv-x="858" d="M790 355 Q790 278 762.5 211 Q735 144 687 94 Q639 44 573 15.5 Q507 -13 429 -13 Q351 -13 285 15.5 Q219 44 171 93.5 Q123 143 95.5 210 Q68 277 68 354 Q68 431 95.5 498 Q123 565 171 615 Q219 665 285 693.5 Q351 722 429 722 Q507 722 573 693.5 Q639 665 687 615.5 Q735 566 762.5 499 Q790 432 790 355 Z M723 355 Q723 421 702 476.5 Q681 532 642.5 572.5 Q604 613 549.5 635.5 Q495 658 429 658 Q363 658 308.5 635 Q254 612 215.5 571.5 Q177 531 156 475.5 Q135 420 135 354 Q135 288 156 232.5 Q177 177 215.5 136.5 Q254 96 308.5 73.5 Q363 51 429 51 Q495 51 549.5 74 Q604 97 642.5 137.5 Q681 178 702 233.5 Q723 289 723 355 Z M601 300 Q598 268 584 241.5 Q570 215 548 196 Q526 177 497 166.5 Q468 156 435 156 Q388 156 352.5 176 Q317 196 294 228 Q273 258 264.5 287 Q256 316 256 354 Q256 394 268 430 Q280 466 303 493 Q326 520 359 536 Q392 552 435 552 Q469 552 498.5 541.5 Q528 531 550 511.5 Q572 492 585 465.5 Q598 439 601 408 L525 408 Q520 449 494.5 468 Q469 487 435 487 Q412 487 393 477.5 Q374 468 361 452 Q345 432 338 406.5 Q331 381 331 354 Q331 327 337.5 301.5 Q344 276 360 256 Q373 240 392.5 230.5 Q412 221 435 221 Q469 221 494.5 240 Q520 259 525 300 L601 300 Z " />
<glyph glyph-name="trademark" unicode="&#x2122;" horiz-adv-x="833" d="M754 318 L685 318 L741 638 L581 328 L532 328 L482 637 L426 318 L357 318 L426 709 L531 709 L573 429 L715 709 L823 709 L754 318 Z M360 647 L250 647 L192 318 L123 318 L181 647 L70 647 L81 709 L371 709 L360 647 Z " />
<glyph glyph-name="acute" unicode="&#xb4;" horiz-adv-x="240" d="M77 551 L52 601 L244 723 L279 650 L77 551 Z " />
<glyph glyph-name="dieresis" unicode="&#xa8;" horiz-adv-x="286" d="M320 599 L228 599 L244 691 L336 691 L320 599 Z M144 599 L52 599 L68 691 L160 691 L144 599 Z " />
<glyph glyph-name="notequal" unicode="&#x2260;" horiz-adv-x="688" d="M266 134 L183 16 L133 51 L191 134 L103 134 L103 211 L245 211 L338 344 L103 344 L103 421 L392 421 L471 534 L521 499 L466 421 L585 421 L585 344 L413 344 L319 211 L585 211 L585 134 L266 134 Z " />
<glyph glyph-name="AE" unicode="&#xc6;" horiz-adv-x="910" d="M906 626 L573 626 L537 421 L823 421 L808 337 L522 337 L477 84 L815 84 L800 0 L372 0 L406 189 L154 189 L38 0 L-63 0 L383 709 L921 709 L906 626 Z M425 629 L206 273 L421 273 L483 629 L425 629 Z " />
<glyph glyph-name="Oslash" unicode="&#xd8;" horiz-adv-x="655" d="M613 456 Q613 408 606 354 Q599 300 583 247.5 Q567 195 542 148 Q517 101 481 66 Q443 30 396 8.5 Q349 -13 289 -13 Q249 -13 215 -3 Q181 7 153 24 L95 -69 L44 -43 L109 60 Q75 96 57.5 145.5 Q40 195 40 253 Q40 301 47.5 355 Q55 409 71.5 461.5 Q88 514 113.5 561 Q139 608 175 643 Q213 679 259.5 700.5 Q306 722 366 722 Q408 722 442 712 Q476 702 504 684 L557 768 L607 743 L547 647 Q580 611 596.5 562 Q613 513 613 456 Z M456 609 Q419 637 361 637 Q322 637 291.5 621 Q261 605 237 581 Q210 554 190 514 Q170 474 157 429.5 Q144 385 137.5 340 Q131 295 131 258 Q131 225 138 195 Q145 165 160 141 L456 609 Z M521 451 Q521 483 515 512.5 Q509 542 495 565 L201 99 Q239 72 294 72 Q333 72 364 87.5 Q395 103 419 127 Q446 154 465.5 194 Q485 234 497 279 Q509 324 515 369 Q521 414 521 451 Z " />
<glyph glyph-name="infinity" unicode="&#x221e;" horiz-adv-x="717" d="M648 328 L537 328 L492 76 L602 76 L589 0 L271 0 Q231 0 194 10.5 Q157 21 128 42.5 Q99 64 81.5 96.5 Q64 129 64 173 Q64 208 76 239 Q88 270 109 295.5 Q130 321 158 340.5 Q186 360 218 372 Q180 389 156.5 426 Q133 463 133 509 Q133 544 147.5 579 Q162 614 187 639 Q225 677 276 693 Q327 709 380 709 Q402 709 423.5 705 Q445 701 466 696 L452 619 Q432 624 412 627 Q392 630 372 630 Q343 630 316.5 622.5 Q290 615 270 599 Q250 583 238 559.5 Q226 536 226 505 Q226 480 236 461 Q246 442 262.5 429 Q279 416 301 409.5 Q323 403 347 403 L464 403 L484 518 L570 518 L550 403 L661 403 L648 328 Z M317 328 Q283 328 253.5 316.5 Q224 305 201.5 285 Q179 265 166 238 Q153 211 153 180 Q153 152 164 132 Q175 112 193.5 99.5 Q212 87 235.5 81.5 Q259 76 284 76 L407 76 L451 328 L317 328 Z " />
<glyph glyph-name="plusminus" unicode="&#xb1;" horiz-adv-x="565" d="M318 332 L318 145 L248 145 L248 332 L63 332 L63 402 L248 402 L248 587 L318 587 L318 402 L502 402 L502 332 L318 332 Z M63 0 L63 69 L502 69 L502 0 L63 0 Z " />
<glyph glyph-name="lessequal" unicode="&#x2264;" horiz-adv-x="853" d="M178 269 L413 37 L365 -13 L45 305 L365 623 L413 573 L178 341 L782 341 L782 269 L178 269 Z " />
<glyph glyph-name="greaterequal" unicode="&#x2265;" horiz-adv-x="853" d="M473 -13 L425 37 L659 269 L55 269 L55 341 L659 341 L425 573 L473 623 L792 305 L473 -13 Z " />
<glyph glyph-name="yen" unicode="&#xa5;" horiz-adv-x="556" d="M370 382 L502 382 L491 321 L315 321 L299 230 L475 230 L465 169 L289 169 L259 0 L173 0 L203 169 L39 169 L49 230 L214 230 L230 321 L65 321 L76 382 L197 382 L74 695 L163 695 L283 386 L505 695 L604 695 L370 382 Z " />
<glyph glyph-name="mu" unicode="&#xb5;" horiz-adv-x="586" d="M413 0 L406 77 Q386 33 343.5 10.5 Q301 -12 256 -12 Q230 -12 206 -4.5 Q182 3 168 14 L168 -200 L83 -200 L83 506 L168 506 L168 186 Q168 129 192 97 Q216 65 276 65 Q302 65 322.5 75.5 Q343 86 360 103 Q384 128 393 166 Q402 204 402 243 L402 506 L487 506 L487 0 L413 0 Z " />
<glyph glyph-name="partialdiff" unicode="&#x2202;" horiz-adv-x="556" d="M436 0 L54 0 L68 78 L217 78 L308 595 L123 479 L139 577 L331 695 L414 695 L305 78 L450 78 L436 0 Z " />
<glyph glyph-name="summation" unicode="&#x2211;" horiz-adv-x="924" d="M17 -73 L17 148 L64 148 L64 -27 L747 -27 L747 148 L793 148 L793 -73 L17 -73 Z " />
<glyph glyph-name="product" unicode="&#x220f;" horiz-adv-x="808" d="M745 867 Q745 859 739 852.5 Q733 846 725 846 Q717 846 710.5 852.5 Q704 859 704 867 Q704 875 710.5 881 Q717 887 725 887 Q733 887 739 881 Q745 875 745 867 Z M744 615 Q744 606 737 600 Q730 594 722 594 Q713 594 708 600.5 Q703 607 703 615 Q703 623 709.5 629.5 Q716 636 724 636 Q732 636 738 629.5 Q744 623 744 615 Z M490 867 Q490 859 483.5 852.5 Q477 846 469 846 Q461 846 454.5 852.5 Q448 859 448 867 Q448 875 454.5 881 Q461 887 469 887 Q477 887 483.5 881 Q490 875 490 867 Z M618 737 Q618 729 612 723 Q606 717 598 717 Q590 717 583.5 723 Q577 729 577 737 Q577 745 583.5 751.5 Q590 758 598 758 Q606 758 612 751.5 Q618 745 618 737 Z M742 365 Q742 357 735.5 350.5 Q729 344 721 344 Q713 344 706.5 350.5 Q700 357 700 365 Q700 373 706.5 379 Q713 385 721 385 Q729 385 735.5 379 Q742 373 742 365 Z M489 615 Q489 607 482.5 600.5 Q476 594 468 594 Q460 594 453.5 600.5 Q447 607 447 615 Q447 623 453.5 629.5 Q460 636 468 636 Q476 636 482.5 629.5 Q489 623 489 615 Z M617 486 Q617 478 610.5 471.5 Q604 465 596 465 Q588 465 582 471.5 Q576 478 576 486 Q576 494 582 500.5 Q588 507 596 507 Q604 507 610.5 500.5 Q617 494 617 486 Z M235 867 Q235 859 228.5 852.5 Q222 846 214 846 Q206 846 200 852.5 Q194 859 194 867 Q194 875 200 881 Q206 887 214 887 Q222 887 228.5 881 Q235 875 235 867 Z M363 737 Q363 729 356.5 723 Q350 717 342 717 Q334 717 327.5 723 Q321 729 321 737 Q321 745 327.5 751.5 Q334 758 342 758 Q350 758 356.5 751.5 Q363 745 363 737 Z M743 113 Q743 105 736.5 98.5 Q730 92 722 92 Q714 92 707.5 98.5 Q701 105 701 113 Q701 121 707.5 127.5 Q714 134 722 134 Q730 134 736.5 127.5 Q743 121 743 113 Z M486 365 Q486 357 479.5 350.5 Q473 344 465 344 Q457 344 450.5 350.5 Q444 357 444 365 Q444 373 450.5 379 Q457 385 465 385 Q473 385 479.5 379 Q486 373 486 365 Z M614 236 Q614 228 608 221.5 Q602 215 594 215 Q586 215 579.5 221.5 Q573 228 573 236 Q573 244 579.5 250 Q586 256 594 256 Q602 256 608 250 Q614 244 614 236 Z M234 615 Q234 607 227.5 600.5 Q221 594 213 594 Q205 594 198.5 600.5 Q192 607 192 615 Q192 623 198.5 629.5 Q205 636 213 636 Q221 636 227.5 629.5 Q234 623 234 615 Z M361 486 Q361 478 355 471.5 Q349 465 341 465 Q333 465 326.5 471.5 Q320 478 320 486 Q320 494 326.5 500.5 Q333 507 341 507 Q349 507 355 500.5 Q361 494 361 486 Z M108 737 Q108 729 101.5 723 Q95 717 87 717 Q79 717 72.5 723 Q66 729 66 737 Q66 745 72.5 751.5 Q79 758 87 758 Q95 758 101.5 751.5 Q108 745 108 737 Z M743 -139 Q743 -147 736.5 -153.5 Q730 -160 722 -160 Q714 -160 707.5 -153.5 Q701 -147 701 -139 Q701 -131 707.5 -124.5 Q714 -118 722 -118 Q730 -118 736.5 -124.5 Q743 -131 743 -139 Z M487 113 Q487 105 480.5 98.5 Q474 92 466 92 Q458 92 451.5 98.5 Q445 105 445 113 Q445 121 451.5 127.5 Q458 134 466 134 Q474 134 480.5 127.5 Q487 121 487 113 Z M615 -16 Q615 -24 609 -30.5 Q603 -37 595 -37 Q587 -37 580.5 -30.5 Q574 -24 574 -16 Q574 -8 580.5 -1.5 Q587 5 595 5 Q603 5 609 -1.5 Q615 -8 615 -16 Z M231 365 Q231 357 224.5 350.5 Q218 344 210 344 Q202 344 196 350.5 Q190 357 190 365 Q190 373 196 379 Q202 385 210 385 Q218 385 224.5 379 Q231 373 231 365 Z M359 236 Q359 228 352.5 221.5 Q346 215 338 215 Q330 215 323.5 221.5 Q317 228 317 236 Q317 244 323.5 250 Q330 256 338 256 Q346 256 352.5 250 Q359 244 359 236 Z M107 486 Q107 478 100.5 471.5 Q94 465 86 465 Q78 465 71.5 471.5 Q65 478 65 486 Q65 494 71.5 500.5 Q78 507 86 507 Q94 507 100.5 500.5 Q107 494 107 486 Z M487 -139 Q487 -147 480.5 -153.5 Q474 -160 466 -160 Q458 -160 451.5 -153.5 Q445 -147 445 -139 Q445 -131 451.5 -124.5 Q458 -118 466 -118 Q474 -118 480.5 -124.5 Q487 -131 487 -139 Z M615 -268 Q615 -276 609 -282.5 Q603 -289 595 -289 Q587 -289 580.5 -282.5 Q574 -276 574 -268 Q574 -260 580.5 -254 Q587 -248 595 -248 Q603 -248 609 -254 Q615 -260 615 -268 Z M232 113 Q232 105 226 98.5 Q220 92 212 92 Q204 92 197.5 98.5 Q191 105 191 113 Q191 121 197.5 127.5 Q204 134 212 134 Q220 134 226 127.5 Q232 121 232 113 Z M360 -16 Q360 -24 353.5 -30.5 Q347 -37 339 -37 Q331 -37 324.5 -30.5 Q318 -24 318 -16 Q318 -8 324.5 -1.5 Q331 5 339 5 Q347 5 353.5 -1.5 Q360 -8 360 -16 Z M104 236 Q104 228 97.5 221.5 Q91 215 83 215 Q75 215 69 221.5 Q63 228 63 236 Q63 244 69 250 Q75 256 83 256 Q91 256 97.5 250 Q104 244 104 236 Z M232 -139 Q232 -147 225.5 -153.5 Q219 -160 211 -160 Q203 -160 197 -153.5 Q191 -147 191 -139 Q191 -131 197 -124.5 Q203 -118 211 -118 Q219 -118 225.5 -124.5 Q232 -131 232 -139 Z M360 -268 Q360 -276 353.5 -282.5 Q347 -289 339 -289 Q331 -289 324.5 -282.5 Q318 -276 318 -268 Q318 -260 324.5 -254 Q331 -248 339 -248 Q347 -248 353.5 -254 Q360 -260 360 -268 Z M105 -16 Q105 -24 98.5 -30.5 Q92 -37 84 -37 Q76 -37 70 -30.5 Q64 -24 64 -16 Q64 -8 70 -1.5 Q76 5 84 5 Q92 5 98.5 -1.5 Q105 -8 105 -16 Z M105 -268 Q105 -276 98.5 -282.5 Q92 -289 84 -289 Q76 -289 69.5 -282.5 Q63 -276 63 -268 Q63 -260 69.5 -254 Q76 -248 84 -248 Q92 -248 98.5 -254 Q105 -260 105 -268 Z " />
<glyph glyph-name="pi" unicode="&#x3c0;" horiz-adv-x="636" d="M560 4 Q556 2 539.5 -2.5 Q523 -7 493 -7 Q463 -7 442 3.5 Q421 14 408 31.5 Q395 49 389.5 71.5 Q384 94 384 118 L384 438 L217 438 L217 -1 L133 -1 L133 438 L55 438 L55 506 L546 506 L546 438 L469 438 L469 128 Q469 101 478 83.5 Q487 66 515 66 Q536 66 546 67.5 Q556 69 560 71 L560 4 Z " />
<glyph glyph-name="integral" unicode="&#x222b;" horiz-adv-x="659" d="M576 164 L149 591 L149 260 L79 260 L79 709 L530 709 L530 642 L200 642 L627 215 L576 164 Z " />
<glyph glyph-name="ordfeminine" unicode="&#xaa;" horiz-adv-x="480" d="M426 315 Q415 309 404.5 307 Q394 305 382 305 Q356 305 341 321.5 Q326 338 324 361 Q307 333 275 317 Q243 301 203 301 Q170 301 144.5 311 Q119 321 102.5 338 Q86 355 77.5 376.5 Q69 398 69 421 Q69 440 76 460.5 Q83 481 99 498.5 Q115 516 141.5 528 Q168 540 208 543 L321 550 L321 576 Q321 590 318.5 606.5 Q316 623 303 634 Q294 642 279 647.5 Q264 653 241 653 Q215 653 199 647 Q183 641 173 631 Q155 613 155 583 L88 583 Q89 616 101.5 640 Q114 664 135 679 Q156 694 183.5 701.5 Q211 709 241 709 Q298 709 331 687.5 Q364 666 378 634 Q384 620 386 605.5 Q388 591 388 574 L388 388 Q388 373 393.5 368.5 Q399 364 408 364 Q415 364 419 365 Q423 365 426 366 L426 315 Z M321 496 L221 490 Q206 489 191.5 485 Q177 481 165.5 473 Q154 465 146.5 453 Q139 441 139 423 Q139 398 155.5 378.5 Q172 359 213 359 Q235 359 254.5 366 Q274 373 289 389 Q306 406 313.5 429 Q321 452 321 475 L321 496 Z " />
<glyph glyph-name="ordmasculine" unicode="&#xba;" horiz-adv-x="480" d="M435 505 Q435 459 424 418.5 Q413 378 381 346 Q360 325 330.5 312.5 Q301 300 264 300 Q227 300 198 312.5 Q169 325 148 346 Q116 378 104.5 418.5 Q93 459 93 505 Q93 551 104.5 591 Q116 631 148 663 Q169 684 198 696.5 Q227 709 264 709 Q301 709 330.5 696.5 Q360 684 381 663 Q413 631 424 591 Q435 551 435 505 Z M365 505 Q365 539 358 570.5 Q351 602 331 623 Q307 649 264 649 Q241 649 225 642 Q209 635 198 623 Q178 602 171 570.5 Q164 539 164 505 Q164 471 171 439 Q178 407 198 386 Q209 374 225 367 Q241 360 264 360 Q307 360 331 386 Q351 407 358 439 Q365 471 365 505 Z " />
<glyph glyph-name="uni03A9" unicode="&#x3a9;" horiz-adv-x="858" d="M790 355 Q790 278 762.5 211 Q735 144 687 94 Q639 44 573 15.5 Q507 -13 429 -13 Q351 -13 285 15.5 Q219 44 171 93.5 Q123 143 95.5 210 Q68 277 68 354 Q68 431 95.5 498 Q123 565 171 615 Q219 665 285 693.5 Q351 722 429 722 Q507 722 573 693.5 Q639 665 687 615.5 Q735 566 762.5 499 Q790 432 790 355 Z M723 355 Q723 421 702 476.5 Q681 532 642.5 572.5 Q604 613 549.5 635.5 Q495 658 429 658 Q363 658 308.5 635 Q254 612 215.5 571.5 Q177 531 156 475.5 Q135 420 135 354 Q135 288 156 232.5 Q177 177 215.5 136.5 Q254 96 308.5 73.5 Q363 51 429 51 Q495 51 549.5 74 Q604 97 642.5 137.5 Q681 178 702 233.5 Q723 289 723 355 Z M593 421 Q593 392 582 368.5 Q571 345 552.5 329 Q534 313 509 304.5 Q484 296 457 296 L383 296 L383 161 L316 161 L316 544 L457 544 Q484 544 509 535.5 Q534 527 552.5 511.5 Q571 496 582 473 Q593 450 593 421 Z M523 421 Q523 450 503.5 466 Q484 482 457 482 L382 482 L382 358 L457 358 Q487 358 505 373.5 Q523 389 523 421 Z " />
<glyph glyph-name="ae" unicode="&#xe6;" horiz-adv-x="845" d="M788 308 Q788 286 785.5 265 Q783 244 778 226 L430 226 Q429 219 429 212.5 Q429 206 429 199 Q429 136 461 98 Q493 60 553 60 Q591 60 621.5 82 Q652 104 669 142 L754 142 Q731 69 674.5 28 Q618 -13 545 -13 Q491 -13 443.5 14 Q396 41 373 92 Q349 58 315.5 33.5 Q282 9 242 -3 Q208 -13 166 -13 Q130 -13 96.5 0.5 Q63 14 43 37 Q27 55 17.5 75 Q8 95 8 121 Q8 162 23.5 195 Q39 228 65.5 251 Q92 274 127 286 Q162 298 201 298 L360 298 Q364 316 365.5 329 Q367 342 367 360 Q367 378 363 392.5 Q359 407 346 421 Q335 433 318 440.5 Q301 448 278 448 Q232 448 202 431 Q182 419 167.5 399.5 Q153 380 148 357 L65 357 Q74 398 95 428.5 Q116 459 145.5 479 Q175 499 211 509 Q247 519 287 519 Q308 519 329.5 514 Q351 509 370.5 499.5 Q390 490 405.5 475.5 Q421 461 429 442 Q439 453 451.5 464.5 Q464 476 477 484 Q503 500 532 509.5 Q561 519 596 519 Q683 519 735 461 Q763 430 775.5 390 Q788 350 788 308 Z M705 318 Q705 344 697.5 367.5 Q690 391 675.5 408.5 Q661 426 640 436.5 Q619 447 591 447 Q561 447 535.5 434.5 Q510 422 492 402 Q473 382 461 355 Q449 328 441 299 L704 299 Q705 304 705 308.5 Q705 313 705 318 Z M210 231 Q161 231 128 204.5 Q95 178 95 132 Q95 97 120.5 78.5 Q146 60 178 60 Q208 60 232.5 68.5 Q257 77 280 97 Q312 123 328 159.5 Q344 196 350 231 L210 231 Z " />
<glyph glyph-name="oslash" unicode="&#xf8;" horiz-adv-x="546" d="M423 461 Q452 431 466 390.5 Q480 350 480 308 Q480 251 465 193.5 Q450 136 418.5 90.5 Q387 45 339 16 Q291 -13 225 -13 Q177 -13 135 7 L81 -77 L37 -48 L91 37 Q86 41 82.5 45 Q79 49 75 54 Q52 82 39 119 Q26 156 26 198 Q26 255 41 312.5 Q56 370 87.5 415.5 Q119 461 167 490 Q215 519 281 519 Q336 519 382 493 L441 585 L484 557 L423 461 Z M393 306 Q393 328 389 348.5 Q385 369 376 386 L176 73 Q188 67 201.5 63.5 Q215 60 232 60 Q277 60 308 85 Q339 110 357.5 147 Q376 184 384.5 227 Q393 270 393 306 Z M340 427 Q313 446 274 446 Q229 446 198 421 Q167 396 148.5 359 Q130 322 121.5 279 Q113 236 113 200 Q113 174 119 150.5 Q125 127 137 108 L340 427 Z " />
<glyph glyph-name="questiondown" unicode="&#xbf;" horiz-adv-x="495" d="M357 396 L250 396 L269 506 L376 506 L357 396 Z M449 -7 Q441 -49 425.5 -84 Q410 -119 380 -149 Q349 -180 303.5 -198 Q258 -216 205 -216 Q156 -216 120 -201.5 Q84 -187 58 -162 Q10 -116 10 -46 Q10 1 27.5 37 Q45 73 73 102 Q90 120 108 133 Q126 146 143.5 157 Q161 168 177.5 179.5 Q194 191 208 206 Q240 240 249 292 L253 317 L331 317 L327 282 Q322 240 310 211.5 Q298 183 278 162 Q264 147 247.5 135 Q231 123 214.5 111.5 Q198 100 181.5 88.5 Q165 77 150 63 Q130 44 114 22 Q98 0 98 -42 Q98 -61 104 -76 Q110 -91 120 -103 Q135 -121 158.5 -130 Q182 -139 210 -139 Q242 -139 267.5 -129 Q293 -119 311.5 -101 Q330 -83 341.5 -59 Q353 -35 358 -7 L449 -7 Z " />
<glyph glyph-name="exclamdown" unicode="&#xa1;" horiz-adv-x="327" d="M242 394 L135 394 L155 503 L262 503 L242 394 Z M178 18 L138 -206 L32 -206 L72 18 L143 288 L201 288 L178 18 Z " />
<glyph glyph-name="logicalnot" unicode="&#xac;" horiz-adv-x="621" d="M460 99 L460 264 L53 264 L53 341 L538 341 L538 99 L460 99 Z " />
<glyph glyph-name="radical" unicode="&#x221a;" horiz-adv-x="642" d="M586 766 L327 -8 L250 -8 L71 504 L162 504 L289 119 L519 832 L696 832 L696 766 L586 766 Z " />
<glyph glyph-name="florin" unicode="&#x192;" horiz-adv-x="523" d="M485 635 Q480 636 466 638.5 Q452 641 427 641 Q415 641 402 637 Q389 633 377.5 623 Q366 613 356.5 596 Q347 579 342 552 L319 437 L460 437 L460 362 L304 362 L237 23 Q224 -42 182.5 -78.5 Q141 -115 89 -115 Q60 -115 44 -112.5 Q28 -110 14 -107 L14 -32 Q19 -33 33 -35.5 Q47 -38 72 -38 Q84 -38 97 -34 Q110 -30 121.5 -20 Q133 -10 142.5 7 Q152 24 157 51 L219 362 L117 362 L117 437 L234 437 L262 580 Q275 645 316.5 681.5 Q358 718 410 718 Q439 718 455 715.5 Q471 713 485 710 L485 635 Z " />
<glyph glyph-name="approxequal" unicode="&#x2248;" horiz-adv-x="651" d="M570 374 Q546 350 526 335 Q506 320 488 311 Q470 302 453 299 Q436 296 417 296 Q388 296 360 306 Q332 316 302 330 Q283 338 261 346 Q239 354 217 354 Q207 354 196.5 353 Q186 352 174.5 347 Q163 342 149 332.5 Q135 323 118 306 L65 361 Q89 385 109 400 Q129 415 147 424 Q165 433 182 436 Q199 439 218 439 Q240 439 260 434 Q280 429 300 421 Q320 413 339 405 Q358 397 378 390 Q396 383 417 383 Q427 383 437.5 384 Q448 385 459.5 389.5 Q471 394 485 403.5 Q499 413 516 430 L570 374 Z M570 184 Q546 160 526 145 Q506 130 488 121 Q470 112 453 109 Q436 106 417 106 Q388 106 360 115.5 Q332 125 302 139 Q283 147 261 155.5 Q239 164 217 164 Q207 164 196.5 163 Q186 162 174.5 157 Q163 152 149 142.5 Q135 133 118 116 L65 170 Q89 194 109 209 Q129 224 147 233 Q165 242 182 245 Q199 248 218 248 Q240 248 260 243.5 Q280 239 300 231 Q320 223 339 215 Q358 207 378 200 Q399 192 417 192 Q427 192 437.5 193 Q448 194 459.5 198.5 Q471 203 485 212.5 Q499 222 516 239 L570 184 Z " />
<glyph glyph-name="Delta" unicode="&#x2206;" horiz-adv-x="659" d="M518 260 L518 591 L91 164 L40 215 L467 642 L136 642 L136 709 L588 709 L588 260 L518 260 Z " />
<glyph glyph-name="guillemotleft" unicode="&#xab;" horiz-adv-x="546" d="M370 296 L453 101 L392 67 L267 300 L471 528 L521 485 L370 296 Z M136 296 L220 101 L158 67 L33 300 L238 528 L288 485 L136 296 Z " />
<glyph glyph-name="guillemotright" unicode="&#xbb;" horiz-adv-x="546" d="M293 68 L243 111 L394 300 L309 494 L371 527 L497 296 L293 68 Z M59 68 L9 111 L161 300 L75 494 L137 527 L264 296 L59 68 Z " />
<glyph glyph-name="ellipsis" unicode="&#x2026;" horiz-adv-x="801" d="M664 0 L548 0 L569 115 L685 115 L664 0 Z M395 0 L280 0 L301 115 L416 115 L395 0 Z M127 0 L12 0 L33 115 L148 115 L127 0 Z " />
<glyph glyph-name="Agrave" unicode="&#xc0;" horiz-adv-x="615" d="M461 0 L433 168 L124 168 L38 0 L-56 0 L319 709 L423 709 L550 0 L461 0 Z M356 620 L167 252 L418 252 L356 620 Z M451 757 L283 856 L337 925 L486 802 L451 757 Z " />
<glyph glyph-name="Atilde" unicode="&#xc3;" horiz-adv-x="615" d="M461 0 L433 168 L124 168 L38 0 L-56 0 L319 709 L423 709 L550 0 L461 0 Z M356 620 L167 252 L418 252 L356 620 Z M548 834 Q525 811 497.5 795.5 Q470 780 437 780 Q414 780 398 786.5 Q382 793 368.5 801 Q355 809 342 815.5 Q329 822 313 822 Q293 822 277.5 814.5 Q262 807 247 794 L215 836 Q239 859 265.5 874.5 Q292 890 326 890 Q347 890 362.5 883 Q378 876 391.5 868 Q405 860 419 853 Q433 846 450 846 Q470 846 487 854.5 Q504 863 518 876 L548 834 Z " />
<glyph glyph-name="Otilde" unicode="&#xd5;" horiz-adv-x="655" d="M613 456 Q613 408 606 354 Q599 300 583 247.5 Q567 195 542 148 Q517 101 481 66 Q443 30 396 8.5 Q349 -13 289 -13 Q230 -13 184 7.5 Q138 28 106 64 Q74 100 57 148.5 Q40 197 40 253 Q40 301 47.5 355 Q55 409 71.5 461.5 Q88 514 113.5 561 Q139 608 175 643 Q213 679 259.5 700.5 Q306 722 366 722 Q426 722 472 701 Q518 680 549.5 644 Q581 608 597 559.5 Q613 511 613 456 Z M521 451 Q521 490 511.5 523.5 Q502 557 482.5 582.5 Q463 608 433 622.5 Q403 637 361 637 Q322 637 291.5 621 Q261 605 237 581 Q210 554 190 514 Q170 474 157 429.5 Q144 385 137.5 340 Q131 295 131 258 Q131 219 141 185.5 Q151 152 171 126.5 Q191 101 221.5 86.5 Q252 72 294 72 Q333 72 364 87.5 Q395 103 419 127 Q446 154 465.5 194 Q485 234 497 279 Q509 324 515 369 Q521 414 521 451 Z M574 834 Q551 811 523.5 795.5 Q496 780 463 780 Q440 780 424 786.5 Q408 793 394.5 801 Q381 809 368 815.5 Q355 822 339 822 Q319 822 303.5 814.5 Q288 807 273 794 L241 836 Q265 859 291.5 874.5 Q318 890 352 890 Q373 890 388.5 883 Q404 876 417.5 868 Q431 860 445 853 Q459 846 476 846 Q496 846 513 854.5 Q530 863 544 876 L574 834 Z " />
<glyph glyph-name="OE" unicode="&#x152;" horiz-adv-x="1014" d="M1011 627 L645 627 L606 411 L919 411 L904 327 L593 327 L549 82 L919 82 L906 0 L445 0 L454 52 Q422 19 377.5 3 Q333 -13 288 -13 Q229 -13 183 7.5 Q137 28 105 63.5 Q73 99 56.5 147.5 Q40 196 40 253 Q40 302 47.5 356 Q55 410 71.5 462 Q88 514 114 561 Q140 608 176.5 644 Q213 680 260 701 Q307 722 367 722 Q424 722 475 698 Q526 674 554 625 L569 709 L1025 709 L1011 627 Z M519 451 Q519 489 510 522.5 Q501 556 482.5 581.5 Q464 607 434 622 Q404 637 362 637 Q319 637 285.5 618.5 Q252 600 226 569 Q200 538 182 498 Q164 458 152.5 416 Q141 374 136 333 Q131 292 131 258 Q131 219 140.5 185.5 Q150 152 170 126.5 Q190 101 220.5 86.5 Q251 72 293 72 Q337 72 370.5 90.5 Q404 109 429 140 Q454 171 471.5 210.5 Q489 250 499.5 292 Q510 334 514.5 375.5 Q519 417 519 451 Z " />
<glyph glyph-name="oe" unicode="&#x153;" horiz-adv-x="882" d="M826 308 Q826 262 817 226 L464 226 Q463 219 463 212.5 Q463 206 463 199 Q463 136 495 98 Q527 60 588 60 Q628 60 657.5 82 Q687 104 704 142 L792 142 Q769 69 711.5 28 Q654 -13 579 -13 Q551 -13 524.5 -5.5 Q498 2 475.5 16 Q453 30 435 51 Q417 72 407 98 Q390 70 371 49.5 Q352 29 326 14 Q297 -2 274 -7.5 Q251 -13 218 -13 Q173 -13 137 5 Q101 23 74 55 Q51 83 38.5 119.5 Q26 156 26 198 Q26 270 49 339.5 Q72 409 121 457 Q151 486 189 502.5 Q227 519 278 519 Q301 519 323 513 Q345 507 365 496 Q418 466 441 413 Q466 453 506 480 Q531 497 560.5 508 Q590 519 632 519 Q674 519 709 505 Q744 491 772 461 Q801 430 813.5 390 Q826 350 826 308 Z M741 318 Q741 344 734 367.5 Q727 391 713 408.5 Q699 426 677.5 436.5 Q656 447 627 447 Q596 447 570 434 Q544 421 525 401 Q505 381 493 354.5 Q481 328 474 299 L740 299 Q741 304 741 308.5 Q741 313 741 318 Z M387 306 Q387 333 380.5 358.5 Q374 384 359.5 403.5 Q345 423 323 434.5 Q301 446 271 446 Q226 446 195.5 421 Q165 396 147 359 Q129 322 121 279 Q113 236 113 200 Q113 173 119.5 147.5 Q126 122 140.5 102.5 Q155 83 177 71.5 Q199 60 229 60 Q253 60 272.5 68.5 Q292 77 308 90 Q330 108 345 134 Q360 160 369.5 189.5 Q379 219 383 249 Q387 279 387 306 Z " />
<glyph glyph-name="endash" unicode="&#x2013;" horiz-adv-x="651" d="M567 262 L52 262 L66 341 L581 341 L567 262 Z " />
<glyph glyph-name="emdash" unicode="&#x2014;" horiz-adv-x="1121" d="M1037 262 L52 262 L66 341 L1051 341 L1037 262 Z " />
<glyph glyph-name="quotedblleft" unicode="&#x201c;" horiz-adv-x="468" d="M444 672 Q406 657 386.5 629 Q367 601 360 562 L423 562 L402 445 L279 445 L300 562 Q310 618 341 658 Q372 698 426 719 L444 672 Z M247 672 Q209 657 189.5 629 Q170 601 163 562 L226 562 L205 445 L82 445 L103 562 Q113 618 144 658 Q175 698 229 719 L247 672 Z " />
<glyph glyph-name="quotedblright" unicode="&#x201d;" horiz-adv-x="458" d="M432 592 Q422 536 393.5 497 Q365 458 306 435 L288 482 Q309 491 323.5 501 Q338 511 347.5 524 Q357 537 362.5 554 Q368 571 372 592 L309 592 L330 709 L453 709 L432 592 Z M235 592 Q225 536 196.5 497 Q168 458 109 435 L91 482 Q112 491 126.5 501 Q141 511 150.5 524 Q160 537 165.5 554 Q171 571 175 592 L112 592 L133 709 L256 709 L235 592 Z " />
<glyph glyph-name="quoteleft" unicode="&#x2018;" horiz-adv-x="271" d="M245 672 Q207 657 187.5 629 Q168 601 161 562 L224 562 L203 445 L80 445 L101 562 Q111 618 142 658 Q173 698 227 719 L245 672 Z " />
<glyph glyph-name="quoteright" unicode="&#x2019;" horiz-adv-x="261" d="M236 592 Q226 536 197.5 497 Q169 458 110 435 L92 482 Q113 491 127.5 501 Q142 511 151.5 524 Q161 537 166.5 554 Q172 571 176 592 L113 592 L134 709 L257 709 L236 592 Z " />
<glyph glyph-name="divide" unicode="&#xf7;" horiz-adv-x="648" d="M257 442 L257 560 L371 560 L371 442 L257 442 Z M65 261 L65 339 L567 339 L567 261 L65 261 Z M257 48 L257 166 L371 166 L371 48 L257 48 Z " />
<glyph glyph-name="lozenge" unicode="&#x25ca;" horiz-adv-x="556" d="M524 480 Q524 442 519.5 404 Q515 366 508 328 Q501 288 492 247 Q483 206 468 167 Q453 128 430.5 94 Q408 60 374 33 Q315 -13 239 -13 Q194 -13 160 1 Q126 15 100 38 Q65 69 48.5 114 Q32 159 32 216 Q32 254 37 292 Q42 330 49 368 Q56 408 65 449 Q74 490 89 529 Q104 568 126 602 Q148 636 182 663 Q240 709 317 709 Q366 709 403 693 Q440 677 466 650 Q495 619 509.5 576 Q524 533 524 480 Z M436 518 Q433 540 424.5 560.5 Q416 581 401 597 Q386 613 364.5 622 Q343 631 315 631 Q266 631 235 605 Q204 579 185 540 Q166 501 156 456 Q146 411 139 372 Q131 341 128 308.5 Q125 276 120 244 L436 518 Z M125 157 Q131 118 161 91.5 Q191 65 242 65 Q291 65 322 91 Q353 117 372 156 Q391 195 401 240 Q411 285 418 324 Q424 349 427 375 Q430 401 434 426 L125 157 Z " />
<glyph glyph-name="ydieresis" unicode="&#xff;" horiz-adv-x="497" d="M164 -127 Q142 -167 110.5 -190.5 Q79 -214 34 -214 Q4 -214 -21 -204.5 Q-46 -195 -64 -183 L-52 -117 Q-38 -125 -19.5 -133 Q-1 -141 22 -141 Q46 -141 61.5 -130 Q77 -119 87 -101 L146 6 L35 506 L124 506 L206 110 L417 506 L511 506 L164 -127 Z M242 599 L150 599 L166 691 L258 691 L242 599 Z M418 599 L326 599 L342 691 L434 691 L418 599 Z " />
<glyph glyph-name="Ydieresis" unicode="&#x178;" horiz-adv-x="555" d="M303 287 L253 0 L162 0 L214 287 L53 709 L144 709 L271 372 L515 709 L616 709 L303 287 Z M292 778 L200 778 L216 870 L308 870 L292 778 Z M468 778 L376 778 L392 870 L484 870 L468 778 Z " />
<glyph glyph-name="fraction" unicode="&#x2044;" horiz-adv-x="584" d="M61 -21 L7 20 L522 724 L577 685 L61 -21 Z " />
<glyph glyph-name="currency" unicode="&#xa4;" horiz-adv-x="556" d="M461 -12 L391 66 Q363 46 331 35.5 Q299 25 262 25 Q225 25 193.5 35.5 Q162 46 133 66 L64 -12 L-1 52 L78 120 Q58 148 47 183 Q36 218 36 254 Q36 290 47 325 Q58 360 78 388 L-1 453 L65 519 L132 442 Q190 482 262 482 Q334 482 391 442 L460 520 L525 453 L447 388 Q467 360 478 325 Q489 290 489 254 Q489 218 478 183 Q467 148 447 120 L525 52 L461 -12 Z M407 254 Q407 285 397 312.5 Q387 340 368 360 Q349 380 322.5 392 Q296 404 262 404 Q225 404 198 392.5 Q171 381 153 361 Q135 341 126 313.5 Q117 286 117 254 Q117 225 126.5 197.5 Q136 170 154.5 149 Q173 128 200 115.5 Q227 103 262 103 Q297 103 324 115 Q351 127 369.5 147 Q388 167 397.5 194.5 Q407 222 407 254 Z " />
<glyph glyph-name="guilsinglleft" unicode="&#x2039;" horiz-adv-x="313" d="M136 296 L221 101 L160 67 L33 300 L238 528 L288 485 L136 296 Z " />
<glyph glyph-name="guilsinglright" unicode="&#x203a;" horiz-adv-x="313" d="M59 68 L9 111 L161 300 L76 494 L138 527 L264 296 L59 68 Z " />
<glyph glyph-name="fi" unicode="&#xfb01;" horiz-adv-x="625" d="M588 622 L489 622 L507 722 L606 722 L588 622 Z M472 0 L385 0 L475 506 L562 506 L472 0 Z M407 634 Q384 642 366 647 Q348 652 321 652 Q291 652 269 635 Q247 618 242 589 L227 506 L374 506 L361 434 L214 434 L138 0 L53 0 L130 434 L38 434 L51 506 L142 506 L159 602 Q163 627 176 649.5 Q189 672 209.5 688.5 Q230 705 257 715 Q284 725 317 725 Q349 725 372.5 719.5 Q396 714 420 706 L407 634 Z " />
<glyph glyph-name="daggerdbl" unicode="&#x2021;" horiz-adv-x="562" d="M519 433 L332 433 L282 151 L469 151 L456 78 L269 78 L233 -125 L151 -125 L187 78 L0 78 L13 151 L200 151 L250 433 L63 433 L75 506 L262 506 L298 709 L380 709 L344 506 L531 506 L519 433 Z " />
<glyph glyph-name="periodcentered" unicode="&#xb7;" horiz-adv-x="294" d="M187 247 L69 247 L90 366 L208 366 L187 247 Z " />
<glyph glyph-name="quotesinglbase" unicode="&#x201a;" horiz-adv-x="275" d="M141 0 Q131 -56 102.5 -95 Q74 -134 15 -157 L-3 -110 Q18 -101 32.5 -91 Q47 -81 56.5 -68 Q66 -55 71.5 -38 Q77 -21 81 0 L18 0 L39 117 L162 117 L141 0 Z " />
<glyph glyph-name="quotedblbase" unicode="&#x201e;" horiz-adv-x="488" d="M343 0 Q333 -56 304.5 -95 Q276 -134 217 -157 L199 -110 Q220 -101 234.5 -91 Q249 -81 258.5 -68 Q268 -55 273.5 -38 Q279 -21 283 0 L220 0 L241 117 L364 117 L343 0 Z M145 0 Q135 -56 106.5 -95 Q78 -134 19 -157 L1 -110 Q22 -101 36.5 -91 Q51 -81 60.5 -68 Q70 -55 75.5 -38 Q81 -21 85 0 L22 0 L43 117 L166 117 L145 0 Z " />
<glyph glyph-name="perthousand" unicode="&#x2030;" horiz-adv-x="1171" d="M1087 203 Q1087 183 1084 161 Q1081 139 1074.5 117.5 Q1068 96 1058 76.5 Q1048 57 1034 42 Q1012 19 982.5 3 Q953 -13 915 -13 Q883 -13 857 -2 Q831 9 813 28.5 Q795 48 785 74 Q775 100 775 131 Q775 151 778 173.5 Q781 196 788 217.5 Q795 239 804.5 258.5 Q814 278 828 293 Q850 316 880 331.5 Q910 347 948 347 Q980 347 1006 336 Q1032 325 1050 305.5 Q1068 286 1077.5 260 Q1087 234 1087 203 Z M401 579 Q401 559 398 537 Q395 515 388.5 493.5 Q382 472 372 452.5 Q362 433 348 418 Q326 395 296.5 379 Q267 363 229 363 Q164 363 126.5 403.5 Q89 444 89 506 Q89 526 92 548.5 Q95 571 102 592.5 Q109 614 118.5 633.5 Q128 653 142 668 Q164 691 194 707 Q224 723 262 723 Q294 723 320 712 Q346 701 364 681.5 Q382 662 391.5 636 Q401 610 401 579 Z M118 -24 L74 20 L717 728 L761 685 L118 -24 Z M736 203 Q736 162 723 117 Q710 72 682 42 Q660 19 630.5 3 Q601 -13 563 -13 Q531 -13 505 -2 Q479 9 461 28.5 Q443 48 433 74 Q423 100 423 131 Q423 151 426.5 173.5 Q430 196 436.5 217.5 Q443 239 453 258.5 Q463 278 477 293 Q499 316 528.5 331.5 Q558 347 596 347 Q628 347 654 336 Q680 325 698 305.5 Q716 286 726 260 Q736 234 736 203 Z M1015 201 Q1015 236 998 260 Q981 284 943 284 Q927 284 915.5 279 Q904 274 894 266 Q882 255 873 239 Q864 223 858 205 Q852 187 849 168 Q846 149 846 133 Q846 98 863.5 74 Q881 50 919 50 Q935 50 946.5 55 Q958 60 968 68 Q981 78 990 94.5 Q999 111 1004.5 129 Q1010 147 1012.5 166 Q1015 185 1015 201 Z M329 577 Q329 612 312 636 Q295 660 257 660 Q241 660 229.5 655 Q218 650 208 642 Q196 631 187 615 Q178 599 172 581 Q166 563 163 544 Q160 525 160 509 Q160 474 177.5 450 Q195 426 233 426 Q249 426 260.5 431 Q272 436 282 444 Q295 454 304 470.5 Q313 487 318.5 505 Q324 523 326.5 542 Q329 561 329 577 Z M663 201 Q663 236 646 260 Q629 284 591 284 Q575 284 563.5 279 Q552 274 542 266 Q530 255 521 239 Q512 223 506 205 Q500 187 497.5 168 Q495 149 495 133 Q495 98 512.5 74 Q530 50 568 50 Q584 50 595 55 Q606 60 616 68 Q629 78 638 94.5 Q647 111 652.5 129 Q658 147 660.5 166 Q663 185 663 201 Z " />
<glyph glyph-name="Acircumflex" unicode="&#xc2;" horiz-adv-x="615" d="M461 0 L433 168 L124 168 L38 0 L-56 0 L319 709 L423 709 L550 0 L461 0 Z M356 620 L167 252 L418 252 L356 620 Z M475 753 L387 868 L260 753 L220 798 L368 929 L423 929 L525 798 L475 753 Z " />
<glyph glyph-name="Ecircumflex" unicode="&#xca;" horiz-adv-x="618" d="M615 627 L237 627 L198 411 L533 411 L518 328 L185 328 L141 82 L523 82 L510 0 L37 0 L161 709 L629 709 L615 627 Z M509 760 L421 875 L294 760 L254 805 L402 936 L457 936 L559 805 L509 760 Z " />
<glyph glyph-name="Aacute" unicode="&#xc1;" horiz-adv-x="615" d="M461 0 L433 168 L124 168 L38 0 L-56 0 L319 709 L423 709 L550 0 L461 0 Z M356 620 L167 252 L418 252 L356 620 Z M293 754 L268 804 L460 926 L495 853 L293 754 Z " />
<glyph glyph-name="Edieresis" unicode="&#xcb;" horiz-adv-x="618" d="M615 627 L237 627 L198 411 L533 411 L518 328 L185 328 L141 82 L523 82 L510 0 L37 0 L161 709 L629 709 L615 627 Z M366 789 L274 789 L290 881 L382 881 L366 789 Z M542 789 L450 789 L466 881 L558 881 L542 789 Z " />
<glyph glyph-name="Egrave" unicode="&#xc8;" horiz-adv-x="618" d="M615 627 L237 627 L198 411 L533 411 L518 328 L185 328 L141 82 L523 82 L510 0 L37 0 L161 709 L629 709 L615 627 Z M476 761 L308 860 L362 929 L511 806 L476 761 Z " />
<glyph glyph-name="Iacute" unicode="&#xcd;" horiz-adv-x="291" d="M126 0 L34 0 L159 709 L251 709 L126 0 Z M122 754 L97 804 L289 926 L324 853 L122 754 Z " />
<glyph glyph-name="Icircumflex" unicode="&#xce;" horiz-adv-x="291" d="M129 0 L37 0 L162 709 L254 709 L129 0 Z M318 752 L230 867 L103 752 L63 797 L211 928 L266 928 L368 797 L318 752 Z " />
<glyph glyph-name="Idieresis" unicode="&#xcf;" horiz-adv-x="291" d="M126 0 L34 0 L159 709 L251 709 L126 0 Z M175 789 L83 789 L99 881 L191 881 L175 789 Z M351 789 L259 789 L275 881 L367 881 L351 789 Z " />
<glyph glyph-name="Igrave" unicode="&#xcc;" horiz-adv-x="291" d="M129 0 L37 0 L162 709 L254 709 L129 0 Z M284 757 L116 856 L170 925 L319 802 L284 757 Z " />
<glyph glyph-name="Oacute" unicode="&#xd3;" horiz-adv-x="655" d="M613 456 Q613 408 606 354 Q599 300 583 247.5 Q567 195 542 148 Q517 101 481 66 Q443 30 396 8.5 Q349 -13 289 -13 Q230 -13 184 7.5 Q138 28 106 64 Q74 100 57 148.5 Q40 197 40 253 Q40 301 47.5 355 Q55 409 71.5 461.5 Q88 514 113.5 561 Q139 608 175 643 Q213 679 259.5 700.5 Q306 722 366 722 Q426 722 472 701 Q518 680 549.5 644 Q581 608 597 559.5 Q613 511 613 456 Z M521 451 Q521 490 511.5 523.5 Q502 557 482.5 582.5 Q463 608 433 622.5 Q403 637 361 637 Q322 637 291.5 621 Q261 605 237 581 Q210 554 190 514 Q170 474 157 429.5 Q144 385 137.5 340 Q131 295 131 258 Q131 219 141 185.5 Q151 152 171 126.5 Q191 101 221.5 86.5 Q252 72 294 72 Q333 72 364 87.5 Q395 103 419 127 Q446 154 465.5 194 Q485 234 497 279 Q509 324 515 369 Q521 414 521 451 Z M308 759 L283 809 L475 931 L510 858 L308 759 Z " />
<glyph glyph-name="Ocircumflex" unicode="&#xd4;" horiz-adv-x="655" d="M613 456 Q613 408 606 354 Q599 300 583 247.5 Q567 195 542 148 Q517 101 481 66 Q443 30 396 8.5 Q349 -13 289 -13 Q230 -13 184 7.5 Q138 28 106 64 Q74 100 57 148.5 Q40 197 40 253 Q40 301 47.5 355 Q55 409 71.5 461.5 Q88 514 113.5 561 Q139 608 175 643 Q213 679 259.5 700.5 Q306 722 366 722 Q426 722 472 701 Q518 680 549.5 644 Q581 608 597 559.5 Q613 511 613 456 Z M521 451 Q521 490 511.5 523.5 Q502 557 482.5 582.5 Q463 608 433 622.5 Q403 637 361 637 Q322 637 291.5 621 Q261 605 237 581 Q210 554 190 514 Q170 474 157 429.5 Q144 385 137.5 340 Q131 295 131 258 Q131 219 141 185.5 Q151 152 171 126.5 Q191 101 221.5 86.5 Q252 72 294 72 Q333 72 364 87.5 Q395 103 419 127 Q446 154 465.5 194 Q485 234 497 279 Q509 324 515 369 Q521 414 521 451 Z M496 753 L408 868 L281 753 L241 798 L389 929 L444 929 L546 798 L496 753 Z " />
<glyph glyph-name="Ograve" unicode="&#xd2;" horiz-adv-x="655" d="M613 456 Q613 408 606 354 Q599 300 583 247.5 Q567 195 542 148 Q517 101 481 66 Q443 30 396 8.5 Q349 -13 289 -13 Q230 -13 184 7.5 Q138 28 106 64 Q74 100 57 148.5 Q40 197 40 253 Q40 301 47.5 355 Q55 409 71.5 461.5 Q88 514 113.5 561 Q139 608 175 643 Q213 679 259.5 700.5 Q306 722 366 722 Q426 722 472 701 Q518 680 549.5 644 Q581 608 597 559.5 Q613 511 613 456 Z M521 451 Q521 490 511.5 523.5 Q502 557 482.5 582.5 Q463 608 433 622.5 Q403 637 361 637 Q322 637 291.5 621 Q261 605 237 581 Q210 554 190 514 Q170 474 157 429.5 Q144 385 137.5 340 Q131 295 131 258 Q131 219 141 185.5 Q151 152 171 126.5 Q191 101 221.5 86.5 Q252 72 294 72 Q333 72 364 87.5 Q395 103 419 127 Q446 154 465.5 194 Q485 234 497 279 Q509 324 515 369 Q521 414 521 451 Z M478 765 L310 864 L364 933 L513 810 L478 765 Z " />
<glyph glyph-name="Uacute" unicode="&#xda;" horiz-adv-x="692" d="M587 238 Q577 183 554.5 137 Q532 91 496.5 57.5 Q461 24 414 5.5 Q367 -13 309 -13 Q255 -13 210.5 3 Q166 19 134.5 48 Q103 77 85.5 118.5 Q68 160 68 211 Q68 245 74 278 L150 709 L240 709 L162 268 Q160 254 158.5 241 Q157 228 157 214 Q157 142 199.5 107 Q242 72 314 72 Q352 72 383 84.5 Q414 97 437.5 119.5 Q461 142 476 173 Q491 204 497 240 L580 709 L670 709 L587 238 Z M336 754 L311 804 L503 926 L538 853 L336 754 Z " />
<glyph glyph-name="Ucircumflex" unicode="&#xdb;" horiz-adv-x="692" d="M587 238 Q577 183 554.5 137 Q532 91 496.5 57.5 Q461 24 414 5.5 Q367 -13 309 -13 Q255 -13 210.5 3 Q166 19 134.5 48 Q103 77 85.5 118.5 Q68 160 68 211 Q68 245 74 278 L150 709 L240 709 L162 268 Q160 254 158.5 241 Q157 228 157 214 Q157 142 199.5 107 Q242 72 314 72 Q352 72 383 84.5 Q414 97 437.5 119.5 Q461 142 476 173 Q491 204 497 240 L580 709 L670 709 L587 238 Z M523 753 L435 868 L308 753 L268 798 L416 929 L471 929 L573 798 L523 753 Z " />
<glyph glyph-name="Ugrave" unicode="&#xd9;" horiz-adv-x="692" d="M587 238 Q577 183 554.5 137 Q532 91 496.5 57.5 Q461 24 414 5.5 Q367 -13 309 -13 Q255 -13 210.5 3 Q166 19 134.5 48 Q103 77 85.5 118.5 Q68 160 68 211 Q68 245 74 278 L150 709 L240 709 L162 268 Q160 254 158.5 241 Q157 228 157 214 Q157 142 199.5 107 Q242 72 314 72 Q352 72 383 84.5 Q414 97 437.5 119.5 Q461 142 476 173 Q491 204 497 240 L580 709 L670 709 L587 238 Z M480 757 L312 856 L366 925 L515 802 L480 757 Z " />
<glyph glyph-name="dotlessi" unicode="&#x131;" horiz-adv-x="269" d="M116 0 L28 0 L118 506 L206 506 L116 0 Z " />
<glyph glyph-name="circumflex" unicode="&#x2c6;" horiz-adv-x="351" d="M319 552 L231 667 L104 552 L64 597 L212 728 L267 728 L369 597 L319 552 Z " />
<glyph glyph-name="tilde" unicode="&#x2dc;" horiz-adv-x="356" d="M396 647 Q373 624 345.5 608.5 Q318 593 285 593 Q262 593 246 599.5 Q230 606 216.5 614 Q203 622 190 628.5 Q177 635 161 635 Q141 635 125.5 627.5 Q110 620 95 607 L63 649 Q87 672 113.5 687.5 Q140 703 174 703 Q195 703 210.5 696 Q226 689 239.5 681 Q253 673 267 666 Q281 659 298 659 Q318 659 335 667.5 Q352 676 366 689 L396 647 Z " />
<glyph glyph-name="macron" unicode="&#xaf;" horiz-adv-x="292" d="M330 608 L52 608 L64 676 L342 676 L330 608 Z " />
<glyph glyph-name="breve" unicode="&#x2d8;" horiz-adv-x="348" d="M399 720 Q381 650 332.5 607 Q284 564 209 564 Q179 564 153.5 573.5 Q128 583 109.5 601 Q91 619 80 644 Q69 669 69 699 Q69 704 69 709.5 Q69 715 70 720 L136 720 L136 709 Q136 673 158.5 650.5 Q181 628 217 628 Q262 628 289 653.5 Q316 679 328 720 L399 720 Z " />
<glyph glyph-name="dotaccent" unicode="&#x2d9;" horiz-adv-x="271" d="M232 622 L132 622 L150 722 L250 722 L232 622 Z " />
<glyph glyph-name="ring" unicode="&#x2da;" horiz-adv-x="216" d="M271 670 Q271 649 263.5 630 Q256 611 242 596 Q228 581 207.5 572 Q187 563 161 563 Q135 563 114.5 572 Q94 581 80 596 Q66 611 58.5 630 Q51 649 51 670 Q51 691 58.5 710 Q66 729 80 744 Q94 759 114.5 768 Q135 777 161 777 Q187 777 207.5 768 Q228 759 242 744 Q256 729 263.5 710 Q271 691 271 670 Z M215 670 Q215 693 200.5 709.5 Q186 726 161 726 Q136 726 121 709.5 Q106 693 106 670 Q106 647 121 631 Q136 615 161 615 Q186 615 200.5 631 Q215 647 215 670 Z " />
<glyph glyph-name="cedilla" unicode="&#xb8;" horiz-adv-x="170" d="M14 -235 L-67 -194 L36 -59 L114 -59 L14 -235 Z " />
<glyph glyph-name="hungarumlaut" unicode="&#x2dd;" horiz-adv-x="455" d="M294 553 L270 600 L463 729 L500 657 L294 553 Z M81 553 L57 600 L250 729 L287 657 L81 553 Z " />
<glyph glyph-name="ogonek" unicode="&#x2db;" horiz-adv-x="170" d="M-2 -234 L-40 -58 L36 -58 L90 -193 L-2 -234 Z " />
<glyph glyph-name="caron" unicode="&#x2c7;" horiz-adv-x="364" d="M264 754 L209 754 L107 885 L160 930 L248 815 L375 930 L412 885 L264 754 Z " />
<glyph glyph-name="Euro" unicode="&#x20ac;" horiz-adv-x="582" d="M570 564 Q539 596 498.5 612 Q458 628 413 628 Q369 628 333 611 Q297 594 269 565 Q246 539 231.5 510 Q217 481 206 448 L491 448 L453 387 L190 387 Q186 371 183.5 348.5 Q181 326 179 308 L409 308 L371 247 L176 247 Q176 164 225.5 115 Q275 66 358 66 Q429 66 490 104 L510 30 Q437 -14 353 -14 Q293 -14 245 5 Q197 24 162.5 58.5 Q128 93 108.5 141 Q89 189 88 247 L6 247 L17 308 L91 308 Q91 324 95 348.5 Q99 373 102 387 L31 387 L42 448 L116 448 Q130 498 154.5 543.5 Q179 589 216 625 Q255 663 306 685.5 Q357 708 418 708 Q474 708 524.5 690.5 Q575 673 615 633 L570 564 Z " />
<glyph glyph-name="Eth" unicode="&#xd0;" horiz-adv-x="673" d="M631 453 Q631 406 624 354 Q617 302 601 251 Q585 200 560.5 154.5 Q536 109 501 75 Q463 39 414 19.5 Q365 0 295 0 L37 0 L96 335 L45 335 L57 401 L108 401 L162 709 L389 709 Q446 709 490.5 689.5 Q535 670 566.5 635.5 Q598 601 614.5 554.5 Q631 508 631 453 Z M542 448 Q542 485 531.5 518 Q521 551 500.5 575 Q480 599 449.5 613 Q419 627 379 627 L237 627 L197 401 L365 401 L353 335 L186 335 L141 82 L306 82 Q344 82 380.5 96.5 Q417 111 440 134 Q466 160 485.5 199 Q505 238 517.5 281.5 Q530 325 536 368.5 Q542 412 542 448 Z " />
<glyph glyph-name="uni00A0" unicode="&#xa0;" horiz-adv-x="222" d="" />
<glyph glyph-name="a" unicode="a" horiz-adv-x="567" d="M420 0 L355 0 L355 75 Q344 56 327.5 40 Q311 24 291 12 Q271 0 248.5 -6.5 Q226 -13 205 -13 Q129 -13 82 37 Q52 69 39 110.5 Q26 152 26 203 Q26 272 49.5 339.5 Q73 407 122 455 Q151 484 190 501.5 Q229 519 276 519 Q296 519 316 514.5 Q336 510 355 500 Q374 490 389.5 475 Q405 460 414 441 L439 506 L509 506 L420 0 Z M386 314 Q386 338 382 358.5 Q378 379 367 397 Q355 417 334 431.5 Q313 446 281 446 Q253 446 228.5 434 Q204 422 185 403 Q166 384 152.5 359 Q139 334 130 307.5 Q121 281 117 254 Q113 227 113 203 Q113 174 119 145.5 Q125 117 145 94 Q158 79 176 69.5 Q194 60 218 60 Q257 60 288.5 84 Q320 108 341.5 145.5 Q363 183 374.5 227.5 Q386 272 386 314 Z " />
<glyph glyph-name="l" unicode="l" horiz-adv-x="287" d="M132 114 Q131 110 131 103 Q131 68 169 68 Q176 68 187.5 69.5 Q199 71 209 74 L197 5 Q170 -6 137 -6 Q91 -6 67 21 Q56 34 50.5 49 Q45 64 45 86 Q45 92 46 102.5 Q47 113 51 134 L155 722 L240 722 L132 114 Z " />
<glyph glyph-name="r" unicode="r" horiz-adv-x="383" d="M378 422 Q366 427 354 429 Q342 431 325 431 Q299 431 277 422.5 Q255 414 237 400 Q202 374 183.5 332.5 Q165 291 156 242 L113 0 L28 0 L117 506 L186 506 L186 433 Q211 474 251 493 Q291 512 335 512 Q349 512 363.5 510.5 Q378 509 392 505 L378 422 Z " />
<glyph glyph-name="t" unicode="t" horiz-adv-x="383" d="M362 433 L214 433 L167 165 Q164 147 163 135.5 Q162 124 162 119 Q162 90 179.5 78.5 Q197 67 225 67 Q234 67 246.5 69 Q259 71 271 74 Q283 77 294 80 Q305 83 311 86 L298 15 Q273 3 247 -2 Q221 -7 195 -7 Q137 -7 104 29 Q87 47 81.5 66.5 Q76 86 76 108 Q76 132 81 160 L129 433 L29 433 L42 506 L142 506 L165 635 L255 661 L227 506 L376 506 L362 433 Z " />
<glyph glyph-name="u" unicode="u" horiz-adv-x="574" d="M509 506 L420 0 L350 0 L350 65 Q325 27 283.5 7 Q242 -13 201 -13 Q137 -13 96 23 Q73 43 61 72 Q49 101 49 140 Q49 152 50 164 Q51 176 53 190 L109 506 L194 506 L139 195 Q136 175 136 157 Q136 133 142.5 116 Q149 99 160 87 Q183 62 227 62 Q255 62 276.5 74.5 Q298 87 315 105 Q344 137 358 177 Q372 217 380 259 L424 506 L509 506 Z " />
<glyph glyph-name="fl" unicode="&#xfb02;" horiz-adv-x="643" d="M407 634 Q384 642 366 647 Q348 652 321 652 Q291 652 269 635 Q247 618 242 589 L227 506 L374 506 L361 434 L214 434 L138 0 L53 0 L130 434 L38 434 L51 506 L142 506 L159 602 Q163 627 176 649.5 Q189 672 209.5 688.5 Q230 705 257 715 Q284 725 317 725 Q349 725 372.5 719.5 Q396 714 420 706 L407 634 Z M488 114 Q487 110 487 103 Q487 68 525 68 Q532 68 543.5 69.5 Q555 71 565 74 L553 5 Q526 -6 493 -6 Q447 -6 423 21 Q412 34 406.5 49 Q401 64 401 86 Q401 92 402 102.5 Q403 113 407 134 L511 722 L596 722 L488 114 Z " />
<glyph glyph-name="Lslash" unicode="&#x141;" horiz-adv-x="532" d="M466 0 L35 0 L87 295 L17 256 L-7 308 L100 368 L160 709 L250 709 L200 424 L341 503 L365 450 L187 351 L140 83 L481 83 L466 0 Z " />
<glyph glyph-name="uni00AD" unicode="&#xad;" horiz-adv-x="433" d="M349 262 L52 262 L66 341 L363 341 L349 262 Z " />
<glyph glyph-name="eth" unicode="&#xf0;" horiz-adv-x="547" d="M484 308 Q484 251 469 193.5 Q454 136 422.5 90.5 Q391 45 343 16 Q295 -13 229 -13 Q184 -13 144.5 5 Q105 23 78 55 Q55 83 42.5 119.5 Q30 156 30 198 Q30 255 45 312.5 Q60 370 91.5 415.5 Q123 461 171 490 Q219 519 285 519 Q312 519 341 511 L314 588 L194 588 L205 647 L290 647 L263 722 L345 722 L374 647 L476 647 L465 588 L398 588 L470 390 Q477 372 480.5 349.5 Q484 327 484 308 Z M397 306 Q397 333 390 358.5 Q383 384 368 403.5 Q353 423 330.5 434.5 Q308 446 278 446 Q233 446 202 421 Q171 396 152.5 359 Q134 322 125.5 279 Q117 236 117 200 Q117 173 124 147.5 Q131 122 146 102.5 Q161 83 183.5 71.5 Q206 60 236 60 Q281 60 312 85 Q343 110 361.5 147 Q380 184 388.5 227 Q397 270 397 306 Z " />
<glyph glyph-name="Omega" unicode="&#x2126;" horiz-adv-x="858" d="M790 355 Q790 278 762.5 211 Q735 144 687 94 Q639 44 573 15.5 Q507 -13 429 -13 Q351 -13 285 15.5 Q219 44 171 93.5 Q123 143 95.5 210 Q68 277 68 354 Q68 431 95.5 498 Q123 565 171 615 Q219 665 285 693.5 Q351 722 429 722 Q507 722 573 693.5 Q639 665 687 615.5 Q735 566 762.5 499 Q790 432 790 355 Z M723 355 Q723 421 702 476.5 Q681 532 642.5 572.5 Q604 613 549.5 635.5 Q495 658 429 658 Q363 658 308.5 635 Q254 612 215.5 571.5 Q177 531 156 475.5 Q135 420 135 354 Q135 288 156 232.5 Q177 177 215.5 136.5 Q254 96 308.5 73.5 Q363 51 429 51 Q495 51 549.5 74 Q604 97 642.5 137.5 Q681 178 702 233.5 Q723 289 723 355 Z M593 421 Q593 392 582 368.5 Q571 345 552.5 329 Q534 313 509 304.5 Q484 296 457 296 L383 296 L383 161 L316 161 L316 544 L457 544 Q484 544 509 535.5 Q534 527 552.5 511.5 Q571 496 582 473 Q593 450 593 421 Z M523 421 Q523 450 503.5 466 Q484 482 457 482 L382 482 L382 358 L457 358 Q487 358 505 373.5 Q523 389 523 421 Z " />
</font>
</svg>
