<?xml version="1.0" encoding="UTF-8"?>
<svg xmlns="http://www.w3.org/2000/svg" xmlns:xlink="http://www.w3.org/1999/xlink" version="1.2" >
<font id="Akkurat Regular">
<font-face  font-family="Akkurat" units-per-em="1000" ascent="750" descent="-250" font-style="normal" font-weight="400" font-stretch="normal" cap-height="750" x-height="500" underline-position="-92.5" underline-thickness="45" />
<missing-glyph  horiz-adv-x="588" d="M88 0 L500 0 L500 698 L88 698 L88 0 Z M163 74 L163 623 L425 623 L425 74 L163 74 Z " />
<glyph glyph-name="NULL" d="" />
<glyph glyph-name="CR" unicode="&#xd;" horiz-adv-x="250" d="" />
<glyph glyph-name="space" unicode="&#x20;" horiz-adv-x="230" d="" />
<glyph glyph-name="exclam" unicode="&#x21;" horiz-adv-x="331" d="M232 485 L232 709 L130 709 L130 485 L153 215 L211 215 L232 485 Z M236 0 L236 109 L130 109 L130 0 L236 0 Z " />
<glyph glyph-name="quotedbl" unicode="&#x22;" horiz-adv-x="444" d="M354 586 L354 709 L259 709 L259 586 L280 433 L333 433 L354 586 Z M185 586 L185 709 L90 709 L90 586 L111 433 L164 433 L185 586 Z " />
<glyph glyph-name="numbersign" unicode="&#x23;" horiz-adv-x="752" d="M682 428 L682 506 L557 506 L583 695 L505 695 L478 506 L325 506 L351 695 L273 695 L247 506 L108 506 L108 428 L236 428 L214 267 L75 267 L75 190 L203 190 L177 1 L255 1 L282 190 L435 190 L409 1 L487 1 L513 190 L649 190 L649 267 L524 267 L546 428 L682 428 Z M468 428 L445 267 L292 267 L314 428 L468 428 Z " />
<glyph glyph-name="dollar" unicode="&#x24;" horiz-adv-x="560" d="M536 204 C536 320 456 384 348 398 L318 402 L318 630 C354 625 381 610 402 588 C424 565 436 534 438 498 L527 498 C525 556 502 603 461 643 C423 680 373 701 318 707 L318 800 L260 800 L260 708 C202 703 151 683 107 641 C71 607 48 558 48 507 C48 403 125 339 223 327 C235 326 248 324 260 322 L260 79 C223 84 191 97 165 121 C136 147 118 187 118 228 L30 228 C30 163 57 106 101 66 C143 28 197 6 260 1 L260 -90 L318 -90 L318 1 C380 7 437 29 478 69 C511 102 536 147 536 204 L536 204 Z M260 408 L231 412 C177 419 136 449 136 509 C136 540 146 567 164 587 C190 615 223 627 260 631 L260 408 Z M448 202 C448 165 433 139 412 119 C387 95 356 83 318 79 L318 315 L334 313 C401 305 448 267 448 202 L448 202 Z " />
<glyph glyph-name="percent" unicode="&#x25;" horiz-adv-x="919" d="M854 178 C854 224 846 266 823 300 C796 339 754 370 691 370 C628 370 586 339 559 300 C536 266 528 224 528 178 C528 132 536 91 559 57 C586 18 628 -13 691 -13 C754 -13 796 18 823 57 C846 91 854 132 854 178 L854 178 Z M746 685 L691 724 L176 20 L230 -21 L746 685 Z M386 531 C386 577 378 619 355 653 C328 692 286 723 223 723 C160 723 118 692 91 653 C68 619 60 577 60 531 C60 485 68 444 91 410 C118 371 160 340 223 340 C286 340 328 371 355 410 C378 444 386 485 386 531 L386 531 Z M777 178 C777 137 770 101 748 78 C735 64 719 54 691 54 C663 54 646 64 633 78 C611 101 604 137 604 178 C604 219 611 256 633 279 C646 293 663 303 691 303 C719 303 735 293 748 279 C770 256 777 219 777 178 L777 178 Z M309 531 C309 490 302 454 280 431 C267 417 251 407 223 407 C195 407 178 417 165 431 C143 454 136 490 136 531 C136 572 143 609 165 632 C178 646 195 656 223 656 C251 656 267 646 280 632 C302 609 309 572 309 531 L309 531 Z " />
<glyph glyph-name="ampersand" unicode="&#x26;" horiz-adv-x="737" d="M675 332 L675 405 L522 405 C522 346 525 250 497 199 L350 365 C367 375 384 387 401 397 C459 432 492 487 492 554 C492 658 416 722 311 722 C208 722 132 655 132 557 C132 483 170 442 216 391 C204 384 193 377 181 369 C119 330 81 266 81 192 C81 65 181 -13 303 -13 C378 -13 455 12 505 69 L566 0 L674 0 L553 135 C586 182 602 267 602 332 L675 332 Z M409 553 C409 479 352 454 296 423 C261 462 215 501 215 558 C215 612 253 650 309 650 C373 650 409 612 409 553 L409 553 Z M451 130 C412 80 360 66 298 66 C224 66 166 119 166 194 C166 241 188 282 227 308 C241 317 254 325 268 334 L451 130 Z " />
<glyph glyph-name="quotesingle" unicode="&#x27;" horiz-adv-x="265" d="M180 586 L180 709 L85 709 L85 586 L106 433 L159 433 L180 586 Z " />
<glyph glyph-name="parenleft" unicode="&#x28;" horiz-adv-x="303" d="M288 -105 C192 22 141 157 141 322 C141 487 192 622 288 749 L235 786 C126 663 67 484 67 322 C67 160 126 -19 235 -142 L288 -105 Z " />
<glyph glyph-name="parenright" unicode="&#x29;" horiz-adv-x="303" d="M236 322 C236 484 177 663 68 786 L15 749 C111 622 162 487 162 322 C162 157 111 22 15 -105 L68 -142 C177 -19 236 160 236 322 L236 322 Z " />
<glyph glyph-name="asterisk" unicode="&#x2a;" horiz-adv-x="533" d="M478 512 L453 591 L299 531 L309 696 L226 696 L234 531 L81 591 L55 512 L214 471 L110 344 L177 294 L266 433 L356 294 L423 342 L319 471 L478 512 Z " />
<glyph glyph-name="plus" unicode="&#x2b;" horiz-adv-x="681" d="M616 268 L616 337 L375 337 L375 584 L305 584 L305 337 L65 337 L65 268 L305 268 L305 5 L375 5 L375 268 L616 268 Z " />
<glyph glyph-name="comma" unicode="&#x2c;" horiz-adv-x="294" d="M209 -1 L209 116 L87 116 L87 -1 L149 -1 C149 -58 137 -88 85 -111 L111 -158 C184 -127 209 -75 209 -1 L209 -1 Z " />
<glyph glyph-name="hyphen" unicode="&#x2d;" horiz-adv-x="437" d="M367 262 L367 341 L70 341 L70 262 L367 262 Z " />
<glyph glyph-name="period" unicode="&#x2e;" horiz-adv-x="294" d="M206 0 L206 119 L88 119 L88 0 L206 0 Z " />
<glyph glyph-name="slash" unicode="&#x2f;" horiz-adv-x="399" d="M393 722 L325 722 L17 -13 L85 -13 L393 722 Z " />
<glyph glyph-name="zero" unicode="0" horiz-adv-x="560" d="M512 348 C512 482 500 580 430 651 C396 685 349 709 280 709 C211 709 164 685 130 651 C60 580 48 482 48 348 C48 214 60 117 130 46 C164 12 211 -13 280 -13 C349 -13 396 12 430 46 C500 117 512 214 512 348 L512 348 Z M423 348 C423 254 425 153 366 97 C346 78 317 65 280 65 C243 65 214 78 194 97 C135 153 137 254 137 348 C137 442 135 543 194 599 C214 618 243 631 280 631 C317 631 346 618 366 599 C425 543 423 442 423 348 L423 348 Z " />
<glyph glyph-name="one" unicode="1" horiz-adv-x="560" d="M368 0 L368 695 L286 695 L116 572 L116 477 L281 598 L281 0 L368 0 Z " />
<glyph glyph-name="two" unicode="2" horiz-adv-x="560" d="M489 0 L489 80 L183 80 L419 373 C457 420 478 466 478 521 C478 565 467 599 446 629 C411 678 352 709 276 709 C153 709 71 627 71 506 L159 506 C159 598 215 632 277 632 C350 632 391 591 391 520 C391 484 379 453 353 420 L72 73 L72 0 L489 0 Z " />
<glyph glyph-name="three" unicode="3" horiz-adv-x="560" d="M494 190 C494 262 452 335 378 360 C435 384 480 452 480 517 C480 577 459 621 424 653 C387 688 334 709 276 709 C216 709 166 691 127 659 C86 625 61 575 60 506 L147 506 C148 548 162 582 189 604 C210 621 236 632 274 632 C312 632 340 617 359 598 C381 577 392 549 392 517 C392 444 344 400 264 400 L222 400 L222 321 L264 321 C349 321 407 277 407 192 C407 154 393 125 374 104 C350 77 315 64 273 64 C229 64 199 80 178 103 C155 127 144 160 142 199 L55 199 C56 135 78 86 114 50 C153 11 206 -13 273 -13 C351 -13 404 11 441 50 C475 86 494 136 494 190 L494 190 Z " />
<glyph glyph-name="four" unicode="4" horiz-adv-x="560" d="M529 148 L529 225 L435 225 L435 432 L349 432 L349 225 L112 225 L384 695 L294 695 L30 237 L30 148 L349 148 L349 0 L435 0 L435 148 L529 148 Z " />
<glyph glyph-name="five" unicode="5" horiz-adv-x="560" d="M510 229 C510 298 489 360 448 402 C414 437 367 459 306 459 C247 459 191 441 160 396 L171 618 L482 618 L482 695 L98 695 L79 322 L174 322 C198 362 242 383 289 383 C333 383 363 368 385 344 C411 315 424 273 424 225 C424 178 413 138 390 109 C369 82 337 64 289 64 C245 64 212 78 189 101 C166 124 152 156 150 200 L65 200 C68 136 90 84 129 46 C167 9 222 -14 290 -14 C363 -14 416 12 452 52 C491 95 510 156 510 229 L510 229 Z " />
<glyph glyph-name="six" unicode="6" horiz-adv-x="560" d="M515 224 C515 297 490 361 445 404 C412 436 362 458 299 458 C233 458 167 425 145 377 C146 450 150 540 194 590 C215 614 245 632 289 632 C322 632 347 622 367 605 C388 587 404 561 406 527 L492 527 C490 578 467 621 436 652 C401 687 351 709 292 709 C204 709 144 667 111 615 C64 540 59 437 59 338 C59 239 68 142 118 73 C152 26 210 -13 288 -13 C360 -13 415 14 452 54 C491 97 515 154 515 224 L515 224 Z M429 223 C429 174 415 133 388 104 C366 80 336 64 292 64 C248 64 217 82 195 106 C168 135 154 174 154 223 C154 272 167 311 193 340 C214 364 246 382 290 382 C334 382 367 366 388 342 C414 313 429 272 429 223 L429 223 Z " />
<glyph glyph-name="seven" unicode="7" horiz-adv-x="560" d="M496 618 L496 695 L50 695 L50 618 L406 618 L117 0 L209 0 L496 618 Z " />
<glyph glyph-name="eight" unicode="8" horiz-adv-x="560" d="M505 191 C505 267 460 333 396 362 C453 392 491 452 491 519 C491 576 468 621 434 653 C395 689 341 709 280 709 C219 709 165 689 126 653 C92 621 69 576 69 519 C69 452 107 392 164 362 C100 333 55 267 55 191 C55 138 73 96 101 63 C142 14 207 -13 280 -13 C353 -13 418 14 459 63 C487 96 505 138 505 191 L505 191 Z M405 519 C405 455 360 399 280 399 C200 399 155 455 155 519 C155 590 211 634 280 634 C349 634 405 590 405 519 L405 519 Z M419 195 C419 113 361 62 280 62 C199 62 141 113 141 195 C141 269 192 325 280 325 C368 325 419 269 419 195 L419 195 Z " />
<glyph glyph-name="nine" unicode="9" horiz-adv-x="560" d="M505 358 C505 456 496 554 446 623 C412 669 354 709 276 709 C204 709 149 682 112 642 C73 599 49 542 49 472 C49 398 74 335 119 292 C152 260 202 238 265 238 C331 238 397 271 419 319 C418 246 414 156 370 106 C349 82 319 64 275 64 C242 64 217 73 197 91 C176 109 160 135 158 169 L72 169 C74 118 97 75 128 44 C163 8 213 -13 272 -13 C360 -13 420 29 453 81 C500 156 505 259 505 358 L505 358 Z M410 473 C410 424 397 385 371 356 C350 332 318 314 274 314 C230 314 197 330 176 354 C150 383 135 424 135 473 C135 522 149 563 176 592 C198 616 228 632 272 632 C316 632 347 614 369 590 C396 561 410 522 410 473 L410 473 Z " />
<glyph glyph-name="colon" unicode="&#x3a;" horiz-adv-x="304" d="M216 395 L216 506 L106 506 L106 395 L216 395 Z M216 -1 L216 109 L106 109 L106 -1 L216 -1 Z " />
<glyph glyph-name="semicolon" unicode="&#x3b;" horiz-adv-x="304" d="M216 394 L216 506 L106 506 L106 394 L216 394 Z M216 0 L216 110 L106 110 L106 0 L163 0 C163 -52 153 -82 103 -104 L126 -148 C195 -119 216 -73 216 0 L216 0 Z " />
<glyph glyph-name="less" unicode="&#x3c;" horiz-adv-x="472" d="M412 36 L143 305 L412 574 L363 622 L45 305 L364 -13 L412 36 Z " />
<glyph glyph-name="equal" unicode="&#x3d;" horiz-adv-x="692" d="M587 344 L587 421 L105 421 L105 344 L587 344 Z M587 134 L587 211 L105 211 L105 134 L587 134 Z " />
<glyph glyph-name="greater" unicode="&#x3e;" horiz-adv-x="472" d="M427 305 L109 622 L60 574 L329 305 L60 36 L108 -13 L427 305 Z " />
<glyph glyph-name="question" unicode="&#x3f;" horiz-adv-x="504" d="M474 535 C474 654 377 725 264 725 C117 725 40 618 40 505 L130 505 C130 583 177 648 264 648 C300 648 334 635 356 612 C375 592 386 566 386 536 C386 482 365 451 325 420 C246 359 213 324 213 217 L213 189 L295 189 L295 214 C295 275 302 304 366 351 C434 401 474 455 474 535 L474 535 Z M306 0 L306 110 L200 110 L200 0 L306 0 Z " />
<glyph glyph-name="at" unicode="&#x40;" horiz-adv-x="943" d="M875 380 C875 482 840 561 782 618 C714 685 615 722 501 722 C378 722 275 679 201 608 C128 538 85 440 85 317 C85 190 130 82 208 10 C274 -51 366 -86 475 -86 C562 -86 647 -75 727 -36 L727 37 C644 1 566 -11 476 -11 C386 -11 312 21 259 75 C203 133 170 215 170 308 C170 418 208 507 276 567 C332 617 409 648 502 648 C593 648 670 620 722 568 C767 523 794 461 794 379 C794 312 766 182 679 182 C641 182 636 215 638 245 L656 498 L589 498 L578 456 C560 489 519 509 482 509 C363 509 298 416 298 304 C298 195 352 113 455 113 C504 113 555 142 575 187 C582 135 623 111 673 111 C819 111 875 259 875 380 L875 380 Z M568 325 C568 259 547 186 468 186 C402 186 383 249 383 304 C383 364 406 440 478 440 C547 440 568 385 568 325 L568 325 Z " />
<glyph glyph-name="A" unicode="A" horiz-adv-x="621" d="M613 0 L362 709 L258 709 L8 0 L98 0 L155 168 L463 168 L521 0 L613 0 Z M434 252 L183 252 L308 620 L434 252 Z " />
<glyph glyph-name="B" unicode="B" horiz-adv-x="668" d="M618 198 C618 273 573 345 500 369 C566 393 602 458 602 526 C602 577 584 613 556 644 C517 687 449 709 383 709 L100 709 L100 0 L386 0 C456 0 524 22 564 65 C595 98 618 141 618 198 L618 198 Z M511 519 C511 440 460 407 386 407 L187 407 L187 630 L383 630 C451 630 511 593 511 519 L511 519 Z M527 204 C527 120 464 82 386 82 L187 82 L187 329 L388 329 C463 329 527 283 527 204 L527 204 Z " />
<glyph glyph-name="C" unicode="C" horiz-adv-x="634" d="M594 226 L502 226 C501 187 486 150 463 124 C435 93 388 70 334 70 C286 70 239 89 205 124 C147 184 145 280 145 354 C145 428 147 524 205 584 C239 619 286 638 334 638 C388 638 434 617 462 586 C485 560 500 526 501 487 L593 487 C590 553 564 607 523 649 C480 692 411 722 334 722 C263 722 193 696 142 646 C65 571 53 467 53 354 C53 241 65 137 142 62 C193 12 263 -14 334 -14 C411 -14 481 19 524 62 C565 104 591 160 594 226 L594 226 Z " />
<glyph glyph-name="D" unicode="D" horiz-adv-x="677" d="M624 355 C624 457 611 563 533 637 C483 685 416 709 347 709 L100 709 L100 0 L347 0 C416 0 483 23 533 71 C610 145 624 253 624 355 L624 355 Z M534 355 C534 279 529 188 473 131 C440 98 393 82 347 82 L189 82 L189 627 L347 627 C393 627 440 611 473 578 C529 520 534 431 534 355 L534 355 Z " />
<glyph glyph-name="E" unicode="E" horiz-adv-x="625" d="M574 0 L574 82 L189 82 L189 327 L527 327 L527 411 L189 411 L189 627 L574 627 L574 709 L100 709 L100 0 L574 0 Z " />
<glyph glyph-name="F" unicode="F" horiz-adv-x="587" d="M559 627 L559 709 L100 709 L100 0 L189 0 L189 312 L519 312 L519 396 L189 396 L189 627 L559 627 Z " />
<glyph glyph-name="G" unicode="G" horiz-adv-x="680" d="M606 0 L606 382 L336 382 L336 299 L526 299 C526 234 512 165 465 119 C433 87 386 70 336 70 C288 70 243 86 209 121 C150 181 145 283 145 354 C145 428 149 524 207 584 C241 619 288 638 336 638 C394 638 443 620 475 582 C493 560 504 537 507 504 L600 504 C597 561 573 606 539 642 C490 694 416 722 336 722 C265 722 196 696 145 646 C68 571 53 467 53 354 C53 227 73 129 145 59 C196 9 265 -14 336 -14 C416 -14 494 27 529 85 L544 0 L606 0 Z " />
<glyph glyph-name="H" unicode="H" horiz-adv-x="718" d="M618 0 L618 709 L529 709 L529 413 L189 413 L189 709 L100 709 L100 0 L189 0 L189 327 L529 327 L529 0 L618 0 Z " />
<glyph glyph-name="I" unicode="I" horiz-adv-x="291" d="M191 0 L191 709 L100 709 L100 0 L191 0 Z " />
<glyph glyph-name="J" unicode="J" horiz-adv-x="493" d="M413 198 L413 709 L324 709 L324 198 C324 120 294 70 213 70 C179 70 154 81 135 99 C105 127 98 166 98 215 L8 215 C8 143 24 89 65 47 C100 11 148 -13 213 -13 C341 -13 413 71 413 198 L413 198 Z " />
<glyph glyph-name="K" unicode="K" horiz-adv-x="662" d="M649 0 L394 439 L625 709 L514 709 L189 331 L189 709 L100 709 L100 0 L189 0 L189 200 L333 368 L545 0 L649 0 Z " />
<glyph glyph-name="L" unicode="L" horiz-adv-x="544" d="M530 0 L530 83 L189 83 L189 709 L100 709 L100 0 L530 0 Z " />
<glyph glyph-name="M" unicode="M" horiz-adv-x="880" d="M780 0 L780 709 L655 709 L442 132 L228 709 L100 709 L100 0 L185 0 L185 603 L405 10 L475 10 L695 598 L695 0 L780 0 Z " />
<glyph glyph-name="N" unicode="N" horiz-adv-x="734" d="M634 0 L634 709 L548 709 L548 137 L200 709 L100 709 L100 0 L186 0 L186 570 L534 0 L634 0 Z " />
<glyph glyph-name="O" unicode="O" horiz-adv-x="670" d="M617 354 C617 467 603 571 526 646 C475 696 406 722 335 722 C264 722 195 696 144 646 C67 571 53 467 53 354 C53 241 67 137 144 62 C195 12 264 -14 335 -14 C406 -14 475 12 526 62 C603 137 617 241 617 354 L617 354 Z M525 354 C525 280 522 184 464 124 C430 89 383 71 335 71 C287 71 240 89 206 124 C148 184 145 280 145 354 C145 428 148 524 206 584 C240 619 287 637 335 637 C383 637 430 619 464 584 C522 524 525 428 525 354 L525 354 Z " />
<glyph glyph-name="P" unicode="P" horiz-adv-x="627" d="M597 495 C597 557 577 608 543 645 C505 686 446 709 363 709 L100 709 L100 0 L189 0 L189 275 L364 275 C442 275 500 296 538 334 C576 372 597 426 597 495 L597 495 Z M505 495 C505 400 457 356 362 356 L189 356 L189 628 L361 628 C449 628 505 585 505 495 L505 495 Z " />
<glyph glyph-name="Q" unicode="Q" horiz-adv-x="670" d="M617 354 C617 467 603 571 526 646 C475 696 406 722 335 722 C264 722 195 696 144 646 C67 571 53 467 53 354 C53 241 67 137 144 62 C195 12 264 -14 335 -14 C381 -14 426 -3 467 18 L532 -66 L591 -20 L527 63 C603 138 617 241 617 354 L617 354 Z M525 354 C525 283 522 193 472 133 L387 241 L329 196 L413 88 C388 77 362 71 335 71 C287 71 240 89 206 124 C148 184 145 280 145 354 C145 428 148 524 206 584 C240 619 287 637 335 637 C383 637 430 619 464 584 C522 524 525 428 525 354 L525 354 Z " />
<glyph glyph-name="R" unicode="R" horiz-adv-x="662" d="M617 0 L475 312 C509 323 539 340 560 362 C594 398 614 440 614 502 C614 564 592 610 558 646 C519 686 461 709 378 709 L100 709 L100 0 L189 0 L189 295 L385 295 L519 0 L617 0 Z M522 502 C522 412 462 378 378 378 L189 378 L189 627 L378 627 C462 627 522 592 522 502 L522 502 Z " />
<glyph glyph-name="S" unicode="S" horiz-adv-x="635" d="M585 195 C585 307 506 379 388 396 C349 402 310 409 270 414 C217 421 164 450 164 514 C164 546 175 570 193 591 C224 626 268 640 319 640 C374 640 417 622 444 591 C464 568 477 537 479 502 L572 502 C570 562 547 613 504 654 C457 699 389 722 320 722 C246 722 183 698 134 652 C96 616 72 565 72 512 C72 399 155 340 261 324 C299 318 334 313 373 307 C457 294 492 248 492 193 C492 155 478 130 456 110 C424 80 378 69 324 69 C274 69 220 82 188 113 C159 141 138 183 138 225 L45 225 C45 158 76 97 121 55 C169 11 238 -13 324 -13 C400 -13 476 10 525 58 C560 92 585 136 585 195 L585 195 Z " />
<glyph glyph-name="T" unicode="T" horiz-adv-x="538" d="M525 626 L525 709 L13 709 L13 626 L224 626 L224 0 L314 0 L314 626 L525 626 Z " />
<glyph glyph-name="U" unicode="U" horiz-adv-x="678" d="M598 260 L598 709 L509 709 L509 258 C509 145 462 70 339 70 C216 70 169 145 169 258 L169 709 L80 709 L80 260 C80 83 180 -13 339 -13 C498 -13 598 83 598 260 L598 260 Z " />
<glyph glyph-name="V" unicode="V" horiz-adv-x="579" d="M575 709 L484 709 L292 110 L96 709 L4 709 L243 0 L336 0 L575 709 Z " />
<glyph glyph-name="W" unicode="W" horiz-adv-x="862" d="M830 709 L749 709 L636 132 L472 699 L392 699 L228 131 L115 709 L32 709 L174 0 L268 0 L432 571 L594 0 L689 0 L830 709 Z " />
<glyph glyph-name="X" unicode="X" horiz-adv-x="584" d="M569 0 L345 358 L566 709 L471 709 L296 422 L118 709 L19 709 L239 358 L15 0 L112 0 L290 291 L470 0 L569 0 Z " />
<glyph glyph-name="Y" unicode="Y" horiz-adv-x="566" d="M566 709 L471 709 L286 372 L100 709 L0 709 L238 288 L238 0 L328 0 L328 288 L566 709 Z " />
<glyph glyph-name="Z" unicode="Z" horiz-adv-x="612" d="M566 0 L566 83 L148 83 L562 619 L562 709 L47 709 L47 626 L456 626 L43 89 L43 0 L566 0 Z " />
<glyph glyph-name="bracketleft" unicode="&#x5b;" horiz-adv-x="311" d="M286 -114 L286 -52 L167 -52 L167 695 L286 695 L286 757 L98 757 L98 -114 L286 -114 Z " />
<glyph glyph-name="backslash" unicode="&#x5c;" horiz-adv-x="400" d="M383 -13 L75 722 L5 722 L313 -13 L383 -13 Z " />
<glyph glyph-name="bracketright" unicode="&#x5d;" horiz-adv-x="311" d="M213 -114 L213 757 L25 757 L25 695 L143 695 L143 -52 L25 -52 L25 -114 L213 -114 Z " />
<glyph glyph-name="asciicircum" unicode="&#x5e;" horiz-adv-x="542" d="M477 405 L309 722 L233 722 L65 405 L153 405 L271 630 L388 405 L477 405 Z " />
<glyph glyph-name="underscore" unicode="&#x5f;" horiz-adv-x="545" d="M520 -60 L520 0 L25 0 L25 -60 L520 -60 Z " />
<glyph glyph-name="grave" unicode="&#x60;" horiz-adv-x="240" d="M226 598 L55 721 L10 650 L195 551 L226 598 Z " />
<glyph glyph-name="a" unicode="a" horiz-adv-x="559" d="M517 5 L517 68 C517 68 504 65 495 65 C478 65 467 72 467 99 L467 344 C467 373 462 399 452 422 C428 477 372 519 274 519 C212 519 152 501 118 465 C92 438 75 405 74 359 L157 359 C157 384 166 404 182 420 C199 437 228 450 274 450 C315 450 340 440 357 424 C380 403 383 372 383 347 L383 310 L229 301 C91 293 49 208 49 143 C49 65 107 -13 223 -13 C294 -13 357 19 386 70 L388 70 C388 27 416 -7 461 -7 C482 -7 499 -4 517 5 L517 5 Z M383 214 C383 172 370 130 340 99 C313 71 275 58 236 58 C164 58 136 100 136 145 C136 209 196 233 247 236 L383 244 L383 214 Z " />
<glyph glyph-name="b" unicode="b" horiz-adv-x="595" d="M541 252 C541 339 515 419 464 468 C431 499 384 519 325 519 C270 519 205 493 178 447 L178 722 L93 722 L93 0 L168 0 L174 66 C203 15 268 -13 325 -13 C387 -13 435 8 468 42 C516 91 541 168 541 252 L541 252 Z M454 253 C454 160 424 59 311 59 C274 59 249 74 229 92 C187 129 173 190 173 253 C173 316 187 377 229 414 C249 432 274 447 311 447 C424 447 454 346 454 253 L454 253 Z " />
<glyph glyph-name="c" unicode="c" horiz-adv-x="532" d="M486 170 L400 170 C396 137 384 114 366 95 C346 74 315 61 280 61 C241 61 214 75 192 94 C152 128 141 191 141 253 C141 315 152 378 192 412 C214 431 241 445 280 445 C313 445 342 433 362 414 C381 395 394 370 398 335 L484 335 C480 390 458 432 424 465 C389 499 340 519 280 519 C189 519 132 477 96 424 C69 384 54 329 54 253 C54 177 69 122 96 82 C132 29 190 -13 281 -13 C343 -13 391 7 427 42 C461 75 482 116 486 170 L486 170 Z " />
<glyph glyph-name="d" unicode="d" horiz-adv-x="595" d="M502 0 L502 722 L417 722 L417 447 C390 493 325 519 270 519 C211 519 164 499 131 468 C80 419 54 339 54 252 C54 168 79 91 127 42 C160 8 208 -13 270 -13 C327 -13 392 15 421 66 L427 0 L502 0 Z M422 253 C422 190 408 129 366 92 C346 74 321 59 284 59 C171 59 141 160 141 253 C141 346 171 447 284 447 C321 447 346 432 366 414 C408 377 422 316 422 253 L422 253 Z " />
<glyph glyph-name="e" unicode="e" horiz-adv-x="551" d="M501 276 C502 344 478 409 437 454 C400 494 348 519 283 519 C195 519 128 474 92 413 C64 366 53 312 53 251 C53 179 74 112 116 63 C155 17 213 -13 284 -13 C332 -13 377 1 413 25 C454 53 484 100 491 150 L408 150 C401 123 392 109 378 95 C357 73 324 62 284 62 C245 62 214 75 191 98 C160 129 142 179 142 225 L500 225 L501 276 Z M414 298 L144 298 C146 372 191 447 283 447 C328 447 362 429 383 401 C403 374 414 336 414 298 L414 298 Z " />
<glyph glyph-name="f" unicode="f" horiz-adv-x="366" d="M361 652 L361 723 C333 728 302 732 267 732 C179 732 120 672 120 596 L120 506 L28 506 L28 434 L120 434 L120 0 L205 0 L205 434 L351 434 L351 506 L205 506 L205 591 C205 632 232 660 277 660 C313 660 334 655 361 652 L361 652 Z " />
<glyph glyph-name="g" unicode="g" horiz-adv-x="540" d="M525 -75 C525 -33 509 0 485 24 C445 65 378 77 318 77 C318 77 251 76 218 77 C186 78 139 83 142 127 C144 151 166 166 185 172 C217 161 236 158 270 158 C337 158 388 182 421 218 C449 249 467 291 467 339 C467 384 455 417 434 444 C439 472 463 490 496 490 C503 490 510 490 515 489 L515 558 C507 559 498 560 490 560 C442 560 403 534 386 489 C355 508 318 519 270 519 C203 519 155 498 120 462 C91 432 72 394 72 339 C72 291 93 241 130 208 C92 190 63 155 63 110 C63 71 88 38 122 25 C82 5 50 -34 50 -87 C50 -127 65 -156 86 -177 C135 -226 211 -236 278 -236 C349 -236 433 -225 482 -177 C506 -153 525 -119 525 -75 L525 -75 Z M384 339 C384 275 338 226 269 226 C197 226 154 275 154 339 C154 403 200 450 269 450 C341 450 384 403 384 339 L384 339 Z M442 -75 C442 -97 434 -114 421 -127 C389 -159 326 -163 283 -163 C239 -163 181 -161 148 -128 C135 -115 127 -98 127 -75 C127 -36 157 -6 191 5 L283 5 C347 5 442 11 442 -75 L442 -75 Z " />
<glyph glyph-name="h" unicode="h" horiz-adv-x="587" d="M502 0 L502 333 C502 450 441 519 326 519 C269 519 208 491 178 439 L178 722 L93 722 L93 0 L178 0 L178 235 C178 274 179 327 196 364 C218 410 257 442 306 442 C386 442 417 397 417 321 L417 0 L502 0 Z " />
<glyph glyph-name="i" unicode="i" horiz-adv-x="273" d="M186 622 L186 722 L87 722 L87 622 L186 622 Z M180 0 L180 506 L93 506 L93 0 L180 0 Z " />
<glyph glyph-name="j" unicode="j" horiz-adv-x="283" d="M196 622 L196 722 L97 722 L97 622 L196 622 Z M190 -71 L190 506 L105 506 L105 -72 C105 -106 86 -136 48 -136 C27 -136 6 -135 -15 -131 L-15 -204 C10 -212 25 -214 51 -214 C147 -214 190 -159 190 -71 L190 -71 Z " />
<glyph glyph-name="k" unicode="k" horiz-adv-x="545" d="M529 0 L330 306 L510 506 L407 506 L178 251 L178 722 L93 722 L93 0 L178 0 L178 136 L275 244 L433 0 L529 0 Z " />
<glyph glyph-name="l" unicode="l" horiz-adv-x="291" d="M256 0 L256 72 C256 72 249 71 221 71 C186 71 175 89 175 123 L175 722 L90 722 L90 118 C90 38 122 -6 196 -6 C237 -6 256 0 256 0 L256 0 Z " />
<glyph glyph-name="m" unicode="m" horiz-adv-x="878" d="M793 0 L793 333 C793 445 739 519 624 519 C560 519 495 486 468 423 C446 485 392 519 317 519 C260 519 202 491 175 434 L167 506 L93 506 L93 0 L178 0 L178 269 C178 311 187 365 212 397 C233 424 262 442 298 442 C379 442 400 393 400 322 L400 0 L485 0 L485 269 C485 322 494 373 528 408 C548 429 573 442 605 442 C685 442 708 393 708 322 L708 0 L793 0 Z " />
<glyph glyph-name="n" unicode="n" horiz-adv-x="585" d="M502 0 L502 333 C502 450 442 519 327 519 C270 519 200 488 174 430 L167 506 L93 506 L93 0 L178 0 L178 235 C178 274 179 327 196 364 C218 410 257 442 306 442 C386 442 417 397 417 321 L417 0 L502 0 Z " />
<glyph glyph-name="o" unicode="o" horiz-adv-x="558" d="M504 253 C504 333 487 406 432 460 C395 496 343 519 279 519 C215 519 163 496 126 460 C71 406 54 333 54 253 C54 173 71 100 126 46 C163 10 215 -13 279 -13 C343 -13 395 10 432 46 C487 100 504 173 504 253 L504 253 Z M417 253 C417 194 406 133 370 96 C349 75 319 60 279 60 C239 60 209 75 188 96 C152 133 141 194 141 253 C141 312 152 373 188 410 C209 431 239 446 279 446 C319 446 349 431 370 410 C406 373 417 312 417 253 L417 253 Z " />
<glyph glyph-name="p" unicode="p" horiz-adv-x="595" d="M541 253 C541 337 516 414 468 463 C435 497 387 518 325 518 C268 518 203 490 174 439 L168 505 L93 505 L93 -217 L178 -217 L178 58 C205 12 270 -14 325 -14 C384 -14 431 6 464 37 C515 86 541 166 541 253 L541 253 Z M454 252 C454 159 424 58 311 58 C274 58 249 73 229 91 C187 128 173 189 173 252 C173 315 187 376 229 413 C249 431 274 446 311 446 C424 446 454 345 454 252 L454 252 Z " />
<glyph glyph-name="q" unicode="q" horiz-adv-x="595" d="M502 -217 L502 505 L427 505 L421 439 C392 490 327 518 270 518 C208 518 160 497 127 463 C79 414 54 337 54 253 C54 166 80 86 131 37 C164 6 211 -14 270 -14 C325 -14 390 12 417 58 L417 -217 L502 -217 Z M422 252 C422 189 408 128 366 91 C346 73 321 58 284 58 C171 58 141 159 141 252 C141 345 171 446 284 446 C321 446 346 431 366 413 C408 376 422 315 422 252 L422 252 Z " />
<glyph glyph-name="r" unicode="r" horiz-adv-x="384" d="M366 423 L366 506 C353 508 339 509 326 509 C262 509 201 479 175 417 L168 506 L93 506 L93 0 L177 0 L177 225 C177 278 182 348 223 387 C246 409 279 427 319 427 C334 427 351 426 366 423 L366 423 Z " />
<glyph glyph-name="s" unicode="s" horiz-adv-x="521" d="M468 147 C468 223 411 275 339 287 C285 296 245 300 217 304 C175 310 149 328 149 370 C149 398 168 425 200 438 C224 448 239 448 259 448 C293 448 321 440 342 421 C357 408 370 384 371 358 L456 358 C456 399 442 428 420 455 C386 498 326 519 259 519 C196 519 143 497 110 463 C87 440 68 403 68 364 C68 287 116 240 192 228 C227 223 284 216 306 213 C358 206 385 179 385 141 C385 118 374 97 360 86 C334 64 302 58 267 58 C235 58 199 64 176 81 C152 99 136 125 135 160 L50 160 C50 117 68 74 99 44 C142 2 200 -13 263 -13 C329 -13 389 4 428 44 C452 69 468 103 468 147 L468 147 Z " />
<glyph glyph-name="t" unicode="t" horiz-adv-x="385" d="M355 7 L355 80 C355 80 304 71 268 71 C221 71 200 91 200 140 L200 433 L350 433 L350 506 L200 506 L200 655 L115 635 L115 506 L17 506 L17 433 L115 433 L115 130 C115 62 145 -7 254 -7 C301 -7 332 1 355 7 L355 7 Z " />
<glyph glyph-name="u" unicode="u" horiz-adv-x="582" d="M489 0 L489 506 L404 506 L404 243 C404 191 394 136 362 103 C340 80 312 65 278 65 C198 65 170 110 170 186 L170 506 L85 506 L85 174 C85 57 143 -12 258 -12 C317 -12 382 19 408 77 L415 0 L489 0 Z " />
<glyph glyph-name="v" unicode="v" horiz-adv-x="486" d="M474 506 L388 506 L247 100 L101 506 L12 506 L199 0 L291 0 L474 506 Z " />
<glyph glyph-name="w" unicode="w" horiz-adv-x="767" d="M729 506 L646 506 L548 124 L421 500 L348 500 L219 124 L122 506 L38 506 L168 0 L249 0 L384 387 L516 0 L598 0 L729 506 Z " />
<glyph glyph-name="x" unicode="x" horiz-adv-x="498" d="M481 0 L305 258 L476 506 L378 506 L251 315 L119 506 L19 506 L189 258 L17 0 L114 0 L246 199 L379 0 L481 0 Z " />
<glyph glyph-name="y" unicode="y" horiz-adv-x="498" d="M488 506 L399 506 L257 107 L108 506 L12 506 L214 0 L182 -85 C168 -123 142 -136 106 -136 C73 -136 46 -128 46 -128 L46 -202 C53 -204 81 -212 123 -212 C199 -212 236 -169 260 -104 L488 506 Z " />
<glyph glyph-name="z" unicode="z" horiz-adv-x="501" d="M453 0 L453 74 L157 74 L450 431 L450 506 L53 506 L53 432 L347 432 L53 75 L53 0 L453 0 Z " />
<glyph glyph-name="braceleft" unicode="&#x7b;" horiz-adv-x="349" d="M339 -119 L339 -56 L313 -56 C243 -56 225 -6 225 55 L225 216 C225 273 184 309 131 322 L131 324 C190 335 225 370 225 432 L225 593 C225 660 240 695 312 695 L338 695 L338 758 L312 758 C188 758 156 701 156 587 L156 433 C156 383 96 360 55 355 L55 283 C101 279 156 262 156 207 L156 51 C156 -58 194 -119 312 -119 L339 -119 Z " />
<glyph glyph-name="bar" unicode="&#x7c;" horiz-adv-x="269" d="M169 -119 L169 758 L100 758 L100 -119 L169 -119 Z " />
<glyph glyph-name="braceright" unicode="&#x7d;" horiz-adv-x="349" d="M294 283 L294 355 C253 360 193 383 193 433 L193 587 C193 701 161 758 37 758 L11 758 L11 695 L37 695 C109 695 124 660 124 593 L124 432 C124 370 159 335 218 324 L218 322 C165 309 124 273 124 216 L124 55 C124 -6 106 -56 36 -56 L10 -56 L10 -119 L37 -119 C155 -119 193 -58 193 51 L193 207 C193 263 248 279 294 283 L294 283 Z " />
<glyph glyph-name="asciitilde" unicode="&#x7e;" horiz-adv-x="639" d="M564 311 L514 368 C470 323 444 320 417 320 C404 320 391 323 378 328 C353 337 328 351 302 361 C276 371 250 378 222 378 C174 378 137 365 75 300 L124 244 C168 289 194 293 221 293 C249 293 275 279 300 267 C339 248 380 233 417 233 C465 233 501 246 564 311 L564 311 Z " />
<glyph glyph-name="nbspace" unicode="&#xa0;" horiz-adv-x="230" d="" />
<glyph glyph-name="exclamdown" unicode="&#xa1;" horiz-adv-x="331" d="M201 396 L201 505 L95 505 L95 396 L201 396 Z M197 -204 L197 20 L176 290 L118 290 L95 20 L95 -204 L197 -204 Z " />
<glyph glyph-name="cent" unicode="&#xa2;" horiz-adv-x="560" d="M496 271 L410 271 C406 238 394 212 376 193 C361 177 341 167 317 162 L317 540 C339 536 358 526 372 512 C391 493 404 465 408 430 L494 430 C490 485 468 530 434 563 C404 591 365 611 317 616 L317 709 L256 709 L256 615 C185 607 139 572 105 522 C74 476 64 417 64 351 C64 285 75 225 106 179 C140 130 186 95 256 87 L256 0 L317 0 L317 86 C366 91 407 110 437 140 C471 173 492 217 496 271 L496 271 Z M256 162 C172 180 151 265 151 351 C151 436 173 522 256 540 L256 162 Z " />
<glyph glyph-name="sterling" unicode="&#xa3;" horiz-adv-x="560" d="M543 157 L459 157 C458 108 433 76 382 76 L174 76 L174 78 C207 87 217 125 217 155 L217 331 L378 331 L378 404 L217 404 L217 513 C217 581 247 635 323 635 C388 635 428 592 428 530 L513 530 C513 631 439 710 325 710 C199 710 131 615 131 513 L131 404 L51 404 L51 331 L131 331 L131 159 C131 107 104 80 52 79 L52 0 L379 0 C483 0 543 50 543 157 L543 157 Z " />
<glyph glyph-name="currency" unicode="&#xa4;" horiz-adv-x="560" d="M543 52 L465 120 C491 157 507 206 507 254 C507 302 491 351 465 388 L543 453 L478 520 L409 442 C372 468 329 482 280 482 C231 482 188 468 150 442 L83 519 L17 453 L96 388 C70 351 54 302 54 254 C54 206 70 157 96 120 L17 52 L82 -12 L151 66 C189 40 231 25 280 25 C329 25 372 40 409 66 L479 -12 L543 52 Z M425 254 C425 170 374 103 280 103 C186 103 135 176 135 254 C135 340 182 404 280 404 C370 404 425 337 425 254 L425 254 Z " />
<glyph glyph-name="yen" unicode="&#xa5;" horiz-adv-x="560" d="M545 695 L453 695 L283 386 L109 695 L15 695 L193 382 L72 382 L72 321 L235 321 L235 230 L72 230 L72 169 L235 169 L235 0 L324 0 L324 169 L498 169 L498 230 L324 230 L324 321 L498 321 L498 382 L366 382 L545 695 Z " />
<glyph glyph-name="brokenbar" unicode="&#xa6;" horiz-adv-x="276" d="M176 450 L176 759 L100 759 L100 450 L176 450 Z M176 -50 L176 258 L100 258 L100 -50 L176 -50 Z " />
<glyph glyph-name="section" unicode="&#xa7;" horiz-adv-x="562" d="M502 163 C502 217 484 259 437 298 L235 469 C209 491 193 517 193 551 C193 605 235 639 288 639 C316 639 344 628 360 610 C380 588 386 560 386 532 L469 532 C469 581 453 625 423 657 C390 692 343 711 288 711 C235 711 189 692 157 661 C129 634 110 596 110 549 C110 505 125 470 151 440 C108 414 65 365 65 305 C65 251 83 209 130 170 L332 -1 C358 -23 374 -49 374 -83 C374 -137 332 -171 279 -171 C251 -171 223 -160 207 -142 C187 -120 181 -92 181 -64 L98 -64 C98 -113 114 -157 144 -189 C177 -224 224 -243 279 -243 C332 -243 378 -226 410 -195 C438 -168 457 -128 457 -81 C457 -37 442 -2 416 28 C459 54 502 103 502 163 L502 163 Z M384 236 C437 191 431 108 367 74 L183 232 C130 277 136 360 200 394 L384 236 Z " />
<glyph glyph-name="dieresis" unicode="&#xa8;" horiz-adv-x="290" d="M279 599 L279 691 L187 691 L187 599 L279 599 Z M103 599 L103 691 L11 691 L11 599 L103 599 Z " />
<glyph glyph-name="copyright" unicode="&#xa9;" horiz-adv-x="858" d="M790 355 C790 560 636 722 429 722 C222 722 68 559 68 354 C68 149 222 -13 429 -13 C636 -13 790 150 790 355 L790 355 Z M723 355 C723 180 606 51 429 51 C252 51 135 179 135 354 C135 529 252 658 429 658 C606 658 723 530 723 355 L723 355 Z M601 300 L525 300 C518 246 480 221 435 221 C404 221 377 235 360 256 C339 282 331 318 331 354 C331 390 340 426 361 452 C378 473 404 487 435 487 C480 487 518 462 525 408 L601 408 C594 492 527 552 435 552 C321 552 256 460 256 354 C256 304 266 268 294 228 C324 185 373 156 435 156 C524 156 593 214 601 300 L601 300 Z " />
<glyph glyph-name="ordfeminine" unicode="&#xaa;" horiz-adv-x="484" d="M420 315 L420 366 C420 366 408 364 402 364 C390 364 382 368 382 388 L382 574 C382 596 380 616 372 634 C354 677 310 709 235 709 C154 709 84 671 82 583 L149 583 C149 603 155 619 167 631 C180 644 201 653 235 653 C266 653 285 645 297 634 C314 619 315 595 315 576 L315 550 L202 543 C96 537 63 471 63 421 C63 360 108 301 197 301 C250 301 295 324 318 361 C320 330 342 305 376 305 C392 305 405 307 420 315 L420 315 Z M315 475 C315 444 306 412 283 389 C263 368 236 359 207 359 C153 359 133 390 133 423 C133 470 176 488 215 490 L315 496 L315 475 Z " />
<glyph glyph-name="guillemotleft" unicode="&#xab;" horiz-adv-x="550" d="M495 108 L383 299 L494 490 L441 528 L277 298 L441 68 L495 108 Z M263 108 L151 299 L262 490 L209 528 L45 298 L209 68 L263 108 Z " />
<glyph glyph-name="logicalnot" unicode="&#xac;" horiz-adv-x="625" d="M540 99 L540 341 L55 341 L55 264 L462 264 L462 99 L540 99 Z " />
<glyph glyph-name="registered" unicode="&#xae;" horiz-adv-x="858" d="M790 355 C790 560 636 722 429 722 C222 722 68 559 68 354 C68 149 222 -13 429 -13 C636 -13 790 150 790 355 L790 355 Z M723 355 C723 180 606 51 429 51 C252 51 135 179 135 354 C135 529 252 658 429 658 C606 658 723 530 723 355 L723 355 Z M583 169 L512 321 C559 342 581 382 581 432 C581 510 518 552 445 552 L304 552 L304 169 L371 169 L371 310 L446 310 L510 169 L583 169 Z M511 432 C511 390 485 372 445 372 L370 372 L370 490 L445 490 C481 490 511 471 511 432 L511 432 Z " />
<glyph glyph-name="macron" unicode="&#xaf;" horiz-adv-x="296" d="M287 608 L287 676 L9 676 L9 608 L287 608 Z " />
<glyph glyph-name="degree" unicode="&#xb0;" horiz-adv-x="461" d="M396 558 C396 654 324 722 230 722 C136 722 65 654 65 558 C65 462 136 394 230 394 C324 394 396 462 396 558 L396 558 Z M321 558 C321 503 282 465 230 465 C178 465 140 503 140 558 C140 613 178 651 230 651 C282 651 321 613 321 558 L321 558 Z " />
<glyph glyph-name="plusminus" unicode="&#xb1;" horiz-adv-x="569" d="M504 332 L504 402 L320 402 L320 587 L250 587 L250 402 L65 402 L65 332 L250 332 L250 145 L320 145 L320 332 L504 332 Z M504 0 L504 69 L65 69 L65 0 L504 0 Z " />
<glyph glyph-name="twosuperior" unicode="&#xb2;" horiz-adv-x="412" d="M347 343 L347 409 L179 409 L260 477 C303 513 337 541 337 599 C337 674 278 716 206 716 C126 716 67 666 65 583 L136 583 C138 625 160 653 204 653 C228 653 248 646 259 628 C264 622 267 614 267 603 C267 573 251 555 228 536 L73 406 L73 343 L347 343 Z " />
<glyph glyph-name="threesuperior" unicode="&#xb3;" horiz-adv-x="414" d="M349 447 C349 482 324 520 286 530 C320 538 342 576 342 608 C342 636 332 657 318 674 C294 703 254 717 208 717 C166 717 129 705 103 681 C82 661 68 635 68 598 L137 598 C138 644 176 661 207 661 C242 661 270 641 270 612 C270 584 260 569 238 563 C216 557 206 559 184 559 L184 502 L212 502 C258 502 278 479 278 446 C278 407 245 393 207 393 C165 393 135 417 134 461 L65 461 C65 428 78 401 95 381 C121 351 163 336 207 336 C254 336 296 348 324 378 C339 395 349 417 349 447 L349 447 Z " />
<glyph glyph-name="acute" unicode="&#xb4;" horiz-adv-x="244" d="M230 650 L185 721 L15 598 L45 551 L230 650 Z " />
<glyph glyph-name="mu" unicode="&#xb5;" horiz-adv-x="590" d="M497 0 L497 506 L412 506 L412 243 C412 191 402 136 370 103 C348 80 320 65 286 65 C206 65 178 110 178 186 L178 447 L178 506 L93 506 L93 447 L93 174 L93 -200 L178 -200 L178 14 C196 0 232 -12 266 -12 C325 -12 390 19 416 77 L423 0 L497 0 Z " />
<glyph glyph-name="paragraph" unicode="&#xb6;" horiz-adv-x="657" d="M582 640 L582 709 L253 709 C149 709 65 625 65 521 C65 417 149 332 253 332 L253 -125 L328 -125 L328 640 L440 640 L440 -125 L513 -125 L513 640 L582 640 Z " />
<glyph glyph-name="periodcentered" unicode="&#xb7;" horiz-adv-x="298" d="M208 247 L208 366 L90 366 L90 247 L208 247 Z " />
<glyph glyph-name="cedilla" unicode="&#xb8;" horiz-adv-x="174" d="M165 -59 L87 -59 L8 -194 L96 -235 L165 -59 Z " />
<glyph glyph-name="onesuperior" unicode="&#xb9;" horiz-adv-x="310" d="M218 345 L218 709 L152 709 L55 642 L55 563 L147 626 L147 345 L218 345 Z " />
<glyph glyph-name="ordmasculine" unicode="&#xba;" horiz-adv-x="484" d="M413 505 C413 566 401 621 359 663 C331 691 291 709 242 709 C193 709 154 691 126 663 C84 621 71 566 71 505 C71 444 84 388 126 346 C154 318 193 300 242 300 C291 300 331 318 359 346 C401 388 413 444 413 505 L413 505 Z M343 505 C343 460 336 414 309 386 C294 370 272 360 242 360 C212 360 191 370 176 386 C149 414 142 460 142 505 C142 550 149 595 176 623 C191 639 212 649 242 649 C272 649 294 639 309 623 C336 595 343 550 343 505 L343 505 Z " />
<glyph glyph-name="guillemotright" unicode="&#xbb;" horiz-adv-x="550" d="M505 298 L341 528 L288 490 L399 299 L287 108 L341 68 L505 298 Z M273 298 L109 528 L56 490 L167 299 L55 108 L109 68 L273 298 Z " />
<glyph glyph-name="onequarter" unicode="&#xbc;" horiz-adv-x="860" d="M795 75 L795 134 L736 134 L736 212 L667 212 L667 134 L565 134 L713 369 L632 369 L489 144 L489 75 L667 75 L667 0 L736 0 L736 75 L795 75 Z M710 685 L655 724 L140 20 L194 -21 L710 685 Z M247 345 L247 709 L181 709 L84 642 L84 563 L176 626 L176 345 L247 345 Z " />
<glyph glyph-name="onehalf" unicode="&#xbd;" horiz-adv-x="909" d="M804 -1 L804 65 L636 65 L717 133 C760 169 794 197 794 255 C794 330 735 372 663 372 C582 372 524 322 522 239 L593 239 C594 281 617 309 661 309 C685 309 705 301 716 284 C720 277 724 269 724 259 C724 228 708 211 685 192 L530 62 L530 -1 L804 -1 Z M705 685 L650 724 L135 20 L189 -21 L705 685 Z M242 345 L242 709 L176 709 L79 642 L79 563 L171 626 L171 345 L242 345 Z " />
<glyph glyph-name="threequarters" unicode="&#xbe;" horiz-adv-x="902" d="M837 75 L837 134 L778 134 L778 212 L709 212 L709 134 L607 134 L755 369 L674 369 L531 144 L531 75 L709 75 L709 0 L778 0 L778 75 L837 75 Z M752 685 L697 724 L182 20 L236 -21 L752 685 Z M349 447 C349 482 324 520 286 530 C320 538 342 576 342 608 C342 636 332 657 318 674 C294 703 254 717 208 717 C166 717 129 705 103 681 C82 661 68 635 68 598 L137 598 C138 644 176 661 207 661 C242 661 270 641 270 612 C270 584 260 569 238 563 C216 557 206 559 184 559 L184 502 L212 502 C258 502 278 479 278 446 C278 407 245 393 207 393 C165 393 135 417 134 461 L65 461 C65 428 78 401 95 381 C121 351 163 336 207 336 C254 336 296 348 324 378 C339 395 349 417 349 447 L349 447 Z " />
<glyph glyph-name="questiondown" unicode="&#xbf;" horiz-adv-x="504" d="M304 397 L304 507 L198 507 L198 397 L304 397 Z M464 2 L374 2 C374 -76 327 -141 240 -141 C204 -141 170 -128 148 -105 C129 -85 118 -60 118 -29 C118 24 139 56 179 87 C258 148 291 183 291 290 L291 318 L209 318 L209 293 C209 232 202 202 138 156 C70 106 30 52 30 -28 C30 -147 127 -218 240 -218 C387 -218 464 -111 464 2 L464 2 Z " />
<glyph glyph-name="Agrave" unicode="&#xc0;" horiz-adv-x="621" d="M613 0 L362 709 L258 709 L8 0 L98 0 L155 168 L463 168 L521 0 L613 0 Z M434 252 L183 252 L308 620 L434 252 Z M407 802 L236 925 L191 854 L376 755 L407 802 Z " />
<glyph glyph-name="Aacute" unicode="&#xc1;" horiz-adv-x="621" d="M613 0 L362 709 L258 709 L8 0 L98 0 L155 168 L463 168 L521 0 L613 0 Z M434 252 L183 252 L308 620 L434 252 Z M407 853 L362 924 L192 801 L222 754 L407 853 Z " />
<glyph glyph-name="Acircumflex" unicode="&#xc2;" horiz-adv-x="621" d="M613 0 L362 709 L258 709 L8 0 L98 0 L155 168 L463 168 L521 0 L613 0 Z M434 252 L183 252 L308 620 L434 252 Z M457 798 L332 929 L277 929 L152 798 L197 753 L304 868 L412 753 L457 798 Z " />
<glyph glyph-name="Atilde" unicode="&#xc3;" horiz-adv-x="621" d="M613 0 L362 709 L258 709 L8 0 L98 0 L155 168 L463 168 L521 0 L613 0 Z M434 252 L183 252 L308 620 L434 252 Z M466 835 L429 877 C414 860 392 847 366 847 C343 847 324 858 304 869 C284 880 263 891 235 891 C189 891 159 866 133 837 L172 795 C190 813 207 823 234 823 C256 823 275 812 293 802 C313 791 335 781 365 781 C412 781 444 807 466 835 L466 835 Z " />
<glyph glyph-name="Adieresis" unicode="&#xc4;" horiz-adv-x="621" d="M613 0 L362 709 L258 709 L8 0 L98 0 L155 168 L463 168 L521 0 L613 0 Z M434 252 L183 252 L308 620 L434 252 Z M442 789 L442 881 L350 881 L350 789 L442 789 Z M266 789 L266 881 L174 881 L174 789 L266 789 Z " />
<glyph glyph-name="Aring" unicode="&#xc5;" horiz-adv-x="621" d="M613 0 L376 670 C411 692 431 730 431 770 C431 831 385 888 309 888 C233 888 188 831 188 770 C188 730 208 690 244 669 L8 0 L98 0 L155 168 L463 168 L521 0 L613 0 Z M369 770 C369 737 346 709 309 709 C272 709 249 737 249 770 C249 803 272 832 309 832 C346 832 369 803 369 770 L369 770 Z M434 252 L183 252 L308 620 L434 252 Z " />
<glyph glyph-name="AE" unicode="&#xc6;" horiz-adv-x="914" d="M863 0 L863 84 L525 84 L525 337 L814 337 L814 421 L525 421 L525 626 L863 626 L863 709 L320 709 L0 0 L98 0 L181 189 L435 189 L435 0 L863 0 Z M435 273 L218 273 L375 629 L435 629 L435 273 Z " />
<glyph glyph-name="Ccedilla" unicode="&#xc7;" horiz-adv-x="634" d="M594 226 L502 226 C501 187 486 150 463 124 C435 93 388 70 334 70 C286 70 239 89 205 124 C147 184 145 280 145 354 C145 428 147 524 205 584 C239 619 286 638 334 638 C388 638 434 617 462 586 C485 560 500 526 501 487 L593 487 C590 553 564 607 523 649 C480 692 411 722 334 722 C263 722 193 696 142 646 C65 571 53 467 53 354 C53 241 65 137 142 62 C193 12 263 -14 334 -14 C411 -14 481 19 524 62 C565 104 591 160 594 226 L594 226 Z M391 -48 L313 -48 L234 -183 L322 -224 L391 -48 Z " />
<glyph glyph-name="Egrave" unicode="&#xc8;" horiz-adv-x="625" d="M574 0 L574 82 L189 82 L189 327 L527 327 L527 411 L189 411 L189 627 L574 627 L574 709 L100 709 L100 0 L574 0 Z M441 807 L270 930 L225 859 L410 760 L441 807 Z " />
<glyph glyph-name="Eacute" unicode="&#xc9;" horiz-adv-x="625" d="M574 0 L574 82 L189 82 L189 327 L527 327 L527 411 L189 411 L189 627 L574 627 L574 709 L100 709 L100 0 L574 0 Z M446 853 L401 924 L231 801 L261 754 L446 853 Z " />
<glyph glyph-name="Ecircumflex" unicode="&#xca;" horiz-adv-x="625" d="M574 0 L574 82 L189 82 L189 327 L527 327 L527 411 L189 411 L189 627 L574 627 L574 709 L100 709 L100 0 L574 0 Z M489 803 L364 934 L309 934 L184 803 L229 758 L336 873 L444 758 L489 803 Z " />
<glyph glyph-name="Edieresis" unicode="&#xcb;" horiz-adv-x="625" d="M574 0 L574 82 L189 82 L189 327 L527 327 L527 411 L189 411 L189 627 L574 627 L574 709 L100 709 L100 0 L574 0 Z M477 789 L477 881 L385 881 L385 789 L477 789 Z M301 789 L301 881 L209 881 L209 789 L301 789 Z " />
<glyph glyph-name="Igrave" unicode="&#xcc;" horiz-adv-x="291" d="M191 0 L191 709 L100 709 L100 0 L191 0 Z M252 802 L81 925 L36 854 L221 755 L252 802 Z " />
<glyph glyph-name="Iacute" unicode="&#xcd;" horiz-adv-x="291" d="M191 0 L191 709 L100 709 L100 0 L191 0 Z M315 853 L270 924 L100 801 L130 754 L315 853 Z " />
<glyph glyph-name="Icircumflex" unicode="&#xce;" horiz-adv-x="291" d="M191 0 L191 709 L100 709 L100 0 L191 0 Z M298 798 L173 929 L118 929 L-7 798 L38 753 L145 868 L253 753 L298 798 Z " />
<glyph glyph-name="Idieresis" unicode="&#xcf;" horiz-adv-x="291" d="M191 0 L191 709 L100 709 L100 0 L191 0 Z M368 789 L368 881 L276 881 L276 789 L368 789 Z M192 789 L192 881 L100 881 L100 789 L192 789 Z " />
<glyph glyph-name="Eth" unicode="&#xd0;" horiz-adv-x="690" d="M637 355 C637 457 624 563 546 637 C496 685 429 709 360 709 L113 709 L113 401 L40 401 L40 335 L113 335 L113 0 L360 0 C429 0 496 23 546 71 C623 145 637 253 637 355 L637 355 Z M547 355 C547 279 542 188 486 131 C453 98 406 82 360 82 L202 82 L202 335 L348 335 L348 401 L202 401 L202 627 L360 627 C406 627 453 611 486 578 C542 520 547 431 547 355 L547 355 Z " />
<glyph glyph-name="Ntilde" unicode="&#xd1;" horiz-adv-x="734" d="M634 0 L634 709 L548 709 L548 137 L200 709 L100 709 L100 0 L186 0 L186 570 L534 0 L634 0 Z M526 827 L489 869 C474 852 452 839 426 839 C403 839 384 850 364 861 C344 872 323 883 295 883 C249 883 219 858 193 829 L232 787 C250 805 267 815 294 815 C316 815 335 804 353 794 C373 783 395 773 425 773 C472 773 504 799 526 827 L526 827 Z " />
<glyph glyph-name="Ograve" unicode="&#xd2;" horiz-adv-x="670" d="M617 354 C617 467 603 571 526 646 C475 696 406 722 335 722 C264 722 195 696 144 646 C67 571 53 467 53 354 C53 241 67 137 144 62 C195 12 264 -14 335 -14 C406 -14 475 12 526 62 C603 137 617 241 617 354 L617 354 Z M525 354 C525 280 522 184 464 124 C430 89 383 71 335 71 C287 71 240 89 206 124 C148 184 145 280 145 354 C145 428 148 524 206 584 C240 619 287 637 335 637 C383 637 430 619 464 584 C522 524 525 428 525 354 L525 354 Z M441 807 L270 930 L225 859 L410 760 L441 807 Z " />
<glyph glyph-name="Oacute" unicode="&#xd3;" horiz-adv-x="670" d="M617 354 C617 467 603 571 526 646 C475 696 406 722 335 722 C264 722 195 696 144 646 C67 571 53 467 53 354 C53 241 67 137 144 62 C195 12 264 -14 335 -14 C406 -14 475 12 526 62 C603 137 617 241 617 354 L617 354 Z M525 354 C525 280 522 184 464 124 C430 89 383 71 335 71 C287 71 240 89 206 124 C148 184 145 280 145 354 C145 428 148 524 206 584 C240 619 287 637 335 637 C383 637 430 619 464 584 C522 524 525 428 525 354 L525 354 Z M442 858 L397 929 L227 806 L257 759 L442 858 Z " />
<glyph glyph-name="Ocircumflex" unicode="&#xd4;" horiz-adv-x="670" d="M617 354 C617 467 603 571 526 646 C475 696 406 722 335 722 C264 722 195 696 144 646 C67 571 53 467 53 354 C53 241 67 137 144 62 C195 12 264 -14 335 -14 C406 -14 475 12 526 62 C603 137 617 241 617 354 L617 354 Z M525 354 C525 280 522 184 464 124 C430 89 383 71 335 71 C287 71 240 89 206 124 C148 184 145 280 145 354 C145 428 148 524 206 584 C240 619 287 637 335 637 C383 637 430 619 464 584 C522 524 525 428 525 354 L525 354 Z M492 798 L367 929 L312 929 L187 798 L232 753 L339 868 L447 753 L492 798 Z " />
<glyph glyph-name="Otilde" unicode="&#xd5;" horiz-adv-x="670" d="M617 354 C617 467 603 571 526 646 C475 696 406 722 335 722 C264 722 195 696 144 646 C67 571 53 467 53 354 C53 241 67 137 144 62 C195 12 264 -14 335 -14 C406 -14 475 12 526 62 C603 137 617 241 617 354 L617 354 Z M525 354 C525 280 522 184 464 124 C430 89 383 71 335 71 C287 71 240 89 206 124 C148 184 145 280 145 354 C145 428 148 524 206 584 C240 619 287 637 335 637 C383 637 430 619 464 584 C522 524 525 428 525 354 L525 354 Z M502 834 L465 876 C450 859 428 846 402 846 C379 846 360 857 340 868 C320 879 299 890 271 890 C225 890 195 865 169 836 L208 794 C226 812 243 822 270 822 C292 822 311 811 329 801 C349 790 371 780 401 780 C448 780 480 806 502 834 L502 834 Z " />
<glyph glyph-name="Odieresis" unicode="&#xd6;" horiz-adv-x="670" d="M617 354 C617 467 603 571 526 646 C475 696 406 722 335 722 C264 722 195 696 144 646 C67 571 53 467 53 354 C53 241 67 137 144 62 C195 12 264 -14 335 -14 C406 -14 475 12 526 62 C603 137 617 241 617 354 L617 354 Z M525 354 C525 280 522 184 464 124 C430 89 383 71 335 71 C287 71 240 89 206 124 C148 184 145 280 145 354 C145 428 148 524 206 584 C240 619 287 637 335 637 C383 637 430 619 464 584 C522 524 525 428 525 354 L525 354 Z M472 791 L472 883 L380 883 L380 791 L472 791 Z M296 791 L296 883 L204 883 L204 791 L296 791 Z " />
<glyph glyph-name="multiply" unicode="&#xd7;" horiz-adv-x="682" d="M617 76 L394 298 L617 520 L563 574 L340 352 L119 574 L65 520 L287 298 L65 76 L119 22 L341 244 L563 22 L617 76 Z " />
<glyph glyph-name="Oslash" unicode="&#xd8;" horiz-adv-x="670" d="M617 354 C617 467 603 571 526 646 C519 653 511 660 503 666 L538 743 L483 768 L451 697 C415 714 375 722 335 722 C264 722 195 696 144 646 C67 571 53 467 53 354 C53 241 67 137 144 62 C148 58 152 55 156 51 L113 -43 L169 -69 L208 16 C247 -4 290 -14 335 -14 C406 -14 475 12 526 62 C603 137 617 241 617 354 L617 354 Z M525 354 C525 280 522 184 464 124 C430 89 383 71 335 71 C303 71 271 79 244 95 L465 583 C522 523 525 427 525 354 L525 354 Z M415 619 L195 137 C148 197 145 285 145 354 C145 428 148 524 206 584 C240 619 287 637 335 637 C363 637 390 631 415 619 L415 619 Z " />
<glyph glyph-name="Ugrave" unicode="&#xd9;" horiz-adv-x="678" d="M598 260 L598 709 L509 709 L509 258 C509 145 462 70 339 70 C216 70 169 145 169 258 L169 709 L80 709 L80 260 C80 83 180 -13 339 -13 C498 -13 598 83 598 260 L598 260 Z M433 802 L262 925 L217 854 L402 755 L433 802 Z " />
<glyph glyph-name="Uacute" unicode="&#xda;" horiz-adv-x="678" d="M598 260 L598 709 L509 709 L509 258 C509 145 462 70 339 70 C216 70 169 145 169 258 L169 709 L80 709 L80 260 C80 83 180 -13 339 -13 C498 -13 598 83 598 260 L598 260 Z M454 853 L409 924 L239 801 L269 754 L454 853 Z " />
<glyph glyph-name="Ucircumflex" unicode="&#xdb;" horiz-adv-x="678" d="M598 260 L598 709 L509 709 L509 258 C509 145 462 70 339 70 C216 70 169 145 169 258 L169 709 L80 709 L80 260 C80 83 180 -13 339 -13 C498 -13 598 83 598 260 L598 260 Z M502 798 L377 929 L322 929 L197 798 L242 753 L349 868 L457 753 L502 798 Z " />
<glyph glyph-name="Udieresis" unicode="&#xdc;" horiz-adv-x="678" d="M598 260 L598 709 L509 709 L509 258 C509 145 462 70 339 70 C216 70 169 145 169 258 L169 709 L80 709 L80 260 C80 83 180 -13 339 -13 C498 -13 598 83 598 260 L598 260 Z M484 790 L484 882 L392 882 L392 790 L484 790 Z M308 790 L308 882 L216 882 L216 790 L308 790 Z " />
<glyph glyph-name="Yacute" unicode="&#xdd;" horiz-adv-x="566" d="M397 847 L352 920 L182 797 L211 749 L397 847 Z M566 709 L471 709 L286 372 L100 709 L0 709 L238 288 L238 0 L328 0 L328 288 L566 709 Z " />
<glyph glyph-name="Thorn" unicode="&#xde;" horiz-adv-x="607" d="M577 363 C577 425 557 476 523 513 C485 554 427 577 344 577 L190 577 L190 710 L100 710 L100 0 L190 0 L190 143 L345 143 C423 143 480 164 518 202 C556 240 577 294 577 363 L577 363 Z M485 363 C485 271 446 224 343 224 L190 224 L190 496 L342 496 C442 496 485 447 485 363 L485 363 Z " />
<glyph glyph-name="germandbls" unicode="&#xdf;" horiz-adv-x="608" d="M563 208 C563 301 502 383 406 395 C471 412 515 475 515 548 C515 657 437 732 315 732 C187 732 111 648 111 506 L25 506 L25 430 L110 430 L110 0 L196 0 L196 503 C196 592 228 660 315 660 C389 660 428 614 428 548 C428 480 377 428 315 428 L287 428 L287 354 L315 354 C404 354 475 316 475 208 C475 111 409 68 324 68 C302 68 279 69 257 73 L257 2 C284 -4 313 -6 341 -6 C469 -6 563 73 563 208 L563 208 Z " />
<glyph glyph-name="agrave" unicode="&#xe0;" horiz-adv-x="559" d="M517 5 L517 68 C517 68 504 65 495 65 C478 65 467 72 467 99 L467 344 C467 373 462 399 452 422 C428 477 372 519 274 519 C212 519 152 501 118 465 C92 438 75 405 74 359 L157 359 C157 384 166 404 182 420 C199 437 228 450 274 450 C315 450 340 440 357 424 C380 403 383 372 383 347 L383 310 L229 301 C91 293 49 208 49 143 C49 65 107 -13 223 -13 C294 -13 357 19 386 70 L388 70 C388 27 416 -7 461 -7 C482 -7 499 -4 517 5 L517 5 Z M383 214 C383 172 370 130 340 99 C313 71 275 58 236 58 C164 58 136 100 136 145 C136 209 196 233 247 236 L383 244 L383 214 Z M355 554 L385 601 L215 725 L170 654 L355 554 Z " />
<glyph glyph-name="aacute" unicode="&#xe1;" horiz-adv-x="559" d="M517 5 L517 68 C517 68 504 65 495 65 C478 65 467 72 467 99 L467 344 C467 373 462 399 452 422 C428 477 372 519 274 519 C212 519 152 501 118 465 C92 438 75 405 74 359 L157 359 C157 384 166 404 182 420 C199 437 228 450 274 450 C315 450 340 440 357 424 C380 403 383 372 383 347 L383 310 L229 301 C91 293 49 208 49 143 C49 65 107 -13 223 -13 C294 -13 357 19 386 70 L388 70 C388 27 416 -7 461 -7 C482 -7 499 -4 517 5 L517 5 Z M383 214 C383 172 370 130 340 99 C313 71 275 58 236 58 C164 58 136 100 136 145 C136 209 196 233 247 236 L383 244 L383 214 Z M379 654 L334 725 L164 602 L194 555 L379 654 Z " />
<glyph glyph-name="acircumflex" unicode="&#xe2;" horiz-adv-x="559" d="M517 5 L517 68 C517 68 504 65 495 65 C478 65 467 72 467 99 L467 344 C467 373 462 399 452 422 C428 477 372 519 274 519 C212 519 152 501 118 465 C92 438 75 405 74 359 L157 359 C157 384 166 404 182 420 C199 437 228 450 274 450 C315 450 340 440 357 424 C380 403 383 372 383 347 L383 310 L229 301 C91 293 49 208 49 143 C49 65 107 -13 223 -13 C294 -13 357 19 386 70 L388 70 C388 27 416 -7 461 -7 C482 -7 499 -4 517 5 L517 5 Z M383 214 C383 172 370 130 340 99 C313 71 275 58 236 58 C164 58 136 100 136 145 C136 209 196 233 247 236 L383 244 L383 214 Z M426 602 L301 733 L246 733 L121 602 L166 557 L273 672 L381 557 L426 602 Z " />
<glyph glyph-name="atilde" unicode="&#xe3;" horiz-adv-x="559" d="M517 5 L517 68 C517 68 504 65 495 65 C478 65 467 72 467 99 L467 344 C467 373 462 399 452 422 C428 477 372 519 274 519 C212 519 152 501 118 465 C92 438 75 405 74 359 L157 359 C157 384 166 404 182 420 C199 437 228 450 274 450 C315 450 340 440 357 424 C380 403 383 372 383 347 L383 310 L229 301 C91 293 49 208 49 143 C49 65 107 -13 223 -13 C294 -13 357 19 386 70 L388 70 C388 27 416 -7 461 -7 C482 -7 499 -4 517 5 L517 5 Z M383 214 C383 172 370 130 340 99 C313 71 275 58 236 58 C164 58 136 100 136 145 C136 209 196 233 247 236 L383 244 L383 214 Z M443 647 L406 689 C391 672 369 659 343 659 C320 659 301 670 281 681 C261 692 240 703 212 703 C166 703 136 678 110 649 L149 607 C167 625 184 635 211 635 C233 635 252 624 270 614 C290 603 312 593 342 593 C389 593 421 619 443 647 L443 647 Z " />
<glyph glyph-name="adieresis" unicode="&#xe4;" horiz-adv-x="559" d="M517 5 L517 68 C517 68 504 65 495 65 C478 65 467 72 467 99 L467 344 C467 373 462 399 452 422 C428 477 372 519 274 519 C212 519 152 501 118 465 C92 438 75 405 74 359 L157 359 C157 384 166 404 182 420 C199 437 228 450 274 450 C315 450 340 440 357 424 C380 403 383 372 383 347 L383 310 L229 301 C91 293 49 208 49 143 C49 65 107 -13 223 -13 C294 -13 357 19 386 70 L388 70 C388 27 416 -7 461 -7 C482 -7 499 -4 517 5 L517 5 Z M383 214 C383 172 370 130 340 99 C313 71 275 58 236 58 C164 58 136 100 136 145 C136 209 196 233 247 236 L383 244 L383 214 Z M413 602 L413 694 L321 694 L321 602 L413 602 Z M237 602 L237 694 L145 694 L145 602 L237 602 Z " />
<glyph glyph-name="aring" unicode="&#xe5;" horiz-adv-x="559" d="M517 5 L517 68 C517 68 504 65 495 65 C478 65 467 72 467 99 L467 344 C467 373 462 399 452 422 C428 477 372 519 274 519 C212 519 152 501 118 465 C92 438 75 405 74 359 L157 359 C157 384 166 404 182 420 C199 437 228 450 274 450 C315 450 340 440 357 424 C380 403 383 372 383 347 L383 310 L229 301 C91 293 49 208 49 143 C49 65 107 -13 223 -13 C294 -13 357 19 386 70 L388 70 C388 27 416 -7 461 -7 C482 -7 499 -4 517 5 L517 5 Z M383 214 C383 172 370 130 340 99 C313 71 275 58 236 58 C164 58 136 100 136 145 C136 209 196 233 247 236 L383 244 L383 214 Z M390 671 C390 726 349 778 280 778 C211 778 170 726 170 671 C170 616 211 564 280 564 C349 564 390 616 390 671 L390 671 Z M334 671 C334 641 313 616 280 616 C247 616 225 641 225 671 C225 701 247 727 280 727 C313 727 334 701 334 671 L334 671 Z " />
<glyph glyph-name="ae" unicode="&#xe6;" horiz-adv-x="847" d="M797 230 L797 256 C797 330 789 383 758 430 C722 485 673 519 587 519 C512 519 462 492 429 446 C394 498 326 521 267 521 C170 521 74 475 69 359 L152 359 C156 422 202 450 266 450 C329 450 373 420 373 352 L373 298 L211 296 C125 295 49 237 49 145 C49 100 66 65 92 38 C125 5 173 -14 231 -14 C320 -14 380 24 413 82 C444 18 512 -15 592 -15 C651 -15 687 -3 724 28 C762 60 782 98 789 148 L705 148 C691 85 640 56 591 56 C489 56 454 142 455 229 L797 230 Z M711 296 L457 296 C457 342 471 384 499 413 C520 435 548 450 586 450 C631 450 659 433 678 409 C701 381 710 343 711 296 L711 296 Z M376 234 C376 180 378 139 335 96 C309 70 269 59 230 59 C177 59 135 90 135 146 C135 201 179 233 231 233 L376 234 Z " />
<glyph glyph-name="ccedilla" unicode="&#xe7;" horiz-adv-x="532" d="M486 170 L400 170 C396 137 384 114 366 95 C346 74 315 61 280 61 C241 61 214 75 192 94 C152 128 141 191 141 253 C141 315 152 378 192 412 C214 431 241 445 280 445 C313 445 342 433 362 414 C381 395 394 370 398 335 L484 335 C480 390 458 432 424 465 C389 499 340 519 280 519 C189 519 132 477 96 424 C69 384 54 329 54 253 C54 177 69 122 96 82 C132 29 190 -13 281 -13 C343 -13 391 7 427 42 C461 75 482 116 486 170 L486 170 Z M337 -62 L262 -62 L185 -193 L271 -233 L337 -62 Z " />
<glyph glyph-name="egrave" unicode="&#xe8;" horiz-adv-x="551" d="M501 276 C502 344 478 409 437 454 C400 494 348 519 283 519 C195 519 128 474 92 413 C64 366 53 312 53 251 C53 179 74 112 116 63 C155 17 213 -13 284 -13 C332 -13 377 1 413 25 C454 53 484 100 491 150 L408 150 C401 123 392 109 378 95 C357 73 324 62 284 62 C245 62 214 75 191 98 C160 129 142 179 142 225 L500 225 L501 276 Z M414 298 L144 298 C146 372 191 447 283 447 C328 447 362 429 383 401 C403 374 414 336 414 298 L414 298 Z M363 556 L393 603 L223 726 L178 655 L363 556 Z " />
<glyph glyph-name="eacute" unicode="&#xe9;" horiz-adv-x="551" d="M501 276 C502 344 478 409 437 454 C400 494 348 519 283 519 C195 519 128 474 92 413 C64 366 53 312 53 251 C53 179 74 112 116 63 C155 17 213 -13 284 -13 C332 -13 377 1 413 25 C454 53 484 100 491 150 L408 150 C401 123 392 109 378 95 C357 73 324 62 284 62 C245 62 214 75 191 98 C160 129 142 179 142 225 L500 225 L501 276 Z M414 298 L144 298 C146 372 191 447 283 447 C328 447 362 429 383 401 C403 374 414 336 414 298 L414 298 Z M394 652 L349 723 L179 600 L209 553 L394 652 Z " />
<glyph glyph-name="ecircumflex" unicode="&#xea;" horiz-adv-x="551" d="M501 276 C502 344 478 409 437 454 C400 494 348 519 283 519 C195 519 128 474 92 413 C64 366 53 312 53 251 C53 179 74 112 116 63 C155 17 213 -13 284 -13 C332 -13 377 1 413 25 C454 53 484 100 491 150 L408 150 C401 123 392 109 378 95 C357 73 324 62 284 62 C245 62 214 75 191 98 C160 129 142 179 142 225 L500 225 L501 276 Z M414 298 L144 298 C146 372 191 447 283 447 C328 447 362 429 383 401 C403 374 414 336 414 298 L414 298 Z M436 597 L311 728 L256 728 L131 597 L176 552 L283 667 L391 552 L436 597 Z " />
<glyph glyph-name="edieresis" unicode="&#xeb;" horiz-adv-x="551" d="M501 276 C502 344 478 409 437 454 C400 494 348 519 283 519 C195 519 128 474 92 413 C64 366 53 312 53 251 C53 179 74 112 116 63 C155 17 213 -13 284 -13 C332 -13 377 1 413 25 C454 53 484 100 491 150 L408 150 C401 123 392 109 378 95 C357 73 324 62 284 62 C245 62 214 75 191 98 C160 129 142 179 142 225 L500 225 L501 276 Z M414 298 L144 298 C146 372 191 447 283 447 C328 447 362 429 383 401 C403 374 414 336 414 298 L414 298 Z M419 599 L419 691 L327 691 L327 599 L419 599 Z M243 599 L243 691 L151 691 L151 599 L243 599 Z " />
<glyph glyph-name="igrave" unicode="&#xec;" horiz-adv-x="273" d="M178 0 L178 506 L92 506 L92 0 L178 0 Z M193 550 L223 597 L53 720 L8 649 L193 550 Z " />
<glyph glyph-name="iacute" unicode="&#xed;" horiz-adv-x="273" d="M166 0 L166 506 L80 506 L80 0 L166 0 Z M251 650 L206 721 L36 598 L66 551 L251 650 Z " />
<glyph glyph-name="icircumflex" unicode="&#xee;" horiz-adv-x="273" d="M182 0 L182 506 L96 506 L96 0 L182 0 Z M290 597 L165 728 L110 728 L-15 597 L30 552 L137 667 L245 552 L290 597 Z " />
<glyph glyph-name="idieresis" unicode="&#xef;" horiz-adv-x="273" d="M179 0 L179 506 L93 506 L93 0 L179 0 Z M271 599 L271 691 L179 691 L179 599 L271 599 Z M95 599 L95 691 L3 691 L3 599 L95 599 Z " />
<glyph glyph-name="eth" unicode="&#xf0;" horiz-adv-x="551" d="M497 253 C497 327 482 385 446 446 L363 588 L426 588 L426 647 L328 647 L284 722 L195 722 L240 647 L155 647 L155 588 L275 588 L318 515 C318 515 290 519 275 519 C211 519 159 496 122 460 C67 406 54 333 54 253 C54 173 67 100 122 46 C159 10 211 -13 275 -13 C339 -13 392 10 429 46 C484 100 497 173 497 253 L497 253 Z M412 253 C412 194 402 133 366 96 C345 75 315 60 275 60 C235 60 206 75 185 96 C149 133 139 194 139 253 C139 312 149 373 185 410 C206 431 235 446 275 446 C315 446 345 431 366 410 C402 373 412 312 412 253 L412 253 Z " />
<glyph glyph-name="ntilde" unicode="&#xf1;" horiz-adv-x="585" d="M502 0 L502 333 C502 450 442 519 327 519 C270 519 200 488 174 430 L167 506 L93 506 L93 0 L178 0 L178 235 C178 274 179 327 196 364 C218 410 257 442 306 442 C386 442 417 397 417 321 L417 0 L502 0 Z M465 647 L428 689 C413 672 391 659 365 659 C342 659 323 670 303 681 C283 692 262 703 234 703 C188 703 158 678 132 649 L171 607 C189 625 206 635 233 635 C255 635 274 624 292 614 C312 603 334 593 364 593 C411 593 443 619 465 647 L465 647 Z " />
<glyph glyph-name="ograve" unicode="&#xf2;" horiz-adv-x="558" d="M504 253 C504 333 487 406 432 460 C395 496 343 519 279 519 C215 519 163 496 126 460 C71 406 54 333 54 253 C54 173 71 100 126 46 C163 10 215 -13 279 -13 C343 -13 395 10 432 46 C487 100 504 173 504 253 L504 253 Z M417 253 C417 194 406 133 370 96 C349 75 319 60 279 60 C239 60 209 75 188 96 C152 133 141 194 141 253 C141 312 152 373 188 410 C209 431 239 446 279 446 C319 446 349 431 370 410 C406 373 417 312 417 253 L417 253 Z M360 554 L390 601 L220 724 L175 653 L360 554 Z " />
<glyph glyph-name="oacute" unicode="&#xf3;" horiz-adv-x="558" d="M504 253 C504 333 487 406 432 460 C395 496 343 519 279 519 C215 519 163 496 126 460 C71 406 54 333 54 253 C54 173 71 100 126 46 C163 10 215 -13 279 -13 C343 -13 395 10 432 46 C487 100 504 173 504 253 L504 253 Z M417 253 C417 194 406 133 370 96 C349 75 319 60 279 60 C239 60 209 75 188 96 C152 133 141 194 141 253 C141 312 152 373 188 410 C209 431 239 446 279 446 C319 446 349 431 370 410 C406 373 417 312 417 253 L417 253 Z M389 653 L344 724 L174 601 L204 554 L389 653 Z " />
<glyph glyph-name="ocircumflex" unicode="&#xf4;" horiz-adv-x="558" d="M504 253 C504 333 487 406 432 460 C395 496 343 519 279 519 C215 519 163 496 126 460 C71 406 54 333 54 253 C54 173 71 100 126 46 C163 10 215 -13 279 -13 C343 -13 395 10 432 46 C487 100 504 173 504 253 L504 253 Z M417 253 C417 194 406 133 370 96 C349 75 319 60 279 60 C239 60 209 75 188 96 C152 133 141 194 141 253 C141 312 152 373 188 410 C209 431 239 446 279 446 C319 446 349 431 370 410 C406 373 417 312 417 253 L417 253 Z M433 600 L308 731 L253 731 L128 600 L173 555 L280 670 L388 555 L433 600 Z " />
<glyph glyph-name="otilde" unicode="&#xf5;" horiz-adv-x="558" d="M504 253 C504 333 487 406 432 460 C395 496 343 519 279 519 C215 519 163 496 126 460 C71 406 54 333 54 253 C54 173 71 100 126 46 C163 10 215 -13 279 -13 C343 -13 395 10 432 46 C487 100 504 173 504 253 L504 253 Z M417 253 C417 194 406 133 370 96 C349 75 319 60 279 60 C239 60 209 75 188 96 C152 133 141 194 141 253 C141 312 152 373 188 410 C209 431 239 446 279 446 C319 446 349 431 370 410 C406 373 417 312 417 253 L417 253 Z M447 653 L410 695 C395 678 373 665 347 665 C324 665 305 676 285 687 C265 698 244 709 216 709 C170 709 140 684 114 655 L153 613 C171 631 188 641 215 641 C237 641 256 630 274 620 C294 609 316 599 346 599 C393 599 425 625 447 653 L447 653 Z " />
<glyph glyph-name="odieresis" unicode="&#xf6;" horiz-adv-x="558" d="M504 253 C504 333 487 406 432 460 C395 496 343 519 279 519 C215 519 163 496 126 460 C71 406 54 333 54 253 C54 173 71 100 126 46 C163 10 215 -13 279 -13 C343 -13 395 10 432 46 C487 100 504 173 504 253 L504 253 Z M417 253 C417 194 406 133 370 96 C349 75 319 60 279 60 C239 60 209 75 188 96 C152 133 141 194 141 253 C141 312 152 373 188 410 C209 431 239 446 279 446 C319 446 349 431 370 410 C406 373 417 312 417 253 L417 253 Z M422 599 L422 691 L330 691 L330 599 L422 599 Z M246 599 L246 691 L154 691 L154 599 L246 599 Z " />
<glyph glyph-name="divide" unicode="&#xf7;" horiz-adv-x="652" d="M381 442 L381 560 L267 560 L267 442 L381 442 Z M577 261 L577 339 L75 339 L75 261 L577 261 Z M381 48 L381 166 L267 166 L267 48 L381 48 Z " />
<glyph glyph-name="oslash" unicode="&#xf8;" horiz-adv-x="558" d="M504 253 C504 333 487 406 432 460 C425 467 418 473 411 478 L448 561 L394 585 L358 506 C334 514 308 519 279 519 C215 519 163 496 126 460 C71 406 54 333 54 253 C54 173 71 100 126 46 C131 41 137 36 143 31 L105 -52 L159 -77 L195 2 C220 -8 248 -13 279 -13 C343 -13 395 10 432 46 C487 100 504 173 504 253 L504 253 Z M417 253 C417 194 406 133 370 96 C349 75 319 60 279 60 C259 60 241 64 226 70 L376 403 C408 365 417 309 417 253 L417 253 Z M327 438 L178 108 C150 146 141 200 141 253 C141 312 152 373 188 410 C209 431 239 446 279 446 C297 446 313 443 327 438 L327 438 Z " />
<glyph glyph-name="ugrave" unicode="&#xf9;" horiz-adv-x="582" d="M489 0 L489 506 L404 506 L404 243 C404 191 394 136 362 103 C340 80 312 65 278 65 C198 65 170 110 170 186 L170 506 L85 506 L85 174 C85 57 143 -12 258 -12 C317 -12 382 19 408 77 L415 0 L489 0 Z M352 553 L382 600 L212 723 L167 652 L352 553 Z " />
<glyph glyph-name="uacute" unicode="&#xfa;" horiz-adv-x="582" d="M489 0 L489 506 L404 506 L404 243 C404 191 394 136 362 103 C340 80 312 65 278 65 C198 65 170 110 170 186 L170 506 L85 506 L85 174 C85 57 143 -12 258 -12 C317 -12 382 19 408 77 L415 0 L489 0 Z M402 652 L357 723 L187 600 L217 553 L402 652 Z " />
<glyph glyph-name="ucircumflex" unicode="&#xfb;" horiz-adv-x="582" d="M489 0 L489 506 L404 506 L404 243 C404 191 394 136 362 103 C340 80 312 65 278 65 C198 65 170 110 170 186 L170 506 L85 506 L85 174 C85 57 143 -12 258 -12 C317 -12 382 19 408 77 L415 0 L489 0 Z M441 605 L316 736 L261 736 L136 605 L181 560 L288 675 L396 560 L441 605 Z " />
<glyph glyph-name="udieresis" unicode="&#xfc;" horiz-adv-x="582" d="M489 0 L489 506 L404 506 L404 243 C404 191 394 136 362 103 C340 80 312 65 278 65 C198 65 170 110 170 186 L170 506 L85 506 L85 174 C85 57 143 -12 258 -12 C317 -12 382 19 408 77 L415 0 L489 0 Z M423 599 L423 691 L331 691 L331 599 L423 599 Z M247 599 L247 691 L155 691 L155 599 L247 599 Z " />
<glyph glyph-name="yacute" unicode="&#xfd;" horiz-adv-x="498" d="M381 654 L334 726 L162 597 L194 550 L381 654 Z M488 506 L399 506 L257 107 L108 506 L12 506 L214 0 L182 -85 C168 -123 142 -136 106 -136 C73 -136 46 -128 46 -128 L46 -202 C53 -204 81 -212 123 -212 C199 -212 236 -169 260 -104 L488 506 Z " />
<glyph glyph-name="thorn" unicode="&#xfe;" horiz-adv-x="590" d="M536 252 C536 339 510 419 459 468 C426 499 382 519 323 519 C268 519 205 493 178 447 L178 722 L93 722 L93 -201 L178 -201 L178 58 C205 12 268 -14 323 -14 C382 -14 426 6 459 37 C510 86 536 165 536 252 L536 252 Z M450 252 C450 159 422 58 309 58 C272 58 249 73 229 91 C187 128 173 189 173 252 C173 315 187 377 229 414 C249 432 272 447 309 447 C422 447 450 345 450 252 L450 252 Z " />
<glyph glyph-name="ydieresis" unicode="&#xff;" horiz-adv-x="498" d="M488 506 L399 506 L257 107 L108 506 L12 506 L214 0 L182 -85 C168 -123 142 -136 106 -136 C73 -136 46 -128 46 -128 L46 -202 C53 -204 81 -212 123 -212 C199 -212 236 -169 260 -104 L488 506 Z M385 599 L385 691 L293 691 L293 599 L385 599 Z M209 599 L209 691 L117 691 L117 599 L209 599 Z " />
<glyph glyph-name="dotlessi" unicode="&#x131;" horiz-adv-x="273" d="M180 0 L180 506 L94 506 L94 0 L180 0 Z " />
<glyph glyph-name="Lslash" unicode="&#x141;" horiz-adv-x="565" d="M551 0 L551 83 L210 83 L210 351 L370 450 L337 503 L210 424 L210 709 L121 709 L121 369 L23 308 L56 256 L121 296 L121 0 L551 0 Z " />
<glyph glyph-name="lslash" unicode="&#x142;" horiz-adv-x="333" d="M308 466 L275 519 L195 469 L195 722 L110 722 L110 416 L20 360 L53 308 L110 343 L110 118 C110 38 142 -6 216 -6 C257 -6 276 0 276 0 L276 72 C276 72 269 71 241 71 C206 71 195 89 195 123 L195 396 L308 466 Z " />
<glyph glyph-name="OE" unicode="&#x152;" horiz-adv-x="983" d="M932 0 L932 83 L594 83 L594 336 L883 336 L883 420 L594 420 L594 626 L932 626 L932 709 L512 709 L512 642 C475 689 410 723 325 723 C238 723 185 695 136 645 C64 571 53 468 53 355 C53 242 64 138 136 64 C185 14 238 -13 325 -13 C410 -13 473 16 512 65 L512 0 L932 0 Z M507 355 C507 264 501 167 446 112 C419 85 381 67 325 67 C265 67 226 88 199 119 C150 175 143 268 143 355 C143 446 151 543 208 598 C235 623 272 642 325 642 C386 642 426 620 453 589 C501 533 507 441 507 355 L507 355 Z " />
<glyph glyph-name="oe" unicode="&#x153;" horiz-adv-x="889" d="M839 229 L839 256 C839 329 830 380 799 427 C763 482 710 519 624 519 C546 519 484 485 452 433 L447 425 C439 438 432 448 423 457 C387 494 336 519 272 519 C208 519 157 495 121 458 C67 403 54 331 54 251 C54 171 68 100 122 45 C158 8 208 -16 272 -16 C336 -16 387 7 423 44 C432 53 440 65 449 79 C485 18 550 -15 628 -15 C687 -15 728 -1 765 30 C803 62 824 98 831 148 L746 148 C733 85 676 57 627 57 C568 57 530 86 510 125 C493 158 490 195 490 229 L839 229 Z M752 296 L491 296 C492 379 538 449 623 449 C666 449 696 431 716 408 C740 380 751 342 752 296 L752 296 Z M407 251 C407 194 398 138 369 100 C349 74 320 55 272 55 C231 55 204 70 184 92 C149 130 139 191 139 251 C139 314 149 380 190 417 C210 435 235 448 272 448 C313 448 340 433 360 413 C397 375 407 313 407 251 L407 251 Z " />
<glyph glyph-name="Scaron" unicode="&#x160;" horiz-adv-x="635" d="M473 890 L428 935 L321 820 L213 935 L168 890 L293 759 L348 759 L473 890 Z M585 195 C585 307 506 379 388 396 C349 402 310 409 270 414 C217 421 164 450 164 514 C164 546 175 570 193 591 C224 626 268 640 319 640 C374 640 417 622 444 591 C464 568 477 537 479 502 L572 502 C570 562 547 613 504 654 C457 699 389 722 320 722 C246 722 183 698 134 652 C96 616 72 565 72 512 C72 399 155 340 261 324 C299 318 334 313 373 307 C457 294 492 248 492 193 C492 155 478 130 456 110 C424 80 378 69 324 69 C274 69 220 82 188 113 C159 141 138 183 138 225 L45 225 C45 158 76 97 121 55 C169 11 238 -13 324 -13 C400 -13 476 10 525 58 C560 92 585 136 585 195 L585 195 Z " />
<glyph glyph-name="scaron" unicode="&#x161;" horiz-adv-x="521" d="M401 671 L361 711 L265 608 L167 711 L127 671 L239 553 L289 553 L401 671 Z M468 147 C468 223 411 275 339 287 C285 296 245 300 217 304 C175 310 149 328 149 370 C149 398 168 425 200 438 C224 448 239 448 259 448 C293 448 321 440 342 421 C357 408 370 384 371 358 L456 358 C456 399 442 428 420 455 C386 498 326 519 259 519 C196 519 143 497 110 463 C87 440 68 403 68 364 C68 287 116 240 192 228 C227 223 284 216 306 213 C358 206 385 179 385 141 C385 118 374 97 360 86 C334 64 302 58 267 58 C235 58 199 64 176 81 C152 99 136 125 135 160 L50 160 C50 117 68 74 99 44 C142 2 200 -13 263 -13 C329 -13 389 4 428 44 C452 69 468 103 468 147 L468 147 Z " />
<glyph glyph-name="Ydieresis" unicode="&#x178;" horiz-adv-x="566" d="M566 709 L471 709 L286 372 L100 709 L0 709 L238 288 L238 0 L328 0 L328 288 L566 709 Z M419 778 L419 870 L327 870 L327 778 L419 778 Z M243 778 L243 870 L151 870 L151 778 L243 778 Z " />
<glyph glyph-name="Zcaron" unicode="&#x17d;" horiz-adv-x="612" d="M566 0 L566 83 L148 83 L562 619 L562 709 L47 709 L47 626 L456 626 L43 89 L43 0 L566 0 Z M151 885 L276 754 L331 754 L456 885 L411 930 L304 815 L196 930 L151 885 Z " />
<glyph glyph-name="zcaron" unicode="&#x17e;" horiz-adv-x="501" d="M453 0 L453 74 L157 74 L450 431 L450 506 L53 506 L53 432 L347 432 L53 75 L53 0 L453 0 Z M116 670 L228 552 L278 552 L390 670 L350 710 L254 607 L156 710 L116 670 Z " />
<glyph glyph-name="florin" unicode="&#x192;" horiz-adv-x="527" d="M479 635 L479 710 C461 714 442 718 404 718 C335 718 273 666 256 580 L228 437 L111 437 L111 362 L213 362 L151 51 C137 -20 99 -38 66 -38 C33 -38 15 -33 8 -32 L8 -107 C26 -111 45 -115 83 -115 C152 -115 214 -63 231 23 L298 362 L454 362 L454 437 L313 437 L336 552 C350 623 388 641 421 641 C454 641 472 636 479 635 L479 635 Z " />
<glyph glyph-name="circumflex" unicode="&#x2c6;" horiz-adv-x="355" d="M330 597 L205 728 L150 728 L25 597 L70 552 L177 667 L285 552 L330 597 Z " />
<glyph glyph-name="caron" unicode="&#x2c7;" horiz-adv-x="368" d="M32 885 L157 754 L212 754 L337 885 L292 930 L185 815 L77 930 L32 885 Z " />
<glyph glyph-name="breve" unicode="&#x2d8;" horiz-adv-x="352" d="M338 720 L270 720 C263 664 233 628 174 628 C115 628 84 664 77 720 L9 720 C16 633 69 564 174 564 C279 564 331 633 338 720 L338 720 Z " />
<glyph glyph-name="dotaccent" unicode="&#x2d9;" horiz-adv-x="275" d="M187 622 L187 722 L88 722 L88 622 L187 622 Z " />
<glyph glyph-name="ring" unicode="&#x2da;" horiz-adv-x="220" d="M220 670 C220 725 179 777 110 777 C41 777 0 725 0 670 C0 615 41 563 110 563 C179 563 220 615 220 670 L220 670 Z M164 670 C164 640 143 615 110 615 C77 615 55 640 55 670 C55 700 77 726 110 726 C143 726 164 700 164 670 L164 670 Z " />
<glyph glyph-name="ogonek" unicode="&#x2db;" horiz-adv-x="174" d="M165 -193 L87 -58 L9 -58 L78 -234 L165 -193 Z " />
<glyph glyph-name="tilde" unicode="&#x2dc;" horiz-adv-x="360" d="M346 647 L309 689 C294 672 272 659 246 659 C223 659 204 670 184 681 C164 692 143 703 115 703 C69 703 39 678 13 649 L52 607 C70 625 87 635 114 635 C136 635 155 624 173 614 C193 603 215 593 245 593 C292 593 324 619 346 647 L346 647 Z " />
<glyph glyph-name="hungarumlaut" unicode="&#x2dd;" horiz-adv-x="459" d="M450 657 L403 729 L231 600 L263 553 L450 657 Z M237 657 L190 729 L18 600 L50 553 L237 657 Z " />
<glyph glyph-name="pi" unicode="&#x3c0;" horiz-adv-x="640" d="M570 4 L570 71 C565 69 553 66 525 66 C488 66 479 92 479 128 L479 438 L556 438 L556 506 L65 506 L65 438 L143 438 L143 -1 L227 -1 L227 438 L391 438 L394 438 L394 118 C394 55 422 -7 503 -7 C544 -7 565 2 570 4 L570 4 Z " />
<glyph glyph-name="endash" unicode="&#x2013;" horiz-adv-x="655" d="M585 262 L585 341 L70 341 L70 262 L585 262 Z " />
<glyph glyph-name="emdash" unicode="&#x2014;" horiz-adv-x="1125" d="M1055 262 L1055 341 L70 341 L70 262 L1055 262 Z " />
<glyph glyph-name="quoteleft" unicode="&#x2018;" horiz-adv-x="274" d="M199 672 L173 719 C100 688 75 636 75 562 L75 445 L197 445 L197 562 L135 562 C135 619 147 649 199 672 L199 672 Z " />
<glyph glyph-name="quoteright" unicode="&#x2019;" horiz-adv-x="264" d="M194 588 L194 705 L72 705 L72 588 L134 588 C134 531 122 501 70 478 L96 431 C169 462 194 514 194 588 L194 588 Z " />
<glyph glyph-name="quotesinglbase" unicode="&#x201a;" horiz-adv-x="279" d="M204 -2 L204 115 L82 115 L82 -2 L144 -2 C144 -59 132 -89 80 -112 L106 -159 C179 -128 204 -76 204 -2 L204 -2 Z " />
<glyph glyph-name="quotedblleft" unicode="&#x201c;" horiz-adv-x="472" d="M402 672 L376 719 C303 688 278 636 278 562 L278 445 L400 445 L400 562 L338 562 C338 619 350 649 402 672 L402 672 Z M204 672 L178 719 C105 688 80 636 80 562 L80 445 L202 445 L202 562 L140 562 C140 619 152 649 204 672 L204 672 Z " />
<glyph glyph-name="quotedblright" unicode="&#x201d;" horiz-adv-x="462" d="M397 586 L397 703 L275 703 L275 586 L337 586 C337 529 325 499 273 476 L299 429 C372 460 397 512 397 586 L397 586 Z M199 586 L199 703 L77 703 L77 586 L139 586 C139 529 127 499 75 476 L101 429 C174 460 199 512 199 586 L199 586 Z " />
<glyph glyph-name="quotedblbase" unicode="&#x201e;" horiz-adv-x="492" d="M407 -1 L407 116 L285 116 L285 -1 L347 -1 C347 -58 335 -88 283 -111 L309 -158 C382 -127 407 -75 407 -1 L407 -1 Z M209 -1 L209 116 L87 116 L87 -1 L149 -1 C149 -58 137 -88 85 -111 L111 -158 C184 -127 209 -75 209 -1 L209 -1 Z " />
<glyph glyph-name="dagger" unicode="&#x2020;" horiz-adv-x="566" d="M511 433 L511 506 L325 506 L325 709 L242 709 L242 506 L55 506 L55 433 L242 433 L242 -125 L325 -125 L325 433 L511 433 Z " />
<glyph glyph-name="daggerdbl" unicode="&#x2021;" horiz-adv-x="566" d="M511 78 L511 151 L324 151 L324 433 L511 433 L511 506 L324 506 L324 709 L323 709 L243 709 L242 709 L242 506 L55 506 L55 433 L242 433 L242 151 L55 151 L55 78 L242 78 L242 -125 L243 -125 L323 -125 L324 -125 L324 78 L511 78 Z " />
<glyph glyph-name="bullet" unicode="&#x2022;" horiz-adv-x="435" d="M345 292 C345 364 289 423 218 423 C147 423 90 364 90 292 C90 220 147 161 218 161 C289 161 345 220 345 292 L345 292 Z " />
<glyph glyph-name="ellipsis" unicode="&#x2026;" horiz-adv-x="805" d="M728 0 L728 115 L613 115 L613 0 L728 0 Z M459 0 L459 115 L345 115 L345 0 L459 0 Z M191 0 L191 115 L77 115 L77 0 L191 0 Z " />
<glyph glyph-name="perthousand" unicode="&#x2030;" horiz-adv-x="1175" d="M1125 168 C1125 211 1118 252 1096 284 C1071 321 1030 351 970 351 C910 351 870 321 845 284 C823 252 816 211 816 168 C816 125 823 85 845 53 C870 16 910 -13 970 -13 C1030 -13 1071 16 1096 53 C1118 85 1125 125 1125 168 L1125 168 Z M765 168 C765 211 758 252 736 284 C711 321 671 351 611 351 C551 351 510 321 485 284 C463 252 456 211 456 168 C456 125 463 85 485 53 C510 16 551 -13 611 -13 C671 -13 711 16 736 53 C758 85 765 125 765 168 L765 168 Z M705 685 L650 724 L135 20 L189 -21 L705 685 Z M370 540 C370 583 362 624 340 656 C315 693 275 722 215 722 C155 722 114 693 89 656 C67 624 60 583 60 540 C60 497 67 457 89 425 C114 388 155 359 215 359 C275 359 315 388 340 425 C362 457 370 497 370 540 L370 540 Z M1052 168 C1052 129 1046 95 1025 73 C1013 60 996 50 970 50 C944 50 927 60 915 73 C894 95 888 129 888 168 C888 207 894 242 915 264 C927 277 944 287 970 287 C996 287 1013 277 1025 264 C1046 242 1052 207 1052 168 L1052 168 Z M692 168 C692 129 686 95 665 73 C653 60 637 50 611 50 C585 50 568 60 556 73 C535 95 528 129 528 168 C528 207 535 242 556 264 C568 277 585 287 611 287 C637 287 653 277 665 264 C686 242 692 207 692 168 L692 168 Z M297 540 C297 501 290 467 269 445 C257 432 241 422 215 422 C189 422 172 432 160 445 C139 467 132 501 132 540 C132 579 139 614 160 636 C172 649 189 659 215 659 C241 659 257 649 269 636 C290 614 297 579 297 540 L297 540 Z " />
<glyph glyph-name="guilsinglleft" unicode="&#x2039;" horiz-adv-x="318" d="M263 108 L151 299 L262 490 L209 528 L45 298 L209 68 L263 108 Z " />
<glyph glyph-name="guilsinglright" unicode="&#x203a;" horiz-adv-x="318" d="M273 298 L109 528 L56 490 L167 299 L55 108 L109 68 L273 298 Z " />
<glyph glyph-name="fraction" unicode="&#x2044;" horiz-adv-x="588" d="M579 685 L524 724 L9 20 L63 -21 L579 685 Z " />
<glyph glyph-name="Euro" unicode="&#x20ac;" horiz-adv-x="586" d="M571 45 L538 117 C501 88 454 67 389 67 C335 67 287 87 250 128 C219 162 204 204 198 247 L396 247 L423 308 L193 308 C192 321 192 334 192 347 C192 360 192 374 193 387 L451 387 L478 448 L198 448 C205 492 219 534 250 568 C287 609 335 629 389 629 C454 629 501 608 538 579 L571 651 C528 684 473 709 389 709 C308 709 244 680 193 628 C142 576 118 514 109 448 L30 448 L30 387 L104 387 C103 374 103 361 103 348 C103 335 103 321 104 308 L30 308 L30 247 L109 247 C118 182 142 120 193 68 C244 16 308 -13 389 -13 C473 -13 528 12 571 45 L571 45 Z " />
<glyph glyph-name="trademark" unicode="&#x2122;" horiz-adv-x="837" d="M762 318 L762 709 L658 709 L565 427 L472 709 L365 709 L365 318 L433 318 L433 637 L539 328 L588 328 L694 638 L694 318 L762 318 Z M310 647 L310 709 L20 709 L20 647 L131 647 L131 318 L199 318 L199 647 L310 647 Z " />
<glyph glyph-name="Omega" unicode="&#x2126;" horiz-adv-x="858" d="M790 355 C790 560 636 722 429 722 C222 722 68 559 68 354 C68 149 222 -13 429 -13 C636 -13 790 150 790 355 L790 355 Z M723 355 C723 180 606 51 429 51 C252 51 135 179 135 354 C135 529 252 658 429 658 C606 658 723 530 723 355 L723 355 Z M593 421 C593 499 530 544 457 544 L316 544 L316 161 L383 161 L383 296 L457 296 C530 296 593 343 593 421 L593 421 Z M523 421 C523 379 497 358 457 358 L382 358 L382 482 L457 482 C493 482 523 460 523 421 L523 421 Z " />
<glyph glyph-name="partialdiff" unicode="&#x2202;" horiz-adv-x="560" d="M501 0 L501 78 L353 78 L353 695 L272 695 L102 572 L102 477 L267 598 L267 78 L119 78 L119 0 L501 0 Z " />
<glyph glyph-name="Delta" unicode="&#x2206;" horiz-adv-x="663" d="M598 260 L598 709 L146 709 L146 642 L477 642 L50 215 L101 164 L528 591 L528 260 L598 260 Z " />
<glyph glyph-name="product" unicode="&#x220f;" horiz-adv-x="812" d="M747 867 C747 878 738 887 727 887 C716 887 706 878 706 867 C706 856 716 846 727 846 C738 846 747 856 747 867 L747 867 Z M746 615 C746 626 737 636 726 636 C715 636 705 626 705 615 C705 604 712 594 724 594 C735 594 746 603 746 615 L746 615 Z M492 867 C492 878 482 887 471 887 C460 887 450 878 450 867 C450 856 460 846 471 846 C482 846 492 856 492 867 L492 867 Z M620 737 C620 748 611 758 600 758 C589 758 579 748 579 737 C579 726 589 717 600 717 C611 717 620 726 620 737 L620 737 Z M744 365 C744 376 734 385 723 385 C712 385 702 376 702 365 C702 354 712 344 723 344 C734 344 744 354 744 365 L744 365 Z M491 615 C491 626 481 636 470 636 C459 636 449 626 449 615 C449 604 459 594 470 594 C481 594 491 604 491 615 L491 615 Z M619 486 C619 497 609 507 598 507 C587 507 578 497 578 486 C578 475 587 465 598 465 C609 465 619 475 619 486 L619 486 Z M237 867 C237 878 227 887 216 887 C205 887 196 878 196 867 C196 856 205 846 216 846 C227 846 237 856 237 867 L237 867 Z M365 737 C365 748 355 758 344 758 C333 758 323 748 323 737 C323 726 333 717 344 717 C355 717 365 726 365 737 L365 737 Z M745 113 C745 124 735 134 724 134 C713 134 703 124 703 113 C703 102 713 92 724 92 C735 92 745 102 745 113 L745 113 Z M488 365 C488 376 478 385 467 385 C456 385 446 376 446 365 C446 354 456 344 467 344 C478 344 488 354 488 365 L488 365 Z M616 236 C616 247 607 256 596 256 C585 256 575 247 575 236 C575 225 585 215 596 215 C607 215 616 225 616 236 L616 236 Z M236 615 C236 626 226 636 215 636 C204 636 194 626 194 615 C194 604 204 594 215 594 C226 594 236 604 236 615 L236 615 Z M363 486 C363 497 354 507 343 507 C332 507 322 497 322 486 C322 475 332 465 343 465 C354 465 363 475 363 486 L363 486 Z M110 737 C110 748 100 758 89 758 C78 758 68 748 68 737 C68 726 78 717 89 717 C100 717 110 726 110 737 L110 737 Z M745 -139 C745 -128 735 -118 724 -118 C713 -118 703 -128 703 -139 C703 -150 713 -160 724 -160 C735 -160 745 -150 745 -139 L745 -139 Z M489 113 C489 124 479 134 468 134 C457 134 447 124 447 113 C447 102 457 92 468 92 C479 92 489 102 489 113 L489 113 Z M617 -16 C617 -5 608 5 597 5 C586 5 576 -5 576 -16 C576 -27 586 -37 597 -37 C608 -37 617 -27 617 -16 L617 -16 Z M233 365 C233 376 223 385 212 385 C201 385 192 376 192 365 C192 354 201 344 212 344 C223 344 233 354 233 365 L233 365 Z M361 236 C361 247 351 256 340 256 C329 256 319 247 319 236 C319 225 329 215 340 215 C351 215 361 225 361 236 L361 236 Z M109 486 C109 497 99 507 88 507 C77 507 67 497 67 486 C67 475 77 465 88 465 C99 465 109 475 109 486 L109 486 Z M489 -139 C489 -128 479 -118 468 -118 C457 -118 447 -128 447 -139 C447 -150 457 -160 468 -160 C479 -160 489 -150 489 -139 L489 -139 Z M617 -268 C617 -257 608 -248 597 -248 C586 -248 576 -257 576 -268 C576 -279 586 -289 597 -289 C608 -289 617 -279 617 -268 L617 -268 Z M234 113 C234 124 225 134 214 134 C203 134 193 124 193 113 C193 102 203 92 214 92 C225 92 234 102 234 113 L234 113 Z M362 -16 C362 -5 352 5 341 5 C330 5 320 -5 320 -16 C320 -27 330 -37 341 -37 C352 -37 362 -27 362 -16 L362 -16 Z M106 236 C106 247 96 256 85 256 C74 256 65 247 65 236 C65 225 74 215 85 215 C96 215 106 225 106 236 L106 236 Z M234 -139 C234 -128 224 -118 213 -118 C202 -118 193 -128 193 -139 C193 -150 202 -160 213 -160 C224 -160 234 -150 234 -139 L234 -139 Z M362 -268 C362 -257 352 -248 341 -248 C330 -248 320 -257 320 -268 C320 -279 330 -289 341 -289 C352 -289 362 -279 362 -268 L362 -268 Z M107 -16 C107 -5 97 5 86 5 C75 5 66 -5 66 -16 C66 -27 75 -37 86 -37 C97 -37 107 -27 107 -16 L107 -16 Z M107 -268 C107 -257 97 -248 86 -248 C75 -248 65 -257 65 -268 C65 -279 75 -289 86 -289 C97 -289 107 -279 107 -268 L107 -268 Z " />
<glyph glyph-name="summation" unicode="&#x2211;" horiz-adv-x="928" d="M852 -73 L852 148 L806 148 L806 -27 L123 -27 L123 148 L76 148 L76 -73 L852 -73 Z " />
<glyph glyph-name="minus" unicode="&#x2212;" horiz-adv-x="645" d="M585 262 L585 341 L70 341 L70 262 L585 262 Z " />
<glyph glyph-name="radical" unicode="&#x221a;" horiz-adv-x="690" d="M690 766 L690 832 L513 832 L283 119 L156 504 L65 504 L244 -8 L321 -8 L580 766 L690 766 Z " />
<glyph glyph-name="infinity" unicode="&#x221e;" horiz-adv-x="721" d="M653 328 L653 403 L542 403 L542 518 L457 518 L457 403 L325 403 C247 403 199 447 199 520 C199 551 211 579 233 600 C254 619 283 631 324 631 C357 631 381 629 404 624 L404 701 C380 707 348 710 318 710 C250 710 200 689 164 656 C126 621 107 580 107 518 C107 448 152 390 212 364 C145 336 95 272 95 200 C95 144 115 95 152 59 C190 22 245 0 321 0 L652 0 L652 76 L542 76 L542 328 L653 328 Z M457 76 L323 76 C280 76 238 90 212 119 C195 138 184 165 184 197 C184 273 247 328 331 328 L457 328 L457 279 L457 76 Z " />
<glyph glyph-name="integral" unicode="&#x222b;" horiz-adv-x="663" d="M613 215 L186 642 L516 642 L516 709 L65 709 L65 260 L135 260 L135 591 L562 164 L613 215 Z " />
<glyph glyph-name="approxequal" unicode="&#x2248;" horiz-adv-x="655" d="M580 374 L526 430 C480 385 454 383 427 383 C414 383 401 385 388 390 C362 399 336 411 310 421 C284 431 257 439 228 439 C178 439 140 425 75 361 L128 306 C174 351 200 354 227 354 C256 354 287 341 312 330 C352 312 388 296 427 296 C477 296 515 310 580 374 L580 374 Z M580 184 L526 239 C480 194 454 192 427 192 C414 192 401 195 388 200 C362 209 336 221 310 231 C284 241 257 248 228 248 C178 248 140 234 75 170 L128 116 C174 161 200 164 227 164 C256 164 287 150 312 139 C352 121 388 106 427 106 C477 106 515 120 580 184 L580 184 Z " />
<glyph glyph-name="notequal" unicode="&#x2260;" horiz-adv-x="692" d="M587 134 L587 211 L321 211 L415 344 L587 344 L587 421 L468 421 L523 499 L473 534 L394 421 L105 421 L105 344 L340 344 L247 211 L105 211 L105 134 L193 134 L135 51 L185 16 L268 134 L587 134 Z " />
<glyph glyph-name="lessequal" unicode="&#x2264;" horiz-adv-x="857" d="M792 269 L792 341 L188 341 L423 573 L375 623 L55 305 L375 -13 L423 37 L188 269 L792 269 Z " />
<glyph glyph-name="greaterequal" unicode="&#x2265;" horiz-adv-x="857" d="M802 305 L483 623 L435 573 L669 341 L65 341 L65 269 L669 269 L435 37 L483 -13 L802 305 Z " />
<glyph glyph-name="lozenge" unicode="&#x25ca;" horiz-adv-x="560" d="M512 348 C512 482 500 580 430 651 C396 685 349 709 280 709 C211 709 164 685 130 651 C60 580 48 482 48 348 C48 214 60 117 130 46 C164 12 211 -13 280 -13 C349 -13 396 12 430 46 C500 117 512 214 512 348 L512 348 Z M400 550 L140 230 C136 268 137 309 137 348 C137 442 135 543 194 599 C214 618 243 631 280 631 C317 631 346 618 366 599 C381 585 392 569 400 550 L400 550 Z M423 348 C423 254 425 153 366 97 C346 78 317 65 280 65 C243 65 214 78 194 97 C181 109 171 124 163 140 L420 459 C423 423 423 385 423 348 L423 348 Z " />
<glyph glyph-name="fi" unicode="&#xfb01;" horiz-adv-x="638" d="M361 652 L361 723 C333 728 302 732 267 732 C179 732 120 672 120 596 L120 506 L28 506 L28 434 L120 434 L120 0 L205 0 L205 434 L351 434 L351 506 L205 506 L205 591 C205 632 232 660 277 660 C313 660 334 655 361 652 L361 652 Z M551 622 L551 722 L452 722 L452 622 L551 622 Z M545 0 L545 506 L458 506 L458 0 L545 0 Z " />
<glyph glyph-name="fl" unicode="&#xfb02;" horiz-adv-x="662" d="M361 652 L361 723 C333 728 302 732 267 732 C179 732 120 672 120 596 L120 506 L28 506 L28 434 L120 434 L120 0 L205 0 L205 434 L351 434 L351 506 L205 506 L205 591 C205 632 232 660 277 660 C313 660 334 655 361 652 L361 652 Z M627 0 L627 72 C627 72 620 71 592 71 C557 71 546 89 546 123 L546 722 L461 722 L461 118 C461 38 493 -6 567 -6 C608 -6 627 0 627 0 L627 0 Z " />
</font>
</svg>
